<?xml version="1.0" encoding="utf-8"?>
<!-- Generator: Adobe Illustrator 27.3.1, SVG Export Plug-In . SVG Version: 6.00 Build 0)  -->
<svg version="1.1" id="Layer_1" xmlns="http://www.w3.org/2000/svg" xmlns:xlink="http://www.w3.org/1999/xlink" x="0px" y="0px"
	 viewBox="0 0 57.3 57.1" style="enable-background:new 0 0 57.3 57.1;" xml:space="preserve">
<style type="text/css">
	.st0{fill:#23B9AA;}
	.st1{fill:#2894AC;}
</style>
<g>
	<path class="st0" d="M31.6,43.5v12.9c12.3-1.3,22.2-10.5,24.6-22.5h-15C35.9,33.9,31.6,38.2,31.6,43.5"/>
	<path class="st0" d="M0.6,27.6h15.1c5.3,0,9.6-4.3,9.6-9.6V2.4c0-0.6-0.1-1.2-0.2-1.7C11.6,2.4,1.1,13.7,0.6,27.6"/>
	<path class="st1" d="M41.2,27.5h15.5C56.2,13.5,45.4,2,31.6,0.6c0.1,0.6,0.1,1.2,0.1,1.8V18c0,8.8-7.2,16-16,16H1.1
		c2.3,11.8,12,20.9,24.1,22.4V43.5C25.2,34.7,32.4,27.5,41.2,27.5"/>
</g>
</svg>
