<?xml version="1.0" encoding="utf-8"?>
<!-- Generator: Adobe Illustrator 27.3.1, SVG Export Plug-In . SVG Version: 6.00 Build 0)  -->
<svg version="1.1" xmlns="http://www.w3.org/2000/svg" xmlns:xlink="http://www.w3.org/1999/xlink" x="0px" y="0px"
	 viewBox="0 0 184.1 137.7" style="enable-background:new 0 0 184.1 137.7;" xml:space="preserve">
<style type="text/css">
	.st0{display:none;}
	.st1{display:inline;fill:#FFFFFF;}
	.st2{opacity:3.000000e-02;clip-path:url(#XMLID_00000111879496042147466010000009233667241502006176_);}
	
		.st3{opacity:2.000000e-02;clip-path:url(#XMLID_00000111879496042147466010000009233667241502006176_);fill:none;stroke:#000000;stroke-width:0.6461;stroke-miterlimit:10;}
	.st4{opacity:3.000000e-02;clip-path:url(#XMLID_00000080178860741390091130000001562364186085280384_);}
	.st5{opacity:3.000000e-02;clip-path:url(#XMLID_00000039813438962368909000000007892760219859970214_);}
	
		.st6{opacity:2.000000e-02;clip-path:url(#XMLID_00000039813438962368909000000007892760219859970214_);fill:none;stroke:#000000;stroke-width:0.6461;stroke-miterlimit:10;}
	.st7{opacity:3.000000e-02;clip-path:url(#XMLID_00000036229873007752343850000015272691602357928362_);}
	.st8{opacity:0.2;fill:#7A4800;}
	.st9{fill:#9A6100;}
	.st10{opacity:0.27;clip-path:url(#XMLID_00000116234974181536561880000012710694246045291138_);}
	.st11{fill:#6D3E00;}
	.st12{opacity:2.000000e-02;clip-path:url(#XMLID_00000044873407879664122070000011752166446137124000_);}
	.st13{opacity:0.41;clip-path:url(#XMLID_00000009561147493551573560000016182627728107343790_);fill:#8E5400;}
	.st14{opacity:0.66;clip-path:url(#XMLID_00000009561147493551573560000016182627728107343790_);fill:#8E5400;}
	.st15{opacity:5.000000e-02;clip-path:url(#XMLID_00000158004412851061027090000012220731445428219306_);}
	.st16{opacity:5.000000e-02;}
	.st17{fill:#FFFFFF;}
	.st18{opacity:5.000000e-02;clip-path:url(#XMLID_00000119821313289833601760000012561221270917923243_);}
	.st19{opacity:5.000000e-02;clip-path:url(#XMLID_00000095300243518566404270000010929039313611495556_);}
	.st20{opacity:0.3;clip-path:url(#XMLID_00000095300243518566404270000010929039313611495556_);fill:#FFFFFF;}
	.st21{opacity:2.000000e-02;clip-path:url(#XMLID_00000135672778842686357630000014517887701658623921_);}
	.st22{opacity:0.27;clip-path:url(#XMLID_00000007429413562500437440000013686687952918243977_);}
	.st23{opacity:0.41;clip-path:url(#XMLID_00000049200725755915583460000017919981390537091725_);fill:#8E5400;}
	.st24{opacity:0.66;clip-path:url(#XMLID_00000049200725755915583460000017919981390537091725_);fill:#8E5400;}
	.st25{opacity:5.000000e-02;clip-path:url(#XMLID_00000068644900616166835810000003367149163064830140_);}
	.st26{clip-path:url(#XMLID_00000068644900616166835810000003367149163064830140_);}
	.st27{clip-path:url(#XMLID_00000081648452514714891830000010382477589412354966_);}
	.st28{opacity:5.000000e-02;clip-path:url(#XMLID_00000070840732726021615870000010666632477144700294_);}
	.st29{opacity:0.3;clip-path:url(#XMLID_00000070840732726021615870000010666632477144700294_);fill:#FFFFFF;}
	.st30{opacity:0.12;clip-path:url(#XMLID_00000068644900616166835810000003367149163064830140_);fill:#FFFFFF;}
	.st31{clip-path:url(#XMLID_00000104681808813339372740000011919247364102378415_);fill:#3B2205;}
	.st32{clip-path:url(#XMLID_00000085951950746959123350000002067093226570882713_);fill:#3B2205;}
	.st33{clip-path:url(#XMLID_00000067230101922317023040000006453865637279211659_);fill:#3B2205;}
	.st34{clip-path:url(#XMLID_00000043415822861631471310000011965808008114098612_);fill:#3B2205;}
	.st35{clip-path:url(#XMLID_00000066515465892212026880000005369869837845570739_);fill:#3B2205;}
	.st36{clip-path:url(#XMLID_00000075163213179456344690000009617296886780528520_);fill:#3B2205;}
	.st37{clip-path:url(#XMLID_00000064314541457235950330000001777715100580309395_);fill:#3B2205;}
	.st38{clip-path:url(#XMLID_00000150817836735544491260000000417211095228681122_);fill:#3B2205;}
	.st39{opacity:6.000000e-02;clip-path:url(#XMLID_00000131328609048891015360000009273648625988542139_);}
	.st40{clip-path:url(#XMLID_00000131328609048891015360000009273648625988542139_);fill:none;stroke:#000000;stroke-miterlimit:10;}
	.st41{fill:#BBD700;}
	.st42{opacity:0.27;clip-path:url(#XMLID_00000013153556730904114580000000680393240570034346_);}
	.st43{opacity:2.000000e-02;clip-path:url(#XMLID_00000060714601698971586280000004460766036548035987_);}
	.st44{opacity:0.41;clip-path:url(#XMLID_00000134966298427544151140000010181070176844774557_);fill:#8E5400;}
	.st45{opacity:0.66;clip-path:url(#XMLID_00000134966298427544151140000010181070176844774557_);fill:#8E5400;}
	.st46{opacity:5.000000e-02;clip-path:url(#XMLID_00000072240013460176312680000011100493582744765333_);}
	.st47{clip-path:url(#XMLID_00000072240013460176312680000011100493582744765333_);}
	.st48{opacity:0.33;clip-path:url(#XMLID_00000111888097565896091640000013990207535999171740_);fill:#FFFFFF;}
	.st49{opacity:0.61;clip-path:url(#XMLID_00000111888097565896091640000013990207535999171740_);fill:#D7DF00;}
	.st50{opacity:0.3;clip-path:url(#XMLID_00000111888097565896091640000013990207535999171740_);fill:#FFFFFF;}
	.st51{opacity:0.23;clip-path:url(#XMLID_00000111888097565896091640000013990207535999171740_);fill:#FFFFFF;}
	.st52{opacity:0.12;clip-path:url(#XMLID_00000072240013460176312680000011100493582744765333_);fill:#FFFFFF;}
	.st53{opacity:3.000000e-02;clip-path:url(#XMLID_00000052800099573204373520000003678171325683426750_);}
	.st54{fill:#050500;}
	.st55{opacity:0.19;clip-path:url(#XMLID_00000052800099573204373520000003678171325683426750_);}
	.st56{opacity:3.000000e-02;clip-path:url(#XMLID_00000175306565530971366170000008109648728618097303_);}
	.st57{opacity:0.19;clip-path:url(#XMLID_00000175306565530971366170000008109648728618097303_);}
	.st58{opacity:2.000000e-02;clip-path:url(#XMLID_00000173140237789305449710000011039955137608216964_);}
	.st59{opacity:0.27;clip-path:url(#XMLID_00000056416564379758097480000003413238150592307109_);}
	.st60{opacity:0.41;clip-path:url(#XMLID_00000039123705879893166850000015131399423811058308_);fill:#8E5400;}
	.st61{opacity:0.66;clip-path:url(#XMLID_00000039123705879893166850000015131399423811058308_);fill:#8E5400;}
	.st62{opacity:5.000000e-02;clip-path:url(#XMLID_00000116953040335919878760000003606408747609819524_);}
	.st63{clip-path:url(#XMLID_00000116953040335919878760000003606408747609819524_);fill:#BBD700;}
	.st64{clip-path:url(#XMLID_00000116953040335919878760000003606408747609819524_);}
	.st65{opacity:5.000000e-02;clip-path:url(#XMLID_00000021800019910723212100000005753630009982753448_);}
	.st66{opacity:0.3;clip-path:url(#XMLID_00000021800019910723212100000005753630009982753448_);fill:#FFFFFF;}
	.st67{opacity:9.000000e-02;}
	.st68{opacity:3.000000e-02;fill:#747477;}
	.st69{clip-path:url(#XMLID_00000126281955080808966450000012772313401868055463_);}
	.st70{fill:#603103;}
	.st71{opacity:0.39;clip-path:url(#XMLID_00000170975099031669410690000002165874541647701909_);fill:#754103;}
	.st72{fill:#824D02;}
	.st73{opacity:0.47;clip-path:url(#XMLID_00000098204357048466160340000005667550352418076075_);fill:#915602;}
	.st74{clip-path:url(#XMLID_00000098204357048466160340000005667550352418076075_);fill:#915602;}
	.st75{opacity:0.2;clip-path:url(#XMLID_00000103239886419611038820000016203493243291545743_);fill:#723F03;}
	.st76{opacity:0.48;clip-path:url(#XMLID_00000018924837333342449330000009897456096216465314_);fill:#683503;}
	.st77{opacity:0.53;clip-path:url(#XMLID_00000067202635534301065380000003971020862406725779_);fill:#8C5302;}
	.st78{opacity:4.000000e-02;}
	.st79{opacity:0.14;clip-path:url(#XMLID_00000158030626273201110410000009144711966099391160_);fill:#56B1BA;}
	.st80{opacity:0.14;clip-path:url(#XMLID_00000137840804624737372840000014291290447730423961_);fill:#56B1BA;}
	.st81{opacity:0.14;clip-path:url(#XMLID_00000013903987607388064990000005352276848084856751_);fill:#56B1BA;}
</style>
<g id="BACKGROUND" class="st0">
	<rect x="15.1" y="-362.3" class="st1" width="500" height="500"/>
</g>
<g id="OBJECTS">
	<g id="title">
		<text transform="matrix(1 0 0 1 -388.9176 -254.7063)"><tspan x="0" y="0" style="font-family:'TrashHand'; font-size:40px;">HOW TO MAKE </tspan><tspan x="64" y="36" style="font-family:'TrashHand'; font-size:40px;">MACHA</tspan></text>
		<g>
			<defs>
				<path id="XMLID_104_" d="M-200.7-213.4c-10.3,5.3-18.9-9.9-9.2-16.2c1.6-1.1,3.5-2,5.5-2.9c4.7-2.3,7-5.2,8.2-7.5
					c0.5-1.1,2.1-0.9,2.3,0.2C-192.2-232.7-190.3-218.7-200.7-213.4z"/>
			</defs>
			<use xlink:href="#XMLID_104_"  style="overflow:visible;fill:#BBD500;"/>
			<clipPath id="XMLID_00000136396384376019652510000013819318798186028183_">
				<use xlink:href="#XMLID_104_"  style="overflow:visible;"/>
			</clipPath>
			<path style="opacity:3.000000e-02;clip-path:url(#XMLID_00000136396384376019652510000013819318798186028183_);" d="M-195.1-244
				c0,0-0.1-0.4-1.9,2.9c1.5,9.2,1.7,26.2-14.3,27.6c-0.5,0-1.1,0-1.6-0.1c0.9,1.5,2.7,2.4,4.7,2.2
				C-183.9-213.5-195.1-244-195.1-244z"/>
			
				<polyline style="opacity:2.000000e-02;clip-path:url(#XMLID_00000136396384376019652510000013819318798186028183_);fill:none;stroke:#000000;stroke-width:0.6461;stroke-miterlimit:10;" points="
				-205,-234.4 -201,-225.7 -190.4,-227 			"/>
			
				<polyline style="opacity:2.000000e-02;clip-path:url(#XMLID_00000136396384376019652510000013819318798186028183_);fill:none;stroke:#000000;stroke-width:0.6461;stroke-miterlimit:10;" points="
				-209.4,-229.9 -205.4,-221.2 -190.1,-222.8 			"/>
			
				<polyline style="opacity:2.000000e-02;clip-path:url(#XMLID_00000136396384376019652510000013819318798186028183_);fill:none;stroke:#000000;stroke-width:0.6461;stroke-miterlimit:10;" points="
				-213.3,-224.8 -209.4,-216.1 -194.1,-217.6 			"/>
			
				<polyline style="opacity:2.000000e-02;clip-path:url(#XMLID_00000136396384376019652510000013819318798186028183_);fill:none;stroke:#000000;stroke-width:0.6461;stroke-miterlimit:10;" points="
				-202.5,-238.7 -198.6,-230 -188,-231.2 			"/>
		</g>
		<g>
			<defs>
				<path id="XMLID_105_" d="M-214.8-208.3c0,0,0-0.1,0.1-0.4c0.1-0.2,0.2-0.5,0.3-0.9c0.3-0.8,0.7-1.9,1.3-3.1
					c0.3-0.6,0.6-1.3,1.1-2c0.4-0.7,0.8-1.4,1.3-2.1c0.5-0.7,1-1.4,1.6-2.1c0.6-0.7,1.2-1.4,1.8-2.1c0.6-0.7,1.3-1.3,1.9-1.9
					c0.6-0.6,1.3-1.2,1.8-1.7c1.2-1.1,2.1-2.2,2.9-3.3c0.8-1,1.4-2,1.8-2.6c0.4-0.6,0.7-1,0.7-1l0,0c0.2-0.3,0.6-0.4,0.9-0.2
					c0.3,0.2,0.4,0.6,0.2,0.9c0,0-0.2,0.4-0.6,1.1c-0.4,0.7-0.9,1.6-1.6,2.8c-0.7,1.1-1.6,2.5-2.8,3.7c-0.6,0.6-1.1,1.3-1.7,1.9
					c-0.6,0.6-1.1,1.3-1.7,1.9c-0.5,0.7-1,1.4-1.5,2c-0.5,0.7-0.9,1.4-1.3,2.1c-0.4,0.7-0.8,1.4-1.1,2c-0.3,0.6-0.6,1.3-0.8,1.9
					c-0.5,1.2-0.8,2.2-1,2.8c-0.1,0.3-0.1,0.6-0.2,0.8c0,0.2,0,0.3,0,0.3l0,0c-0.2,0.9-1.1,1.5-2,1.4s-1.5-1.1-1.4-2
					C-214.9-208.2-214.9-208.3-214.8-208.3z"/>
			</defs>
			<use xlink:href="#XMLID_105_"  style="overflow:visible;fill:#B8C800;"/>
			<clipPath id="XMLID_00000000900872167238230070000001922836028980214201_">
				<use xlink:href="#XMLID_105_"  style="overflow:visible;"/>
			</clipPath>
			<path style="opacity:3.000000e-02;clip-path:url(#XMLID_00000000900872167238230070000001922836028980214201_);" d="M-197.9-231
				c-0.4,0.7-1,1.6-1.8,2.7c-0.8,1.1-1.8,2.4-3,3.6c-0.6,0.6-1.2,1.2-1.8,1.8c-0.6,0.6-1.2,1.2-1.8,1.8c-0.6,0.6-1.1,1.3-1.6,1.9
				c-0.5,0.7-1,1.3-1.4,2c-0.4,0.7-0.8,1.3-1.2,2c-0.4,0.6-0.7,1.2-0.9,1.8c-0.5,1.1-0.9,2.1-1.1,2.8c-0.1,0.3-0.2,0.6-0.2,0.8
				c0,0.2-0.1,0.3-0.1,0.3l0,0c-0.2,0.9-1.1,1.5-2.1,1.3c0,0,0,0-0.1,0c0,0,0,0,0,0.1c-0.2,0.9,0.4,1.8,1.4,2s1.8-0.4,2-1.4l0,0
				c0,0,0-0.1,0-0.3c0-0.2,0.1-0.4,0.2-0.8c0.2-0.7,0.5-1.7,1-2.8c0.2-0.6,0.5-1.2,0.8-1.9c0.3-0.7,0.7-1.3,1.1-2
				c0.4-0.7,0.8-1.4,1.3-2.1c0.5-0.7,1-1.4,1.5-2c0.5-0.7,1.1-1.3,1.7-1.9c0.6-0.6,1.2-1.3,1.7-1.9c1.1-1.3,2.1-2.6,2.8-3.7
				c0.7-1.2,1.2-2.1,1.6-2.8c0.4-0.7,0.6-1.1,0.6-1.1c0.2-0.3,0.1-0.7-0.2-0.8C-197.6-231.6-197.7-231.3-197.9-231z"/>
		</g>
		<g>
			<defs>
				<path id="XMLID_107_" d="M-323.1-222.4c8,8.3,21.1-3.2,13.9-12.3c-1.2-1.5-2.7-3-4.2-4.5c-3.7-3.7-4.9-7.2-5.3-9.8
					c-0.1-1.2-1.6-1.5-2.3-0.5C-324.9-243.4-331.2-230.7-323.1-222.4z"/>
			</defs>
			<use xlink:href="#XMLID_107_"  style="overflow:visible;fill:#BBD500;"/>
			<clipPath id="XMLID_00000075845771677235018770000008176047318861483953_">
				<use xlink:href="#XMLID_107_"  style="overflow:visible;"/>
			</clipPath>
			<path style="opacity:3.000000e-02;clip-path:url(#XMLID_00000075845771677235018770000008176047318861483953_);" d="
				M-318.4-253.1c0,0,0.3-0.3,0.9,3.4c-4.4,8.2-10.2,24.2,4.5,30.7c0.5,0.2,1,0.4,1.5,0.4c-1.4,1.1-3.4,1.4-5.2,0.6
				C-338.9-227.9-318.4-253.1-318.4-253.1z"/>
			
				<polyline style="opacity:2.000000e-02;clip-path:url(#XMLID_00000075845771677235018770000008176047318861483953_);fill:none;stroke:#000000;stroke-width:0.6461;stroke-miterlimit:10;" points="
				-312.2,-240.8 -318.7,-233.9 -328.3,-238.5 			"/>
			
				<polyline style="opacity:2.000000e-02;clip-path:url(#XMLID_00000075845771677235018770000008176047318861483953_);fill:none;stroke:#000000;stroke-width:0.6461;stroke-miterlimit:10;" points="
				-309.5,-235.2 -316,-228.2 -330,-234.7 			"/>
			
				<polyline style="opacity:2.000000e-02;clip-path:url(#XMLID_00000075845771677235018770000008176047318861483953_);fill:none;stroke:#000000;stroke-width:0.6461;stroke-miterlimit:10;" points="
				-307.4,-229 -314,-222.1 -328,-228.5 			"/>
			
				<polyline style="opacity:2.000000e-02;clip-path:url(#XMLID_00000075845771677235018770000008176047318861483953_);fill:none;stroke:#000000;stroke-width:0.6461;stroke-miterlimit:10;" points="
				-313.1,-245.7 -319.7,-238.7 -329.2,-243.4 			"/>
		</g>
		<g>
			<defs>
				<path id="XMLID_106_" d="M-311.3-212.9c0,0,0-0.1,0-0.4c0-0.2,0-0.6,0-1c0-0.8,0-2-0.2-3.4c-0.1-0.7-0.2-1.4-0.3-2.2
					c-0.1-0.8-0.3-1.6-0.6-2.4c-0.2-0.8-0.5-1.7-0.8-2.5c-0.3-0.8-0.6-1.7-1-2.5c-0.3-0.8-0.8-1.6-1.2-2.4c-0.4-0.8-0.8-1.5-1.2-2.2
					c-0.7-1.4-1.3-2.8-1.6-4c-0.4-1.2-0.7-2.3-0.8-3c-0.2-0.7-0.3-1.2-0.3-1.2l0,0c-0.1-0.3-0.4-0.6-0.8-0.5
					c-0.3,0.1-0.5,0.4-0.5,0.7c0,0,0.1,0.4,0.2,1.2c0.1,0.8,0.3,1.9,0.6,3.2c0.3,1.3,0.8,2.9,1.4,4.4c0.3,0.8,0.7,1.6,1,2.4
					c0.3,0.8,0.7,1.6,0.9,2.4c0.3,0.8,0.5,1.6,0.8,2.4c0.2,0.8,0.4,1.6,0.6,2.4c0.1,0.8,0.3,1.5,0.3,2.2c0.1,0.7,0.1,1.4,0.2,2
					c0.1,1.3,0,2.3,0,3c0,0.4-0.1,0.6-0.1,0.8c0,0.2,0,0.3,0,0.3l0,0c-0.1,0.9,0.5,1.8,1.4,1.9c0.9,0.1,1.8-0.5,1.9-1.4
					C-311.3-212.9-311.3-212.9-311.3-212.9z"/>
			</defs>
			<use xlink:href="#XMLID_106_"  style="overflow:visible;fill:#B8C800;"/>
			<clipPath id="XMLID_00000172442395771365876940000002990071708732530566_">
				<use xlink:href="#XMLID_106_"  style="overflow:visible;"/>
			</clipPath>
			<path style="opacity:3.000000e-02;clip-path:url(#XMLID_00000172442395771365876940000002990071708732530566_);" d="M-320-239.9
				c0.2,0.8,0.4,1.8,0.8,3.1c0.4,1.3,0.9,2.8,1.6,4.4c0.4,0.8,0.8,1.5,1.1,2.3c0.4,0.8,0.8,1.5,1.1,2.3c0.3,0.8,0.6,1.6,0.9,2.4
				c0.3,0.8,0.5,1.6,0.7,2.3c0.2,0.8,0.4,1.5,0.5,2.2c0.1,0.7,0.2,1.4,0.3,2c0.1,1.2,0.1,2.3,0.1,3c0,0.4,0,0.6,0,0.8
				c0,0.2,0,0.3,0,0.3l0,0c-0.1,0.9,0.6,1.8,1.5,1.9c0,0,0,0,0.1,0c0,0,0,0,0,0.1c-0.1,0.9-1,1.6-1.9,1.4c-0.9-0.1-1.6-1-1.4-1.9
				l0,0c0,0,0-0.1,0-0.3c0-0.2,0.1-0.4,0.1-0.8c0.1-0.7,0.1-1.7,0-3c0-0.6-0.1-1.3-0.2-2c-0.1-0.7-0.2-1.5-0.3-2.2
				c-0.1-0.8-0.3-1.6-0.6-2.4c-0.2-0.8-0.5-1.6-0.8-2.4c-0.3-0.8-0.6-1.6-0.9-2.4c-0.4-0.8-0.7-1.6-1-2.4c-0.7-1.6-1.1-3.1-1.4-4.4
				c-0.3-1.3-0.5-2.4-0.6-3.2c-0.1-0.8-0.2-1.2-0.2-1.2c-0.1-0.3,0.1-0.6,0.5-0.7C-320.1-240.6-320-240.3-320-239.9z"/>
		</g>
	</g>
	<g>
		<ellipse class="st8" cx="268.1" cy="-54.6" rx="31.8" ry="7"/>
		<path class="st9" d="M250.5-61c0,0,4.3,2.3,5.7,3.9c1.2,1.3,2.6,2.4,4.4,2.7c3,0.6,7.8,1.1,13.4,0.1c2-0.4,3.9-1.4,5-3.2
			c0.4-0.6,1.8-2.1,3.1-2.5"/>
		<g>
			<g>
				<defs>
					<path id="XMLID_36_" d="M297-65.1c-1.8,0-3.9-0.4-6.3-1.4c-0.8-0.3-1.1-1.2-0.8-2c0.3-0.8,1.2-1.1,2-0.8
						c5.2,2.1,9.4,1.2,11.9-2.6c2.5-3.8,2.6-9.4,0.1-11.8c-1.1-1.1-2.1-1.6-3.2-1.4c-2,0.3-3.7,2.8-4.2,3.6c-0.4,0.7-1.3,1-2,0.6
						c-0.7-0.4-1-1.3-0.6-2c0.3-0.5,2.6-4.6,6.4-5.2c2-0.3,3.9,0.5,5.7,2.3c3.5,3.5,3.6,10.6,0.2,15.6
						C305.1-68.3,302.2-65.1,297-65.1z"/>
				</defs>
				<use xlink:href="#XMLID_36_"  style="overflow:visible;fill:#996000;"/>
				<clipPath id="XMLID_00000000203976438091477640000004617522219311924402_">
					<use xlink:href="#XMLID_36_"  style="overflow:visible;"/>
				</clipPath>
				<g style="opacity:0.27;clip-path:url(#XMLID_00000000203976438091477640000004617522219311924402_);">
					<path class="st11" d="M300.4-86c-2,0.3-4.7,2.7-5.1,3.6c-0.4,0.6-1.1,0.9-1.8,0.7c0,0.5,0.3,1,0.8,1.3c0.7,0.4,1.7,0.1,2.1-0.6
						c0.5-0.9,2.3-3.4,4.3-3.7c1-0.1,2.3,2,3.4,3c-0.2-0.5,0.8-0.2,0.5-1.5C303.9-84.9,302.4-86.2,300.4-86z"/>
					<path class="st11" d="M306.7-85.6c2.4,3.8,2.1,10-0.9,14.4c-1.2,1.8-4.1,5.1-9.4,5.1c-1.8,0-3.9-0.4-6.2-1.3
						c0,0.6,0.4,1.1,0.9,1.3c2.4,1,4.5,1.4,6.4,1.4c5.3,0,8.3-3.3,9.4-5.1C310.2-74.8,310.1-82,306.7-85.6z"/>
				</g>
			</g>
		</g>
		<g>
			<g>
				<defs>
					<circle id="XMLID_31_" cx="263.1" cy="-188.2" r="13.7"/>
				</defs>
				<use xlink:href="#XMLID_31_"  style="overflow:visible;fill:#BBD500;"/>
				<clipPath id="XMLID_00000032626361243302333320000017583483064987825831_">
					<use xlink:href="#XMLID_31_"  style="overflow:visible;"/>
				</clipPath>
				<path style="opacity:2.000000e-02;clip-path:url(#XMLID_00000032626361243302333320000017583483064987825831_);" d="
					M268.8-200.6c1.3,2.1,2,4.5,2,7.1c0,7.6-6.1,13.7-13.7,13.7c-2,0-3.9-0.5-5.7-1.2c2.4,3.9,6.7,6.6,11.7,6.6
					c7.6,0,13.7-6.1,13.7-13.7C276.8-193.7,273.5-198.5,268.8-200.6z"/>
			</g>
			<text transform="matrix(1 0 0 1 256.4885 -180.9291)" class="st17" style="font-family:'TrashHand'; font-size:24.4902px;">1</text>
		</g>
		<text transform="matrix(1 0 0 1 223.7971 -156.7085)"><tspan x="0" y="0" style="font-family:'Montserrat-Regular'; font-size:10px;">Add 1-2 teaspoon </tspan><tspan x="-2.8" y="12" style="font-family:'Montserrat-Regular'; font-size:10px;">matcha into a cup </tspan></text>
		<g>
			<defs>
				<path id="XMLID_35_" d="M237.1-90.2c0,0-3.3,32.8,29.7,33c36.9,0.3,30.3-33,30.3-33"/>
			</defs>
			<use xlink:href="#XMLID_35_"  style="overflow:visible;fill:#996000;"/>
			<clipPath id="XMLID_00000151520241360898586300000015687724731958043011_">
				<use xlink:href="#XMLID_35_"  style="overflow:visible;"/>
			</clipPath>
			<path style="opacity:0.41;clip-path:url(#XMLID_00000151520241360898586300000015687724731958043011_);fill:#8E5400;" d="
				M297.1-90.2h-9.5c0.5,8.4-1,30-30.7,29.7c-2.3,0-4.4-0.2-6.4-0.5c4.1,2.3,9.4,3.8,16.3,3.8C303.7-56.9,297.1-90.2,297.1-90.2z"/>
			<path style="opacity:0.66;clip-path:url(#XMLID_00000151520241360898586300000015687724731958043011_);fill:#8E5400;" d="
				M300.1-91.2l-9.5,0.8c1.3,8.3,1.6,29.9-28.1,32.2c-2.3,0.2-4.4,0.2-6.4,0c4.3,1.9,9.7,3,16.5,2.4
				C309.6-58.6,300.1-91.2,300.1-91.2z"/>
		</g>
		<g>
			<defs>
				<path id="XMLID_37_" d="M297.1-90.2c0,3.8-13.4,6.9-30,6.9c-16.6,0-30-3.1-30-6.9c0-3.8,13.4-6.9,30-6.9
					C283.7-97.1,297.1-94,297.1-90.2z"/>
			</defs>
			<use xlink:href="#XMLID_37_"  style="overflow:visible;fill:#7A4800;"/>
			<clipPath id="XMLID_00000083767522578472682020000014240040940428671922_">
				<use xlink:href="#XMLID_37_"  style="overflow:visible;"/>
			</clipPath>
			<path style="opacity:5.000000e-02;clip-path:url(#XMLID_00000083767522578472682020000014240040940428671922_);" d="M267.1-97.1
				c-15.8,0-28.8,2.8-29.9,6.4c5.1-2.1,15-3.6,26.3-3.6c16.6,0,30,3.1,30,6.9c0,0.2,0,0.3-0.1,0.5c2.4-1,3.7-2.1,3.7-3.3
				C297.1-94,283.7-97.1,267.1-97.1z"/>
		</g>
		<g class="st16">
			<path class="st17" d="M243.3-82.8c0,0,0.2,0.3,0.5,0.8c0.3,0.4,0.6,1.1,1.1,1.8c0.8,1.5,1.9,3.4,3,5.2c0.3,0.4,0.6,0.9,0.9,1.3
				c0.3,0.4,0.6,0.8,0.9,1.2c0.3,0.4,0.6,0.8,0.8,1.2c0.3,0.4,0.5,0.7,0.8,1c0.3,0.3,0.5,0.6,0.7,0.9c0.2,0.3,0.4,0.5,0.6,0.7
				c0.3,0.4,0.5,0.7,0.5,0.7l0.1,0.1c0.4,0.6,0.2,1.4-0.4,1.8c-0.2,0.1-0.5,0.2-0.8,0.2c0,0-0.3,0-0.9-0.2c-0.3-0.1-0.7-0.1-1.1-0.3
				c-0.4-0.1-0.8-0.3-1.3-0.5c-0.5-0.2-0.9-0.5-1.5-0.8c-0.5-0.4-1-0.7-1.5-1.2c-0.5-0.5-1-0.9-1.4-1.5c-0.4-0.5-0.8-1.1-1.2-1.7
				c-1.5-2.4-2.2-5.1-2.3-7.1c0-0.5,0-1,0-1.4c0-0.4,0.1-0.8,0.1-1.1c0.1-0.6,0.2-0.9,0.2-0.9l0,0c0.2-0.7,0.9-1.1,1.6-0.9
				C242.9-83.3,243.1-83.1,243.3-82.8z"/>
		</g>
		<g>
			<defs>
				<path id="XMLID_40_" d="M339.8-118.7c-0.1-0.8-0.9-1.4-1.7-1.2l-42.2,6.9l-4.3,0.7l-15.4,2.5c-0.6,0.1-0.9,0.6-0.7,1.2
					c1.4,5.2,6.5,8.5,11.9,7.7c4-0.6,7-3.4,8.2-7c0.4-1.3,1.5-2.2,2.9-2.5l40.2-6.6C339.4-117.1,339.9-117.9,339.8-118.7
					L339.8-118.7z"/>
			</defs>
			<use xlink:href="#XMLID_40_"  style="overflow:visible;fill:#996000;"/>
			<clipPath id="XMLID_00000042003975793940410600000004329071168191769015_">
				<use xlink:href="#XMLID_40_"  style="overflow:visible;"/>
			</clipPath>
			<path style="opacity:5.000000e-02;clip-path:url(#XMLID_00000042003975793940410600000004329071168191769015_);" d="M339.1-119.9
				c0.2,0.9-1.2,1.5-1.8,1.6l-40.2,6.6c-1.3,0.2-2.5,1.2-2.9,2.5c-1.2,3.6-4.3,6.3-8.2,7c-3.4,0.6-6.7-0.6-9-2.9
				c2.2,3.4,6.3,5.4,10.6,4.7c4-0.6,7-3.4,8.2-7c0.4-1.3,1.5-2.2,2.9-2.5l40.2-6.6c0.8-0.1,1.4-0.9,1.2-1.7
				C339.9-118.9,339.8-119.9,339.1-119.9z"/>
			<path style="opacity:5.000000e-02;clip-path:url(#XMLID_00000042003975793940410600000004329071168191769015_);" d="M274.6-109
				c0,0,5.6,5.9,16.5,0.1c0,0-10.8,2.5-15.9-1.1L274.6-109z"/>
		</g>
		<g>
			<defs>
				<path id="XMLID_41_" d="M275.5-109.1c0,0,4.8,3.5,11.6,1.6c6.8-1.8,6.7-5.1,6.7-5.1s-1.1-2.8-2.7-2.9c-1.6-0.1-1.3-2.3-3.3-2.3
					c-1,0-2.3-1.9-4.1-1.8c-1.7,0.1-1.7,1.9-3.1,2.6c-1.4,0.7-1.2,2.3-2.1,2.8c-0.8,0.4-0.9,2.7-2,3
					C275.4-110.7,275.5-109.1,275.5-109.1z"/>
			</defs>
			<use xlink:href="#XMLID_41_"  style="overflow:visible;fill:#BBD700;"/>
			<clipPath id="XMLID_00000088827490967828758570000008566499096731205019_">
				<use xlink:href="#XMLID_41_"  style="overflow:visible;"/>
			</clipPath>
			<path style="opacity:5.000000e-02;clip-path:url(#XMLID_00000088827490967828758570000008566499096731205019_);" d="M281.4-120.8
				c0,0,4.6,3.2,4.8,5.8c0.2,2.6,2.7,1.5,3.5,3.2c0.8,1.7,2.6,5.1,2.6,5.1l3.5-5.8C295.7-112.6,285.8-123.1,281.4-120.8z"/>
			<path style="opacity:5.000000e-02;clip-path:url(#XMLID_00000088827490967828758570000008566499096731205019_);" d="M282-120.6
				c0,0,5,2.6,5.5,5.1c0.6,2.6,2.8,1.1,3.8,2.7c1,1.6,3.2,4.7,3.2,4.7l2.7-6.3C297.3-114.3,286.1-123.5,282-120.6z"/>
			<path style="opacity:0.3;clip-path:url(#XMLID_00000088827490967828758570000008566499096731205019_);fill:#FFFFFF;" d="
				M279-110.2c0,0.3-0.1,0.5-0.4,0.6c-0.3,0-0.5-0.1-0.6-0.4c0-0.3,0.1-0.5,0.4-0.6C278.7-110.6,279-110.4,279-110.2z"/>
			<path style="opacity:0.3;clip-path:url(#XMLID_00000088827490967828758570000008566499096731205019_);fill:#FFFFFF;" d="
				M281.6-112.4c0.3,0.4,0.1,0.2-0.2,0.6c-0.2,0.4-0.5,0.9-0.9,0.6c-0.4-0.3-0.6-0.8-0.4-1.2C280.4-112.8,280.9-113.2,281.6-112.4z"
				/>
			<path style="opacity:0.3;clip-path:url(#XMLID_00000088827490967828758570000008566499096731205019_);fill:#FFFFFF;" d="
				M281.3-109.7c0,0.3-0.1,0.5-0.4,0.6c-0.3,0-0.5-0.1-0.6-0.4c0-0.3,0.1-0.5,0.4-0.6C281-110.2,281.3-110,281.3-109.7z"/>
			<path style="opacity:0.3;clip-path:url(#XMLID_00000088827490967828758570000008566499096731205019_);fill:#FFFFFF;" d="
				M292.5-105.9c0,0.1-0.1,0.3-0.2,0.3c-0.1,0-0.3-0.1-0.3-0.2c0-0.1,0.1-0.3,0.2-0.3C292.4-106.2,292.5-106.1,292.5-105.9z"/>
			<path style="opacity:0.3;clip-path:url(#XMLID_00000088827490967828758570000008566499096731205019_);fill:#FFFFFF;" d="
				M279.1-111.9c0,0.1-0.1,0.3-0.2,0.3c-0.1,0-0.3-0.1-0.3-0.2c0-0.1,0.1-0.3,0.2-0.3S279-112.1,279.1-111.9z"/>
			<path style="opacity:0.3;clip-path:url(#XMLID_00000088827490967828758570000008566499096731205019_);fill:#FFFFFF;" d="
				M283.2-109.2c0,0.3-0.1,0.5-0.4,0.6c-0.3,0-0.5-0.1-0.6-0.4c0-0.3,0.1-0.5,0.4-0.6C282.9-109.7,283.2-109.5,283.2-109.2z"/>
			<path style="opacity:0.3;clip-path:url(#XMLID_00000088827490967828758570000008566499096731205019_);fill:#FFFFFF;" d="
				M282.6-110.9c0,0.1-0.1,0.3-0.2,0.3c-0.1,0-0.3-0.1-0.3-0.2c0-0.1,0.1-0.3,0.2-0.3C282.4-111.1,282.5-111,282.6-110.9z"/>
		</g>
	</g>
	<g>
		<g>
			<g>
				<defs>
					<circle id="XMLID_81_" cx="264.1" cy="-8" r="13.7"/>
				</defs>
				<use xlink:href="#XMLID_81_"  style="overflow:visible;fill:#BBD500;"/>
				<clipPath id="XMLID_00000071531236300214234810000003940584355836704425_">
					<use xlink:href="#XMLID_81_"  style="overflow:visible;"/>
				</clipPath>
				<path style="opacity:2.000000e-02;clip-path:url(#XMLID_00000071531236300214234810000003940584355836704425_);" d="M269.8-20.4
					c1.3,2.1,2,4.5,2,7.1c0,7.6-6.1,13.7-13.7,13.7c-2,0-3.9-0.5-5.7-1.2c2.4,3.9,6.7,6.6,11.7,6.6c7.6,0,13.7-6.1,13.7-13.7
					C277.8-13.5,274.5-18.3,269.8-20.4z"/>
			</g>
			<text transform="matrix(1 0 0 1 258.4879 -1.6926)" class="st17" style="font-family:'TrashHand'; font-size:24.4902px;">3</text>
		</g>
		<text transform="matrix(1 0 0 1 229.6716 23.528)"><tspan x="0" y="0" style="font-family:'Montserrat-Regular'; font-size:10px;">Stir until it gets </tspan><tspan x="-11.9" y="12" style="font-family:'Montserrat-Regular'; font-size:10px;">dissolved and foamy</tspan></text>
		<ellipse class="st8" cx="264.5" cy="111.6" rx="31.8" ry="7"/>
		<path class="st9" d="M247,105.3c0,0,4.3,2.3,5.7,3.9c1.2,1.3,2.6,2.4,4.4,2.7c3,0.6,7.8,1.1,13.4,0.1c2-0.4,3.9-1.4,5-3.2
			c0.4-0.6,1.8-2.1,3.1-2.5"/>
		<g>
			<g>
				<defs>
					<path id="XMLID_85_" d="M293.4,101.2c-1.8,0-3.9-0.4-6.3-1.4c-0.8-0.3-1.1-1.2-0.8-2c0.3-0.8,1.2-1.1,2-0.8
						c5.2,2.1,9.4,1.2,11.9-2.6c2.5-3.8,2.6-9.4,0.1-11.8c-1.1-1.1-2.1-1.6-3.2-1.4c-2,0.3-3.7,2.8-4.2,3.6c-0.4,0.7-1.3,1-2,0.6
						c-0.7-0.4-1-1.3-0.6-2c0.3-0.5,2.6-4.6,6.4-5.2c2-0.3,3.9,0.5,5.7,2.3c3.5,3.5,3.6,10.6,0.2,15.6
						C301.5,97.9,298.6,101.2,293.4,101.2z"/>
				</defs>
				<use xlink:href="#XMLID_85_"  style="overflow:visible;fill:#996000;"/>
				<clipPath id="XMLID_00000047024474209699436130000001791303875543802044_">
					<use xlink:href="#XMLID_85_"  style="overflow:visible;"/>
				</clipPath>
				<g style="opacity:0.27;clip-path:url(#XMLID_00000047024474209699436130000001791303875543802044_);">
					<path class="st11" d="M296.8,80.3c-2,0.3-4.7,2.7-5.1,3.6c-0.4,0.6-1.1,0.9-1.8,0.7c0,0.5,0.3,1,0.8,1.3
						c0.7,0.4,1.7,0.1,2.1-0.6c0.5-0.9,2.3-3.4,4.3-3.7c1-0.1,2.3,2,3.4,3c-0.2-0.5,0.8-0.2,0.5-1.5C300.4,81.3,298.8,80,296.8,80.3
						z"/>
					<path class="st11" d="M303.1,80.7c2.4,3.8,2.1,10-0.9,14.4c-1.2,1.8-4.1,5.1-9.5,5.1c-1.8,0-3.9-0.4-6.2-1.3
						c0,0.6,0.4,1.1,0.9,1.3c2.4,1,4.5,1.4,6.4,1.4c5.3,0,8.3-3.3,9.4-5.1C306.7,91.4,306.6,84.2,303.1,80.7z"/>
				</g>
			</g>
		</g>
		<g>
			<defs>
				<path id="XMLID_84_" d="M233.5,76c0,0-3.3,32.8,29.7,33c36.9,0.3,30.3-33,30.3-33"/>
			</defs>
			<use xlink:href="#XMLID_84_"  style="overflow:visible;fill:#996000;"/>
			<clipPath id="XMLID_00000090292144423575449420000002545809453275191189_">
				<use xlink:href="#XMLID_84_"  style="overflow:visible;"/>
			</clipPath>
			<path style="opacity:0.41;clip-path:url(#XMLID_00000090292144423575449420000002545809453275191189_);fill:#8E5400;" d="
				M293.6,76H284c0.5,8.4-1,30-30.7,29.7c-2.3,0-4.4-0.2-6.4-0.5c4.1,2.3,9.4,3.8,16.3,3.8C300.2,109.4,293.6,76,293.6,76z"/>
			<path style="opacity:0.66;clip-path:url(#XMLID_00000090292144423575449420000002545809453275191189_);fill:#8E5400;" d="
				M296.6,75l-9.5,0.8c1.3,8.3,1.6,29.9-28.1,32.2c-2.3,0.2-4.4,0.2-6.4,0c4.3,1.9,9.7,3,16.5,2.4C306,107.7,296.6,75,296.6,75z"/>
		</g>
		<g>
			<defs>
				<path id="XMLID_33_" d="M293.6,76c0,3.8-13.4,6.9-30,6.9s-30-3.1-30-6.9s13.4-6.9,30-6.9S293.6,72.2,293.6,76z"/>
			</defs>
			<use xlink:href="#XMLID_33_"  style="overflow:visible;fill:#7A4800;"/>
			<clipPath id="XMLID_00000172410958478192201600000009844663454798024624_">
				<use xlink:href="#XMLID_33_"  style="overflow:visible;"/>
			</clipPath>
			<path style="opacity:5.000000e-02;clip-path:url(#XMLID_00000172410958478192201600000009844663454798024624_);" d="M263.5,69.1
				c-15.8,0-28.8,2.8-29.9,6.4c5.1-2.1,15-3.6,26.3-3.6c16.6,0,30,3.1,30,6.9c0,0.2,0,0.3-0.1,0.5c2.4-1,3.7-2.1,3.7-3.3
				C293.6,72.2,280.1,69.1,263.5,69.1z"/>
			<g style="clip-path:url(#XMLID_00000172410958478192201600000009844663454798024624_);">
				<defs>
					<path id="XMLID_83_" d="M293.6,81.6c0,3.8-13.4,6.9-30,6.9s-30-3.1-30-6.9c0-3.8,13.4-6.9,30-6.9S293.6,77.8,293.6,81.6z"/>
				</defs>
				<use xlink:href="#XMLID_83_"  style="overflow:visible;fill:#BBD700;"/>
				<clipPath id="XMLID_00000173849031289972088800000002697835192589853825_">
					<use xlink:href="#XMLID_83_"  style="overflow:visible;"/>
				</clipPath>
				<g style="clip-path:url(#XMLID_00000173849031289972088800000002697835192589853825_);">
					<defs>
						<path id="XMLID_102_" d="M349.6-13.8c0,0,9.8,11.1,27.3,10.6c17.6-0.6,19.1-8.5,19.1-8.5s-1-7.3-4.9-8.6
							c-3.9-1.3-1.8-6.2-6.8-7.4c-2.4-0.6-4.6-6-8.8-6.8c-4.2-0.8-5.3,3.7-9.1,4.7c-3.8,1-4.3,5-6.6,5.6c-2.3,0.6-3.6,6-6.7,6.3
							C350.1-17.8,349.6-13.8,349.6-13.8z"/>
					</defs>
					<use xlink:href="#XMLID_102_"  style="overflow:visible;fill:#BBD700;"/>
					<clipPath id="XMLID_00000108293068382134844450000009062442744690566845_">
						<use xlink:href="#XMLID_102_"  style="overflow:visible;"/>
					</clipPath>
					<path style="opacity:5.000000e-02;clip-path:url(#XMLID_00000108293068382134844450000009062442744690566845_);" d="
						M370.5-38.7c0,0,9.3,10.4,8.4,16.8c-0.9,6.4,5.7,5.1,6.6,9.7c1,4.6,3.4,13.7,3.4,13.7l11.8-12.2
						C400.7-10.7,382.5-41.9,370.5-38.7z"/>
					<path style="opacity:5.000000e-02;clip-path:url(#XMLID_00000108293068382134844450000009062442744690566845_);" d="
						M371.9-37.9c0,0,10.6,9.1,10.5,15.6s6.3,4.4,7.8,8.8c1.5,4.4,5.1,13.2,5.1,13.2L405.4-14C405.4-14,383.3-42.6,371.9-37.9z"/>
					<path style="opacity:0.3;clip-path:url(#XMLID_00000108293068382134844450000009062442744690566845_);fill:#FFFFFF;" d="
						M358.8-14.3c0,0.7-0.6,1.2-1.3,1.2c-0.7,0-1.2-0.6-1.2-1.3s0.6-1.2,1.3-1.2C358.3-15.6,358.8-15,358.8-14.3z"/>
					<path style="opacity:0.3;clip-path:url(#XMLID_00000108293068382134844450000009062442744690566845_);fill:#FFFFFF;" d="
						M366.3-18.3c0.6,1.1,0,0.6-0.8,1.5c-0.8,0.9-1.7,1.9-2.6,1c-0.9-0.9-1-2.3-0.2-3.2C363.5-19.9,365-20.7,366.3-18.3z"/>
					<path style="opacity:0.3;clip-path:url(#XMLID_00000108293068382134844450000009062442744690566845_);fill:#FFFFFF;" d="
						M364.1-11.9c0,0.7-0.6,1.2-1.3,1.2c-0.7,0-1.2-0.6-1.2-1.3c0-0.7,0.6-1.2,1.3-1.2C363.6-13.2,364.1-12.6,364.1-11.9z"/>
					<path style="opacity:0.3;clip-path:url(#XMLID_00000108293068382134844450000009062442744690566845_);fill:#FFFFFF;" d="
						M389.1,3.6c0,0.3-0.3,0.6-0.7,0.6c-0.3,0-0.6-0.3-0.6-0.7c0-0.3,0.3-0.6,0.7-0.6C388.9,2.9,389.1,3.2,389.1,3.6z"/>
					<path style="opacity:0.3;clip-path:url(#XMLID_00000108293068382134844450000009062442744690566845_);fill:#FFFFFF;" d="
						M359.8-18.6c0,0.3-0.3,0.6-0.7,0.6c-0.3,0-0.6-0.3-0.6-0.7c0-0.3,0.3-0.6,0.7-0.6C359.6-19.2,359.8-18.9,359.8-18.6z"/>
					<path style="opacity:0.3;clip-path:url(#XMLID_00000108293068382134844450000009062442744690566845_);fill:#FFFFFF;" d="
						M368.4-9.7c0,0.7-0.6,1.2-1.3,1.2c-0.7,0-1.2-0.6-1.2-1.3c0-0.7,0.6-1.2,1.3-1.2C367.9-11,368.4-10.4,368.4-9.7z"/>
					<path style="opacity:0.3;clip-path:url(#XMLID_00000108293068382134844450000009062442744690566845_);fill:#FFFFFF;" d="
						M367.7-14.1c0,0.3-0.3,0.6-0.7,0.6c-0.3,0-0.6-0.3-0.6-0.7c0-0.3,0.3-0.6,0.7-0.6C367.5-14.7,367.8-14.4,367.7-14.1z"/>
				</g>
			</g>
			
				<path id="XMLID_82_" style="opacity:0.12;clip-path:url(#XMLID_00000172410958478192201600000009844663454798024624_);fill:#FFFFFF;" d="
				M297.1,83.1c0,3.8-13.4,6.9-30,6.9s-30-3.1-30-6.9c0-3.8,13.4-6.9,30-6.9S297.1,79.3,297.1,83.1z"/>
			
				<path id="XMLID_86_" style="opacity:0.12;clip-path:url(#XMLID_00000172410958478192201600000009844663454798024624_);fill:#FFFFFF;" d="
				M301.3,85.6c0,3.8-13.4,6.9-30,6.9s-30-3.1-30-6.9c0-3.8,13.4-6.9,30-6.9S301.3,81.8,301.3,85.6z"/>
		</g>
		<g>
			<g>
				<g>
					<defs>
						<path id="XMLID_94_" d="M291.6,58.4c0.1-0.1,0.2-0.2,0.4-0.1c0.2,0.1,0.2,0.3,0.2,0.4c-0.3,0.6-6.4,15.6-8.5,18.6
							c-0.7,1.1-1.5,1.6-2.4,1.7c-1,0.1-1.7-0.5-1.7-0.5c-0.1-0.1-0.1-0.3,0-0.4c0.1-0.1,0.3-0.1,0.4,0c0,0,0.5,0.4,1.2,0.3
							c0.7-0.1,1.3-0.6,1.9-1.5C285.2,74,291.5,58.6,291.6,58.4C291.6,58.5,291.6,58.4,291.6,58.4z"/>
					</defs>
					<use xlink:href="#XMLID_94_"  style="overflow:visible;fill:#4A2C04;"/>
					<clipPath id="XMLID_00000123421895044530728110000008586602292097636000_">
						<use xlink:href="#XMLID_94_"  style="overflow:visible;"/>
					</clipPath>
					<path style="clip-path:url(#XMLID_00000123421895044530728110000008586602292097636000_);fill:#3B2205;" d="M279.8,78.5
						c-0.1,0-0.1-0.1-0.1-0.2c0.2,0.1,0.8,0.5,1.6,0.4c0.8-0.1,1.5-0.6,2.1-1.5c0.1-0.1,0.1-0.2,0.2-0.3c2-3,8.1-18,8.3-18.6
						c0-0.1,0-0.1,0-0.2c0.1,0.1,0.2,0.2,0.1,0.4c-0.3,0.6-6.3,15.6-8.3,18.6c-0.1,0.1-0.1,0.2-0.2,0.3c-0.7,0.9-1.4,1.4-2.1,1.5
						C280.5,79.1,279.8,78.6,279.8,78.5z"/>
				</g>
			</g>
			<g>
				<g>
					<defs>
						<path id="XMLID_93_" d="M275,75.2C275,75.2,275,75.2,275,75.2c0.2-0.2,0.4-0.2,0.5,0c0,0,0.5,0.5,1.2,0.5c0.7,0,1.3-0.4,2-1.3
							c2.3-2.7,10.2-17.3,10.2-17.5c0.1-0.2,0.3-0.2,0.4-0.1c0.2,0.1,0.2,0.3,0.1,0.4c-0.3,0.6-8,14.9-10.3,17.6
							c-0.8,1-1.7,1.5-2.5,1.5c-1,0-1.6-0.6-1.6-0.7C274.9,75.5,274.9,75.4,275,75.2z"/>
					</defs>
					<use xlink:href="#XMLID_93_"  style="overflow:visible;fill:#4A2C04;"/>
					<clipPath id="XMLID_00000003093507489018056550000007198183961236636060_">
						<use xlink:href="#XMLID_93_"  style="overflow:visible;"/>
					</clipPath>
					<path style="clip-path:url(#XMLID_00000003093507489018056550000007198183961236636060_);fill:#3B2205;" d="M275.1,75.7
						c0-0.1-0.1-0.1-0.1-0.2c0.2,0.2,0.7,0.6,1.6,0.6c0.8,0,1.5-0.4,2.3-1.2c0.1-0.1,0.2-0.2,0.2-0.3c2.3-2.8,9.9-17,10.2-17.6
						c0-0.1,0-0.1,0-0.2c0.1,0.1,0.2,0.3,0.1,0.4c-0.3,0.6-7.9,14.9-10.2,17.6c-0.1,0.1-0.2,0.2-0.2,0.3c-0.7,0.8-1.5,1.2-2.3,1.2
						C275.7,76.4,275.1,75.7,275.1,75.7z"/>
				</g>
			</g>
			<g>
				<g>
					<defs>
						<path id="XMLID_92_" d="M288.4,56.1c0.1-0.1,0.3-0.2,0.4-0.1c0.1,0.1,0.2,0.3,0.1,0.4c-0.4,0.6-9.5,14.5-12.1,17.2
							c-0.4,0.4-0.9,0.8-1.3,1c-0.2,0.1-0.4,0-0.4-0.1c-0.1-0.2,0-0.4,0.1-0.4c0.4-0.2,0.7-0.5,1.1-0.9
							C278.9,70.6,288.3,56.3,288.4,56.1C288.4,56.1,288.4,56.1,288.4,56.1z"/>
					</defs>
					<use xlink:href="#XMLID_92_"  style="overflow:visible;fill:#4A2C04;"/>
					<clipPath id="XMLID_00000170241443524031737420000005708061005198271616_">
						<use xlink:href="#XMLID_92_"  style="overflow:visible;"/>
					</clipPath>
					<path style="clip-path:url(#XMLID_00000170241443524031737420000005708061005198271616_);fill:#3B2205;" d="M288.7,56.4
						c-0.4,0.6-9.5,14.5-12.1,17.2c-0.4,0.4-0.9,0.8-1.3,1c-0.1,0-0.1,0-0.2,0c0,0,0,0,0,0c0.1,0.2,0.3,0.2,0.4,0.1
						c0.4-0.2,0.9-0.6,1.3-1c2.6-2.6,11.7-16.6,12.1-17.2c0.1-0.1,0.1-0.3-0.1-0.4c0,0-0.1,0-0.1,0
						C288.8,56.2,288.8,56.3,288.7,56.4z"/>
				</g>
			</g>
			<g>
				<g>
					<defs>
						<path id="XMLID_91_" d="M268.5,66c0.1-0.1,0.1-0.2,0.2-0.3c2.4-2.7,15.4-12.3,16-12.7c0.1-0.1,0.3-0.1,0.4,0.1
							c0.1,0.1,0.1,0.3-0.1,0.4c-0.1,0.1-13.5,10-15.9,12.6c-0.7,0.8-1,1.5-1,2.2c0.1,0.7,0.6,1.1,0.6,1.1c0.1,0.1,0.2,0.3,0.1,0.4
							c-0.1,0.1-0.3,0.2-0.4,0.1c0,0-0.8-0.5-0.9-1.5C267.5,67.7,267.8,66.9,268.5,66z"/>
					</defs>
					<use xlink:href="#XMLID_91_"  style="overflow:visible;fill:#4A2C04;"/>
					<clipPath id="XMLID_00000147938587683239987010000002769340532846202797_">
						<use xlink:href="#XMLID_91_"  style="overflow:visible;"/>
					</clipPath>
					<path style="clip-path:url(#XMLID_00000147938587683239987010000002769340532846202797_);fill:#3B2205;" d="M268.5,70
						c0.1,0,0.1,0.1,0.2,0c-0.2-0.1-0.7-0.6-0.8-1.5c-0.1-0.8,0.2-1.6,0.9-2.4c0.1-0.1,0.1-0.2,0.2-0.3c2.4-2.7,15.4-12.3,16-12.7
						c0,0,0.1,0,0.2-0.1c-0.1-0.1-0.3-0.1-0.4,0c-0.6,0.4-13.6,10-16,12.7c-0.1,0.1-0.2,0.2-0.2,0.3c-0.7,0.9-1,1.7-0.9,2.4
						C267.7,69.4,268.4,70,268.5,70z"/>
				</g>
			</g>
			<g>
				<g>
					<defs>
						<path id="XMLID_90_" d="M272.3,69.1c2.6-3.4,13.4-13.9,13.9-14.4c0.1-0.1,0.3-0.1,0.4,0c0.1,0.1,0.1,0.3,0,0.4
							c-0.1,0.1-12,11.7-14,14.6c-0.6,0.9-0.8,1.7-0.7,2.3c0.2,0.7,0.7,1,0.8,1c0.2,0.1,0.2,0.3,0.1,0.4c-0.1,0.2-0.3,0.2-0.4,0.1
							c0,0-0.8-0.4-1.1-1.4c-0.2-0.8,0-1.8,0.7-2.8C272.1,69.3,272.2,69.2,272.3,69.1z"/>
					</defs>
					<use xlink:href="#XMLID_90_"  style="overflow:visible;fill:#4A2C04;"/>
					<clipPath id="XMLID_00000026855631663448672250000009456513266407788727_">
						<use xlink:href="#XMLID_90_"  style="overflow:visible;"/>
					</clipPath>
					<path style="clip-path:url(#XMLID_00000026855631663448672250000009456513266407788727_);fill:#3B2205;" d="M272.4,73.6
						c0.1,0,0.1,0,0.2,0c-0.2-0.1-0.8-0.5-1-1.3c-0.2-0.7,0-1.6,0.5-2.5c0.1-0.1,0.1-0.2,0.2-0.3c2-3,13.5-14.3,14-14.8
						c0,0,0.1-0.1,0.1-0.1c-0.1-0.1-0.3-0.1-0.4,0c-0.5,0.5-12,11.8-14,14.8c-0.1,0.1-0.1,0.2-0.2,0.3c-0.6,0.9-0.8,1.8-0.5,2.5
						C271.5,73.2,272.3,73.6,272.4,73.6z"/>
				</g>
			</g>
			<g>
				<g>
					<defs>
						<path id="XMLID_89_" d="M275.8,69c3.6-4.8,11.1-13.4,11.5-13.9c0.1-0.1,0.3-0.1,0.5,0c0.1,0.1,0.1,0.3,0,0.5
							c-0.1,0.1-11.3,13.1-13.1,16.2c-0.3,0.5-0.5,1-0.6,1.4c0,0.2-0.2,0.3-0.4,0.3c-0.2,0-0.3-0.2-0.3-0.4c0.1-0.5,0.3-1.1,0.6-1.6
							C274.4,70.9,275,70,275.8,69z"/>
					</defs>
					<use xlink:href="#XMLID_89_"  style="overflow:visible;fill:#4A2C04;"/>
					<clipPath id="XMLID_00000029737745469401994130000008537820081644654469_">
						<use xlink:href="#XMLID_89_"  style="overflow:visible;"/>
					</clipPath>
					<path style="clip-path:url(#XMLID_00000029737745469401994130000008537820081644654469_);fill:#3B2205;" d="M287.4,55.3
						c-0.5,0.5-11.4,13.1-13.2,16.3c-0.3,0.5-0.5,1-0.6,1.5c0,0.1,0,0.1,0,0.2c0,0,0,0,0,0c-0.2,0-0.3-0.2-0.2-0.4
						c0.1-0.5,0.3-1,0.6-1.5c1.8-3.2,12.7-15.8,13.2-16.3c0.1-0.1,0.3-0.1,0.5,0c0,0,0.1,0.1,0.1,0.1
						C287.6,55.2,287.5,55.2,287.4,55.3z"/>
				</g>
			</g>
			<g>
				<g>
					<defs>
						<path id="XMLID_88_" d="M270.3,68.7c0.1-0.1,0.1-0.2,0.2-0.3c2.1-2.8,13.4-13.5,13.9-13.9c0.1-0.1,0.3-0.1,0.4,0
							c0.1,0.1,0.1,0.3-0.1,0.4c-0.1,0.1-11.8,11.1-13.8,13.8c-0.6,0.8-0.9,1.6-0.8,2.2c0.1,0.6,0.5,0.9,0.6,0.9
							c0.1,0.1,0.2,0.2,0.1,0.4c-0.1,0.1-0.3,0.2-0.4,0.1c0,0-0.7-0.4-0.8-1.3C269.4,70.4,269.7,69.6,270.3,68.7z"/>
					</defs>
					<use xlink:href="#XMLID_88_"  style="overflow:visible;fill:#4A2C04;"/>
					<clipPath id="XMLID_00000121246649655390657260000003657120457858525868_">
						<use xlink:href="#XMLID_88_"  style="overflow:visible;"/>
					</clipPath>
					<path style="clip-path:url(#XMLID_00000121246649655390657260000003657120457858525868_);fill:#3B2205;" d="M270.3,72.3
						c0.1,0,0.1,0,0.2,0c-0.2-0.1-0.6-0.5-0.7-1.2c-0.1-0.7,0.2-1.5,0.8-2.4c0.1-0.1,0.1-0.2,0.2-0.3c2.1-2.8,13.4-13.5,13.9-13.9
						c0,0,0.1-0.1,0.1-0.1c-0.1-0.1-0.3-0.1-0.4,0c-0.5,0.5-11.9,11.1-13.9,13.9c-0.1,0.1-0.1,0.2-0.2,0.3c-0.6,0.9-0.9,1.7-0.8,2.4
						C269.6,72,270.2,72.3,270.3,72.3z"/>
				</g>
			</g>
			<g>
				<g>
					<defs>
						<path id="XMLID_95_" d="M276.4,76.8C276.4,76.8,276.4,76.8,276.4,76.8c0.2-0.2,0.4-0.2,0.5,0c0,0,0.5,0.5,1.2,0.5
							c0.7,0,1.3-0.4,2-1.3c2.3-2.7,10.2-17.3,10.2-17.5c0.1-0.2,0.3-0.2,0.4-0.1c0.2,0.1,0.2,0.3,0.1,0.4
							c-0.3,0.6-8,14.9-10.3,17.6c-0.8,1-1.7,1.5-2.5,1.5c-1,0-1.6-0.6-1.6-0.7C276.3,77.1,276.3,76.9,276.4,76.8z"/>
					</defs>
					<use xlink:href="#XMLID_95_"  style="overflow:visible;fill:#4A2C04;"/>
					<clipPath id="XMLID_00000150812512602481264260000018292286300910738311_">
						<use xlink:href="#XMLID_95_"  style="overflow:visible;"/>
					</clipPath>
					<path style="clip-path:url(#XMLID_00000150812512602481264260000018292286300910738311_);fill:#3B2205;" d="M276.5,77.3
						c0-0.1-0.1-0.1-0.1-0.2c0.2,0.2,0.7,0.6,1.6,0.6c0.8,0,1.5-0.4,2.3-1.2c0.1-0.1,0.2-0.2,0.2-0.3c2.3-2.8,9.9-17,10.2-17.6
						c0-0.1,0-0.1,0-0.2c0.1,0.1,0.2,0.3,0.1,0.4c-0.3,0.6-7.9,14.9-10.2,17.6c-0.1,0.1-0.2,0.2-0.2,0.3c-0.7,0.8-1.5,1.2-2.3,1.2
						C277.1,78,276.5,77.3,276.5,77.3z"/>
				</g>
			</g>
			<g>
				<defs>
					<path id="XMLID_87_" d="M292.4,62.5c0.3-0.4,0.4-0.9,0.3-1.4c0,0,0.1-0.1,0.1-0.1l6.4-8.5c1.7-2.2,1.2-5.4-1-7l-2.1-1.6
						c-2.2-1.7-5.4-1.2-7,1l-6.4,8.5c0,0,0,0,0,0.1c-0.5,0-1,0.3-1.3,0.7c-0.6,0.8-0.4,1.9,0.4,2.6l8.1,6.1
						C290.6,63.4,291.8,63.3,292.4,62.5z"/>
				</defs>
				<use xlink:href="#XMLID_87_"  style="overflow:visible;fill:#996000;"/>
				<clipPath id="XMLID_00000087396225732634243670000003760058985426775451_">
					<use xlink:href="#XMLID_87_"  style="overflow:visible;"/>
				</clipPath>
				<path style="opacity:6.000000e-02;clip-path:url(#XMLID_00000087396225732634243670000003760058985426775451_);" d="M296.7,34.1
					c0.6,1.2,6.4,13.1-9.5,28.2l5.5,4.8l18.2-20.3L296.7,34.1z"/>
				
					<line style="clip-path:url(#XMLID_00000087396225732634243670000003760058985426775451_);fill:none;stroke:#000000;stroke-miterlimit:10;" x1="281.6" y1="52.6" x2="293.7" y2="61.8"/>
			</g>
		</g>
		<path class="st41" d="M270.7,79.6c0,0,0.8-0.5,1.6-0.1c0.7,0.4,0.9,1.2,0,1.2C270.4,80.8,270.7,79.6,270.7,79.6z"/>
		<path class="st41" d="M273.4,81.1c0,0-0.4-1.7,0.5-1.1c0.6,0.3,0.9,0.9,0.6,1.1C274.3,81.4,273.4,81.1,273.4,81.1z"/>
		<path class="st41" d="M272.8,81.6c0,0.2-0.2,0.4-0.4,0.4s-0.4-0.2-0.4-0.4s0.2-0.4,0.4-0.4S272.8,81.4,272.8,81.6z"/>
		<circle class="st41" cx="273.2" cy="79.3" r="0.4"/>
		<circle class="st41" cx="269.9" cy="80.7" r="0.4"/>
		<g class="st16">
			<path class="st17" d="M239.3,82.9c0,0,0.2,0.3,0.5,0.8c0.3,0.4,0.6,1.1,1.1,1.8c0.8,1.5,1.9,3.4,3,5.2c0.3,0.4,0.6,0.9,0.9,1.3
				c0.3,0.4,0.6,0.8,0.9,1.2c0.3,0.4,0.6,0.8,0.8,1.2c0.3,0.4,0.5,0.7,0.8,1c0.3,0.3,0.5,0.6,0.7,0.9c0.2,0.3,0.4,0.5,0.6,0.7
				c0.3,0.4,0.5,0.7,0.5,0.7l0.1,0.1c0.4,0.6,0.2,1.4-0.4,1.8c-0.2,0.2-0.5,0.2-0.8,0.2c0,0-0.3,0-0.9-0.2c-0.3-0.1-0.7-0.1-1.1-0.3
				c-0.4-0.1-0.8-0.3-1.3-0.5c-0.5-0.2-0.9-0.5-1.5-0.8c-0.5-0.4-1-0.7-1.5-1.2c-0.5-0.5-1-0.9-1.4-1.5c-0.4-0.5-0.8-1.1-1.2-1.7
				c-1.5-2.4-2.2-5.1-2.3-7.1c0-0.5,0-1,0-1.4c0-0.4,0.1-0.8,0.1-1.1c0.1-0.6,0.2-0.9,0.2-0.9l0,0c0.2-0.7,0.9-1.1,1.6-0.9
				C238.9,82.5,239.1,82.7,239.3,82.9z"/>
		</g>
		<path class="st41" d="M251.3,78.5c0,0,0.5-0.8,1.3-0.8s1.4,0.6,0.6,1.1C251.6,79.7,251.3,78.5,251.3,78.5z"/>
		<path class="st41" d="M254.4,78.5c0,0-1.2-1.2-0.1-1.2c0.6,0,1.2,0.3,1.1,0.7S254.4,78.5,254.4,78.5z"/>
		<path class="st41" d="M253.7,79.2c0,0,0.8-0.5,1.6-0.1c0.7,0.4,0.9,1.2,0,1.2C253.3,80.4,253.7,79.2,253.7,79.2z"/>
		<path class="st41" d="M256.4,80.7c0,0-0.4-1.7,0.5-1.1c0.6,0.3,0.9,0.9,0.6,1.1C257.2,80.9,256.4,80.7,256.4,80.7z"/>
		<path class="st41" d="M255.8,81.2c0,0.2-0.2,0.4-0.4,0.4s-0.4-0.2-0.4-0.4c0-0.2,0.2-0.4,0.4-0.4S255.8,81,255.8,81.2z"/>
		<circle class="st41" cx="256.1" cy="78.9" r="0.4"/>
		<circle class="st41" cx="252.6" cy="80" r="0.4"/>
		<path class="st41" d="M251.4,79.6c0,0.2-0.2,0.4-0.4,0.4c-0.2,0-0.4-0.2-0.4-0.4c0-0.2,0.2-0.4,0.4-0.4
			C251.2,79.2,251.4,79.4,251.4,79.6z"/>
	</g>
	<g>
		<ellipse class="st8" cx="463.2" cy="110.9" rx="31.8" ry="7"/>
		<path class="st9" d="M445.7,104.5c0,0,4.3,2.3,5.7,3.9c1.2,1.3,2.6,2.4,4.4,2.7c3,0.6,7.8,1.1,13.4,0.1c2-0.4,3.9-1.4,5-3.2
			c0.4-0.6,1.8-2.1,3.1-2.5"/>
		<g>
			<g>
				<defs>
					<path id="XMLID_101_" d="M492.1,100.4c-1.8,0-3.9-0.4-6.3-1.4c-0.8-0.3-1.1-1.2-0.8-2c0.3-0.8,1.2-1.1,2-0.8
						c5.2,2.1,9.4,1.2,11.9-2.6c2.5-3.8,2.6-9.4,0.1-11.8c-1.1-1.1-2.1-1.6-3.2-1.4c-2,0.3-3.7,2.8-4.2,3.6c-0.4,0.7-1.3,1-2,0.6
						c-0.7-0.4-1-1.3-0.6-2c0.3-0.5,2.6-4.6,6.4-5.2c2-0.3,3.9,0.5,5.7,2.3c3.5,3.5,3.6,10.6,0.2,15.6
						C500.2,97.1,497.3,100.4,492.1,100.4z"/>
				</defs>
				<use xlink:href="#XMLID_101_"  style="overflow:visible;fill:#996000;"/>
				<clipPath id="XMLID_00000029035395680799466720000006564695106262206640_">
					<use xlink:href="#XMLID_101_"  style="overflow:visible;"/>
				</clipPath>
				<g style="opacity:0.27;clip-path:url(#XMLID_00000029035395680799466720000006564695106262206640_);">
					<path class="st11" d="M495.5,79.5c-2,0.3-4.7,2.7-5.1,3.6c-0.4,0.6-1.1,0.9-1.8,0.7c0,0.5,0.3,1,0.8,1.3
						c0.7,0.4,1.7,0.1,2.1-0.6c0.5-0.9,2.3-3.4,4.3-3.7c1-0.1,2.3,2,3.4,3c-0.2-0.5,0.8-0.2,0.5-1.5
						C499.1,80.6,497.5,79.3,495.5,79.5z"/>
					<path class="st11" d="M501.8,79.9c2.4,3.8,2.1,10-0.9,14.4c-1.2,1.8-4.1,5.1-9.4,5.1c-1.8,0-3.9-0.4-6.2-1.3
						c0,0.6,0.4,1.1,0.9,1.3c2.4,1,4.5,1.4,6.4,1.4c5.3,0,8.3-3.3,9.4-5.1C505.4,90.7,505.3,83.5,501.8,79.9z"/>
				</g>
			</g>
		</g>
		<g>
			<g>
				<defs>
					<circle id="XMLID_100_" cx="463.1" cy="-8" r="13.7"/>
				</defs>
				<use xlink:href="#XMLID_100_"  style="overflow:visible;fill:#BBD500;"/>
				<clipPath id="XMLID_00000151534621922607877210000018106011090607991228_">
					<use xlink:href="#XMLID_100_"  style="overflow:visible;"/>
				</clipPath>
				<path style="opacity:2.000000e-02;clip-path:url(#XMLID_00000151534621922607877210000018106011090607991228_);" d="M468.8-20.4
					c1.3,2.1,2,4.5,2,7.1c0,7.6-6.1,13.7-13.7,13.7c-2,0-3.9-0.5-5.7-1.2c2.4,3.9,6.7,6.6,11.7,6.6c7.6,0,13.7-6.1,13.7-13.7
					C476.8-13.5,473.5-18.3,468.8-20.4z"/>
			</g>
			<text transform="matrix(1 0 0 1 456.4885 -2.6926)" class="st17" style="font-family:'TrashHand'; font-size:24.4902px;">4</text>
		</g>
		<text transform="matrix(1 0 0 1 419.6223 23.528)" style="font-family:'Montserrat-Regular'; font-size:10px;">Enjoy your matcha!</text>
		<g>
			<defs>
				<path id="XMLID_99_" d="M432.2,75.3c0,0-3.3,32.8,29.7,33c36.9,0.3,30.3-33,30.3-33"/>
			</defs>
			<use xlink:href="#XMLID_99_"  style="overflow:visible;fill:#996000;"/>
			<clipPath id="XMLID_00000060746872496523563760000008049044237472467594_">
				<use xlink:href="#XMLID_99_"  style="overflow:visible;"/>
			</clipPath>
			<path style="opacity:0.41;clip-path:url(#XMLID_00000060746872496523563760000008049044237472467594_);fill:#8E5400;" d="
				M492.3,75.3h-9.5c0.5,8.4-1,30-30.7,29.7c-2.3,0-4.4-0.2-6.4-0.5c4.1,2.3,9.4,3.8,16.3,3.8C498.9,108.6,492.3,75.3,492.3,75.3z"
				/>
			<path style="opacity:0.66;clip-path:url(#XMLID_00000060746872496523563760000008049044237472467594_);fill:#8E5400;" d="
				M495.3,74.3l-9.5,0.8c1.3,8.3,1.6,29.9-28.1,32.2c-2.3,0.2-4.4,0.2-6.4,0c4.3,1.9,9.7,3,16.5,2.4
				C504.7,106.9,495.3,74.3,495.3,74.3z"/>
		</g>
		<g>
			<defs>
				<path id="XMLID_98_" d="M492.3,75.3c0,3.8-13.4,6.9-30,6.9c-16.6,0-30-3.1-30-6.9s13.4-6.9,30-6.9
					C478.8,68.4,492.3,71.5,492.3,75.3z"/>
			</defs>
			<use xlink:href="#XMLID_98_"  style="overflow:visible;fill:#7A4800;"/>
			<clipPath id="XMLID_00000040566652345336128660000013595772175702501027_">
				<use xlink:href="#XMLID_98_"  style="overflow:visible;"/>
			</clipPath>
			<path style="opacity:5.000000e-02;clip-path:url(#XMLID_00000040566652345336128660000013595772175702501027_);" d="M463,68.4
				c-15.8,0.4-28.7,3.5-29.8,7.1c5.1-2.3,14.9-3.9,26.2-4.2c16.6-0.4,30.1,2.4,30.2,6.2c0,0.2,0,0.3-0.1,0.5c2.3-1,3.6-2.2,3.6-3.4
				C493.1,70.7,479.6,68,463,68.4z"/>
			<g style="clip-path:url(#XMLID_00000040566652345336128660000013595772175702501027_);">
				<defs>
					<path id="XMLID_97_" d="M491.6,77.7c0.1,3.8-13.3,7.2-29.9,7.6c-16.6,0.4-30.1-2.4-30.2-6.2c-0.1-3.8,13.3-7.2,29.9-7.6
						C478,71.1,491.5,73.9,491.6,77.7z"/>
				</defs>
				<use xlink:href="#XMLID_97_"  style="overflow:visible;fill:#BBD700;"/>
				<clipPath id="XMLID_00000062873042478523229810000014544532737197303201_">
					<use xlink:href="#XMLID_97_"  style="overflow:visible;"/>
				</clipPath>
				<path style="opacity:0.33;clip-path:url(#XMLID_00000062873042478523229810000014544532737197303201_);fill:#FFFFFF;" d="
					M440.6,79c0.2,0.3-0.1,0.5-0.3,0.7c-0.2,0.2-0.5,0.2-0.8,0c-0.2-0.2-0.3-0.5-0.1-0.7C439.6,78.7,440.2,78.4,440.6,79z"/>
				<path style="opacity:0.33;clip-path:url(#XMLID_00000062873042478523229810000014544532737197303201_);fill:#FFFFFF;" d="
					M443.8,81.6c0.2,0.3-0.1,0.5-0.3,0.7c-0.2,0.2-0.5,0.2-0.8,0c-0.2-0.2-0.3-0.5-0.1-0.7C442.9,81.4,443.5,81.1,443.8,81.6z"/>
				<path style="opacity:0.33;clip-path:url(#XMLID_00000062873042478523229810000014544532737197303201_);fill:#FFFFFF;" d="
					M448,78.3c0,0.2-0.1,0.3-0.3,0.3s-0.3-0.1-0.3-0.3c0-0.2,0.1-0.3,0.3-0.3S448,78.2,448,78.3z"/>
				<path style="opacity:0.33;clip-path:url(#XMLID_00000062873042478523229810000014544532737197303201_);fill:#FFFFFF;" d="
					M451.5,79.6c0,0.2-0.1,0.3-0.3,0.3s-0.3-0.1-0.3-0.3c0-0.2,0.1-0.3,0.3-0.3S451.5,79.4,451.5,79.6z"/>
				<path style="opacity:0.33;clip-path:url(#XMLID_00000062873042478523229810000014544532737197303201_);fill:#FFFFFF;" d="
					M459,80.8c0,0.2-0.1,0.3-0.3,0.3c-0.2,0-0.3-0.1-0.3-0.3c0-0.2,0.1-0.3,0.3-0.3C458.8,80.5,459,80.6,459,80.8z"/>
				<path style="opacity:0.33;clip-path:url(#XMLID_00000062873042478523229810000014544532737197303201_);fill:#FFFFFF;" d="
					M458.1,84.2c0,0.2-0.1,0.3-0.3,0.3c-0.2,0-0.3-0.1-0.3-0.3c0-0.2,0.1-0.3,0.3-0.3C457.9,83.9,458.1,84,458.1,84.2z"/>
				<path style="opacity:0.61;clip-path:url(#XMLID_00000062873042478523229810000014544532737197303201_);fill:#D7DF00;" d="
					M448.6,83.4c0,0.2-0.1,0.3-0.3,0.3c-0.2,0-0.3-0.1-0.3-0.3c0-0.2,0.1-0.3,0.3-0.3C448.5,83.1,448.6,83.2,448.6,83.4z"/>
				<path style="opacity:0.33;clip-path:url(#XMLID_00000062873042478523229810000014544532737197303201_);fill:#FFFFFF;" d="
					M453.6,78.2c0,0.2-0.1,0.3-0.3,0.3s-0.3-0.1-0.3-0.3c0-0.2,0.1-0.3,0.3-0.3S453.6,78,453.6,78.2z"/>
				<path style="opacity:0.33;clip-path:url(#XMLID_00000062873042478523229810000014544532737197303201_);fill:#FFFFFF;" d="
					M458.4,76.5c0,0.2-0.1,0.3-0.3,0.3c-0.2,0-0.3-0.1-0.3-0.3c0-0.2,0.1-0.3,0.3-0.3C458.3,76.2,458.4,76.4,458.4,76.5z"/>
				
					<circle style="opacity:0.3;clip-path:url(#XMLID_00000062873042478523229810000014544532737197303201_);fill:#FFFFFF;" cx="463.5" cy="75" r="0.3"/>
				<path style="opacity:0.33;clip-path:url(#XMLID_00000062873042478523229810000014544532737197303201_);fill:#FFFFFF;" d="
					M453.1,75.4c0,0.2-0.1,0.3-0.3,0.3s-0.3-0.1-0.3-0.3c0-0.2,0.1-0.3,0.3-0.3S453.1,75.2,453.1,75.4z"/>
				<path style="opacity:0.3;clip-path:url(#XMLID_00000062873042478523229810000014544532737197303201_);fill:#FFFFFF;" d="
					M463.8,77.3c0.2,0.3-0.1,0.5-0.3,0.7c-0.2,0.2-0.5,0.2-0.8,0c-0.2-0.2-0.3-0.5-0.1-0.7C462.8,77.1,463.4,76.7,463.8,77.3z"/>
				<path style="opacity:0.3;clip-path:url(#XMLID_00000062873042478523229810000014544532737197303201_);fill:#FFFFFF;" d="
					M470.6,79.4c0,0.2-0.1,0.3-0.3,0.3c-0.2,0-0.3-0.1-0.3-0.3c0-0.2,0.1-0.3,0.3-0.3C470.4,79.1,470.6,79.2,470.6,79.4z"/>
				<path style="opacity:0.3;clip-path:url(#XMLID_00000062873042478523229810000014544532737197303201_);fill:#FFFFFF;" d="
					M473.9,78.3c0.2,0.3,0,0.1-0.2,0.4c-0.2,0.2-0.4,0.5-0.6,0.3c-0.2-0.2-0.3-0.5-0.1-0.7C473.2,78,473.6,77.8,473.9,78.3z"/>
				<path style="opacity:0.33;clip-path:url(#XMLID_00000062873042478523229810000014544532737197303201_);fill:#FFFFFF;" d="
					M444.9,76.2c-0.1,0.3-0.1,0.1-0.4,0.1c-0.3,0-0.6,0.1-0.6-0.2c0-0.3,0.2-0.6,0.4-0.6C444.7,75.5,445.1,75.6,444.9,76.2z"/>
				<path style="opacity:0.3;clip-path:url(#XMLID_00000062873042478523229810000014544532737197303201_);fill:#FFFFFF;" d="
					M475.6,81.5c0,0.2-0.1,0.3-0.3,0.3c-0.2,0-0.3-0.1-0.3-0.3s0.1-0.3,0.3-0.3C475.5,81.2,475.6,81.4,475.6,81.5z"/>
				<path style="opacity:0.3;clip-path:url(#XMLID_00000062873042478523229810000014544532737197303201_);fill:#FFFFFF;" d="
					M472.7,75.5c0,0.1-0.1,0.2-0.2,0.2c-0.1,0-0.2-0.1-0.2-0.2c0-0.1,0.1-0.2,0.2-0.2C472.6,75.4,472.7,75.4,472.7,75.5z"/>
				
					<circle style="opacity:0.23;clip-path:url(#XMLID_00000062873042478523229810000014544532737197303201_);fill:#FFFFFF;" cx="467.5" cy="81.6" r="0.2"/>
				
					<circle style="opacity:0.33;clip-path:url(#XMLID_00000062873042478523229810000014544532737197303201_);fill:#FFFFFF;" cx="468.8" cy="75.7" r="0.3"/>
				<path style="opacity:0.33;clip-path:url(#XMLID_00000062873042478523229810000014544532737197303201_);fill:#FFFFFF;" d="
					M456,81.1c0.2,0.3-0.1,0.5-0.3,0.7c-0.2,0.2-0.5,0.2-0.8,0c-0.2-0.2-0.3-0.5-0.1-0.7C455,80.9,455.6,80.6,456,81.1z"/>
				<path style="opacity:0.33;clip-path:url(#XMLID_00000062873042478523229810000014544532737197303201_);fill:#FFFFFF;" d="
					M459.2,83.8c0.2,0.3-0.1,0.5-0.3,0.7c-0.2,0.2-0.5,0.2-0.8,0c-0.2-0.2-0.3-0.5-0.1-0.7C458.2,83.6,458.8,83.2,459.2,83.8z"/>
				<path style="opacity:0.33;clip-path:url(#XMLID_00000062873042478523229810000014544532737197303201_);fill:#FFFFFF;" d="
					M463.3,80.5c0,0.2-0.1,0.3-0.3,0.3s-0.3-0.1-0.3-0.3c0-0.2,0.1-0.3,0.3-0.3S463.3,80.3,463.3,80.5z"/>
				<path style="opacity:0.33;clip-path:url(#XMLID_00000062873042478523229810000014544532737197303201_);fill:#FFFFFF;" d="
					M466.9,81.7c0,0.2-0.1,0.3-0.3,0.3c-0.2,0-0.3-0.1-0.3-0.3c0-0.2,0.1-0.3,0.3-0.3C466.7,81.4,466.9,81.6,466.9,81.7z"/>
				<path style="opacity:0.33;clip-path:url(#XMLID_00000062873042478523229810000014544532737197303201_);fill:#FFFFFF;" d="
					M474.3,83c0,0.2-0.1,0.3-0.3,0.3c-0.2,0-0.3-0.1-0.3-0.3s0.1-0.3,0.3-0.3C474.2,82.7,474.3,82.8,474.3,83z"/>
				<path style="opacity:0.33;clip-path:url(#XMLID_00000062873042478523229810000014544532737197303201_);fill:#FFFFFF;" d="
					M473.4,86.3c0,0.2-0.1,0.3-0.3,0.3s-0.3-0.1-0.3-0.3c0-0.2,0.1-0.3,0.3-0.3S473.4,86.2,473.4,86.3z"/>
				<path style="opacity:0.61;clip-path:url(#XMLID_00000062873042478523229810000014544532737197303201_);fill:#D7DF00;" d="
					M464,85.6c0,0.2-0.1,0.3-0.3,0.3c-0.2,0-0.3-0.1-0.3-0.3c0-0.2,0.1-0.3,0.3-0.3C463.9,85.3,464,85.4,464,85.6z"/>
				<path style="opacity:0.33;clip-path:url(#XMLID_00000062873042478523229810000014544532737197303201_);fill:#FFFFFF;" d="
					M469,80.3c0,0.2-0.1,0.3-0.3,0.3c-0.2,0-0.3-0.1-0.3-0.3c0-0.2,0.1-0.3,0.3-0.3C468.9,80,469,80.2,469,80.3z"/>
				<path style="opacity:0.33;clip-path:url(#XMLID_00000062873042478523229810000014544532737197303201_);fill:#FFFFFF;" d="
					M473.8,78.7c0,0.2-0.1,0.3-0.3,0.3c-0.2,0-0.3-0.1-0.3-0.3s0.1-0.3,0.3-0.3C473.7,78.4,473.8,78.5,473.8,78.7z"/>
				
					<circle style="opacity:0.3;clip-path:url(#XMLID_00000062873042478523229810000014544532737197303201_);fill:#FFFFFF;" cx="478.9" cy="77.2" r="0.3"/>
				<path style="opacity:0.33;clip-path:url(#XMLID_00000062873042478523229810000014544532737197303201_);fill:#FFFFFF;" d="
					M468.5,77.6c0,0.2-0.1,0.3-0.3,0.3s-0.3-0.1-0.3-0.3s0.1-0.3,0.3-0.3S468.5,77.4,468.5,77.6z"/>
				<path style="opacity:0.3;clip-path:url(#XMLID_00000062873042478523229810000014544532737197303201_);fill:#FFFFFF;" d="
					M479.1,79.5c0.2,0.3-0.1,0.5-0.3,0.7c-0.2,0.2-0.5,0.2-0.8,0c-0.2-0.2-0.3-0.5-0.1-0.7C478.2,79.3,478.8,78.9,479.1,79.5z"/>
				
					<circle style="opacity:0.3;clip-path:url(#XMLID_00000062873042478523229810000014544532737197303201_);fill:#FFFFFF;" cx="485.6" cy="81.6" r="0.3"/>
				<path style="opacity:0.3;clip-path:url(#XMLID_00000062873042478523229810000014544532737197303201_);fill:#FFFFFF;" d="
					M489.3,80.5c0.2,0.3,0,0.1-0.2,0.4c-0.2,0.2-0.4,0.5-0.6,0.3c-0.2-0.2-0.3-0.5-0.1-0.7C488.6,80.2,488.9,80,489.3,80.5z"/>
				<path style="opacity:0.33;clip-path:url(#XMLID_00000062873042478523229810000014544532737197303201_);fill:#FFFFFF;" d="
					M460.3,78.4c-0.1,0.3-0.1,0.1-0.4,0.1c-0.3,0-0.6,0.1-0.6-0.2c0-0.3,0.2-0.6,0.4-0.6C460,77.7,460.4,77.8,460.3,78.4z"/>
				<path style="opacity:0.3;clip-path:url(#XMLID_00000062873042478523229810000014544532737197303201_);fill:#FFFFFF;" d="
					M491,83.7c0,0.2-0.1,0.3-0.3,0.3s-0.3-0.1-0.3-0.3c0-0.2,0.1-0.3,0.3-0.3S491,83.5,491,83.7z"/>
				<path style="opacity:0.3;clip-path:url(#XMLID_00000062873042478523229810000014544532737197303201_);fill:#FFFFFF;" d="
					M488,77.7c0,0.1-0.1,0.2-0.2,0.2c-0.1,0-0.2-0.1-0.2-0.2c0-0.1,0.1-0.2,0.2-0.2C488,77.5,488,77.6,488,77.7z"/>
				<path style="opacity:0.23;clip-path:url(#XMLID_00000062873042478523229810000014544532737197303201_);fill:#FFFFFF;" d="
					M483,83.7c0,0.1-0.1,0.2-0.2,0.2s-0.2-0.1-0.2-0.2c0-0.1,0.1-0.2,0.2-0.2S483,83.6,483,83.7z"/>
				<path style="opacity:0.33;clip-path:url(#XMLID_00000062873042478523229810000014544532737197303201_);fill:#FFFFFF;" d="
					M484.4,77.9c0,0.2-0.1,0.3-0.3,0.3s-0.3-0.1-0.3-0.3s0.1-0.3,0.3-0.3S484.4,77.7,484.4,77.9z"/>
			</g>
			
				<path id="XMLID_96_" style="opacity:0.12;clip-path:url(#XMLID_00000040566652345336128660000013595772175702501027_);fill:#FFFFFF;" d="
				M492.8,81.1c0.1,3.8-13.3,7.2-29.9,7.6c-16.6,0.4-30.1-2.4-30.2-6.2c-0.1-3.8,13.3-7.2,29.9-7.6
				C479.2,74.5,492.7,77.3,492.8,81.1z"/>
			
				<path id="XMLID_34_" style="opacity:0.12;clip-path:url(#XMLID_00000040566652345336128660000013595772175702501027_);fill:#FFFFFF;" d="
				M497.1,83.5c0.1,3.8-13.3,7.2-29.9,7.6c-16.6,0.4-30.1-2.4-30.2-6.2c-0.1-3.8,13.3-7.2,29.9-7.6C483.5,76.9,497,79.7,497.1,83.5z
				"/>
		</g>
		<g class="st16">
			<path class="st17" d="M438.4,82.7c0,0,0.2,0.3,0.5,0.8c0.3,0.4,0.6,1.1,1.1,1.8c0.8,1.5,1.9,3.4,3,5.2c0.3,0.4,0.6,0.9,0.9,1.3
				c0.3,0.4,0.6,0.8,0.9,1.2c0.3,0.4,0.6,0.8,0.8,1.2c0.3,0.4,0.5,0.7,0.8,1c0.3,0.3,0.5,0.6,0.7,0.9c0.2,0.3,0.4,0.5,0.6,0.7
				c0.3,0.4,0.5,0.7,0.5,0.7l0.1,0.1c0.4,0.6,0.2,1.4-0.4,1.8c-0.2,0.2-0.5,0.2-0.8,0.2c0,0-0.3,0-0.9-0.2c-0.3-0.1-0.7-0.1-1.1-0.3
				c-0.4-0.1-0.8-0.3-1.3-0.5c-0.5-0.2-0.9-0.5-1.5-0.8c-0.5-0.4-1-0.7-1.5-1.2c-0.5-0.5-1-0.9-1.4-1.5c-0.4-0.5-0.8-1.1-1.2-1.7
				c-1.5-2.4-2.2-5.1-2.3-7.1c0-0.5,0-1,0-1.4c0-0.4,0.1-0.8,0.1-1.1c0.1-0.6,0.2-0.9,0.2-0.9l0,0c0.2-0.7,0.9-1.1,1.6-0.9
				C438,82.2,438.3,82.4,438.4,82.7z"/>
		</g>
		<g>
			<defs>
				<path id="XMLID_103_" d="M487.8,68.3c0,0,4-3.4,4-5.8c0-1.3-1.1-2.4-2.4-2.4c-1,0-1.8,0.6-2.2,1.4c-0.4-0.9-1.2-1.4-2.2-1.4
					c-1.3,0-2.4,1.1-2.4,2.4c0.2,2.9,3.9,5.8,3.9,5.8S487.1,68.9,487.8,68.3z"/>
			</defs>
			<use xlink:href="#XMLID_103_"  style="overflow:visible;fill:#BBD700;"/>
			<clipPath id="XMLID_00000080903718388018249190000009929084392170635906_">
				<use xlink:href="#XMLID_103_"  style="overflow:visible;"/>
			</clipPath>
			<g style="opacity:3.000000e-02;clip-path:url(#XMLID_00000080903718388018249190000009929084392170635906_);">
				<path class="st54" d="M490.4,60.3c0.3,0.4,0.5,0.9,0.5,1.5c0,2.4-4,5.8-4,5.8c-0.3,0.3-0.5,0.3-0.7,0.3c0.3,0.3,0.5,0.4,0.5,0.4
					s0.6,0.7,1.2,0c0,0,4-3.4,4-5.8C491.9,61.5,491.3,60.7,490.4,60.3z"/>
			</g>
			<g style="opacity:0.19;clip-path:url(#XMLID_00000080903718388018249190000009929084392170635906_);">
				<path class="st17" d="M485.6,61.3c0,0-0.2,0.2-0.3,0.5c-0.1,0.1-0.1,0.3-0.2,0.4c0,0.1,0,0.1,0,0.2c0,0.1,0,0.1,0,0.2
					c0,0.1,0,0.1,0,0.2c0,0.1,0,0.2,0,0.3c0,0.2,0,0.4,0,0.6c0,0.4,0,0.7,0,0.7l0,0c0,0.2-0.2,0.3-0.4,0.3c-0.1,0-0.1,0-0.1,0
					c0,0-0.1,0-0.2-0.1c-0.1,0-0.1-0.1-0.2-0.2c-0.1-0.1-0.2-0.1-0.2-0.2c-0.3-0.4-0.6-1-0.6-1.8c0-0.2,0.1-0.4,0.1-0.6
					c0.1-0.2,0.2-0.4,0.3-0.5c0.2-0.3,0.5-0.5,0.8-0.6c0.3-0.1,0.5-0.1,0.6-0.1c0.2,0,0.3,0,0.2,0c0.2,0,0.3,0.1,0.4,0.2
					C485.8,61.1,485.7,61.3,485.6,61.3z"/>
			</g>
		</g>
		<g>
			<defs>
				<path id="XMLID_1_" d="M480.3,59.1c0,0,4.6-3.8,4.6-6.5c0-1.5-1.2-2.7-2.7-2.7c-1.1,0-2.1,0.7-2.5,1.6c-0.4-1-1.4-1.6-2.5-1.6
					c-1.5,0-2.7,1.2-2.7,2.7c0.3,3.3,4.5,6.5,4.5,6.5S479.5,59.8,480.3,59.1z"/>
			</defs>
			<use xlink:href="#XMLID_1_"  style="overflow:visible;fill:#BBD700;"/>
			<clipPath id="XMLID_00000026842733203279165010000004057278041387122070_">
				<use xlink:href="#XMLID_1_"  style="overflow:visible;"/>
			</clipPath>
			<g style="opacity:3.000000e-02;clip-path:url(#XMLID_00000026842733203279165010000004057278041387122070_);">
				<path class="st54" d="M483.2,50.1c0.4,0.5,0.6,1.1,0.6,1.7c0,2.7-4.6,6.5-4.6,6.5c-0.3,0.3-0.6,0.3-0.8,0.3
					c0.4,0.3,0.6,0.5,0.6,0.5s0.7,0.8,1.4,0c0,0,4.6-3.8,4.6-6.5C485,51.4,484.3,50.5,483.2,50.1z"/>
			</g>
			<g style="opacity:0.19;clip-path:url(#XMLID_00000026842733203279165010000004057278041387122070_);">
				<path class="st17" d="M477.8,51.2c0,0-0.2,0.3-0.4,0.6c-0.1,0.2-0.1,0.3-0.2,0.4c0,0.1,0,0.1-0.1,0.2c0,0.1,0,0.1,0,0.2
					c0,0.1,0,0.2,0,0.3c0,0.1,0,0.2,0,0.3c0,0.2,0,0.4,0,0.7c0,0.4,0,0.8,0,0.8l0,0c0,0.2-0.2,0.4-0.4,0.4c-0.1,0-0.1,0-0.2-0.1
					c0,0-0.1,0-0.2-0.1c-0.1,0-0.1-0.1-0.2-0.2c-0.1-0.1-0.2-0.1-0.3-0.3c-0.3-0.4-0.7-1.1-0.7-2c0-0.2,0.1-0.4,0.1-0.7
					c0.1-0.2,0.2-0.4,0.3-0.6c0.3-0.3,0.6-0.5,0.9-0.6c0.3-0.1,0.5-0.1,0.7-0.1c0.2,0,0.3,0.1,0.3,0.1c0.2,0,0.4,0.1,0.4,0.2
					C478.1,51,478,51.2,477.8,51.2z"/>
			</g>
		</g>
	</g>
	<g>
		<g>
			<defs>
				<circle id="XMLID_73_" cx="35.8" cy="31.5" r="13.7"/>
			</defs>
			<use xlink:href="#XMLID_73_"  style="overflow:visible;fill:#BBD500;"/>
			<clipPath id="XMLID_00000061437079976604163830000018169681726038147714_">
				<use xlink:href="#XMLID_73_"  style="overflow:visible;"/>
			</clipPath>
			<path style="opacity:2.000000e-02;clip-path:url(#XMLID_00000061437079976604163830000018169681726038147714_);" d="M41.5,19.1
				c1.3,2.1,2,4.5,2,7.1c0,7.6-6.1,13.7-13.7,13.7c-2,0-3.9-0.5-5.7-1.2c2.4,3.9,6.7,6.6,11.7,6.6c7.6,0,13.7-6.1,13.7-13.7
				C49.5,26,46.2,21.2,41.5,19.1z"/>
		</g>
		<g>
			<g>
				<path class="st17" d="M37,38.8h-1.5V26.4h-2.3v-1.4H37V38.8z"/>
			</g>
		</g>
	</g>
	<text transform="matrix(1 0 0 1 49.9337 -56.0129)"><tspan x="0" y="0" style="font-family:'Montserrat-Regular'; font-size:10px;">Add 60ml of </tspan><tspan x="7.9" y="12" style="font-family:'Montserrat-Regular'; font-size:10px;">hot water</tspan></text>
	<ellipse class="st8" cx="55.6" cy="128.5" rx="31.8" ry="7"/>
	<path class="st9" d="M38.1,122.1c0,0,4.3,2.3,5.7,3.9c1.2,1.3,2.6,2.4,4.4,2.7c3,0.6,7.8,1.1,13.4,0.1c2-0.4,3.9-1.4,5-3.2
		c0.4-0.6,1.8-2.1,3.1-2.5"/>
	<g>
		<g>
			<defs>
				<path id="XMLID_76_" d="M84.5,118c-1.8,0-3.9-0.4-6.3-1.4c-0.8-0.3-1.1-1.2-0.8-2c0.3-0.8,1.2-1.1,2-0.8
					c5.2,2.1,9.4,1.2,11.9-2.6c2.5-3.8,2.6-9.4,0.1-11.8c-1.1-1.1-2.1-1.6-3.2-1.4c-2,0.3-3.7,2.8-4.2,3.6c-0.4,0.7-1.3,1-2,0.6
					c-0.7-0.4-1-1.3-0.6-2c0.3-0.5,2.6-4.6,6.4-5.2c2-0.3,3.9,0.5,5.7,2.3c3.5,3.5,3.6,10.6,0.2,15.6C92.6,114.8,89.7,118,84.5,118z
					"/>
			</defs>
			<use xlink:href="#XMLID_76_"  style="overflow:visible;fill:#996000;"/>
			<clipPath id="XMLID_00000044169287118286121550000010385908995000428982_">
				<use xlink:href="#XMLID_76_"  style="overflow:visible;"/>
			</clipPath>
			<g style="opacity:0.27;clip-path:url(#XMLID_00000044169287118286121550000010385908995000428982_);">
				<path class="st11" d="M87.9,97.2c-2,0.3-4.7,2.7-5.1,3.6c-0.4,0.6-1.1,0.9-1.8,0.7c0,0.5,0.3,1,0.8,1.3c0.7,0.4,1.7,0.1,2.1-0.6
					c0.5-0.9,2.3-3.4,4.3-3.7c1-0.1,2.3,2,3.4,3c-0.2-0.5,0.8-0.2,0.5-1.5C91.5,98.2,89.9,96.9,87.9,97.2z"/>
				<path class="st11" d="M94.2,97.5c2.4,3.8,2.1,10-0.9,14.4c-1.2,1.8-4.1,5.1-9.4,5.1c-1.8,0-3.9-0.4-6.2-1.3
					c0,0.6,0.4,1.1,0.9,1.3c2.4,1,4.5,1.4,6.4,1.4c5.3,0,8.3-3.3,9.4-5.1C97.8,108.3,97.7,101.1,94.2,97.5z"/>
			</g>
		</g>
	</g>
	<g>
		<defs>
			<path id="XMLID_75_" d="M24.6,92.9c0,0-3.3,32.8,29.7,33c36.9,0.3,30.3-33,30.3-33"/>
		</defs>
		<use xlink:href="#XMLID_75_"  style="overflow:visible;fill:#996000;"/>
		<clipPath id="XMLID_00000035503207683752380070000012896539918794554265_">
			<use xlink:href="#XMLID_75_"  style="overflow:visible;"/>
		</clipPath>
		<path style="opacity:0.41;clip-path:url(#XMLID_00000035503207683752380070000012896539918794554265_);fill:#8E5400;" d="
			M84.7,92.9h-9.5c0.5,8.4-1,30-30.7,29.7c-2.3,0-4.4-0.2-6.4-0.5c4.1,2.3,9.4,3.8,16.3,3.8C91.3,126.2,84.7,92.9,84.7,92.9z"/>
		<path style="opacity:0.66;clip-path:url(#XMLID_00000035503207683752380070000012896539918794554265_);fill:#8E5400;" d="
			M87.7,91.9l-9.5,0.8c1.3,8.3,1.6,29.9-28.1,32.2c-2.3,0.2-4.4,0.2-6.4,0c4.3,1.9,9.7,3,16.5,2.4C97.1,124.5,87.7,91.9,87.7,91.9z"
			/>
	</g>
	<g>
		<defs>
			<path id="XMLID_74_" d="M84.7,92.9c0,3.8-13.4,6.9-30,6.9s-30-3.1-30-6.9S38,86,54.6,86S84.7,89.1,84.7,92.9z"/>
		</defs>
		<use xlink:href="#XMLID_74_"  style="overflow:visible;fill:#7A4800;"/>
		<clipPath id="XMLID_00000169546470142689677960000012795500105648037798_">
			<use xlink:href="#XMLID_74_"  style="overflow:visible;"/>
		</clipPath>
		<path style="opacity:5.000000e-02;clip-path:url(#XMLID_00000169546470142689677960000012795500105648037798_);" d="M54.6,86
			c-15.8,0-28.8,2.8-29.9,6.4c5.1-2.1,15-3.6,26.3-3.6c16.6,0,30,3.1,30,6.9c0,0.2,0,0.3-0.1,0.5c2.4-1,3.7-2.1,3.7-3.3
			C84.7,89.1,71.2,86,54.6,86z"/>
		<path id="XMLID_77_" style="clip-path:url(#XMLID_00000169546470142689677960000012795500105648037798_);fill:#BBD700;" d="
			M84.7,103.2c0,3.8-13.4,6.9-30,6.9s-30-3.1-30-6.9s13.4-6.9,30-6.9S84.7,99.4,84.7,103.2z"/>
		<g style="clip-path:url(#XMLID_00000169546470142689677960000012795500105648037798_);">
			<defs>
				<path id="XMLID_78_" d="M30.9,110.4c0,0,9.8,11.1,27.3,10.6c17.6-0.6,19.1-8.5,19.1-8.5s-1-7.3-4.9-8.6
					c-3.9-1.3-1.8-6.2-6.8-7.4c-2.4-0.6-4.6-6-8.8-6.8c-4.2-0.8-5.3,3.7-9.1,4.7c-3.8,1-4.3,5-6.6,5.6c-2.3,0.6-3.6,6-6.7,6.3
					C31.4,106.4,30.9,110.4,30.9,110.4z"/>
			</defs>
			<use xlink:href="#XMLID_78_"  style="overflow:visible;fill:#BBD700;"/>
			<clipPath id="XMLID_00000051380786958563539610000004332647387111016838_">
				<use xlink:href="#XMLID_78_"  style="overflow:visible;"/>
			</clipPath>
			<path style="opacity:5.000000e-02;clip-path:url(#XMLID_00000051380786958563539610000004332647387111016838_);" d="M51.8,85.5
				c0,0,9.3,10.4,8.4,16.8c-0.9,6.4,5.7,5.1,6.6,9.7c1,4.6,3.4,13.7,3.4,13.7l11.8-12.2C81.9,113.5,63.7,82.3,51.8,85.5z"/>
			<path style="opacity:5.000000e-02;clip-path:url(#XMLID_00000051380786958563539610000004332647387111016838_);" d="M53.1,86.3
				c0,0,10.6,9.1,10.5,15.6c-0.1,6.5,6.3,4.4,7.8,8.8c1.5,4.4,5.1,13.2,5.1,13.2l10.1-13.7C86.6,110.2,64.5,81.6,53.1,86.3z"/>
			<path style="opacity:0.3;clip-path:url(#XMLID_00000051380786958563539610000004332647387111016838_);fill:#FFFFFF;" d="
				M40,109.9c0,0.7-0.6,1.2-1.3,1.2c-0.7,0-1.2-0.6-1.2-1.3c0-0.7,0.6-1.2,1.3-1.2C39.5,108.6,40.1,109.2,40,109.9z"/>
			<path style="opacity:0.3;clip-path:url(#XMLID_00000051380786958563539610000004332647387111016838_);fill:#FFFFFF;" d="
				M47.5,105.9c0.6,1.1,0,0.6-0.8,1.5c-0.8,0.9-1.7,1.9-2.6,1c-0.9-0.9-1-2.3-0.2-3.2C44.7,104.3,46.2,103.5,47.5,105.9z"/>
			<path style="opacity:0.3;clip-path:url(#XMLID_00000051380786958563539610000004332647387111016838_);fill:#FFFFFF;" d="
				M45.3,112.3c0,0.7-0.6,1.2-1.3,1.2c-0.7,0-1.2-0.6-1.2-1.3c0-0.7,0.6-1.2,1.3-1.2C44.8,111,45.3,111.6,45.3,112.3z"/>
			<path style="opacity:0.3;clip-path:url(#XMLID_00000051380786958563539610000004332647387111016838_);fill:#FFFFFF;" d="
				M70.3,127.8c0,0.3-0.3,0.6-0.7,0.6c-0.3,0-0.6-0.3-0.6-0.7c0-0.3,0.3-0.6,0.7-0.6C70.1,127.1,70.3,127.4,70.3,127.8z"/>
			<path style="opacity:0.3;clip-path:url(#XMLID_00000051380786958563539610000004332647387111016838_);fill:#FFFFFF;" d="
				M41.1,105.7c0,0.3-0.3,0.6-0.7,0.6c-0.3,0-0.6-0.3-0.6-0.7c0-0.3,0.3-0.6,0.7-0.6C40.8,105,41.1,105.3,41.1,105.7z"/>
			<path style="opacity:0.3;clip-path:url(#XMLID_00000051380786958563539610000004332647387111016838_);fill:#FFFFFF;" d="
				M49.6,114.5c0,0.7-0.6,1.2-1.3,1.2c-0.7,0-1.2-0.6-1.2-1.3c0-0.7,0.6-1.2,1.3-1.2C49.1,113.2,49.7,113.9,49.6,114.5z"/>
			<path style="opacity:0.3;clip-path:url(#XMLID_00000051380786958563539610000004332647387111016838_);fill:#FFFFFF;" d="
				M49,110.1c0,0.3-0.3,0.6-0.7,0.6c-0.3,0-0.6-0.3-0.6-0.7c0-0.3,0.3-0.6,0.7-0.6C48.7,109.5,49,109.8,49,110.1z"/>
		</g>
	</g>
	<g class="st67">
		<path class="st17" d="M83,68c0,0,0-0.1,0-0.2l0,0l0-0.1c0,0,0-0.1,0.1-0.1c0-0.1,0.1-0.2,0.2-0.3c0.2-0.2,0.4-0.3,0.5-0.3
			c0.2,0,0.3,0,0.3,0c0.1,0,0.2,0.2,0.2,0.3c0,0.1-0.1,0.1-0.1,0.2l0,0c0,0-0.1,0-0.1,0.1c-0.1,0-0.2,0.1-0.2,0.2
			c0,0-0.1,0.1-0.1,0.1c0,0,0,0-0.1,0.1c0,0,0,0.1,0,0l0,0c-0.1,0.1-0.1,0.2-0.1,0.2c-0.1,0.1-0.3,0.1-0.4,0C83,68.2,83,68.1,83,68z
			"/>
	</g>
	<path class="st68" d="M52.2,82.8c0,0,0.2-2.2-1.2-7.8s-1.8-14.2,0-16.7s1.2-8,3-12.8c1.4-3.8,2,9,3.2,12.8s-1.8,7.5-1.8,12.2
		S53.9,82.8,52.2,82.8z"/>
	<path class="st68" d="M59.9,82.9c0,0-3.9-8.6-1.7-13c2.2-4.2,3.7-11,3.7-11c-0.8-3.3,2.3,8.8,0.2,13.2
		C60.4,75.4,59.9,82.9,59.9,82.9z"/>
	<g>
		<g>
			<g>
				<g>
					<defs>
						<path id="XMLID_72_" d="M130.3,56.6c-13.9,4-28.6-4-32.6-18c-2.3-8-0.7-16.7,4.4-23.3c3.4-4.5,8.1-7.7,13.6-9.3
							c13.9-4,28.6,4,32.6,18C152.3,37.9,144.2,52.6,130.3,56.6z M115.9,6.9c-5.3,1.5-9.8,4.6-13.1,8.9c-4.9,6.4-6.5,14.8-4.2,22.5
							c3.9,13.4,18,21.2,31.4,17.3c13.4-3.9,21.2-18,17.3-31.4C143.5,10.8,129.4,3,115.9,6.9z"/>
					</defs>
					<use xlink:href="#XMLID_72_"  style="overflow:visible;fill:#723F03;"/>
					<clipPath id="XMLID_00000089568197982761320880000002330124845814679448_">
						<use xlink:href="#XMLID_72_"  style="overflow:visible;"/>
					</clipPath>
					<g style="clip-path:url(#XMLID_00000089568197982761320880000002330124845814679448_);">
						<path class="st70" d="M102.3,15.8c3.4-4.5,8.1-7.7,13.6-9.3c13.8-4,28.3,3.9,32.5,17.6c0-0.1-0.1-0.2-0.1-0.4
							c-4-13.9-18.7-22-32.6-18c-5.4,1.6-10.1,4.8-13.6,9.3c-5.1,6.6-6.7,15.3-4.4,23.3c0,0.1,0.1,0.3,0.1,0.4
							C95.6,30.9,97.3,22.3,102.3,15.8z"/>
						<path class="st70" d="M130.2,56.2c13.4-3.9,21.2-18,17.3-31.4c0-0.1-0.1-0.2-0.1-0.4c3.6,13.3-4.1,27.2-17.4,31.1
							c-13.3,3.9-27.3-3.7-31.3-16.9c0,0.1,0.1,0.2,0.1,0.3C102.6,52.3,116.7,60.1,130.2,56.2z"/>
					</g>
				</g>
			</g>
			<g>
				<defs>
					<path id="XMLID_70_" d="M78.6,63.6c0.2,0.7,0.9,1.2,1.7,1.2c2.3-0.1,7.2,0,8.7,3.5c2,4.5,6.9,27,25.2,16.1
						c0.8-0.5,1.1-1.5,0.7-2.3l-8.7-16.7c0,0-6.9-14.8-27.8-7.7c-0.9,0.3-1.4,1.3-1.1,2.2L78.6,63.6z"/>
				</defs>
				<use xlink:href="#XMLID_70_"  style="overflow:visible;fill:#824D02;"/>
				<clipPath id="XMLID_00000183224926952292130470000008816790715653578175_">
					<use xlink:href="#XMLID_70_"  style="overflow:visible;"/>
				</clipPath>
				<path style="opacity:0.39;clip-path:url(#XMLID_00000183224926952292130470000008816790715653578175_);fill:#754103;" d="
					M90.2,66.2c-1.8-3.7-8.5-3.7-11.1-3.4c-0.8,0.1-1.6-0.4-1.9-1.2L77,61l1.1,3.1c0.2,0.7,0.9,1.2,1.7,1.2c2.3-0.1,7.2,0,8.7,3.5
					c2,4.5,6.9,27,25.2,16.1c0.3-0.2,0.6-0.5,0.7-0.9C97,92.9,92.5,70.8,90.2,66.2z"/>
			</g>
			<path class="st72" d="M128.5,89.7l0,0.9c0.1,1.8,1.7,3.2,3.5,3c4.7-0.5,13.5-2.1,21.5-6.8c1.7-1,2.1-3.3,0.8-4.8l-1-1.2"/>
			<g>
				<defs>
					<path id="XMLID_68_" d="M164.7,56.9c4.7,16.7-8.1,26.3-24.8,31.1c-16.7,4.8-30.4,3-35.7-13.6c-6.1-19.2,2.9-37.3,19.6-42.1
						C140.4,27.5,159,36.5,164.7,56.9z"/>
				</defs>
				<use xlink:href="#XMLID_68_"  style="overflow:visible;fill:#9A6001;"/>
				<clipPath id="XMLID_00000001660217634329000250000017413885308986908090_">
					<use xlink:href="#XMLID_68_"  style="overflow:visible;"/>
				</clipPath>
				<path style="opacity:0.47;clip-path:url(#XMLID_00000001660217634329000250000017413885308986908090_);fill:#915602;" d="
					M132.7,29.9c9.8,3.6,18.2,12.1,21.7,24.7c4.9,17.3-8.4,27.2-25.7,32.2c-6.7,1.9-13,2.8-18.5,2.2c6.7,2.9,16.7,5.8,26.3,3
					c17.3-5,37.3-14.2,30.9-38.1C163.4,38.6,145.2,31.8,132.7,29.9z"/>
				<path style="clip-path:url(#XMLID_00000001660217634329000250000017413885308986908090_);fill:#915602;" d="M137.8,31.3
					c9.8,3.6,18.2,12.1,21.7,24.7c4.9,17.3-8.4,27.2-25.7,32.2c-6.7,1.9-13,2.8-18.5,2.2c6.7,2.9,15.3,2.2,24.9-0.5
					c17.3-5,30.6-14.9,25.7-32.2C161.6,42.4,150.3,33.2,137.8,31.3z"/>
			</g>
			<g>
				<defs>
					<path id="XMLID_67_" d="M143,31.6c1.4,4.7-6.5,7.3-16.5,10.1c-10,2.9-18.3,5-19.7,0.3c-1.4-4.7,4.2-12.8,14.2-15.7
						C131,23.5,141.6,26.9,143,31.6z"/>
				</defs>
				<use xlink:href="#XMLID_67_"  style="overflow:visible;fill:#824D02;"/>
				<clipPath id="XMLID_00000095298186858327693870000003902089661148328888_">
					<use xlink:href="#XMLID_67_"  style="overflow:visible;"/>
				</clipPath>
				<path style="opacity:0.2;clip-path:url(#XMLID_00000095298186858327693870000003902089661148328888_);fill:#723F03;" d="
					M102.9,42.2c0,0,22.8,1.5,41.9-12.6l2.1,5.4l-18.6,9.5l-24.5,2.7L102.9,42.2z"/>
				<path style="opacity:0.2;clip-path:url(#XMLID_00000095298186858327693870000003902089661148328888_);fill:#723F03;" d="
					M125.1,25.2c0.5,1.9-0.5,3.8-2.4,4.3c-1.9,0.5-3.8-0.5-4.3-2.4c-0.5-1.9,0.5-3.8,2.4-4.3S124.5,23.3,125.1,25.2z"/>
			</g>
			<g>
				<g>
					<defs>
						<path id="XMLID_71_" d="M134.5,9.4c-0.5,0.1-1,0.1-1.5,0c-18-5.8-29.2,8.3-29.3,8.4c-0.8,1.1-2.4,1.3-3.5,0.4
							c-1.1-0.8-1.3-2.4-0.4-3.5c0.1-0.2,13.5-17,34.8-10.1c1.3,0.4,2,1.8,1.6,3.1C135.9,8.6,135.2,9.2,134.5,9.4z"/>
					</defs>
					<use xlink:href="#XMLID_71_"  style="overflow:visible;fill:#723F03;"/>
					<clipPath id="XMLID_00000170273257747480570790000001858152336639212991_">
						<use xlink:href="#XMLID_71_"  style="overflow:visible;"/>
					</clipPath>
					<path style="opacity:0.48;clip-path:url(#XMLID_00000170273257747480570790000001858152336639212991_);fill:#683503;" d="
						M100,16.8c0.1-0.2,13.5-17,34.8-10.1c0.5,0.2,1,0.5,1.3,0.9c0.3-1.2-0.4-2.5-1.7-2.9c-21.3-6.8-34.6,9.9-34.8,10.1
						c-0.7,0.9-0.7,2.1-0.1,3C99.6,17.4,99.8,17.1,100,16.8z"/>
				</g>
			</g>
			<g>
				<defs>
					<path id="XMLID_69_" d="M124.6,24c0.5,1.9-0.5,3.8-2.4,4.3s-3.8-0.5-4.3-2.4c-0.5-1.9,0.5-3.8,2.4-4.3
						C122.2,21.1,124.1,22.1,124.6,24z"/>
				</defs>
				<use xlink:href="#XMLID_69_"  style="overflow:visible;fill:#9A6001;"/>
				<clipPath id="XMLID_00000009577031204049979950000009102210857115406992_">
					<use xlink:href="#XMLID_69_"  style="overflow:visible;"/>
				</clipPath>
				<path style="opacity:0.53;clip-path:url(#XMLID_00000009577031204049979950000009102210857115406992_);fill:#8C5302;" d="
					M120.9,21.5c0.7,0.4,1.3,1.1,1.5,2c0.5,1.9-0.5,3.8-2.4,4.3c-0.2,0.1-0.4,0.1-0.6,0.1c0.8,0.5,1.8,0.7,2.8,0.4
					c1.9-0.5,2.9-2.5,2.4-4.3C124.2,22.3,122.6,21.3,120.9,21.5z"/>
			</g>
			<g class="st78">
				<path class="st17" d="M118.7,26.3c0,0-0.1-0.1-0.1-0.2c-0.1-0.1-0.2-0.2-0.2-0.4c-0.2-0.4-0.2-1-0.1-1.5
					c0.1-0.3,0.2-0.6,0.4-0.8c0.2-0.2,0.4-0.4,0.6-0.5c0.2-0.1,0.4-0.2,0.5-0.2c0.1,0,0.2,0,0.2,0c0.3,0,0.5,0.2,0.6,0.5
					c0,0.1,0,0.2,0,0.3l-0.1,0.2c0,0,0,0.1-0.1,0.1c0,0.1-0.1,0.2-0.1,0.3c0,0.1-0.1,0.2-0.1,0.4c0,0.1-0.1,0.3-0.1,0.4
					c-0.1,0.3-0.1,0.6-0.2,0.9c-0.1,0.3-0.1,0.5-0.1,0.5l0,0.1c-0.1,0.3-0.4,0.5-0.7,0.3C118.9,26.4,118.8,26.4,118.7,26.3z"/>
			</g>
		</g>
		<g>
			<defs>
				<path id="XMLID_79_" d="M76.3,65.5c-0.1-0.6-0.8-0.8-1.3-0.5c-0.8,0.7-1.9,1.8-2.1,3.5c-0.3,1.6,3,2.4,3.5,0.8
					C76.5,68.4,76.6,67.1,76.3,65.5z"/>
			</defs>
			<use xlink:href="#XMLID_79_"  style="overflow:visible;fill:#63CADB;"/>
			<clipPath id="XMLID_00000072238271959400313110000015337238969671830961_">
				<use xlink:href="#XMLID_79_"  style="overflow:visible;"/>
			</clipPath>
			<path style="opacity:0.14;clip-path:url(#XMLID_00000072238271959400313110000015337238969671830961_);fill:#56B1BA;" d="
				M76.3,65.5c-0.1-0.3-0.3-0.5-0.6-0.6c0.3,1.5,0.2,2.7,0,3.6c-0.3,1.1-1.9,1.1-2.8,0.4c0.2,1.4,3,1.9,3.4,0.4
				C76.5,68.4,76.6,67.1,76.3,65.5z"/>
		</g>
		<g>
			<g>
				<defs>
					<path id="XMLID_80_" d="M79,71.2c-0.2-0.5-0.8-0.6-1.2-0.2c-0.6,0.7-1.4,1.8-1.4,3.4c0,1.5,2.9,1.7,3.1,0.3
						C79.7,73.8,79.6,72.6,79,71.2z"/>
				</defs>
				<use xlink:href="#XMLID_80_"  style="overflow:visible;fill:#63CADB;"/>
				<clipPath id="XMLID_00000126316804657894710140000001622270826830166662_">
					<use xlink:href="#XMLID_80_"  style="overflow:visible;"/>
				</clipPath>
				<path style="opacity:0.14;clip-path:url(#XMLID_00000126316804657894710140000001622270826830166662_);fill:#56B1BA;" d="
					M79,71.2c-0.1-0.3-0.3-0.4-0.6-0.5c0.4,1.3,0.5,2.4,0.4,3.2c-0.1,1-1.5,1.2-2.4,0.7c0.4,1.2,2.9,1.3,3.1-0.1
					C79.7,73.8,79.6,72.6,79,71.2z"/>
			</g>
			<g class="st67">
				<path class="st17" d="M77.4,72.5c0,0,0-0.1,0-0.2l0,0l0-0.1c0,0,0-0.1,0-0.1c0-0.1,0.1-0.2,0.1-0.3c0.1-0.2,0.3-0.3,0.4-0.4
					c0.1-0.1,0.2-0.1,0.2-0.1c0.1,0,0.2,0.1,0.2,0.2c0,0,0,0,0,0l0,0.3c0,0-0.2,0.1-0.3,0.3c0,0-0.1,0.1-0.1,0.1l0,0.1
					c0,0,0,0.1,0,0l0,0c0,0.1-0.1,0.2-0.1,0.2c-0.1,0.1-0.2,0.1-0.3,0.1C77.4,72.7,77.4,72.6,77.4,72.5z"/>
			</g>
		</g>
		<g>
			<g>
				<defs>
					<path id="XMLID_32_" d="M76,78.9c-0.2-0.5-0.8-0.6-1.2-0.2c-0.6,0.7-1.4,1.8-1.4,3.4c0,1.5,2.9,1.7,3.1,0.3
						C76.7,81.4,76.6,80.3,76,78.9z"/>
				</defs>
				<use xlink:href="#XMLID_32_"  style="overflow:visible;fill:#63CADB;"/>
				<clipPath id="XMLID_00000109716526549819870970000018242953415220464565_">
					<use xlink:href="#XMLID_32_"  style="overflow:visible;"/>
				</clipPath>
				<path style="opacity:0.14;clip-path:url(#XMLID_00000109716526549819870970000018242953415220464565_);fill:#56B1BA;" d="
					M76,78.9c-0.1-0.3-0.3-0.4-0.6-0.5c0.4,1.3,0.5,2.4,0.4,3.2c-0.1,1-1.5,1.2-2.4,0.7c0.4,1.2,2.9,1.3,3.1-0.1
					C76.7,81.4,76.6,80.3,76,78.9z"/>
			</g>
			<g class="st67">
				<path class="st17" d="M74.4,80.2c0,0,0-0.1,0-0.2l0,0l0-0.1c0,0,0-0.1,0-0.1c0-0.1,0.1-0.2,0.1-0.3c0.1-0.2,0.3-0.3,0.4-0.4
					c0.1-0.1,0.2-0.1,0.2-0.1c0.1,0,0.2,0.1,0.2,0.2c0,0,0,0,0,0l0,0.3c0,0-0.2,0.1-0.3,0.3c0,0-0.1,0.1-0.1,0.1l0,0.1
					c0,0,0,0.1,0,0l0,0c0,0.1-0.1,0.2-0.1,0.2c-0.1,0.1-0.2,0.1-0.3,0.1C74.4,80.3,74.4,80.3,74.4,80.2z"/>
			</g>
		</g>
		<g class="st16">
			<path class="st17" d="M110.9,53.1c0,0,0,0.3,0,0.9c0,0.5,0,1.2,0.1,2.1c0,1.7,0,3.9,0.2,6c0.1,0.5,0.1,1,0.1,1.5
				c0,0.5,0.1,1,0.2,1.5c0.1,0.5,0.1,1,0.2,1.4c0.1,0.4,0.1,0.9,0.2,1.3c0.1,0.4,0.1,0.8,0.2,1.1c0,0.4,0.1,0.6,0.1,0.9
				c0.1,0.5,0.1,0.8,0.1,0.8l0,0.1c0,0.7-0.5,1.3-1.2,1.4c-0.3,0-0.6-0.1-0.8-0.2c0,0-0.3-0.2-0.7-0.6c-0.2-0.2-0.5-0.4-0.8-0.8
				c-0.3-0.3-0.6-0.7-0.9-1.1c-0.3-0.4-0.6-0.9-0.9-1.4c-0.2-0.5-0.5-1.1-0.7-1.7c-0.2-0.6-0.4-1.3-0.5-1.9
				c-0.1-0.7-0.2-1.4-0.2-2.1c-0.2-2.8,0.5-5.5,1.4-7.3c0.2-0.5,0.5-0.9,0.6-1.2c0.2-0.4,0.4-0.7,0.6-0.9c0.3-0.4,0.6-0.7,0.6-0.7
				l0,0c0.5-0.5,1.3-0.5,1.9,0C110.7,52.5,110.8,52.8,110.9,53.1z"/>
		</g>
	</g>
</g>
</svg>
