<?xml version="1.0" encoding="utf-8"?>
<!-- Generator: Adobe Illustrator 27.3.1, SVG Export Plug-In . SVG Version: 6.00 Build 0)  -->
<svg version="1.1" xmlns="http://www.w3.org/2000/svg" xmlns:xlink="http://www.w3.org/1999/xlink" x="0px" y="0px"
	 viewBox="0 0 117.3 117.8" style="enable-background:new 0 0 117.3 117.8;" xml:space="preserve">
<style type="text/css">
	.st0{display:none;}
	.st1{display:inline;fill:#FFFFFF;}
	.st2{opacity:3.000000e-02;clip-path:url(#XMLID_00000112625081134745180660000015185171114195545263_);}
	
		.st3{opacity:2.000000e-02;clip-path:url(#XMLID_00000112625081134745180660000015185171114195545263_);fill:none;stroke:#000000;stroke-width:0.6461;stroke-miterlimit:10;}
	.st4{opacity:3.000000e-02;clip-path:url(#XMLID_00000107564474476968316820000002608795056306703036_);}
	.st5{opacity:3.000000e-02;clip-path:url(#XMLID_00000049944220950955089510000004419027870336767375_);}
	
		.st6{opacity:2.000000e-02;clip-path:url(#XMLID_00000049944220950955089510000004419027870336767375_);fill:none;stroke:#000000;stroke-width:0.6461;stroke-miterlimit:10;}
	.st7{opacity:3.000000e-02;clip-path:url(#XMLID_00000089563231531374082470000013402737389015084977_);}
	.st8{opacity:2.000000e-02;clip-path:url(#XMLID_00000072998404452537945900000011001039141100281265_);}
	.st9{opacity:0.2;fill:#7A4800;}
	.st10{fill:#9A6100;}
	.st11{opacity:0.27;clip-path:url(#XMLID_00000132778366511501947920000005674106983255897532_);}
	.st12{fill:#6D3E00;}
	.st13{opacity:0.41;clip-path:url(#XMLID_00000106835100642307856700000017709292458897240762_);fill:#8E5400;}
	.st14{opacity:0.66;clip-path:url(#XMLID_00000106835100642307856700000017709292458897240762_);fill:#8E5400;}
	.st15{opacity:5.000000e-02;clip-path:url(#XMLID_00000045577375510053501360000015743647135456320402_);}
	.st16{opacity:5.000000e-02;}
	.st17{fill:#FFFFFF;}
	.st18{opacity:5.000000e-02;clip-path:url(#XMLID_00000181049113261315830000000001282213775325999235_);}
	.st19{opacity:5.000000e-02;clip-path:url(#XMLID_00000056389866820329072050000000284246706933869711_);}
	.st20{opacity:0.3;clip-path:url(#XMLID_00000056389866820329072050000000284246706933869711_);fill:#FFFFFF;}
	.st21{opacity:2.000000e-02;clip-path:url(#XMLID_00000122704526405152419090000013809636682464851632_);}
	.st22{opacity:0.27;clip-path:url(#XMLID_00000142899055139065854380000008190866475830899118_);}
	.st23{opacity:0.41;clip-path:url(#XMLID_00000142173728679703312770000003928689539980977855_);fill:#8E5400;}
	.st24{opacity:0.66;clip-path:url(#XMLID_00000142173728679703312770000003928689539980977855_);fill:#8E5400;}
	.st25{opacity:5.000000e-02;clip-path:url(#XMLID_00000113315335490691955160000000092999350340301706_);}
	.st26{clip-path:url(#XMLID_00000113315335490691955160000000092999350340301706_);}
	.st27{clip-path:url(#XMLID_00000070104161041752829510000004923264168803591855_);}
	.st28{opacity:5.000000e-02;clip-path:url(#XMLID_00000178888147459769325750000009457408910773881515_);}
	.st29{opacity:0.3;clip-path:url(#XMLID_00000178888147459769325750000009457408910773881515_);fill:#FFFFFF;}
	.st30{opacity:0.12;clip-path:url(#XMLID_00000113315335490691955160000000092999350340301706_);fill:#FFFFFF;}
	.st31{clip-path:url(#XMLID_00000173865055820347606780000015557024255046580900_);fill:#3B2205;}
	.st32{clip-path:url(#XMLID_00000039819668981063348280000004852253728504990646_);fill:#3B2205;}
	.st33{clip-path:url(#XMLID_00000078030144881663989250000006411915875270968459_);fill:#3B2205;}
	.st34{clip-path:url(#XMLID_00000101076925875308999920000001428886300273173946_);fill:#3B2205;}
	.st35{clip-path:url(#XMLID_00000049913367146736307750000015501132967360763570_);fill:#3B2205;}
	.st36{clip-path:url(#XMLID_00000039832666434400999630000015370820000634811549_);fill:#3B2205;}
	.st37{clip-path:url(#XMLID_00000137853437736475111580000015975196492908700305_);fill:#3B2205;}
	.st38{clip-path:url(#XMLID_00000008837692177693259600000017198328384165381047_);fill:#3B2205;}
	.st39{opacity:6.000000e-02;clip-path:url(#XMLID_00000096026910063419553250000000986958709984287157_);}
	.st40{clip-path:url(#XMLID_00000096026910063419553250000000986958709984287157_);fill:none;stroke:#000000;stroke-miterlimit:10;}
	.st41{fill:#BBD700;}
	.st42{opacity:0.27;clip-path:url(#XMLID_00000003093340092560496970000006667352195664507822_);}
	.st43{opacity:2.000000e-02;clip-path:url(#XMLID_00000178203744357705488190000010355708383521276545_);}
	.st44{opacity:0.41;clip-path:url(#XMLID_00000011025025047459569640000018148709956874258312_);fill:#8E5400;}
	.st45{opacity:0.66;clip-path:url(#XMLID_00000011025025047459569640000018148709956874258312_);fill:#8E5400;}
	.st46{opacity:5.000000e-02;clip-path:url(#XMLID_00000111896360011134783270000001944572038594277549_);}
	.st47{clip-path:url(#XMLID_00000111896360011134783270000001944572038594277549_);}
	.st48{opacity:0.33;clip-path:url(#XMLID_00000039125633724349478180000017915091924382196115_);fill:#FFFFFF;}
	.st49{opacity:0.61;clip-path:url(#XMLID_00000039125633724349478180000017915091924382196115_);fill:#D7DF00;}
	.st50{opacity:0.3;clip-path:url(#XMLID_00000039125633724349478180000017915091924382196115_);fill:#FFFFFF;}
	.st51{opacity:0.23;clip-path:url(#XMLID_00000039125633724349478180000017915091924382196115_);fill:#FFFFFF;}
	.st52{opacity:0.12;clip-path:url(#XMLID_00000111896360011134783270000001944572038594277549_);fill:#FFFFFF;}
	.st53{opacity:3.000000e-02;clip-path:url(#XMLID_00000150080506571487521590000015229405016008339880_);}
	.st54{fill:#050500;}
	.st55{opacity:0.19;clip-path:url(#XMLID_00000150080506571487521590000015229405016008339880_);}
	.st56{opacity:3.000000e-02;clip-path:url(#XMLID_00000119833818119745900160000007579696038598873763_);}
	.st57{opacity:0.19;clip-path:url(#XMLID_00000119833818119745900160000007579696038598873763_);}
	.st58{opacity:2.000000e-02;clip-path:url(#XMLID_00000163784988230190860580000004677497071991051682_);}
	.st59{opacity:0.27;clip-path:url(#XMLID_00000039824058089139596660000005997388456757105338_);}
	.st60{opacity:0.41;clip-path:url(#XMLID_00000147209384736846006190000003129239238259956145_);fill:#8E5400;}
	.st61{opacity:0.66;clip-path:url(#XMLID_00000147209384736846006190000003129239238259956145_);fill:#8E5400;}
	.st62{opacity:5.000000e-02;clip-path:url(#XMLID_00000062872287084987957070000015493433805333193617_);}
	.st63{clip-path:url(#XMLID_00000062872287084987957070000015493433805333193617_);fill:#BBD700;}
	.st64{clip-path:url(#XMLID_00000062872287084987957070000015493433805333193617_);}
	.st65{opacity:5.000000e-02;clip-path:url(#XMLID_00000088829029128942473150000017198612413857406119_);}
	.st66{opacity:0.3;clip-path:url(#XMLID_00000088829029128942473150000017198612413857406119_);fill:#FFFFFF;}
	.st67{opacity:9.000000e-02;}
	.st68{opacity:3.000000e-02;fill:#747477;}
	.st69{clip-path:url(#XMLID_00000140699550619527296770000007886340270903238036_);}
	.st70{fill:#603103;}
	.st71{opacity:0.39;clip-path:url(#XMLID_00000101063962722517980320000013828624859444158603_);fill:#754103;}
	.st72{fill:#824D02;}
	.st73{opacity:0.47;clip-path:url(#XMLID_00000038385748361955597240000006822815616774910383_);fill:#915602;}
	.st74{clip-path:url(#XMLID_00000038385748361955597240000006822815616774910383_);fill:#915602;}
	.st75{opacity:0.2;clip-path:url(#XMLID_00000150092472239352056030000007718842464373540262_);fill:#723F03;}
	.st76{opacity:0.48;clip-path:url(#XMLID_00000058583906405982270040000002569514920356657541_);fill:#683503;}
	.st77{opacity:0.53;clip-path:url(#XMLID_00000124872668579816585540000015266561680119201441_);fill:#8C5302;}
	.st78{opacity:4.000000e-02;}
	.st79{opacity:0.14;clip-path:url(#XMLID_00000083059647792976647510000015872501400029591191_);fill:#56B1BA;}
	.st80{opacity:0.14;clip-path:url(#XMLID_00000015338957217488116120000003360286580833313439_);fill:#56B1BA;}
	.st81{opacity:0.14;clip-path:url(#XMLID_00000018233722974699124930000011085241216728516789_);fill:#56B1BA;}
</style>
<g id="BACKGROUND" class="st0">
	<rect x="15.1" y="-382.2" class="st1" width="500" height="500"/>
</g>
<g id="OBJECTS">
	<g id="title">
		<text transform="matrix(1 0 0 1 -388.9176 -274.5323)"><tspan x="0" y="0" style="font-family:'TrashHand'; font-size:40px;">HOW TO MAKE </tspan><tspan x="64" y="36" style="font-family:'TrashHand'; font-size:40px;">MACHA</tspan></text>
		<g>
			<defs>
				<path id="XMLID_104_" d="M-200.7-233.2c-10.3,5.3-18.9-9.9-9.2-16.2c1.6-1.1,3.5-2,5.5-2.9c4.7-2.3,7-5.2,8.2-7.5
					c0.5-1.1,2.1-0.9,2.3,0.2C-192.2-252.5-190.3-238.5-200.7-233.2z"/>
			</defs>
			<use xlink:href="#XMLID_104_"  style="overflow:visible;fill:#BBD500;"/>
			<clipPath id="XMLID_00000062900606956429137580000004256834300767051152_">
				<use xlink:href="#XMLID_104_"  style="overflow:visible;"/>
			</clipPath>
			<path style="opacity:3.000000e-02;clip-path:url(#XMLID_00000062900606956429137580000004256834300767051152_);" d="
				M-195.1-263.8c0,0-0.1-0.4-1.9,2.9c1.5,9.2,1.7,26.2-14.3,27.6c-0.5,0-1.1,0-1.6-0.1c0.9,1.5,2.7,2.4,4.7,2.2
				C-183.9-233.3-195.1-263.8-195.1-263.8z"/>
			
				<polyline style="opacity:2.000000e-02;clip-path:url(#XMLID_00000062900606956429137580000004256834300767051152_);fill:none;stroke:#000000;stroke-width:0.6461;stroke-miterlimit:10;" points="
				-205,-254.2 -201,-245.5 -190.4,-246.8 			"/>
			
				<polyline style="opacity:2.000000e-02;clip-path:url(#XMLID_00000062900606956429137580000004256834300767051152_);fill:none;stroke:#000000;stroke-width:0.6461;stroke-miterlimit:10;" points="
				-209.4,-249.8 -205.4,-241.1 -190.1,-242.6 			"/>
			
				<polyline style="opacity:2.000000e-02;clip-path:url(#XMLID_00000062900606956429137580000004256834300767051152_);fill:none;stroke:#000000;stroke-width:0.6461;stroke-miterlimit:10;" points="
				-213.3,-244.6 -209.4,-235.9 -194.1,-237.4 			"/>
			
				<polyline style="opacity:2.000000e-02;clip-path:url(#XMLID_00000062900606956429137580000004256834300767051152_);fill:none;stroke:#000000;stroke-width:0.6461;stroke-miterlimit:10;" points="
				-202.5,-258.5 -198.6,-249.8 -188,-251.1 			"/>
		</g>
		<g>
			<defs>
				<path id="XMLID_105_" d="M-214.8-228.1c0,0,0-0.1,0.1-0.4c0.1-0.2,0.2-0.5,0.3-0.9c0.3-0.8,0.7-1.9,1.3-3.1
					c0.3-0.6,0.6-1.3,1.1-2c0.4-0.7,0.8-1.4,1.3-2.1c0.5-0.7,1-1.4,1.6-2.1c0.6-0.7,1.2-1.4,1.8-2.1c0.6-0.7,1.3-1.3,1.9-1.9
					c0.6-0.6,1.3-1.2,1.8-1.7c1.2-1.1,2.1-2.2,2.9-3.3c0.8-1,1.4-2,1.8-2.6c0.4-0.6,0.7-1,0.7-1l0,0c0.2-0.3,0.6-0.4,0.9-0.2
					c0.3,0.2,0.4,0.6,0.2,0.9c0,0-0.2,0.4-0.6,1.1c-0.4,0.7-0.9,1.6-1.6,2.8c-0.7,1.1-1.6,2.5-2.8,3.7c-0.6,0.6-1.1,1.3-1.7,1.9
					c-0.6,0.6-1.1,1.3-1.7,1.9c-0.5,0.7-1,1.4-1.5,2c-0.5,0.7-0.9,1.4-1.3,2.1c-0.4,0.7-0.8,1.4-1.1,2c-0.3,0.6-0.6,1.3-0.8,1.9
					c-0.5,1.2-0.8,2.2-1,2.8c-0.1,0.3-0.1,0.6-0.2,0.8c0,0.2,0,0.3,0,0.3l0,0c-0.2,0.9-1.1,1.5-2,1.4s-1.5-1.1-1.4-2
					C-214.9-228.1-214.9-228.1-214.8-228.1z"/>
			</defs>
			<use xlink:href="#XMLID_105_"  style="overflow:visible;fill:#B8C800;"/>
			<clipPath id="XMLID_00000124122723270512395660000003086354706987422119_">
				<use xlink:href="#XMLID_105_"  style="overflow:visible;"/>
			</clipPath>
			<path style="opacity:3.000000e-02;clip-path:url(#XMLID_00000124122723270512395660000003086354706987422119_);" d="
				M-197.9-250.8c-0.4,0.7-1,1.6-1.8,2.7c-0.8,1.1-1.8,2.4-3,3.6c-0.6,0.6-1.2,1.2-1.8,1.8c-0.6,0.6-1.2,1.2-1.8,1.8
				c-0.6,0.6-1.1,1.3-1.6,1.9c-0.5,0.7-1,1.3-1.4,2c-0.4,0.7-0.8,1.3-1.2,2c-0.4,0.6-0.7,1.2-0.9,1.8c-0.5,1.1-0.9,2.1-1.1,2.8
				c-0.1,0.3-0.2,0.6-0.2,0.8c0,0.2-0.1,0.3-0.1,0.3l0,0c-0.2,0.9-1.1,1.5-2.1,1.3c0,0,0,0-0.1,0c0,0,0,0,0,0.1
				c-0.2,0.9,0.4,1.8,1.4,2s1.8-0.4,2-1.4l0,0c0,0,0-0.1,0-0.3c0-0.2,0.1-0.4,0.2-0.8c0.2-0.7,0.5-1.7,1-2.8
				c0.2-0.6,0.5-1.2,0.8-1.9c0.3-0.7,0.7-1.3,1.1-2c0.4-0.7,0.8-1.4,1.3-2.1c0.5-0.7,1-1.4,1.5-2c0.5-0.7,1.1-1.3,1.7-1.9
				c0.6-0.6,1.2-1.3,1.7-1.9c1.1-1.3,2.1-2.6,2.8-3.7c0.7-1.2,1.2-2.1,1.6-2.8c0.4-0.7,0.6-1.1,0.6-1.1c0.2-0.3,0.1-0.7-0.2-0.8
				C-197.6-251.4-197.7-251.1-197.9-250.8z"/>
		</g>
		<g>
			<defs>
				<path id="XMLID_107_" d="M-323.1-242.2c8,8.3,21.1-3.2,13.9-12.3c-1.2-1.5-2.7-3-4.2-4.5c-3.7-3.7-4.9-7.2-5.3-9.8
					c-0.1-1.2-1.6-1.5-2.3-0.5C-324.9-263.2-331.2-250.6-323.1-242.2z"/>
			</defs>
			<use xlink:href="#XMLID_107_"  style="overflow:visible;fill:#BBD500;"/>
			<clipPath id="XMLID_00000155826708453589758500000013612225702943531151_">
				<use xlink:href="#XMLID_107_"  style="overflow:visible;"/>
			</clipPath>
			<path style="opacity:3.000000e-02;clip-path:url(#XMLID_00000155826708453589758500000013612225702943531151_);" d="
				M-318.4-272.9c0,0,0.3-0.3,0.9,3.4c-4.4,8.2-10.2,24.2,4.5,30.7c0.5,0.2,1,0.4,1.5,0.4c-1.4,1.1-3.4,1.4-5.2,0.6
				C-338.9-247.7-318.4-272.9-318.4-272.9z"/>
			
				<polyline style="opacity:2.000000e-02;clip-path:url(#XMLID_00000155826708453589758500000013612225702943531151_);fill:none;stroke:#000000;stroke-width:0.6461;stroke-miterlimit:10;" points="
				-312.2,-260.6 -318.7,-253.7 -328.3,-258.3 			"/>
			
				<polyline style="opacity:2.000000e-02;clip-path:url(#XMLID_00000155826708453589758500000013612225702943531151_);fill:none;stroke:#000000;stroke-width:0.6461;stroke-miterlimit:10;" points="
				-309.5,-255 -316,-248.1 -330,-254.5 			"/>
			
				<polyline style="opacity:2.000000e-02;clip-path:url(#XMLID_00000155826708453589758500000013612225702943531151_);fill:none;stroke:#000000;stroke-width:0.6461;stroke-miterlimit:10;" points="
				-307.4,-248.8 -314,-241.9 -328,-248.3 			"/>
			
				<polyline style="opacity:2.000000e-02;clip-path:url(#XMLID_00000155826708453589758500000013612225702943531151_);fill:none;stroke:#000000;stroke-width:0.6461;stroke-miterlimit:10;" points="
				-313.1,-265.5 -319.7,-258.5 -329.2,-263.2 			"/>
		</g>
		<g>
			<defs>
				<path id="XMLID_106_" d="M-311.3-232.8c0,0,0-0.1,0-0.4c0-0.2,0-0.6,0-1c0-0.8,0-2-0.2-3.4c-0.1-0.7-0.2-1.4-0.3-2.2
					c-0.1-0.8-0.3-1.6-0.6-2.4c-0.2-0.8-0.5-1.7-0.8-2.5c-0.3-0.8-0.6-1.7-1-2.5c-0.3-0.8-0.8-1.6-1.2-2.4c-0.4-0.8-0.8-1.5-1.2-2.2
					c-0.7-1.4-1.3-2.8-1.6-4c-0.4-1.2-0.7-2.3-0.8-3c-0.2-0.7-0.3-1.2-0.3-1.2l0,0c-0.1-0.3-0.4-0.6-0.8-0.5
					c-0.3,0.1-0.5,0.4-0.5,0.7c0,0,0.1,0.4,0.2,1.2c0.1,0.8,0.3,1.9,0.6,3.2c0.3,1.3,0.8,2.9,1.4,4.4c0.3,0.8,0.7,1.6,1,2.4
					c0.3,0.8,0.7,1.6,0.9,2.4c0.3,0.8,0.5,1.6,0.8,2.4c0.2,0.8,0.4,1.6,0.6,2.4c0.1,0.8,0.3,1.5,0.3,2.2c0.1,0.7,0.1,1.4,0.2,2
					c0.1,1.3,0,2.3,0,3c0,0.4-0.1,0.6-0.1,0.8c0,0.2,0,0.3,0,0.3l0,0c-0.1,0.9,0.5,1.8,1.4,1.9c0.9,0.1,1.8-0.5,1.9-1.4
					C-311.3-232.7-311.3-232.7-311.3-232.8z"/>
			</defs>
			<use xlink:href="#XMLID_106_"  style="overflow:visible;fill:#B8C800;"/>
			<clipPath id="XMLID_00000162323362300527521120000006368922531337659838_">
				<use xlink:href="#XMLID_106_"  style="overflow:visible;"/>
			</clipPath>
			<path style="opacity:3.000000e-02;clip-path:url(#XMLID_00000162323362300527521120000006368922531337659838_);" d="M-320-259.7
				c0.2,0.8,0.4,1.8,0.8,3.1c0.4,1.3,0.9,2.8,1.6,4.4c0.4,0.8,0.8,1.5,1.1,2.3c0.4,0.8,0.8,1.5,1.1,2.3c0.3,0.8,0.6,1.6,0.9,2.4
				c0.3,0.8,0.5,1.6,0.7,2.3c0.2,0.8,0.4,1.5,0.5,2.2c0.1,0.7,0.2,1.4,0.3,2c0.1,1.2,0.1,2.3,0.1,3c0,0.4,0,0.6,0,0.8
				c0,0.2,0,0.3,0,0.3l0,0c-0.1,0.9,0.6,1.8,1.5,1.9c0,0,0,0,0.1,0c0,0,0,0,0,0.1c-0.1,0.9-1,1.6-1.9,1.4c-0.9-0.1-1.6-1-1.4-1.9
				l0,0c0,0,0-0.1,0-0.3c0-0.2,0.1-0.4,0.1-0.8c0.1-0.7,0.1-1.7,0-3c0-0.6-0.1-1.3-0.2-2c-0.1-0.7-0.2-1.5-0.3-2.2
				c-0.1-0.8-0.3-1.6-0.6-2.4c-0.2-0.8-0.5-1.6-0.8-2.4c-0.3-0.8-0.6-1.6-0.9-2.4c-0.4-0.8-0.7-1.6-1-2.4c-0.7-1.6-1.1-3.1-1.4-4.4
				c-0.3-1.3-0.5-2.4-0.6-3.2c-0.1-0.8-0.2-1.2-0.2-1.2c-0.1-0.3,0.1-0.6,0.5-0.7C-320.1-260.4-320-260.1-320-259.7z"/>
		</g>
	</g>
	<g>
		<g>
			<defs>
				<circle id="XMLID_31_" cx="263.1" cy="-208" r="13.7"/>
			</defs>
			<use xlink:href="#XMLID_31_"  style="overflow:visible;fill:#BBD500;"/>
			<clipPath id="XMLID_00000073695165196208542910000000048997613154773418_">
				<use xlink:href="#XMLID_31_"  style="overflow:visible;"/>
			</clipPath>
			<path style="opacity:2.000000e-02;clip-path:url(#XMLID_00000073695165196208542910000000048997613154773418_);" d="M268.8-220.5
				c1.3,2.1,2,4.5,2,7.1c0,7.6-6.1,13.7-13.7,13.7c-2,0-3.9-0.5-5.7-1.2c2.4,3.9,6.7,6.6,11.7,6.6c7.6,0,13.7-6.1,13.7-13.7
				C276.8-213.6,273.5-218.3,268.8-220.5z"/>
		</g>
		<text transform="matrix(1 0 0 1 256.4885 -200.7552)" class="st17" style="font-family:'TrashHand'; font-size:24.4902px;">1</text>
	</g>
	<text transform="matrix(1 0 0 1 223.7971 -176.5346)"><tspan x="0" y="0" style="font-family:'Montserrat-Regular'; font-size:10px;">Add 1-2 teaspoon </tspan><tspan x="-2.8" y="12" style="font-family:'Montserrat-Regular'; font-size:10px;">matcha into a cup </tspan></text>
	<g>
		<ellipse class="st9" cx="40.2" cy="104.8" rx="31.8" ry="7"/>
		<path class="st10" d="M22.6,98.4c0,0,4.3,2.3,5.7,3.9c1.2,1.3,2.6,2.4,4.4,2.7c3,0.6,7.8,1.1,13.4,0.1c2-0.4,3.9-1.4,5-3.2
			c0.4-0.6,1.8-2.1,3.1-2.5"/>
		<g>
			<g>
				<defs>
					<path id="XMLID_36_" d="M69,94.4c-1.8,0-3.9-0.4-6.3-1.4c-0.8-0.3-1.1-1.2-0.8-2c0.3-0.8,1.2-1.1,2-0.8
						c5.2,2.1,9.4,1.2,11.9-2.6c2.5-3.8,2.6-9.4,0.1-11.8c-1.1-1.1-2.1-1.6-3.2-1.4c-2,0.3-3.7,2.8-4.2,3.6c-0.4,0.7-1.3,1-2,0.6
						c-0.7-0.4-1-1.3-0.6-2c0.3-0.5,2.6-4.6,6.4-5.2c2-0.3,3.9,0.5,5.7,2.3c3.5,3.5,3.6,10.6,0.2,15.6C77.1,91.1,74.3,94.4,69,94.4z
						"/>
				</defs>
				<use xlink:href="#XMLID_36_"  style="overflow:visible;fill:#996000;"/>
				<clipPath id="XMLID_00000181785194966992056600000005616364845691775394_">
					<use xlink:href="#XMLID_36_"  style="overflow:visible;"/>
				</clipPath>
				<g style="opacity:0.27;clip-path:url(#XMLID_00000181785194966992056600000005616364845691775394_);">
					<path class="st12" d="M72.5,73.5c-2,0.3-4.7,2.7-5.1,3.6c-0.4,0.6-1.1,0.9-1.8,0.7c0,0.5,0.3,1,0.8,1.3
						c0.7,0.4,1.7,0.1,2.1-0.6c0.5-0.9,2.3-3.4,4.3-3.7c1-0.1,2.3,2,3.4,3c-0.2-0.5,0.8-0.2,0.5-1.5C76,74.5,74.5,73.2,72.5,73.5z"
						/>
					<path class="st12" d="M78.8,73.9c2.4,3.8,2.1,10-0.9,14.4c-1.2,1.8-4.1,5.1-9.4,5.1c-1.8,0-3.9-0.4-6.2-1.3
						c0,0.6,0.4,1.1,0.9,1.3c2.4,1,4.5,1.4,6.4,1.4c5.3,0,8.3-3.3,9.4-5.1C82.3,84.6,82.2,77.4,78.8,73.9z"/>
				</g>
			</g>
		</g>
		<g>
			<defs>
				<path id="XMLID_35_" d="M9.1,69.2c0,0-3.3,32.8,29.7,33c36.9,0.3,30.3-33,30.3-33"/>
			</defs>
			<use xlink:href="#XMLID_35_"  style="overflow:visible;fill:#996000;"/>
			<clipPath id="XMLID_00000106125556494937123700000003013865939976619702_">
				<use xlink:href="#XMLID_35_"  style="overflow:visible;"/>
			</clipPath>
			<path style="opacity:0.41;clip-path:url(#XMLID_00000106125556494937123700000003013865939976619702_);fill:#8E5400;" d="
				M69.2,69.2h-9.5c0.5,8.4-1,30-30.7,29.7c-2.3,0-4.4-0.2-6.4-0.5c4.1,2.3,9.4,3.8,16.3,3.8C75.8,102.6,69.2,69.2,69.2,69.2z"/>
			<path style="opacity:0.66;clip-path:url(#XMLID_00000106125556494937123700000003013865939976619702_);fill:#8E5400;" d="
				M72.2,68.2L62.7,69c1.3,8.3,1.6,29.9-28.1,32.2c-2.3,0.2-4.4,0.2-6.4,0c4.3,1.9,9.7,3,16.5,2.4C81.7,100.9,72.2,68.2,72.2,68.2z"
				/>
		</g>
		<g>
			<defs>
				<path id="XMLID_37_" d="M69.2,69.2c0,3.8-13.4,6.9-30,6.9c-16.6,0-30-3.1-30-6.9s13.4-6.9,30-6.9C55.8,62.3,69.2,65.4,69.2,69.2
					z"/>
			</defs>
			<use xlink:href="#XMLID_37_"  style="overflow:visible;fill:#7A4800;"/>
			<clipPath id="XMLID_00000181046554096679836820000002802717609902486149_">
				<use xlink:href="#XMLID_37_"  style="overflow:visible;"/>
			</clipPath>
			<path style="opacity:5.000000e-02;clip-path:url(#XMLID_00000181046554096679836820000002802717609902486149_);" d="M39.2,62.3
				c-15.8,0-28.8,2.8-29.9,6.4c5.1-2.1,15-3.6,26.3-3.6c16.6,0,30,3.1,30,6.9c0,0.2,0,0.3-0.1,0.5c2.4-1,3.7-2.1,3.7-3.3
				C69.2,65.4,55.8,62.3,39.2,62.3z"/>
		</g>
		<g class="st16">
			<path class="st17" d="M15.4,76.6c3,5.4,5.8,10,9.7,14.8c0.7,0.9,0,2.3-1.1,2.1c-5.6-0.7-9.8-5.9-10.9-11.2
				c-0.3-1.5-1-6.8,1.5-6.3C14.9,76.1,15.2,76.3,15.4,76.6L15.4,76.6z"/>
		</g>
		<g>
			<defs>
				<path id="XMLID_40_" d="M111.9,40.8c-0.1-0.8-0.9-1.4-1.7-1.2L68,46.4l-4.3,0.7l-15.4,2.5c-0.6,0.1-0.9,0.6-0.7,1.2
					c1.4,5.2,6.5,8.5,11.9,7.7c4-0.6,7-3.4,8.2-7c0.4-1.3,1.5-2.2,2.9-2.5l40.2-6.6C111.4,42.3,112,41.6,111.9,40.8L111.9,40.8z"/>
			</defs>
			<use xlink:href="#XMLID_40_"  style="overflow:visible;fill:#996000;"/>
			<clipPath id="XMLID_00000173143826813036984170000016353335384363478666_">
				<use xlink:href="#XMLID_40_"  style="overflow:visible;"/>
			</clipPath>
			<path style="opacity:5.000000e-02;clip-path:url(#XMLID_00000173143826813036984170000016353335384363478666_);" d="M111.2,39.6
				c0.2,0.9-1.2,1.5-1.8,1.6l-40.2,6.6c-1.3,0.2-2.5,1.2-2.9,2.5c-1.2,3.6-4.3,6.3-8.2,7c-3.4,0.6-6.7-0.6-9-2.9
				c2.2,3.4,6.3,5.4,10.6,4.7c4-0.6,7-3.4,8.2-7c0.4-1.3,1.5-2.2,2.9-2.5l40.2-6.6c0.8-0.1,1.4-0.9,1.2-1.7
				C112,40.6,111.9,39.5,111.2,39.6z"/>
			<path style="opacity:5.000000e-02;clip-path:url(#XMLID_00000173143826813036984170000016353335384363478666_);" d="M46.7,50.5
				c0,0,5.6,5.9,16.5,0.1c0,0-10.8,2.5-15.9-1.1L46.7,50.5z"/>
		</g>
		<g>
			<defs>
				<path id="XMLID_41_" d="M47.6,50.3c0,0,4.8,3.5,11.6,1.6c6.8-1.8,6.7-5.1,6.7-5.1s-1.1-2.8-2.7-2.9c-1.6-0.1-1.3-2.3-3.3-2.3
					c-1,0-2.3-1.9-4.1-1.8c-1.7,0.1-1.7,1.9-3.1,2.6c-1.4,0.7-1.2,2.3-2.1,2.8c-0.8,0.4-0.9,2.7-2,3C47.4,48.7,47.6,50.3,47.6,50.3z
					"/>
			</defs>
			<use xlink:href="#XMLID_41_"  style="overflow:visible;fill:#BBD700;"/>
			<clipPath id="XMLID_00000172435750882749302420000000686088891176203426_">
				<use xlink:href="#XMLID_41_"  style="overflow:visible;"/>
			</clipPath>
			<path style="opacity:5.000000e-02;clip-path:url(#XMLID_00000172435750882749302420000000686088891176203426_);" d="M53.5,38.7
				c0,0,4.6,3.2,4.8,5.8c0.2,2.6,2.7,1.5,3.5,3.2c0.8,1.7,2.6,5.1,2.6,5.1l3.5-5.8C67.8,46.9,57.9,36.3,53.5,38.7z"/>
			<path style="opacity:5.000000e-02;clip-path:url(#XMLID_00000172435750882749302420000000686088891176203426_);" d="M54.1,38.9
				c0,0,5,2.6,5.5,5.1c0.6,2.6,2.8,1.1,3.8,2.7c1,1.6,3.2,4.7,3.2,4.7l2.7-6.3C69.4,45.2,58.1,36,54.1,38.9z"/>
			<path style="opacity:0.3;clip-path:url(#XMLID_00000172435750882749302420000000686088891176203426_);fill:#FFFFFF;" d="
				M51.1,49.3c0,0.3-0.1,0.5-0.4,0.6c-0.3,0-0.5-0.1-0.6-0.4c0-0.3,0.1-0.5,0.4-0.6C50.8,48.8,51.1,49,51.1,49.3z"/>
			<path style="opacity:0.3;clip-path:url(#XMLID_00000172435750882749302420000000686088891176203426_);fill:#FFFFFF;" d="M53.7,47
				c0.3,0.4,0.1,0.2-0.2,0.6c-0.2,0.4-0.5,0.9-0.9,0.6c-0.4-0.3-0.6-0.8-0.4-1.2C52.5,46.7,53,46.2,53.7,47z"/>
			<path style="opacity:0.3;clip-path:url(#XMLID_00000172435750882749302420000000686088891176203426_);fill:#FFFFFF;" d="
				M53.4,49.7c0,0.3-0.1,0.5-0.4,0.6c-0.3,0-0.5-0.1-0.6-0.4c0-0.3,0.1-0.5,0.4-0.6C53.1,49.3,53.4,49.5,53.4,49.7z"/>
			<path style="opacity:0.3;clip-path:url(#XMLID_00000172435750882749302420000000686088891176203426_);fill:#FFFFFF;" d="
				M64.6,53.5c0,0.1-0.1,0.3-0.2,0.3c-0.1,0-0.3-0.1-0.3-0.2c0-0.1,0.1-0.3,0.2-0.3C64.4,53.3,64.6,53.4,64.6,53.5z"/>
			<path style="opacity:0.3;clip-path:url(#XMLID_00000172435750882749302420000000686088891176203426_);fill:#FFFFFF;" d="
				M51.1,47.5c0,0.1-0.1,0.3-0.2,0.3c-0.1,0-0.3-0.1-0.3-0.2s0.1-0.3,0.2-0.3C51,47.3,51.1,47.4,51.1,47.5z"/>
			<path style="opacity:0.3;clip-path:url(#XMLID_00000172435750882749302420000000686088891176203426_);fill:#FFFFFF;" d="
				M55.3,50.2c0,0.3-0.1,0.5-0.4,0.6s-0.5-0.1-0.6-0.4c0-0.3,0.1-0.5,0.4-0.6C55,49.7,55.2,49.9,55.3,50.2z"/>
			<path style="opacity:0.3;clip-path:url(#XMLID_00000172435750882749302420000000686088891176203426_);fill:#FFFFFF;" d="
				M54.6,48.6c0,0.1-0.1,0.3-0.2,0.3c-0.1,0-0.3-0.1-0.3-0.2c0-0.1,0.1-0.3,0.2-0.3C54.5,48.3,54.6,48.4,54.6,48.6z"/>
		</g>
	</g>
	<g>
		<g>
			<g>
				<defs>
					<circle id="XMLID_81_" cx="264.1" cy="-27.8" r="13.7"/>
				</defs>
				<use xlink:href="#XMLID_81_"  style="overflow:visible;fill:#BBD500;"/>
				<clipPath id="XMLID_00000033338878932702695900000004946376259907577278_">
					<use xlink:href="#XMLID_81_"  style="overflow:visible;"/>
				</clipPath>
				<path style="opacity:2.000000e-02;clip-path:url(#XMLID_00000033338878932702695900000004946376259907577278_);" d="M269.8-40.2
					c1.3,2.1,2,4.5,2,7.1c0,7.6-6.1,13.7-13.7,13.7c-2,0-3.9-0.5-5.7-1.2c2.4,3.9,6.7,6.6,11.7,6.6c7.6,0,13.7-6.1,13.7-13.7
					C277.8-33.3,274.5-38.1,269.8-40.2z"/>
			</g>
			<text transform="matrix(1 0 0 1 258.4879 -21.5187)" class="st17" style="font-family:'TrashHand'; font-size:24.4902px;">3</text>
		</g>
		<text transform="matrix(1 0 0 1 229.6716 3.7019)"><tspan x="0" y="0" style="font-family:'Montserrat-Regular'; font-size:10px;">Stir until it gets </tspan><tspan x="-11.9" y="12" style="font-family:'Montserrat-Regular'; font-size:10px;">dissolved and foamy</tspan></text>
		<ellipse class="st9" cx="264.5" cy="91.8" rx="31.8" ry="7"/>
		<path class="st10" d="M247,85.4c0,0,4.3,2.3,5.7,3.9c1.2,1.3,2.6,2.4,4.4,2.7c3,0.6,7.8,1.1,13.4,0.1c2-0.4,3.9-1.4,5-3.2
			c0.4-0.6,1.8-2.1,3.1-2.5"/>
		<g>
			<g>
				<defs>
					<path id="XMLID_85_" d="M293.4,81.3c-1.8,0-3.9-0.4-6.3-1.4c-0.8-0.3-1.1-1.2-0.8-2c0.3-0.8,1.2-1.1,2-0.8
						c5.2,2.1,9.4,1.2,11.9-2.6c2.5-3.8,2.6-9.4,0.1-11.8c-1.1-1.1-2.1-1.6-3.2-1.4c-2,0.3-3.7,2.8-4.2,3.6c-0.4,0.7-1.3,1-2,0.6
						c-0.7-0.4-1-1.3-0.6-2c0.3-0.5,2.6-4.6,6.4-5.2c2-0.3,3.9,0.5,5.7,2.3c3.5,3.5,3.6,10.6,0.2,15.6
						C301.5,78.1,298.6,81.3,293.4,81.3z"/>
				</defs>
				<use xlink:href="#XMLID_85_"  style="overflow:visible;fill:#996000;"/>
				<clipPath id="XMLID_00000016047722001661357510000013220242680704684704_">
					<use xlink:href="#XMLID_85_"  style="overflow:visible;"/>
				</clipPath>
				<g style="opacity:0.27;clip-path:url(#XMLID_00000016047722001661357510000013220242680704684704_);">
					<path class="st12" d="M296.8,60.5c-2,0.3-4.7,2.7-5.1,3.6c-0.4,0.6-1.1,0.9-1.8,0.7c0,0.5,0.3,1,0.8,1.3
						c0.7,0.4,1.7,0.1,2.1-0.6c0.5-0.9,2.3-3.4,4.3-3.7c1-0.1,2.3,2,3.4,3c-0.2-0.5,0.8-0.2,0.5-1.5
						C300.4,61.5,298.8,60.2,296.8,60.5z"/>
					<path class="st12" d="M303.1,60.8c2.4,3.8,2.1,10-0.9,14.4c-1.2,1.8-4.1,5.1-9.5,5.1c-1.8,0-3.9-0.4-6.2-1.3
						c0,0.6,0.4,1.1,0.9,1.3c2.4,1,4.5,1.4,6.4,1.4c5.3,0,8.3-3.3,9.4-5.1C306.7,71.6,306.6,64.4,303.1,60.8z"/>
				</g>
			</g>
		</g>
		<g>
			<defs>
				<path id="XMLID_84_" d="M233.5,56.2c0,0-3.3,32.8,29.7,33c36.9,0.3,30.3-33,30.3-33"/>
			</defs>
			<use xlink:href="#XMLID_84_"  style="overflow:visible;fill:#996000;"/>
			<clipPath id="XMLID_00000159454049221955907150000010642651363810265483_">
				<use xlink:href="#XMLID_84_"  style="overflow:visible;"/>
			</clipPath>
			<path style="opacity:0.41;clip-path:url(#XMLID_00000159454049221955907150000010642651363810265483_);fill:#8E5400;" d="
				M293.6,56.2H284c0.5,8.4-1,30-30.7,29.7c-2.3,0-4.4-0.2-6.4-0.5c4.1,2.3,9.4,3.8,16.3,3.8C300.2,89.5,293.6,56.2,293.6,56.2z"/>
			<path style="opacity:0.66;clip-path:url(#XMLID_00000159454049221955907150000010642651363810265483_);fill:#8E5400;" d="
				M296.6,55.2l-9.5,0.8c1.3,8.3,1.6,29.9-28.1,32.2c-2.3,0.2-4.4,0.2-6.4,0c4.3,1.9,9.7,3,16.5,2.4C306,87.9,296.6,55.2,296.6,55.2
				z"/>
		</g>
		<g>
			<defs>
				<path id="XMLID_33_" d="M293.6,56.2c0,3.8-13.4,6.9-30,6.9s-30-3.1-30-6.9s13.4-6.9,30-6.9S293.6,52.4,293.6,56.2z"/>
			</defs>
			<use xlink:href="#XMLID_33_"  style="overflow:visible;fill:#7A4800;"/>
			<clipPath id="XMLID_00000029045381755127438700000000683210904512883073_">
				<use xlink:href="#XMLID_33_"  style="overflow:visible;"/>
			</clipPath>
			<path style="opacity:5.000000e-02;clip-path:url(#XMLID_00000029045381755127438700000000683210904512883073_);" d="M263.5,49.3
				c-15.8,0-28.8,2.8-29.9,6.4c5.1-2.1,15-3.6,26.3-3.6c16.6,0,30,3.1,30,6.9c0,0.2,0,0.3-0.1,0.5c2.4-1,3.7-2.1,3.7-3.3
				C293.6,52.4,280.1,49.3,263.5,49.3z"/>
			<g style="clip-path:url(#XMLID_00000029045381755127438700000000683210904512883073_);">
				<defs>
					<path id="XMLID_83_" d="M293.6,61.8c0,3.8-13.4,6.9-30,6.9s-30-3.1-30-6.9c0-3.8,13.4-6.9,30-6.9S293.6,58,293.6,61.8z"/>
				</defs>
				<use xlink:href="#XMLID_83_"  style="overflow:visible;fill:#BBD700;"/>
				<clipPath id="XMLID_00000058566853881796677250000002572280248280425904_">
					<use xlink:href="#XMLID_83_"  style="overflow:visible;"/>
				</clipPath>
				<g style="clip-path:url(#XMLID_00000058566853881796677250000002572280248280425904_);">
					<defs>
						<path id="XMLID_102_" d="M349.6-33.6c0,0,9.8,11.1,27.3,10.6c17.6-0.6,19.1-8.5,19.1-8.5s-1-7.3-4.9-8.6s-1.8-6.2-6.8-7.4
							c-2.4-0.6-4.6-6-8.8-6.8c-4.2-0.8-5.3,3.7-9.1,4.7c-3.8,1-4.3,5-6.6,5.6c-2.3,0.6-3.6,6-6.7,6.3
							C350.1-37.6,349.6-33.6,349.6-33.6z"/>
					</defs>
					<use xlink:href="#XMLID_102_"  style="overflow:visible;fill:#BBD700;"/>
					<clipPath id="XMLID_00000167385189419289178770000005669384441072473221_">
						<use xlink:href="#XMLID_102_"  style="overflow:visible;"/>
					</clipPath>
					<path style="opacity:5.000000e-02;clip-path:url(#XMLID_00000167385189419289178770000005669384441072473221_);" d="
						M370.5-58.5c0,0,9.3,10.4,8.4,16.8c-0.9,6.4,5.7,5.1,6.6,9.7c1,4.6,3.4,13.7,3.4,13.7l11.8-12.2
						C400.7-30.5,382.5-61.8,370.5-58.5z"/>
					<path style="opacity:5.000000e-02;clip-path:url(#XMLID_00000167385189419289178770000005669384441072473221_);" d="
						M371.9-57.7c0,0,10.6,9.1,10.5,15.6s6.3,4.4,7.8,8.8c1.5,4.4,5.1,13.2,5.1,13.2l10.1-13.7C405.4-33.9,383.3-62.5,371.9-57.7z"
						/>
					<path style="opacity:0.3;clip-path:url(#XMLID_00000167385189419289178770000005669384441072473221_);fill:#FFFFFF;" d="
						M358.8-34.1c0,0.7-0.6,1.2-1.3,1.2c-0.7,0-1.2-0.6-1.2-1.3s0.6-1.2,1.3-1.2C358.3-35.4,358.8-34.8,358.8-34.1z"/>
					<path style="opacity:0.3;clip-path:url(#XMLID_00000167385189419289178770000005669384441072473221_);fill:#FFFFFF;" d="
						M366.3-38.1c0.6,1.1,0,0.6-0.8,1.5c-0.8,0.9-1.7,1.9-2.6,1c-0.9-0.9-1-2.3-0.2-3.2C363.5-39.7,365-40.5,366.3-38.1z"/>
					<path style="opacity:0.3;clip-path:url(#XMLID_00000167385189419289178770000005669384441072473221_);fill:#FFFFFF;" d="
						M364.1-31.7c0,0.7-0.6,1.2-1.3,1.2c-0.7,0-1.2-0.6-1.2-1.3c0-0.7,0.6-1.2,1.3-1.2C363.6-33,364.1-32.4,364.1-31.7z"/>
					<path style="opacity:0.3;clip-path:url(#XMLID_00000167385189419289178770000005669384441072473221_);fill:#FFFFFF;" d="
						M389.1-16.3c0,0.3-0.3,0.6-0.7,0.6c-0.3,0-0.6-0.3-0.6-0.7c0-0.3,0.3-0.6,0.7-0.6C388.9-16.9,389.1-16.6,389.1-16.3z"/>
					<path style="opacity:0.3;clip-path:url(#XMLID_00000167385189419289178770000005669384441072473221_);fill:#FFFFFF;" d="
						M359.8-38.4c0,0.3-0.3,0.6-0.7,0.6c-0.3,0-0.6-0.3-0.6-0.7c0-0.3,0.3-0.6,0.7-0.6C359.6-39,359.8-38.7,359.8-38.4z"/>
					<path style="opacity:0.3;clip-path:url(#XMLID_00000167385189419289178770000005669384441072473221_);fill:#FFFFFF;" d="
						M368.4-29.5c0,0.7-0.6,1.2-1.3,1.2c-0.7,0-1.2-0.6-1.2-1.3c0-0.7,0.6-1.2,1.3-1.2C367.9-30.8,368.4-30.2,368.4-29.5z"/>
					<path style="opacity:0.3;clip-path:url(#XMLID_00000167385189419289178770000005669384441072473221_);fill:#FFFFFF;" d="
						M367.7-33.9c0,0.3-0.3,0.6-0.7,0.6c-0.3,0-0.6-0.3-0.6-0.7c0-0.3,0.3-0.6,0.7-0.6C367.5-34.5,367.8-34.2,367.7-33.9z"/>
				</g>
			</g>
			
				<path id="XMLID_82_" style="opacity:0.12;clip-path:url(#XMLID_00000029045381755127438700000000683210904512883073_);fill:#FFFFFF;" d="
				M297.1,63.3c0,3.8-13.4,6.9-30,6.9s-30-3.1-30-6.9c0-3.8,13.4-6.9,30-6.9S297.1,59.5,297.1,63.3z"/>
			
				<path id="XMLID_86_" style="opacity:0.12;clip-path:url(#XMLID_00000029045381755127438700000000683210904512883073_);fill:#FFFFFF;" d="
				M301.3,65.8c0,3.8-13.4,6.9-30,6.9s-30-3.1-30-6.9c0-3.8,13.4-6.9,30-6.9S301.3,62,301.3,65.8z"/>
		</g>
		<g>
			<g>
				<g>
					<defs>
						<path id="XMLID_94_" d="M291.6,38.6c0.1-0.1,0.2-0.2,0.4-0.1c0.2,0.1,0.2,0.3,0.2,0.4c-0.3,0.6-6.4,15.6-8.5,18.6
							c-0.7,1.1-1.5,1.6-2.4,1.7c-1,0.1-1.7-0.5-1.7-0.5c-0.1-0.1-0.1-0.3,0-0.4c0.1-0.1,0.3-0.1,0.4,0c0,0,0.5,0.4,1.2,0.3
							c0.7-0.1,1.3-0.6,1.9-1.5C285.2,54.2,291.5,38.8,291.6,38.6C291.6,38.6,291.6,38.6,291.6,38.6z"/>
					</defs>
					<use xlink:href="#XMLID_94_"  style="overflow:visible;fill:#4A2C04;"/>
					<clipPath id="XMLID_00000142167805744507920640000000654392062777442215_">
						<use xlink:href="#XMLID_94_"  style="overflow:visible;"/>
					</clipPath>
					<path style="clip-path:url(#XMLID_00000142167805744507920640000000654392062777442215_);fill:#3B2205;" d="M279.8,58.7
						c-0.1,0-0.1-0.1-0.1-0.2c0.2,0.1,0.8,0.5,1.6,0.4c0.8-0.1,1.5-0.6,2.1-1.5c0.1-0.1,0.1-0.2,0.2-0.3c2-3,8.1-18,8.3-18.6
						c0-0.1,0-0.1,0-0.2c0.1,0.1,0.2,0.2,0.1,0.4c-0.3,0.6-6.3,15.6-8.3,18.6c-0.1,0.1-0.1,0.2-0.2,0.3c-0.7,0.9-1.4,1.4-2.1,1.5
						C280.5,59.3,279.8,58.7,279.8,58.7z"/>
				</g>
			</g>
			<g>
				<g>
					<defs>
						<path id="XMLID_93_" d="M275,55.4C275,55.4,275,55.4,275,55.4c0.2-0.2,0.4-0.2,0.5,0c0,0,0.5,0.5,1.2,0.5c0.7,0,1.3-0.4,2-1.3
							c2.3-2.7,10.2-17.3,10.2-17.5c0.1-0.2,0.3-0.2,0.4-0.1c0.2,0.1,0.2,0.3,0.1,0.4c-0.3,0.6-8,14.9-10.3,17.6
							c-0.8,1-1.7,1.5-2.5,1.5c-1,0-1.6-0.6-1.6-0.7C274.9,55.7,274.9,55.5,275,55.4z"/>
					</defs>
					<use xlink:href="#XMLID_93_"  style="overflow:visible;fill:#4A2C04;"/>
					<clipPath id="XMLID_00000045578596437387703040000007889862985555195322_">
						<use xlink:href="#XMLID_93_"  style="overflow:visible;"/>
					</clipPath>
					<path style="clip-path:url(#XMLID_00000045578596437387703040000007889862985555195322_);fill:#3B2205;" d="M275.1,55.9
						c0-0.1-0.1-0.1-0.1-0.2c0.2,0.2,0.7,0.6,1.6,0.6c0.8,0,1.5-0.4,2.3-1.2c0.1-0.1,0.2-0.2,0.2-0.3c2.3-2.8,9.9-17,10.2-17.6
						c0-0.1,0-0.1,0-0.2c0.1,0.1,0.2,0.3,0.1,0.4c-0.3,0.6-7.9,14.9-10.2,17.6c-0.1,0.1-0.2,0.2-0.2,0.3c-0.7,0.8-1.5,1.2-2.3,1.2
						C275.7,56.6,275.1,55.9,275.1,55.9z"/>
				</g>
			</g>
			<g>
				<g>
					<defs>
						<path id="XMLID_92_" d="M288.4,36.3c0.1-0.1,0.3-0.2,0.4-0.1c0.1,0.1,0.2,0.3,0.1,0.4c-0.4,0.6-9.5,14.5-12.1,17.2
							c-0.4,0.4-0.9,0.8-1.3,1c-0.2,0.1-0.4,0-0.4-0.1c-0.1-0.2,0-0.4,0.1-0.4c0.4-0.2,0.7-0.5,1.1-0.9
							C278.9,50.8,288.3,36.5,288.4,36.3C288.4,36.3,288.4,36.3,288.4,36.3z"/>
					</defs>
					<use xlink:href="#XMLID_92_"  style="overflow:visible;fill:#4A2C04;"/>
					<clipPath id="XMLID_00000109019644785517864480000018178711053219145405_">
						<use xlink:href="#XMLID_92_"  style="overflow:visible;"/>
					</clipPath>
					<path style="clip-path:url(#XMLID_00000109019644785517864480000018178711053219145405_);fill:#3B2205;" d="M288.7,36.6
						c-0.4,0.6-9.5,14.5-12.1,17.2c-0.4,0.4-0.9,0.8-1.3,1c-0.1,0-0.1,0-0.2,0c0,0,0,0,0,0c0.1,0.2,0.3,0.2,0.4,0.1
						c0.4-0.2,0.9-0.6,1.3-1c2.6-2.6,11.7-16.6,12.1-17.2c0.1-0.1,0.1-0.3-0.1-0.4c0,0-0.1,0-0.1,0
						C288.8,36.3,288.8,36.5,288.7,36.6z"/>
				</g>
			</g>
			<g>
				<g>
					<defs>
						<path id="XMLID_91_" d="M268.5,46.2c0.1-0.1,0.1-0.2,0.2-0.3c2.4-2.7,15.4-12.3,16-12.7c0.1-0.1,0.3-0.1,0.4,0.1
							c0.1,0.1,0.1,0.3-0.1,0.4c-0.1,0.1-13.5,10-15.9,12.6c-0.7,0.8-1,1.5-1,2.2c0.1,0.7,0.6,1.1,0.6,1.1c0.1,0.1,0.2,0.3,0.1,0.4
							c-0.1,0.1-0.3,0.2-0.4,0.1c0,0-0.8-0.5-0.9-1.5C267.5,47.9,267.8,47,268.5,46.2z"/>
					</defs>
					<use xlink:href="#XMLID_91_"  style="overflow:visible;fill:#4A2C04;"/>
					<clipPath id="XMLID_00000090257674525096659810000000582790457083677860_">
						<use xlink:href="#XMLID_91_"  style="overflow:visible;"/>
					</clipPath>
					<path style="clip-path:url(#XMLID_00000090257674525096659810000000582790457083677860_);fill:#3B2205;" d="M268.5,50.2
						c0.1,0,0.1,0.1,0.2,0c-0.2-0.1-0.7-0.6-0.8-1.5c-0.1-0.8,0.2-1.6,0.9-2.4c0.1-0.1,0.1-0.2,0.2-0.3c2.4-2.7,15.4-12.3,16-12.7
						c0,0,0.1,0,0.2-0.1c-0.1-0.1-0.3-0.1-0.4,0c-0.6,0.4-13.6,10-16,12.7c-0.1,0.1-0.2,0.2-0.2,0.3c-0.7,0.9-1,1.7-0.9,2.4
						C267.7,49.6,268.4,50.1,268.5,50.2z"/>
				</g>
			</g>
			<g>
				<g>
					<defs>
						<path id="XMLID_90_" d="M272.3,49.3c2.6-3.4,13.4-13.9,13.9-14.4c0.1-0.1,0.3-0.1,0.4,0c0.1,0.1,0.1,0.3,0,0.4
							c-0.1,0.1-12,11.7-14,14.6c-0.6,0.9-0.8,1.7-0.7,2.3c0.2,0.7,0.7,1,0.8,1c0.2,0.1,0.2,0.3,0.1,0.4c-0.1,0.2-0.3,0.2-0.4,0.1
							c0,0-0.8-0.4-1.1-1.4c-0.2-0.8,0-1.8,0.7-2.8C272.1,49.5,272.2,49.4,272.3,49.3z"/>
					</defs>
					<use xlink:href="#XMLID_90_"  style="overflow:visible;fill:#4A2C04;"/>
					<clipPath id="XMLID_00000112593779590200907440000007984681113237610373_">
						<use xlink:href="#XMLID_90_"  style="overflow:visible;"/>
					</clipPath>
					<path style="clip-path:url(#XMLID_00000112593779590200907440000007984681113237610373_);fill:#3B2205;" d="M272.4,53.8
						c0.1,0,0.1,0,0.2,0c-0.2-0.1-0.8-0.5-1-1.3c-0.2-0.7,0-1.6,0.5-2.5c0.1-0.1,0.1-0.2,0.2-0.3c2-3,13.5-14.3,14-14.8
						c0,0,0.1-0.1,0.1-0.1c-0.1-0.1-0.3-0.1-0.4,0c-0.5,0.5-12,11.8-14,14.8c-0.1,0.1-0.1,0.2-0.2,0.3c-0.6,0.9-0.8,1.8-0.5,2.5
						C271.5,53.4,272.3,53.8,272.4,53.8z"/>
				</g>
			</g>
			<g>
				<g>
					<defs>
						<path id="XMLID_89_" d="M275.8,49.1c3.6-4.8,11.1-13.4,11.5-13.9c0.1-0.1,0.3-0.1,0.5,0c0.1,0.1,0.1,0.3,0,0.5
							c-0.1,0.1-11.3,13.1-13.1,16.2c-0.3,0.5-0.5,1-0.6,1.4c0,0.2-0.2,0.3-0.4,0.3c-0.2,0-0.3-0.2-0.3-0.4c0.1-0.5,0.3-1.1,0.6-1.6
							C274.4,51,275,50.2,275.8,49.1z"/>
					</defs>
					<use xlink:href="#XMLID_89_"  style="overflow:visible;fill:#4A2C04;"/>
					<clipPath id="XMLID_00000033338868912745832140000015552140287880908219_">
						<use xlink:href="#XMLID_89_"  style="overflow:visible;"/>
					</clipPath>
					<path style="clip-path:url(#XMLID_00000033338868912745832140000015552140287880908219_);fill:#3B2205;" d="M287.4,35.5
						c-0.5,0.5-11.4,13.1-13.2,16.3c-0.3,0.5-0.5,1-0.6,1.5c0,0.1,0,0.1,0,0.2c0,0,0,0,0,0c-0.2,0-0.3-0.2-0.2-0.4
						c0.1-0.5,0.3-1,0.6-1.5c1.8-3.2,12.7-15.8,13.2-16.3c0.1-0.1,0.3-0.1,0.5,0c0,0,0.1,0.1,0.1,0.1
						C287.6,35.4,287.5,35.4,287.4,35.5z"/>
				</g>
			</g>
			<g>
				<g>
					<defs>
						<path id="XMLID_88_" d="M270.3,48.9c0.1-0.1,0.1-0.2,0.2-0.3c2.1-2.8,13.4-13.5,13.9-13.9c0.1-0.1,0.3-0.1,0.4,0
							c0.1,0.1,0.1,0.3-0.1,0.4c-0.1,0.1-11.8,11.1-13.8,13.8c-0.6,0.8-0.9,1.6-0.8,2.2c0.1,0.6,0.5,0.9,0.6,0.9
							c0.1,0.1,0.2,0.2,0.1,0.4c-0.1,0.1-0.3,0.2-0.4,0.1c0,0-0.7-0.4-0.8-1.3C269.4,50.5,269.7,49.7,270.3,48.9z"/>
					</defs>
					<use xlink:href="#XMLID_88_"  style="overflow:visible;fill:#4A2C04;"/>
					<clipPath id="XMLID_00000083773060367735024150000013128205585754663046_">
						<use xlink:href="#XMLID_88_"  style="overflow:visible;"/>
					</clipPath>
					<path style="clip-path:url(#XMLID_00000083773060367735024150000013128205585754663046_);fill:#3B2205;" d="M270.3,52.5
						c0.1,0,0.1,0,0.2,0c-0.2-0.1-0.6-0.5-0.7-1.2c-0.1-0.7,0.2-1.5,0.8-2.4c0.1-0.1,0.1-0.2,0.2-0.3c2.1-2.8,13.4-13.5,13.9-13.9
						c0,0,0.1-0.1,0.1-0.1c-0.1-0.1-0.3-0.1-0.4,0c-0.5,0.5-11.9,11.1-13.9,13.9c-0.1,0.1-0.1,0.2-0.2,0.3c-0.6,0.9-0.9,1.7-0.8,2.4
						C269.6,52.1,270.2,52.5,270.3,52.5z"/>
				</g>
			</g>
			<g>
				<g>
					<defs>
						<path id="XMLID_95_" d="M276.4,57C276.4,57,276.4,57,276.4,57c0.2-0.2,0.4-0.2,0.5,0c0,0,0.5,0.5,1.2,0.5c0.7,0,1.3-0.4,2-1.3
							c2.3-2.7,10.2-17.3,10.2-17.5c0.1-0.2,0.3-0.2,0.4-0.1c0.2,0.1,0.2,0.3,0.1,0.4c-0.3,0.6-8,14.9-10.3,17.6
							c-0.8,1-1.7,1.5-2.5,1.5c-1,0-1.6-0.6-1.6-0.7C276.3,57.3,276.3,57.1,276.4,57z"/>
					</defs>
					<use xlink:href="#XMLID_95_"  style="overflow:visible;fill:#4A2C04;"/>
					<clipPath id="XMLID_00000168818950966470251140000016764413174437828004_">
						<use xlink:href="#XMLID_95_"  style="overflow:visible;"/>
					</clipPath>
					<path style="clip-path:url(#XMLID_00000168818950966470251140000016764413174437828004_);fill:#3B2205;" d="M276.5,57.4
						c0-0.1-0.1-0.1-0.1-0.2c0.2,0.2,0.7,0.6,1.6,0.6c0.8,0,1.5-0.4,2.3-1.2c0.1-0.1,0.2-0.2,0.2-0.3c2.3-2.8,9.9-17,10.2-17.6
						c0-0.1,0-0.1,0-0.2c0.1,0.1,0.2,0.3,0.1,0.4c-0.3,0.6-7.9,14.9-10.2,17.6c-0.1,0.1-0.2,0.2-0.2,0.3c-0.7,0.8-1.5,1.2-2.3,1.2
						C277.1,58.1,276.5,57.5,276.5,57.4z"/>
				</g>
			</g>
			<g>
				<defs>
					<path id="XMLID_87_" d="M292.4,42.6c0.3-0.4,0.4-0.9,0.3-1.4c0,0,0.1-0.1,0.1-0.1l6.4-8.5c1.7-2.2,1.2-5.4-1-7l-2.1-1.6
						c-2.2-1.7-5.4-1.2-7,1l-6.4,8.5c0,0,0,0,0,0.1c-0.5,0-1,0.3-1.3,0.7c-0.6,0.8-0.4,1.9,0.4,2.6l8.1,6.1
						C290.6,43.6,291.8,43.4,292.4,42.6z"/>
				</defs>
				<use xlink:href="#XMLID_87_"  style="overflow:visible;fill:#996000;"/>
				<clipPath id="XMLID_00000063635649126986645820000006907510697747773065_">
					<use xlink:href="#XMLID_87_"  style="overflow:visible;"/>
				</clipPath>
				<path style="opacity:6.000000e-02;clip-path:url(#XMLID_00000063635649126986645820000006907510697747773065_);" d="M296.7,14.2
					c0.6,1.2,6.4,13.1-9.5,28.2l5.5,4.8l18.2-20.3L296.7,14.2z"/>
				
					<line style="clip-path:url(#XMLID_00000063635649126986645820000006907510697747773065_);fill:none;stroke:#000000;stroke-miterlimit:10;" x1="281.6" y1="32.7" x2="293.7" y2="42"/>
			</g>
		</g>
		<path class="st41" d="M270.7,59.8c0,0,0.8-0.5,1.6-0.1c0.7,0.4,0.9,1.2,0,1.2C270.4,61,270.7,59.8,270.7,59.8z"/>
		<path class="st41" d="M273.4,61.3c0,0-0.4-1.7,0.5-1.1c0.6,0.3,0.9,0.9,0.6,1.1C274.3,61.6,273.4,61.3,273.4,61.3z"/>
		<path class="st41" d="M272.8,61.8c0,0.2-0.2,0.4-0.4,0.4s-0.4-0.2-0.4-0.4s0.2-0.4,0.4-0.4S272.8,61.6,272.8,61.8z"/>
		<circle class="st41" cx="273.2" cy="59.5" r="0.4"/>
		<circle class="st41" cx="269.9" cy="60.9" r="0.4"/>
		<g class="st16">
			<path class="st17" d="M239.3,63.1c0,0,0.2,0.3,0.5,0.8c0.3,0.4,0.6,1.1,1.1,1.8c0.8,1.5,1.9,3.4,3,5.2c0.3,0.4,0.6,0.9,0.9,1.3
				c0.3,0.4,0.6,0.8,0.9,1.2c0.3,0.4,0.6,0.8,0.8,1.2c0.3,0.4,0.5,0.7,0.8,1c0.3,0.3,0.5,0.6,0.7,0.9c0.2,0.3,0.4,0.5,0.6,0.7
				c0.3,0.4,0.5,0.7,0.5,0.7L249,78c0.4,0.6,0.2,1.4-0.4,1.8c-0.2,0.2-0.5,0.2-0.8,0.2c0,0-0.3,0-0.9-0.2c-0.3-0.1-0.7-0.1-1.1-0.3
				c-0.4-0.1-0.8-0.3-1.3-0.5c-0.5-0.2-0.9-0.5-1.5-0.8c-0.5-0.4-1-0.7-1.5-1.2c-0.5-0.5-1-0.9-1.4-1.5c-0.4-0.5-0.8-1.1-1.2-1.7
				c-1.5-2.4-2.2-5.1-2.3-7.1c0-0.5,0-1,0-1.4c0-0.4,0.1-0.8,0.1-1.1c0.1-0.6,0.2-0.9,0.2-0.9l0,0c0.2-0.7,0.9-1.1,1.6-0.9
				C238.9,62.6,239.1,62.8,239.3,63.1z"/>
		</g>
		<path class="st41" d="M251.3,58.7c0,0,0.5-0.8,1.3-0.8s1.4,0.6,0.6,1.1C251.6,59.9,251.3,58.7,251.3,58.7z"/>
		<path class="st41" d="M254.4,58.7c0,0-1.2-1.2-0.1-1.2c0.6,0,1.2,0.3,1.1,0.7S254.4,58.7,254.4,58.7z"/>
		<path class="st41" d="M253.7,59.4c0,0,0.8-0.5,1.6-0.1c0.7,0.4,0.9,1.2,0,1.2C253.3,60.6,253.7,59.4,253.7,59.4z"/>
		<path class="st41" d="M256.4,60.8c0,0-0.4-1.7,0.5-1.1c0.6,0.3,0.9,0.9,0.6,1.1C257.2,61.1,256.4,60.8,256.4,60.8z"/>
		<path class="st41" d="M255.8,61.4c0,0.2-0.2,0.4-0.4,0.4s-0.4-0.2-0.4-0.4c0-0.2,0.2-0.4,0.4-0.4S255.8,61.2,255.8,61.4z"/>
		<circle class="st41" cx="256.1" cy="59" r="0.4"/>
		<circle class="st41" cx="252.6" cy="60.2" r="0.4"/>
		<path class="st41" d="M251.4,59.8c0,0.2-0.2,0.4-0.4,0.4c-0.2,0-0.4-0.2-0.4-0.4s0.2-0.4,0.4-0.4
			C251.2,59.4,251.4,59.6,251.4,59.8z"/>
	</g>
	<g>
		<ellipse class="st9" cx="463.2" cy="91.1" rx="31.8" ry="7"/>
		<path class="st10" d="M445.7,84.7c0,0,4.3,2.3,5.7,3.9c1.2,1.3,2.6,2.4,4.4,2.7c3,0.6,7.8,1.1,13.4,0.1c2-0.4,3.9-1.4,5-3.2
			c0.4-0.6,1.8-2.1,3.1-2.5"/>
		<g>
			<g>
				<defs>
					<path id="XMLID_101_" d="M492.1,80.6c-1.8,0-3.9-0.4-6.3-1.4c-0.8-0.3-1.1-1.2-0.8-2c0.3-0.8,1.2-1.1,2-0.8
						c5.2,2.1,9.4,1.2,11.9-2.6c2.5-3.8,2.6-9.4,0.1-11.8c-1.1-1.1-2.1-1.6-3.2-1.4c-2,0.3-3.7,2.8-4.2,3.6c-0.4,0.7-1.3,1-2,0.6
						c-0.7-0.4-1-1.3-0.6-2c0.3-0.5,2.6-4.6,6.4-5.2c2-0.3,3.9,0.5,5.7,2.3c3.5,3.5,3.6,10.6,0.2,15.6
						C500.2,77.3,497.3,80.6,492.1,80.6z"/>
				</defs>
				<use xlink:href="#XMLID_101_"  style="overflow:visible;fill:#996000;"/>
				<clipPath id="XMLID_00000065069145717980740850000014282767992148294036_">
					<use xlink:href="#XMLID_101_"  style="overflow:visible;"/>
				</clipPath>
				<g style="opacity:0.27;clip-path:url(#XMLID_00000065069145717980740850000014282767992148294036_);">
					<path class="st12" d="M495.5,59.7c-2,0.3-4.7,2.7-5.1,3.6c-0.4,0.6-1.1,0.9-1.8,0.7c0,0.5,0.3,1,0.8,1.3
						c0.7,0.4,1.7,0.1,2.1-0.6c0.5-0.9,2.3-3.4,4.3-3.7c1-0.1,2.3,2,3.4,3c-0.2-0.5,0.8-0.2,0.5-1.5
						C499.1,60.8,497.5,59.5,495.5,59.7z"/>
					<path class="st12" d="M501.8,60.1c2.4,3.8,2.1,10-0.9,14.4c-1.2,1.8-4.1,5.1-9.4,5.1c-1.8,0-3.9-0.4-6.2-1.3
						c0,0.6,0.4,1.1,0.9,1.3c2.4,1,4.5,1.4,6.4,1.4c5.3,0,8.3-3.3,9.4-5.1C505.4,70.9,505.3,63.6,501.8,60.1z"/>
				</g>
			</g>
		</g>
		<g>
			<g>
				<defs>
					<circle id="XMLID_100_" cx="463.1" cy="-27.8" r="13.7"/>
				</defs>
				<use xlink:href="#XMLID_100_"  style="overflow:visible;fill:#BBD500;"/>
				<clipPath id="XMLID_00000123401924007362645930000011093197953537260976_">
					<use xlink:href="#XMLID_100_"  style="overflow:visible;"/>
				</clipPath>
				<path style="opacity:2.000000e-02;clip-path:url(#XMLID_00000123401924007362645930000011093197953537260976_);" d="M468.8-40.2
					c1.3,2.1,2,4.5,2,7.1c0,7.6-6.1,13.7-13.7,13.7c-2,0-3.9-0.5-5.7-1.2c2.4,3.9,6.7,6.6,11.7,6.6c7.6,0,13.7-6.1,13.7-13.7
					C476.8-33.3,473.5-38.1,468.8-40.2z"/>
			</g>
			<text transform="matrix(1 0 0 1 456.4885 -22.5187)" class="st17" style="font-family:'TrashHand'; font-size:24.4902px;">4</text>
		</g>
		<text transform="matrix(1 0 0 1 419.6223 3.7019)" style="font-family:'Montserrat-Regular'; font-size:10px;">Enjoy your matcha!</text>
		<g>
			<defs>
				<path id="XMLID_99_" d="M432.2,55.5c0,0-3.3,32.8,29.7,33c36.9,0.3,30.3-33,30.3-33"/>
			</defs>
			<use xlink:href="#XMLID_99_"  style="overflow:visible;fill:#996000;"/>
			<clipPath id="XMLID_00000002344499342645924950000011482568846833875892_">
				<use xlink:href="#XMLID_99_"  style="overflow:visible;"/>
			</clipPath>
			<path style="opacity:0.41;clip-path:url(#XMLID_00000002344499342645924950000011482568846833875892_);fill:#8E5400;" d="
				M492.3,55.5h-9.5c0.5,8.4-1,30-30.7,29.7c-2.3,0-4.4-0.2-6.4-0.5c4.1,2.3,9.4,3.8,16.3,3.8C498.9,88.8,492.3,55.5,492.3,55.5z"/>
			<path style="opacity:0.66;clip-path:url(#XMLID_00000002344499342645924950000011482568846833875892_);fill:#8E5400;" d="
				M495.3,54.4l-9.5,0.8c1.3,8.3,1.6,29.9-28.1,32.2c-2.3,0.2-4.4,0.2-6.4,0c4.3,1.9,9.7,3,16.5,2.4
				C504.7,87.1,495.3,54.4,495.3,54.4z"/>
		</g>
		<g>
			<defs>
				<path id="XMLID_98_" d="M492.3,55.5c0,3.8-13.4,6.9-30,6.9c-16.6,0-30-3.1-30-6.9s13.4-6.9,30-6.9
					C478.8,48.5,492.3,51.6,492.3,55.5z"/>
			</defs>
			<use xlink:href="#XMLID_98_"  style="overflow:visible;fill:#7A4800;"/>
			<clipPath id="XMLID_00000176763406582334129640000015620759850165653932_">
				<use xlink:href="#XMLID_98_"  style="overflow:visible;"/>
			</clipPath>
			<path style="opacity:5.000000e-02;clip-path:url(#XMLID_00000176763406582334129640000015620759850165653932_);" d="M463,48.5
				c-15.8,0.4-28.7,3.5-29.8,7.1c5.1-2.3,14.9-3.9,26.2-4.2c16.6-0.4,30.1,2.4,30.2,6.2c0,0.2,0,0.3-0.1,0.5c2.3-1,3.6-2.2,3.6-3.4
				C493.1,50.9,479.6,48.1,463,48.5z"/>
			<g style="clip-path:url(#XMLID_00000176763406582334129640000015620759850165653932_);">
				<defs>
					<path id="XMLID_97_" d="M491.6,57.8c0.1,3.8-13.3,7.2-29.9,7.6c-16.6,0.4-30.1-2.4-30.2-6.2c-0.1-3.8,13.3-7.2,29.9-7.6
						C478,51.3,491.5,54,491.6,57.8z"/>
				</defs>
				<use xlink:href="#XMLID_97_"  style="overflow:visible;fill:#BBD700;"/>
				<clipPath id="XMLID_00000084510666929383035400000002756076225523821200_">
					<use xlink:href="#XMLID_97_"  style="overflow:visible;"/>
				</clipPath>
				<path style="opacity:0.33;clip-path:url(#XMLID_00000084510666929383035400000002756076225523821200_);fill:#FFFFFF;" d="
					M440.6,59.1c0.2,0.3-0.1,0.5-0.3,0.7c-0.2,0.2-0.5,0.2-0.8,0c-0.2-0.2-0.3-0.5-0.1-0.7C439.6,58.9,440.2,58.6,440.6,59.1z"/>
				<path style="opacity:0.33;clip-path:url(#XMLID_00000084510666929383035400000002756076225523821200_);fill:#FFFFFF;" d="
					M443.8,61.8c0.2,0.3-0.1,0.5-0.3,0.7c-0.2,0.2-0.5,0.2-0.8,0c-0.2-0.2-0.3-0.5-0.1-0.7C442.9,61.6,443.5,61.2,443.8,61.8z"/>
				<path style="opacity:0.33;clip-path:url(#XMLID_00000084510666929383035400000002756076225523821200_);fill:#FFFFFF;" d="
					M448,58.5c0,0.2-0.1,0.3-0.3,0.3s-0.3-0.1-0.3-0.3c0-0.2,0.1-0.3,0.3-0.3S448,58.3,448,58.5z"/>
				<path style="opacity:0.33;clip-path:url(#XMLID_00000084510666929383035400000002756076225523821200_);fill:#FFFFFF;" d="
					M451.5,59.7c0,0.2-0.1,0.3-0.3,0.3s-0.3-0.1-0.3-0.3c0-0.2,0.1-0.3,0.3-0.3S451.5,59.6,451.5,59.7z"/>
				<path style="opacity:0.33;clip-path:url(#XMLID_00000084510666929383035400000002756076225523821200_);fill:#FFFFFF;" d="
					M459,61c0,0.2-0.1,0.3-0.3,0.3c-0.2,0-0.3-0.1-0.3-0.3c0-0.2,0.1-0.3,0.3-0.3C458.8,60.7,459,60.8,459,61z"/>
				<path style="opacity:0.33;clip-path:url(#XMLID_00000084510666929383035400000002756076225523821200_);fill:#FFFFFF;" d="
					M458.1,64.3c0,0.2-0.1,0.3-0.3,0.3c-0.2,0-0.3-0.1-0.3-0.3c0-0.2,0.1-0.3,0.3-0.3C457.9,64,458.1,64.2,458.1,64.3z"/>
				<path style="opacity:0.61;clip-path:url(#XMLID_00000084510666929383035400000002756076225523821200_);fill:#D7DF00;" d="
					M448.6,63.6c0,0.2-0.1,0.3-0.3,0.3c-0.2,0-0.3-0.1-0.3-0.3c0-0.2,0.1-0.3,0.3-0.3C448.5,63.3,448.6,63.4,448.6,63.6z"/>
				<path style="opacity:0.33;clip-path:url(#XMLID_00000084510666929383035400000002756076225523821200_);fill:#FFFFFF;" d="
					M453.6,58.3c0,0.2-0.1,0.3-0.3,0.3s-0.3-0.1-0.3-0.3c0-0.2,0.1-0.3,0.3-0.3S453.6,58.2,453.6,58.3z"/>
				<path style="opacity:0.33;clip-path:url(#XMLID_00000084510666929383035400000002756076225523821200_);fill:#FFFFFF;" d="
					M458.4,56.7c0,0.2-0.1,0.3-0.3,0.3c-0.2,0-0.3-0.1-0.3-0.3c0-0.2,0.1-0.3,0.3-0.3C458.3,56.4,458.4,56.5,458.4,56.7z"/>
				
					<circle style="opacity:0.3;clip-path:url(#XMLID_00000084510666929383035400000002756076225523821200_);fill:#FFFFFF;" cx="463.5" cy="55.2" r="0.3"/>
				<path style="opacity:0.33;clip-path:url(#XMLID_00000084510666929383035400000002756076225523821200_);fill:#FFFFFF;" d="
					M453.1,55.6c0,0.2-0.1,0.3-0.3,0.3s-0.3-0.1-0.3-0.3c0-0.2,0.1-0.3,0.3-0.3S453.1,55.4,453.1,55.6z"/>
				<path style="opacity:0.3;clip-path:url(#XMLID_00000084510666929383035400000002756076225523821200_);fill:#FFFFFF;" d="
					M463.8,57.5c0.2,0.3-0.1,0.5-0.3,0.7c-0.2,0.2-0.5,0.2-0.8,0c-0.2-0.2-0.3-0.5-0.1-0.7C462.8,57.3,463.4,56.9,463.8,57.5z"/>
				<path style="opacity:0.3;clip-path:url(#XMLID_00000084510666929383035400000002756076225523821200_);fill:#FFFFFF;" d="
					M470.6,59.6c0,0.2-0.1,0.3-0.3,0.3c-0.2,0-0.3-0.1-0.3-0.3c0-0.2,0.1-0.3,0.3-0.3C470.4,59.3,470.6,59.4,470.6,59.6z"/>
				<path style="opacity:0.3;clip-path:url(#XMLID_00000084510666929383035400000002756076225523821200_);fill:#FFFFFF;" d="
					M473.9,58.5c0.2,0.3,0,0.1-0.2,0.4c-0.2,0.2-0.4,0.5-0.6,0.3c-0.2-0.2-0.3-0.5-0.1-0.7C473.2,58.2,473.6,58,473.9,58.5z"/>
				<path style="opacity:0.33;clip-path:url(#XMLID_00000084510666929383035400000002756076225523821200_);fill:#FFFFFF;" d="
					M444.9,56.4c-0.1,0.3-0.1,0.1-0.4,0.1c-0.3,0-0.6,0.1-0.6-0.2c0-0.3,0.2-0.6,0.4-0.6C444.7,55.7,445.1,55.8,444.9,56.4z"/>
				<path style="opacity:0.3;clip-path:url(#XMLID_00000084510666929383035400000002756076225523821200_);fill:#FFFFFF;" d="
					M475.6,61.7c0,0.2-0.1,0.3-0.3,0.3c-0.2,0-0.3-0.1-0.3-0.3c0-0.2,0.1-0.3,0.3-0.3C475.5,61.4,475.6,61.5,475.6,61.7z"/>
				<path style="opacity:0.3;clip-path:url(#XMLID_00000084510666929383035400000002756076225523821200_);fill:#FFFFFF;" d="
					M472.7,55.7c0,0.1-0.1,0.2-0.2,0.2c-0.1,0-0.2-0.1-0.2-0.2c0-0.1,0.1-0.2,0.2-0.2C472.6,55.5,472.7,55.6,472.7,55.7z"/>
				
					<circle style="opacity:0.23;clip-path:url(#XMLID_00000084510666929383035400000002756076225523821200_);fill:#FFFFFF;" cx="467.5" cy="61.7" r="0.2"/>
				
					<circle style="opacity:0.33;clip-path:url(#XMLID_00000084510666929383035400000002756076225523821200_);fill:#FFFFFF;" cx="468.8" cy="55.9" r="0.3"/>
				<path style="opacity:0.33;clip-path:url(#XMLID_00000084510666929383035400000002756076225523821200_);fill:#FFFFFF;" d="
					M456,61.3c0.2,0.3-0.1,0.5-0.3,0.7c-0.2,0.2-0.5,0.2-0.8,0c-0.2-0.2-0.3-0.5-0.1-0.7C455,61.1,455.6,60.8,456,61.3z"/>
				<path style="opacity:0.33;clip-path:url(#XMLID_00000084510666929383035400000002756076225523821200_);fill:#FFFFFF;" d="
					M459.2,64c0.2,0.3-0.1,0.5-0.3,0.7c-0.2,0.2-0.5,0.2-0.8,0c-0.2-0.2-0.3-0.5-0.1-0.7C458.2,63.7,458.8,63.4,459.2,64z"/>
				<path style="opacity:0.33;clip-path:url(#XMLID_00000084510666929383035400000002756076225523821200_);fill:#FFFFFF;" d="
					M463.3,60.7c0,0.2-0.1,0.3-0.3,0.3s-0.3-0.1-0.3-0.3c0-0.2,0.1-0.3,0.3-0.3S463.3,60.5,463.3,60.7z"/>
				<path style="opacity:0.33;clip-path:url(#XMLID_00000084510666929383035400000002756076225523821200_);fill:#FFFFFF;" d="
					M466.9,61.9c0,0.2-0.1,0.3-0.3,0.3c-0.2,0-0.3-0.1-0.3-0.3c0-0.2,0.1-0.3,0.3-0.3C466.7,61.6,466.9,61.8,466.9,61.9z"/>
				<path style="opacity:0.33;clip-path:url(#XMLID_00000084510666929383035400000002756076225523821200_);fill:#FFFFFF;" d="
					M474.3,63.2c0,0.2-0.1,0.3-0.3,0.3c-0.2,0-0.3-0.1-0.3-0.3c0-0.2,0.1-0.3,0.3-0.3C474.2,62.9,474.3,63,474.3,63.2z"/>
				<path style="opacity:0.33;clip-path:url(#XMLID_00000084510666929383035400000002756076225523821200_);fill:#FFFFFF;" d="
					M473.4,66.5c0,0.2-0.1,0.3-0.3,0.3s-0.3-0.1-0.3-0.3c0-0.2,0.1-0.3,0.3-0.3S473.4,66.3,473.4,66.5z"/>
				<path style="opacity:0.61;clip-path:url(#XMLID_00000084510666929383035400000002756076225523821200_);fill:#D7DF00;" d="
					M464,65.7c0,0.2-0.1,0.3-0.3,0.3c-0.2,0-0.3-0.1-0.3-0.3c0-0.2,0.1-0.3,0.3-0.3C463.9,65.4,464,65.6,464,65.7z"/>
				<path style="opacity:0.33;clip-path:url(#XMLID_00000084510666929383035400000002756076225523821200_);fill:#FFFFFF;" d="
					M469,60.5c0,0.2-0.1,0.3-0.3,0.3c-0.2,0-0.3-0.1-0.3-0.3c0-0.2,0.1-0.3,0.3-0.3C468.9,60.2,469,60.3,469,60.5z"/>
				<path style="opacity:0.33;clip-path:url(#XMLID_00000084510666929383035400000002756076225523821200_);fill:#FFFFFF;" d="
					M473.8,58.9c0,0.2-0.1,0.3-0.3,0.3c-0.2,0-0.3-0.1-0.3-0.3c0-0.2,0.1-0.3,0.3-0.3C473.7,58.6,473.8,58.7,473.8,58.9z"/>
				
					<circle style="opacity:0.3;clip-path:url(#XMLID_00000084510666929383035400000002756076225523821200_);fill:#FFFFFF;" cx="478.9" cy="57.4" r="0.3"/>
				<path style="opacity:0.33;clip-path:url(#XMLID_00000084510666929383035400000002756076225523821200_);fill:#FFFFFF;" d="
					M468.5,57.7c0,0.2-0.1,0.3-0.3,0.3s-0.3-0.1-0.3-0.3c0-0.2,0.1-0.3,0.3-0.3S468.5,57.6,468.5,57.7z"/>
				<path style="opacity:0.3;clip-path:url(#XMLID_00000084510666929383035400000002756076225523821200_);fill:#FFFFFF;" d="
					M479.1,59.6c0.2,0.3-0.1,0.5-0.3,0.7c-0.2,0.2-0.5,0.2-0.8,0c-0.2-0.2-0.3-0.5-0.1-0.7C478.2,59.4,478.8,59.1,479.1,59.6z"/>
				
					<circle style="opacity:0.3;clip-path:url(#XMLID_00000084510666929383035400000002756076225523821200_);fill:#FFFFFF;" cx="485.6" cy="61.7" r="0.3"/>
				<path style="opacity:0.3;clip-path:url(#XMLID_00000084510666929383035400000002756076225523821200_);fill:#FFFFFF;" d="
					M489.3,60.7c0.2,0.3,0,0.1-0.2,0.4c-0.2,0.2-0.4,0.5-0.6,0.3c-0.2-0.2-0.3-0.5-0.1-0.7C488.6,60.4,488.9,60.1,489.3,60.7z"/>
				<path style="opacity:0.33;clip-path:url(#XMLID_00000084510666929383035400000002756076225523821200_);fill:#FFFFFF;" d="
					M460.3,58.6c-0.1,0.3-0.1,0.1-0.4,0.1c-0.3,0-0.6,0.1-0.6-0.2s0.2-0.6,0.4-0.6C460,57.9,460.4,57.9,460.3,58.6z"/>
				<path style="opacity:0.3;clip-path:url(#XMLID_00000084510666929383035400000002756076225523821200_);fill:#FFFFFF;" d="
					M491,63.9c0,0.2-0.1,0.3-0.3,0.3s-0.3-0.1-0.3-0.3c0-0.2,0.1-0.3,0.3-0.3S491,63.7,491,63.9z"/>
				<path style="opacity:0.3;clip-path:url(#XMLID_00000084510666929383035400000002756076225523821200_);fill:#FFFFFF;" d="
					M488,57.9c0,0.1-0.1,0.2-0.2,0.2c-0.1,0-0.2-0.1-0.2-0.2c0-0.1,0.1-0.2,0.2-0.2C488,57.7,488,57.8,488,57.9z"/>
				<path style="opacity:0.23;clip-path:url(#XMLID_00000084510666929383035400000002756076225523821200_);fill:#FFFFFF;" d="
					M483,63.9c0,0.1-0.1,0.2-0.2,0.2s-0.2-0.1-0.2-0.2c0-0.1,0.1-0.2,0.2-0.2S483,63.8,483,63.9z"/>
				<path style="opacity:0.33;clip-path:url(#XMLID_00000084510666929383035400000002756076225523821200_);fill:#FFFFFF;" d="
					M484.4,58.1c0,0.2-0.1,0.3-0.3,0.3s-0.3-0.1-0.3-0.3c0-0.2,0.1-0.3,0.3-0.3S484.4,57.9,484.4,58.1z"/>
			</g>
			
				<path id="XMLID_96_" style="opacity:0.12;clip-path:url(#XMLID_00000176763406582334129640000015620759850165653932_);fill:#FFFFFF;" d="
				M492.8,61.3c0.1,3.8-13.3,7.2-29.9,7.6c-16.6,0.4-30.1-2.4-30.2-6.2c-0.1-3.8,13.3-7.2,29.9-7.6
				C479.2,54.7,492.7,57.4,492.8,61.3z"/>
			
				<path id="XMLID_34_" style="opacity:0.12;clip-path:url(#XMLID_00000176763406582334129640000015620759850165653932_);fill:#FFFFFF;" d="
				M497.1,63.7c0.1,3.8-13.3,7.2-29.9,7.6c-16.6,0.4-30.1-2.4-30.2-6.2c-0.1-3.8,13.3-7.2,29.9-7.6C483.5,57.1,497,59.8,497.1,63.7z
				"/>
		</g>
		<g class="st16">
			<path class="st17" d="M438.4,62.9c0,0,0.2,0.3,0.5,0.8c0.3,0.4,0.6,1.1,1.1,1.8c0.8,1.5,1.9,3.4,3,5.2c0.3,0.4,0.6,0.9,0.9,1.3
				c0.3,0.4,0.6,0.8,0.9,1.2c0.3,0.4,0.6,0.8,0.8,1.2c0.3,0.4,0.5,0.7,0.8,1c0.3,0.3,0.5,0.6,0.7,0.9c0.2,0.3,0.4,0.5,0.6,0.7
				c0.3,0.4,0.5,0.7,0.5,0.7l0.1,0.1c0.4,0.6,0.2,1.4-0.4,1.8c-0.2,0.2-0.5,0.2-0.8,0.2c0,0-0.3,0-0.9-0.2c-0.3-0.1-0.7-0.1-1.1-0.3
				c-0.4-0.1-0.8-0.3-1.3-0.5c-0.5-0.2-0.9-0.5-1.5-0.8c-0.5-0.4-1-0.7-1.5-1.2c-0.5-0.5-1-0.9-1.4-1.5c-0.4-0.5-0.8-1.1-1.2-1.7
				c-1.5-2.4-2.2-5.1-2.3-7.1c0-0.5,0-1,0-1.4c0-0.4,0.1-0.8,0.1-1.1c0.1-0.6,0.2-0.9,0.2-0.9l0,0c0.2-0.7,0.9-1.1,1.6-0.9
				C438,62.4,438.3,62.6,438.4,62.9z"/>
		</g>
		<g>
			<defs>
				<path id="XMLID_103_" d="M487.8,48.5c0,0,4-3.4,4-5.8c0-1.3-1.1-2.4-2.4-2.4c-1,0-1.8,0.6-2.2,1.4c-0.4-0.9-1.2-1.4-2.2-1.4
					c-1.3,0-2.4,1.1-2.4,2.4c0.2,2.9,3.9,5.8,3.9,5.8S487.1,49.1,487.8,48.5z"/>
			</defs>
			<use xlink:href="#XMLID_103_"  style="overflow:visible;fill:#BBD700;"/>
			<clipPath id="XMLID_00000168117624847492620290000003490237765803999105_">
				<use xlink:href="#XMLID_103_"  style="overflow:visible;"/>
			</clipPath>
			<g style="opacity:3.000000e-02;clip-path:url(#XMLID_00000168117624847492620290000003490237765803999105_);">
				<path class="st54" d="M490.4,40.5c0.3,0.4,0.5,0.9,0.5,1.5c0,2.4-4,5.8-4,5.8c-0.3,0.3-0.5,0.3-0.7,0.3c0.3,0.3,0.5,0.4,0.5,0.4
					s0.6,0.7,1.2,0c0,0,4-3.4,4-5.8C491.9,41.7,491.3,40.8,490.4,40.5z"/>
			</g>
			<g style="opacity:0.19;clip-path:url(#XMLID_00000168117624847492620290000003490237765803999105_);">
				<path class="st17" d="M485.6,41.5c0,0-0.2,0.2-0.3,0.5c-0.1,0.1-0.1,0.3-0.2,0.4c0,0.1,0,0.1,0,0.2c0,0.1,0,0.1,0,0.2
					c0,0.1,0,0.1,0,0.2c0,0.1,0,0.2,0,0.3c0,0.2,0,0.4,0,0.6c0,0.4,0,0.7,0,0.7l0,0c0,0.2-0.2,0.3-0.4,0.3c-0.1,0-0.1,0-0.1,0
					c0,0-0.1,0-0.2-0.1c-0.1,0-0.1-0.1-0.2-0.2c-0.1-0.1-0.2-0.1-0.2-0.2c-0.3-0.4-0.6-1-0.6-1.8c0-0.2,0.1-0.4,0.1-0.6
					c0.1-0.2,0.2-0.4,0.3-0.5c0.2-0.3,0.5-0.5,0.8-0.6c0.3-0.1,0.5-0.1,0.6-0.1c0.2,0,0.3,0,0.2,0c0.2,0,0.3,0.1,0.4,0.2
					C485.8,41.3,485.7,41.5,485.6,41.5z"/>
			</g>
		</g>
		<g>
			<defs>
				<path id="XMLID_1_" d="M480.3,39.2c0,0,4.6-3.8,4.6-6.5c0-1.5-1.2-2.7-2.7-2.7c-1.1,0-2.1,0.7-2.5,1.6c-0.4-1-1.4-1.6-2.5-1.6
					c-1.5,0-2.7,1.2-2.7,2.7c0.3,3.3,4.5,6.5,4.5,6.5S479.5,40,480.3,39.2z"/>
			</defs>
			<use xlink:href="#XMLID_1_"  style="overflow:visible;fill:#BBD700;"/>
			<clipPath id="XMLID_00000132051930823698420340000003482780163648787892_">
				<use xlink:href="#XMLID_1_"  style="overflow:visible;"/>
			</clipPath>
			<g style="opacity:3.000000e-02;clip-path:url(#XMLID_00000132051930823698420340000003482780163648787892_);">
				<path class="st54" d="M483.2,30.3c0.4,0.5,0.6,1.1,0.6,1.7c0,2.7-4.6,6.5-4.6,6.5c-0.3,0.3-0.6,0.3-0.8,0.3
					c0.4,0.3,0.6,0.5,0.6,0.5s0.7,0.8,1.4,0c0,0,4.6-3.8,4.6-6.5C485,31.6,484.3,30.6,483.2,30.3z"/>
			</g>
			<g style="opacity:0.19;clip-path:url(#XMLID_00000132051930823698420340000003482780163648787892_);">
				<path class="st17" d="M477.8,31.4c0,0-0.2,0.3-0.4,0.6c-0.1,0.2-0.1,0.3-0.2,0.4c0,0.1,0,0.1-0.1,0.2c0,0.1,0,0.1,0,0.2
					c0,0.1,0,0.2,0,0.3c0,0.1,0,0.2,0,0.3c0,0.2,0,0.4,0,0.7c0,0.4,0,0.8,0,0.8l0,0c0,0.2-0.2,0.4-0.4,0.4c-0.1,0-0.1,0-0.2-0.1
					c0,0-0.1,0-0.2-0.1c-0.1,0-0.1-0.1-0.2-0.2c-0.1-0.1-0.2-0.1-0.3-0.3c-0.3-0.4-0.7-1.1-0.7-2c0-0.2,0.1-0.4,0.1-0.7
					c0.1-0.2,0.2-0.4,0.3-0.6c0.3-0.3,0.6-0.5,0.9-0.6c0.3-0.1,0.5-0.1,0.7-0.1c0.2,0,0.3,0.1,0.3,0.1c0.2,0,0.4,0.1,0.4,0.2
					C478.1,31.1,478,31.3,477.8,31.4z"/>
			</g>
		</g>
	</g>
	<g>
		<g>
			<defs>
				<circle id="XMLID_73_" cx="29.6" cy="15.8" r="13.7"/>
			</defs>
			<use xlink:href="#XMLID_73_"  style="overflow:visible;fill:#BBD500;"/>
			<clipPath id="XMLID_00000039841372167905692830000017956481816629496219_">
				<use xlink:href="#XMLID_73_"  style="overflow:visible;"/>
			</clipPath>
			<path style="opacity:2.000000e-02;clip-path:url(#XMLID_00000039841372167905692830000017956481816629496219_);" d="M35.3,3.4
				c1.3,2.1,2,4.5,2,7.1c0,7.6-6.1,13.7-13.7,13.7c-2,0-3.9-0.5-5.7-1.2c2.4,3.9,6.7,6.6,11.7,6.6c7.6,0,13.7-6.1,13.7-13.7
				C43.3,10.3,40,5.6,35.3,3.4z"/>
		</g>
		<g>
			<g>
				<path class="st17" d="M33.5,13.4c0,0.9-0.3,1.8-0.8,2.5c-0.3,0.5-0.9,1.1-1.8,1.9l-4.1,3.9h6.7v1.4h-8.8v-1.3l5.3-5
					c0.7-0.7,1.2-1.2,1.4-1.5c0.5-0.7,0.7-1.3,0.7-1.9c0-0.7-0.3-1.4-0.9-1.9c-0.6-0.5-1.3-0.8-2.1-0.8c-0.5,0-1,0.1-1.4,0.4
					c-0.4,0.3-0.8,0.6-1,1c-0.1,0.2-0.2,0.5-0.3,0.8c-0.1,0.3-0.1,0.7-0.1,1.1h-1.5c0-1.4,0.4-2.5,1.2-3.4c0.8-0.9,1.9-1.3,3.2-1.3
					c0.6,0,1.2,0.1,1.7,0.3c0.5,0.2,0.9,0.5,1.3,0.9c0.4,0.4,0.7,0.9,1,1.4S33.5,12.8,33.5,13.4z"/>
			</g>
		</g>
	</g>
	<text transform="matrix(1 0 0 1 49.9337 -75.8389)"><tspan x="0" y="0" style="font-family:'Montserrat-Regular'; font-size:10px;">Add 60ml of </tspan><tspan x="7.9" y="12" style="font-family:'Montserrat-Regular'; font-size:10px;">hot water</tspan></text>
	<ellipse class="st9" cx="5.2" cy="-151.5" rx="31.8" ry="7"/>
	<path class="st10" d="M-12.4-157.9c0,0,4.3,2.3,5.7,3.9c1.2,1.3,2.6,2.4,4.4,2.7c3,0.6,7.8,1.1,13.4,0.1c2-0.4,3.9-1.4,5-3.2
		c0.4-0.6,1.8-2.1,3.1-2.5"/>
	<g>
		<g>
			<defs>
				<path id="XMLID_76_" d="M34.1-162c-1.8,0-3.9-0.4-6.3-1.4c-0.8-0.3-1.1-1.2-0.8-2c0.3-0.8,1.2-1.1,2-0.8
					c5.2,2.1,9.4,1.2,11.9-2.6c2.5-3.8,2.6-9.4,0.1-11.8c-1.1-1.1-2.1-1.6-3.2-1.4c-2,0.3-3.7,2.8-4.2,3.6c-0.4,0.7-1.3,1-2,0.6
					c-0.7-0.4-1-1.3-0.6-2c0.3-0.5,2.6-4.6,6.4-5.2c2-0.3,3.9,0.5,5.7,2.3c3.5,3.5,3.6,10.6,0.2,15.6C42.2-165.3,39.3-162,34.1-162z
					"/>
			</defs>
			<use xlink:href="#XMLID_76_"  style="overflow:visible;fill:#996000;"/>
			<clipPath id="XMLID_00000126311041945438878260000002361366216466570372_">
				<use xlink:href="#XMLID_76_"  style="overflow:visible;"/>
			</clipPath>
			<g style="opacity:0.27;clip-path:url(#XMLID_00000126311041945438878260000002361366216466570372_);">
				<path class="st12" d="M37.5-182.9c-2,0.3-4.7,2.7-5.1,3.6c-0.4,0.6-1.1,0.9-1.8,0.7c0,0.5,0.3,1,0.8,1.3
					c0.7,0.4,1.7,0.1,2.1-0.6c0.5-0.9,2.3-3.4,4.3-3.7c1-0.1,2.3,2,3.4,3c-0.2-0.5,0.8-0.2,0.5-1.5
					C41.1-181.9,39.5-183.2,37.5-182.9z"/>
				<path class="st12" d="M43.8-182.5c2.4,3.8,2.1,10-0.9,14.4c-1.2,1.8-4.1,5.1-9.4,5.1c-1.8,0-3.9-0.4-6.2-1.3
					c0,0.6,0.4,1.1,0.9,1.3c2.4,1,4.5,1.4,6.4,1.4c5.3,0,8.3-3.3,9.4-5.1C47.3-171.8,47.2-179,43.8-182.5z"/>
			</g>
		</g>
	</g>
	<g>
		<defs>
			<path id="XMLID_75_" d="M-25.8-187.2c0,0-3.3,32.8,29.7,33c36.9,0.3,30.3-33,30.3-33"/>
		</defs>
		<use xlink:href="#XMLID_75_"  style="overflow:visible;fill:#996000;"/>
		<clipPath id="XMLID_00000134222527249900733700000002215263555781039018_">
			<use xlink:href="#XMLID_75_"  style="overflow:visible;"/>
		</clipPath>
		<path style="opacity:0.41;clip-path:url(#XMLID_00000134222527249900733700000002215263555781039018_);fill:#8E5400;" d="
			M34.2-187.2h-9.5c0.5,8.4-1,30-30.7,29.7c-2.3,0-4.4-0.2-6.4-0.5c4.1,2.3,9.4,3.8,16.3,3.8C40.9-153.8,34.2-187.2,34.2-187.2z"/>
		<path style="opacity:0.66;clip-path:url(#XMLID_00000134222527249900733700000002215263555781039018_);fill:#8E5400;" d="
			M37.3-188.2l-9.5,0.8c1.3,8.3,1.6,29.9-28.1,32.2c-2.3,0.2-4.4,0.2-6.4,0c4.3,1.9,9.7,3,16.5,2.4
			C46.7-155.5,37.3-188.2,37.3-188.2z"/>
	</g>
	<g>
		<defs>
			<path id="XMLID_74_" d="M34.2-187.2c0,3.8-13.4,6.9-30,6.9s-30-3.1-30-6.9s13.4-6.9,30-6.9S34.2-191,34.2-187.2z"/>
		</defs>
		<use xlink:href="#XMLID_74_"  style="overflow:visible;fill:#7A4800;"/>
		<clipPath id="XMLID_00000173883248365901182970000001067607106134298299_">
			<use xlink:href="#XMLID_74_"  style="overflow:visible;"/>
		</clipPath>
		<path style="opacity:5.000000e-02;clip-path:url(#XMLID_00000173883248365901182970000001067607106134298299_);" d="M4.2-194.1
			c-15.8,0-28.8,2.8-29.9,6.4c5.1-2.1,15-3.6,26.3-3.6c16.6,0,30,3.1,30,6.9c0,0.2,0,0.3-0.1,0.5c2.4-1,3.7-2.1,3.7-3.3
			C34.2-191,20.8-194.1,4.2-194.1z"/>
		<path id="XMLID_77_" style="clip-path:url(#XMLID_00000173883248365901182970000001067607106134298299_);fill:#BBD700;" d="
			M34.2-176.8c0,3.8-13.4,6.9-30,6.9s-30-3.1-30-6.9s13.4-6.9,30-6.9S34.2-180.6,34.2-176.8z"/>
		<g style="clip-path:url(#XMLID_00000173883248365901182970000001067607106134298299_);">
			<defs>
				<path id="XMLID_78_" d="M-19.6-169.7c0,0,9.8,11.1,27.3,10.6c17.6-0.6,19.1-8.5,19.1-8.5s-1-7.3-4.9-8.6
					c-3.9-1.3-1.8-6.2-6.8-7.4c-2.4-0.6-4.6-6-8.8-6.8c-4.2-0.8-5.3,3.7-9.1,4.7c-3.8,1-4.3,5-6.6,5.6c-2.3,0.6-3.6,6-6.7,6.3
					C-19.1-173.6-19.6-169.7-19.6-169.7z"/>
			</defs>
			<use xlink:href="#XMLID_78_"  style="overflow:visible;fill:#BBD700;"/>
			<clipPath id="XMLID_00000003795068961528672640000003317488255200645267_">
				<use xlink:href="#XMLID_78_"  style="overflow:visible;"/>
			</clipPath>
			<path style="opacity:5.000000e-02;clip-path:url(#XMLID_00000003795068961528672640000003317488255200645267_);" d="M1.3-194.6
				c0,0,9.3,10.4,8.4,16.8c-0.9,6.4,5.7,5.1,6.6,9.7c1,4.6,3.4,13.7,3.4,13.7l11.8-12.2C31.5-166.6,13.3-197.8,1.3-194.6z"/>
			<path style="opacity:5.000000e-02;clip-path:url(#XMLID_00000003795068961528672640000003317488255200645267_);" d="M2.7-193.7
				c0,0,10.6,9.1,10.5,15.6c-0.1,6.5,6.3,4.4,7.8,8.8c1.5,4.4,5.1,13.2,5.1,13.2l10.1-13.7C36.2-169.9,14.1-198.5,2.7-193.7z"/>
			<path style="opacity:0.3;clip-path:url(#XMLID_00000003795068961528672640000003317488255200645267_);fill:#FFFFFF;" d="
				M-10.4-170.2c0,0.7-0.6,1.2-1.3,1.2c-0.7,0-1.2-0.6-1.2-1.3c0-0.7,0.6-1.2,1.3-1.2C-10.9-171.5-10.4-170.9-10.4-170.2z"/>
			<path style="opacity:0.3;clip-path:url(#XMLID_00000003795068961528672640000003317488255200645267_);fill:#FFFFFF;" d="
				M-2.9-174.2c0.6,1.1,0,0.6-0.8,1.5c-0.8,0.9-1.7,1.9-2.6,1c-0.9-0.9-1-2.3-0.2-3.2C-5.7-175.8-4.2-176.6-2.9-174.2z"/>
			<path style="opacity:0.3;clip-path:url(#XMLID_00000003795068961528672640000003317488255200645267_);fill:#FFFFFF;" d="
				M-5.1-167.7c0,0.7-0.6,1.2-1.3,1.2c-0.7,0-1.2-0.6-1.2-1.3c0-0.7,0.6-1.2,1.3-1.2C-5.6-169-5.1-168.4-5.1-167.7z"/>
			<path style="opacity:0.3;clip-path:url(#XMLID_00000003795068961528672640000003317488255200645267_);fill:#FFFFFF;" d="
				M19.9-152.3c0,0.3-0.3,0.6-0.7,0.6c-0.3,0-0.6-0.3-0.6-0.7c0-0.3,0.3-0.6,0.7-0.6C19.7-152.9,19.9-152.6,19.9-152.3z"/>
			<path style="opacity:0.3;clip-path:url(#XMLID_00000003795068961528672640000003317488255200645267_);fill:#FFFFFF;" d="
				M-9.4-174.4c0,0.3-0.3,0.6-0.7,0.6c-0.3,0-0.6-0.3-0.6-0.7c0-0.3,0.3-0.6,0.7-0.6C-9.6-175.1-9.3-174.8-9.4-174.4z"/>
			<path style="opacity:0.3;clip-path:url(#XMLID_00000003795068961528672640000003317488255200645267_);fill:#FFFFFF;" d="
				M-0.8-165.5c0,0.7-0.6,1.2-1.3,1.2c-0.7,0-1.2-0.6-1.2-1.3c0-0.7,0.6-1.2,1.3-1.2C-1.3-166.8-0.8-166.2-0.8-165.5z"/>
			<path style="opacity:0.3;clip-path:url(#XMLID_00000003795068961528672640000003317488255200645267_);fill:#FFFFFF;" d="
				M-1.5-169.9c0,0.3-0.3,0.6-0.7,0.6c-0.3,0-0.6-0.3-0.6-0.7c0-0.3,0.3-0.6,0.7-0.6C-1.7-170.6-1.4-170.3-1.5-169.9z"/>
		</g>
	</g>
	<g class="st67">
		<path class="st17" d="M32.6-212c0-0.6,0.5-1.2,1.1-1.1c0.1,0,0.2,0.2,0.2,0.3c-0.1,0.3-0.4,0.3-0.5,0.5c-0.1,0.1-0.2,0.3-0.4,0.5
			C32.9-211.6,32.6-211.8,32.6-212L32.6-212z"/>
	</g>
	<path class="st68" d="M1.8-197.2c0,0,0.2-2.2-1.2-7.8s-1.8-14.2,0-16.8s1.2-8,3-12.8c1.4-3.8,2,9,3.2,12.8S5-214.2,5-209.5
		S3.5-197.2,1.8-197.2z"/>
	<path class="st68" d="M9.5-197.2c0,0-3.9-8.6-1.7-13c2.2-4.2,3.7-11,3.7-11c-0.8-3.3,2.3,8.8,0.2,13.2
		C10-204.6,9.5-197.2,9.5-197.2z"/>
	<g>
		<g>
			<g>
				<g>
					<defs>
						<path id="XMLID_72_" d="M79.9-223.5c-13.9,4-28.6-4-32.6-18c-2.3-8-0.7-16.7,4.4-23.3c3.4-4.5,8.1-7.7,13.6-9.3
							c13.9-4,28.6,4,32.6,18C101.9-242.1,93.8-227.5,79.9-223.5z M65.5-273.1c-5.3,1.5-9.8,4.6-13.1,8.9
							c-4.9,6.4-6.5,14.8-4.2,22.5c3.9,13.4,18,21.2,31.4,17.3c13.4-3.9,21.2-18,17.3-31.4C93.1-269.3,79-277,65.5-273.1z"/>
					</defs>
					<use xlink:href="#XMLID_72_"  style="overflow:visible;fill:#723F03;"/>
					<clipPath id="XMLID_00000180355437192317442860000011293476992192871321_">
						<use xlink:href="#XMLID_72_"  style="overflow:visible;"/>
					</clipPath>
					<g style="clip-path:url(#XMLID_00000180355437192317442860000011293476992192871321_);">
						<path class="st70" d="M51.8-264.3c3.4-4.5,8.1-7.7,13.6-9.3c13.8-4,28.3,3.9,32.5,17.6c0-0.1-0.1-0.2-0.1-0.4
							c-4-13.9-18.7-22-32.6-18c-5.4,1.6-10.1,4.8-13.6,9.3c-5.1,6.6-6.7,15.3-4.4,23.3c0,0.1,0.1,0.3,0.1,0.4
							C45.2-249.2,46.8-257.8,51.8-264.3z"/>
						<path class="st70" d="M79.8-223.9c13.4-3.9,21.2-18,17.3-31.4c0-0.1-0.1-0.2-0.1-0.4c3.6,13.3-4.1,27.2-17.4,31.1
							c-13.3,3.9-27.3-3.7-31.3-16.9c0,0.1,0.1,0.2,0.1,0.3C52.2-227.8,66.3-220,79.8-223.9z"/>
					</g>
				</g>
			</g>
			<g>
				<defs>
					<path id="XMLID_70_" d="M28.1-216.5c0.2,0.7,0.9,1.2,1.7,1.2c2.3-0.1,7.2,0,8.7,3.5c2,4.5,6.9,27,25.2,16.1
						c0.8-0.5,1.1-1.5,0.7-2.3l-8.7-16.7c0,0-6.9-14.8-27.8-7.7c-0.9,0.3-1.4,1.3-1.1,2.2L28.1-216.5z"/>
				</defs>
				<use xlink:href="#XMLID_70_"  style="overflow:visible;fill:#824D02;"/>
				<clipPath id="XMLID_00000111891457751672768950000008851957485803346351_">
					<use xlink:href="#XMLID_70_"  style="overflow:visible;"/>
				</clipPath>
				<path style="opacity:0.39;clip-path:url(#XMLID_00000111891457751672768950000008851957485803346351_);fill:#754103;" d="
					M39.8-213.9c-1.8-3.7-8.5-3.7-11.1-3.4c-0.8,0.1-1.6-0.4-1.9-1.2l-0.2-0.6l1.1,3.1c0.2,0.7,0.9,1.2,1.7,1.2
					c2.3-0.1,7.2,0,8.7,3.5c2,4.5,6.9,27,25.2,16.1c0.3-0.2,0.6-0.5,0.7-0.9C46.6-187.1,42-209.3,39.8-213.9z"/>
			</g>
			<path class="st72" d="M78.1-190.3l0,0.9c0.1,1.8,1.7,3.2,3.5,3c4.7-0.5,13.5-2.1,21.5-6.8c1.7-1,2.1-3.3,0.8-4.8l-1-1.2"/>
			<g>
				<defs>
					<path id="XMLID_68_" d="M114.3-223.2c4.7,16.7-8.1,26.3-24.8,31.1c-16.7,4.8-30.4,3-35.7-13.6c-6.1-19.2,2.9-37.3,19.6-42.1
						C90-252.6,108.5-243.5,114.3-223.2z"/>
				</defs>
				<use xlink:href="#XMLID_68_"  style="overflow:visible;fill:#9A6001;"/>
				<clipPath id="XMLID_00000176032762033566276870000007589607298860348583_">
					<use xlink:href="#XMLID_68_"  style="overflow:visible;"/>
				</clipPath>
				<path style="opacity:0.47;clip-path:url(#XMLID_00000176032762033566276870000007589607298860348583_);fill:#915602;" d="
					M82.3-250.1c9.8,3.6,18.2,12.1,21.7,24.7c4.9,17.3-8.4,27.2-25.7,32.2c-6.7,1.9-13,2.8-18.5,2.2c6.7,2.9,16.7,5.8,26.3,3
					c17.3-5,37.3-14.2,30.9-38.1C112.9-241.5,94.8-248.2,82.3-250.1z"/>
				<path style="clip-path:url(#XMLID_00000176032762033566276870000007589607298860348583_);fill:#915602;" d="M87.4-248.7
					c9.8,3.6,18.2,12.1,21.7,24.7c4.9,17.3-8.4,27.2-25.7,32.2c-6.7,1.9-13,2.8-18.5,2.2c6.7,2.9,15.3,2.2,24.9-0.5
					c17.3-5,30.6-14.9,25.7-32.2C111.2-237.7,99.9-246.8,87.4-248.7z"/>
			</g>
			<g>
				<defs>
					<path id="XMLID_67_" d="M92.5-248.5c1.4,4.7-6.5,7.3-16.5,10.1c-10,2.9-18.3,5-19.7,0.3c-1.4-4.7,4.2-12.8,14.2-15.7
						C80.5-256.6,91.2-253.1,92.5-248.5z"/>
				</defs>
				<use xlink:href="#XMLID_67_"  style="overflow:visible;fill:#824D02;"/>
				<clipPath id="XMLID_00000132794900787730717330000012089374521849083797_">
					<use xlink:href="#XMLID_67_"  style="overflow:visible;"/>
				</clipPath>
				<path style="opacity:0.2;clip-path:url(#XMLID_00000132794900787730717330000012089374521849083797_);fill:#723F03;" d="
					M52.5-237.8c0,0,22.8,1.5,41.9-12.6l2.1,5.4l-18.6,9.5l-24.5,2.7L52.5-237.8z"/>
				<path style="opacity:0.2;clip-path:url(#XMLID_00000132794900787730717330000012089374521849083797_);fill:#723F03;" d="
					M74.6-254.9c0.5,1.9-0.5,3.8-2.4,4.3c-1.9,0.5-3.8-0.5-4.3-2.4c-0.5-1.9,0.5-3.8,2.4-4.3C72.2-257.8,74.1-256.8,74.6-254.9z"/>
			</g>
			<g>
				<g>
					<defs>
						<path id="XMLID_71_" d="M84-270.6c-0.5,0.1-1,0.1-1.5,0c-18-5.8-29.2,8.3-29.3,8.4c-0.8,1.1-2.4,1.3-3.5,0.4
							c-1.1-0.8-1.3-2.4-0.4-3.5c0.1-0.2,13.5-17,34.8-10.1c1.3,0.4,2,1.8,1.6,3.1C85.5-271.4,84.8-270.9,84-270.6z"/>
					</defs>
					<use xlink:href="#XMLID_71_"  style="overflow:visible;fill:#723F03;"/>
					<clipPath id="XMLID_00000041286760981290846090000012692819331134370181_">
						<use xlink:href="#XMLID_71_"  style="overflow:visible;"/>
					</clipPath>
					<path style="opacity:0.48;clip-path:url(#XMLID_00000041286760981290846090000012692819331134370181_);fill:#683503;" d="
						M49.6-263.3c0.1-0.2,13.5-17,34.8-10.1c0.5,0.2,1,0.5,1.3,0.9c0.3-1.2-0.4-2.5-1.7-2.9c-21.3-6.8-34.6,9.9-34.8,10.1
						c-0.7,0.9-0.7,2.1-0.1,3C49.2-262.6,49.4-263,49.6-263.3z"/>
				</g>
			</g>
			<g>
				<defs>
					<path id="XMLID_69_" d="M74.2-256.1c0.5,1.9-0.5,3.8-2.4,4.3c-1.9,0.5-3.8-0.5-4.3-2.4c-0.5-1.9,0.5-3.8,2.4-4.3
						C71.7-259,73.7-257.9,74.2-256.1z"/>
				</defs>
				<use xlink:href="#XMLID_69_"  style="overflow:visible;fill:#9A6001;"/>
				<clipPath id="XMLID_00000097458609297041168800000015520410485258548404_">
					<use xlink:href="#XMLID_69_"  style="overflow:visible;"/>
				</clipPath>
				<path style="opacity:0.53;clip-path:url(#XMLID_00000097458609297041168800000015520410485258548404_);fill:#8C5302;" d="
					M70.5-258.6c0.7,0.4,1.3,1.1,1.5,2c0.5,1.9-0.5,3.8-2.4,4.3c-0.2,0.1-0.4,0.1-0.6,0.1c0.8,0.5,1.8,0.7,2.8,0.4
					c1.9-0.5,2.9-2.5,2.4-4.3C73.7-257.7,72.1-258.8,70.5-258.6z"/>
			</g>
			<g class="st78">
				<path class="st17" d="M68.3-253.8c-1.1-1.2-0.4-3.5,1.2-3.8c0.3,0,0.6,0.1,0.6,0.4c0,0.2,0,0.3-0.1,0.4
					c-0.5,0.9-0.4,1.6-0.8,2.6C69.2-253.6,68.6-253.4,68.3-253.8L68.3-253.8z"/>
			</g>
		</g>
		<g>
			<defs>
				<path id="XMLID_79_" d="M25.8-214.6c-0.1-0.6-0.8-0.8-1.3-0.5c-0.8,0.7-1.9,1.8-2.1,3.5c-0.3,1.6,3,2.4,3.5,0.8
					C26.1-211.7,26.2-213,25.8-214.6z"/>
			</defs>
			<use xlink:href="#XMLID_79_"  style="overflow:visible;fill:#63CADB;"/>
			<clipPath id="XMLID_00000054228020213993755600000017227417246601993111_">
				<use xlink:href="#XMLID_79_"  style="overflow:visible;"/>
			</clipPath>
			<path style="opacity:0.14;clip-path:url(#XMLID_00000054228020213993755600000017227417246601993111_);fill:#56B1BA;" d="
				M25.8-214.6c-0.1-0.3-0.3-0.5-0.6-0.6c0.3,1.5,0.2,2.7,0,3.6c-0.3,1.1-1.9,1.1-2.8,0.4c0.2,1.4,3,1.9,3.4,0.4
				C26.1-211.7,26.2-213,25.8-214.6z"/>
		</g>
		<g>
			<g>
				<defs>
					<path id="XMLID_80_" d="M28.6-208.8c-0.2-0.5-0.8-0.6-1.2-0.2c-0.6,0.7-1.4,1.8-1.4,3.4c0,1.5,2.9,1.7,3.1,0.3
						C29.2-206.3,29.1-207.5,28.6-208.8z"/>
				</defs>
				<use xlink:href="#XMLID_80_"  style="overflow:visible;fill:#63CADB;"/>
				<clipPath id="XMLID_00000071526338517031251510000003764589542525765806_">
					<use xlink:href="#XMLID_80_"  style="overflow:visible;"/>
				</clipPath>
				<path style="opacity:0.14;clip-path:url(#XMLID_00000071526338517031251510000003764589542525765806_);fill:#56B1BA;" d="
					M28.6-208.8c-0.1-0.3-0.3-0.4-0.6-0.5c0.4,1.3,0.5,2.4,0.4,3.2c-0.1,1-1.5,1.2-2.4,0.7c0.4,1.2,2.9,1.3,3.1-0.1
					C29.2-206.3,29.1-207.5,28.6-208.8z"/>
			</g>
			<g class="st67">
				<path class="st17" d="M27-207.5c-0.1-0.5,0.3-1.1,0.8-1.1c0.1,0,0.2,0.1,0.2,0.2c0,0.2-0.3,0.3-0.4,0.5
					c-0.1,0.1-0.1,0.3-0.3,0.5C27.3-207.2,27-207.3,27-207.5L27-207.5z"/>
			</g>
		</g>
		<g>
			<g>
				<defs>
					<path id="XMLID_32_" d="M25.6-201.2c-0.2-0.5-0.8-0.6-1.2-0.2c-0.6,0.7-1.4,1.8-1.4,3.4c0,1.5,2.9,1.7,3.1,0.3
						C26.2-198.6,26.1-199.8,25.6-201.2z"/>
				</defs>
				<use xlink:href="#XMLID_32_"  style="overflow:visible;fill:#63CADB;"/>
				<clipPath id="XMLID_00000054251060205086254560000000740734125794490000_">
					<use xlink:href="#XMLID_32_"  style="overflow:visible;"/>
				</clipPath>
				<path style="opacity:0.14;clip-path:url(#XMLID_00000054251060205086254560000000740734125794490000_);fill:#56B1BA;" d="
					M25.6-201.2c-0.1-0.3-0.3-0.4-0.6-0.5c0.4,1.3,0.5,2.4,0.4,3.2c-0.1,1-1.5,1.2-2.4,0.7c0.4,1.2,2.9,1.3,3.1-0.1
					C26.2-198.6,26.1-199.8,25.6-201.2z"/>
			</g>
			<g class="st67">
				<path class="st17" d="M24-199.8c-0.1-0.5,0.3-1.1,0.8-1.1c0.1,0,0.2,0.1,0.2,0.2c0,0.2-0.3,0.3-0.4,0.5
					c-0.1,0.1-0.1,0.3-0.3,0.5C24.3-199.6,24-199.6,24-199.8L24-199.8z"/>
			</g>
		</g>
		<g class="st16">
			<path class="st17" d="M60.4-227c0.1,6.1,0.3,11.6,1.3,17.6c0.2,1.1-1.1,2-2,1.3c-4.6-3.3-5.7-9.9-4.1-15c0.5-1.4,2.4-6.4,4.4-4.8
				C60.3-227.7,60.4-227.3,60.4-227L60.4-227z"/>
		</g>
	</g>
</g>
</svg>
