<?xml version="1.0" encoding="utf-8"?>
<!-- Generator: Adobe Illustrator 27.3.1, SVG Export Plug-In . SVG Version: 6.00 Build 0)  -->
<svg version="1.1" xmlns="http://www.w3.org/2000/svg" xmlns:xlink="http://www.w3.org/1999/xlink" x="0px" y="0px"
	 viewBox="0 0 117.3 117.8" style="enable-background:new 0 0 117.3 117.8;" xml:space="preserve">
<style type="text/css">
	.st0{display:none;}
	.st1{display:inline;fill:#FFFFFF;}
	.st2{opacity:3.000000e-02;clip-path:url(#XMLID_00000174583629698426217710000004680979564410665362_);}
	
		.st3{opacity:2.000000e-02;clip-path:url(#XMLID_00000174583629698426217710000004680979564410665362_);fill:none;stroke:#000000;stroke-width:0.6461;stroke-miterlimit:10;}
	.st4{opacity:3.000000e-02;clip-path:url(#XMLID_00000080196620064888747100000015679246829904798593_);}
	.st5{opacity:3.000000e-02;clip-path:url(#XMLID_00000124139446536965905240000012478769483184672406_);}
	
		.st6{opacity:2.000000e-02;clip-path:url(#XMLID_00000124139446536965905240000012478769483184672406_);fill:none;stroke:#000000;stroke-width:0.6461;stroke-miterlimit:10;}
	.st7{opacity:3.000000e-02;clip-path:url(#XMLID_00000056388886455957494570000003209205384317471395_);}
	.st8{opacity:2.000000e-02;clip-path:url(#XMLID_00000046314673832946519290000015959615862411547529_);}
	.st9{opacity:0.2;fill:#7A4800;}
	.st10{fill:#9A6100;}
	.st11{opacity:0.27;clip-path:url(#XMLID_00000130640326508502179580000004031494262304035767_);}
	.st12{fill:#6D3E00;}
	.st13{opacity:0.41;clip-path:url(#XMLID_00000011020506742299294540000014621855435807274174_);fill:#8E5400;}
	.st14{opacity:0.66;clip-path:url(#XMLID_00000011020506742299294540000014621855435807274174_);fill:#8E5400;}
	.st15{opacity:5.000000e-02;clip-path:url(#XMLID_00000088837545560392256880000013407906403405552026_);}
	.st16{opacity:5.000000e-02;}
	.st17{fill:#FFFFFF;}
	.st18{opacity:5.000000e-02;clip-path:url(#XMLID_00000043427222463415934970000003045238895287997066_);}
	.st19{opacity:5.000000e-02;clip-path:url(#XMLID_00000098212828701392829700000010793725550467891121_);}
	.st20{opacity:0.3;clip-path:url(#XMLID_00000098212828701392829700000010793725550467891121_);fill:#FFFFFF;}
	.st21{opacity:2.000000e-02;clip-path:url(#XMLID_00000127748933217522182110000016207034637252538301_);}
	.st22{opacity:0.27;clip-path:url(#XMLID_00000052825778554759473370000005336685299253258370_);}
	.st23{opacity:0.41;clip-path:url(#XMLID_00000033357854356672327960000007711365936590558364_);fill:#8E5400;}
	.st24{opacity:0.66;clip-path:url(#XMLID_00000033357854356672327960000007711365936590558364_);fill:#8E5400;}
	.st25{opacity:5.000000e-02;clip-path:url(#XMLID_00000008116664198060365960000011927435259462259348_);}
	.st26{clip-path:url(#XMLID_00000008116664198060365960000011927435259462259348_);}
	.st27{clip-path:url(#XMLID_00000003803314998873073810000002551068495587110072_);}
	.st28{opacity:5.000000e-02;clip-path:url(#XMLID_00000075127330957097627960000017076073096833719718_);}
	.st29{opacity:0.3;clip-path:url(#XMLID_00000075127330957097627960000017076073096833719718_);fill:#FFFFFF;}
	.st30{opacity:0.12;clip-path:url(#XMLID_00000008116664198060365960000011927435259462259348_);fill:#FFFFFF;}
	.st31{clip-path:url(#XMLID_00000035527252365742663920000004952196592118526891_);fill:#3B2205;}
	.st32{clip-path:url(#XMLID_00000023274385179061015450000012774941248120512699_);fill:#3B2205;}
	.st33{clip-path:url(#XMLID_00000112628470187106089520000008922592860237224612_);fill:#3B2205;}
	.st34{clip-path:url(#XMLID_00000122691001455393555380000017209965307766983563_);fill:#3B2205;}
	.st35{clip-path:url(#XMLID_00000167360069898401520050000017865911940213777066_);fill:#3B2205;}
	.st36{clip-path:url(#XMLID_00000144314997490938693630000006104142509235078794_);fill:#3B2205;}
	.st37{clip-path:url(#XMLID_00000062885386055200872130000002037039845085126273_);fill:#3B2205;}
	.st38{clip-path:url(#XMLID_00000146495813401987702670000009917911380598431623_);fill:#3B2205;}
	.st39{opacity:6.000000e-02;clip-path:url(#XMLID_00000098911441408851533280000011070668761446000038_);}
	.st40{clip-path:url(#XMLID_00000098911441408851533280000011070668761446000038_);fill:none;stroke:#000000;stroke-miterlimit:10;}
	.st41{fill:#BBD700;}
	.st42{opacity:0.27;clip-path:url(#XMLID_00000045617496556922073440000016983915548082768257_);}
	.st43{opacity:2.000000e-02;clip-path:url(#XMLID_00000069369590032210922960000018255751163054790333_);}
	.st44{opacity:0.41;clip-path:url(#XMLID_00000088832761592455124390000000363890523707761855_);fill:#8E5400;}
	.st45{opacity:0.66;clip-path:url(#XMLID_00000088832761592455124390000000363890523707761855_);fill:#8E5400;}
	.st46{opacity:5.000000e-02;clip-path:url(#XMLID_00000143591725973016858770000006124507374142202801_);}
	.st47{clip-path:url(#XMLID_00000143591725973016858770000006124507374142202801_);}
	.st48{opacity:0.33;clip-path:url(#XMLID_00000003810151194000684990000011246186735051816111_);fill:#FFFFFF;}
	.st49{opacity:0.61;clip-path:url(#XMLID_00000003810151194000684990000011246186735051816111_);fill:#D7DF00;}
	.st50{opacity:0.3;clip-path:url(#XMLID_00000003810151194000684990000011246186735051816111_);fill:#FFFFFF;}
	.st51{opacity:0.23;clip-path:url(#XMLID_00000003810151194000684990000011246186735051816111_);fill:#FFFFFF;}
	.st52{opacity:0.12;clip-path:url(#XMLID_00000143591725973016858770000006124507374142202801_);fill:#FFFFFF;}
	.st53{opacity:3.000000e-02;clip-path:url(#XMLID_00000156564943813661615340000002752549001937344669_);}
	.st54{fill:#050500;}
	.st55{opacity:0.19;clip-path:url(#XMLID_00000156564943813661615340000002752549001937344669_);}
	.st56{opacity:3.000000e-02;clip-path:url(#XMLID_00000016051177843888812210000001330485796270944401_);}
	.st57{opacity:0.19;clip-path:url(#XMLID_00000016051177843888812210000001330485796270944401_);}
	.st58{opacity:2.000000e-02;clip-path:url(#XMLID_00000119805439310534152850000017955075313846183825_);}
	.st59{opacity:0.27;clip-path:url(#XMLID_00000055693114506267876730000010382505995881458596_);}
	.st60{opacity:0.41;clip-path:url(#XMLID_00000104695339868230982240000008655110835292248713_);fill:#8E5400;}
	.st61{opacity:0.66;clip-path:url(#XMLID_00000104695339868230982240000008655110835292248713_);fill:#8E5400;}
	.st62{opacity:5.000000e-02;clip-path:url(#XMLID_00000032620166296644046110000007983220857492326064_);}
	.st63{clip-path:url(#XMLID_00000032620166296644046110000007983220857492326064_);fill:#BBD700;}
	.st64{clip-path:url(#XMLID_00000032620166296644046110000007983220857492326064_);}
	.st65{opacity:5.000000e-02;clip-path:url(#XMLID_00000060726683799069762680000017800062653431836844_);}
	.st66{opacity:0.3;clip-path:url(#XMLID_00000060726683799069762680000017800062653431836844_);fill:#FFFFFF;}
	.st67{opacity:9.000000e-02;}
	.st68{opacity:3.000000e-02;fill:#747477;}
	.st69{clip-path:url(#XMLID_00000080202653736448403380000015387647930597537412_);}
	.st70{fill:#603103;}
	.st71{opacity:0.39;clip-path:url(#XMLID_00000141440058012354218280000003270074906082432446_);fill:#754103;}
	.st72{fill:#824D02;}
	.st73{opacity:0.47;clip-path:url(#XMLID_00000087371473690936572080000013315697212589868960_);fill:#915602;}
	.st74{clip-path:url(#XMLID_00000087371473690936572080000013315697212589868960_);fill:#915602;}
	.st75{opacity:0.2;clip-path:url(#XMLID_00000109740145405682915110000014436239329743882403_);fill:#723F03;}
	.st76{opacity:0.48;clip-path:url(#XMLID_00000070097922017458607440000005171703801874323865_);fill:#683503;}
	.st77{opacity:0.53;clip-path:url(#XMLID_00000161593257991806505060000005709580687157167035_);fill:#8C5302;}
	.st78{opacity:4.000000e-02;}
	.st79{opacity:0.14;clip-path:url(#XMLID_00000178901284289013536760000018206031948064062886_);fill:#56B1BA;}
	.st80{opacity:0.14;clip-path:url(#XMLID_00000019671359800156318960000016310363011172417670_);fill:#56B1BA;}
	.st81{opacity:0.14;clip-path:url(#XMLID_00000037680147753344477700000016692144571227164584_);fill:#56B1BA;}
</style>
<g id="BACKGROUND" class="st0">
	<rect x="15.1" y="-382.2" class="st1" width="500" height="500"/>
</g>
<g id="OBJECTS">
	<g id="title">
		<text transform="matrix(1 0 0 1 -388.9176 -274.5323)"><tspan x="0" y="0" style="font-family:'TrashHand'; font-size:40px;">HOW TO MAKE </tspan><tspan x="64" y="36" style="font-family:'TrashHand'; font-size:40px;">MACHA</tspan></text>
		<g>
			<defs>
				<path id="XMLID_104_" d="M-200.7-233.2c-10.3,5.3-18.9-9.9-9.2-16.2c1.6-1.1,3.5-2,5.5-2.9c4.7-2.3,7-5.2,8.2-7.5
					c0.5-1.1,2.1-0.9,2.3,0.2C-192.2-252.5-190.3-238.5-200.7-233.2z"/>
			</defs>
			<use xlink:href="#XMLID_104_"  style="overflow:visible;fill:#BBD500;"/>
			<clipPath id="XMLID_00000025406546718951771290000006452562400195314834_">
				<use xlink:href="#XMLID_104_"  style="overflow:visible;"/>
			</clipPath>
			<path style="opacity:3.000000e-02;clip-path:url(#XMLID_00000025406546718951771290000006452562400195314834_);" d="
				M-195.1-263.8c0,0-0.1-0.4-1.9,2.9c1.5,9.2,1.7,26.2-14.3,27.6c-0.5,0-1.1,0-1.6-0.1c0.9,1.5,2.7,2.4,4.7,2.2
				C-183.9-233.3-195.1-263.8-195.1-263.8z"/>
			
				<polyline style="opacity:2.000000e-02;clip-path:url(#XMLID_00000025406546718951771290000006452562400195314834_);fill:none;stroke:#000000;stroke-width:0.6461;stroke-miterlimit:10;" points="
				-205,-254.2 -201,-245.5 -190.4,-246.8 			"/>
			
				<polyline style="opacity:2.000000e-02;clip-path:url(#XMLID_00000025406546718951771290000006452562400195314834_);fill:none;stroke:#000000;stroke-width:0.6461;stroke-miterlimit:10;" points="
				-209.4,-249.8 -205.4,-241.1 -190.1,-242.6 			"/>
			
				<polyline style="opacity:2.000000e-02;clip-path:url(#XMLID_00000025406546718951771290000006452562400195314834_);fill:none;stroke:#000000;stroke-width:0.6461;stroke-miterlimit:10;" points="
				-213.3,-244.6 -209.4,-235.9 -194.1,-237.4 			"/>
			
				<polyline style="opacity:2.000000e-02;clip-path:url(#XMLID_00000025406546718951771290000006452562400195314834_);fill:none;stroke:#000000;stroke-width:0.6461;stroke-miterlimit:10;" points="
				-202.5,-258.5 -198.6,-249.8 -188,-251.1 			"/>
		</g>
		<g>
			<defs>
				<path id="XMLID_105_" d="M-214.8-228.1c0,0,0-0.1,0.1-0.4c0.1-0.2,0.2-0.5,0.3-0.9c0.3-0.8,0.7-1.9,1.3-3.1
					c0.3-0.6,0.6-1.3,1.1-2c0.4-0.7,0.8-1.4,1.3-2.1c0.5-0.7,1-1.4,1.6-2.1c0.6-0.7,1.2-1.4,1.8-2.1c0.6-0.7,1.3-1.3,1.9-1.9
					c0.6-0.6,1.3-1.2,1.8-1.7c1.2-1.1,2.1-2.2,2.9-3.3c0.8-1,1.4-2,1.8-2.6c0.4-0.6,0.7-1,0.7-1l0,0c0.2-0.3,0.6-0.4,0.9-0.2
					c0.3,0.2,0.4,0.6,0.2,0.9c0,0-0.2,0.4-0.6,1.1c-0.4,0.7-0.9,1.6-1.6,2.8c-0.7,1.1-1.6,2.5-2.8,3.7c-0.6,0.6-1.1,1.3-1.7,1.9
					c-0.6,0.6-1.1,1.3-1.7,1.9c-0.5,0.7-1,1.4-1.5,2c-0.5,0.7-0.9,1.4-1.3,2.1c-0.4,0.7-0.8,1.4-1.1,2c-0.3,0.6-0.6,1.3-0.8,1.9
					c-0.5,1.2-0.8,2.2-1,2.8c-0.1,0.3-0.1,0.6-0.2,0.8c0,0.2,0,0.3,0,0.3l0,0c-0.2,0.9-1.1,1.5-2,1.4s-1.5-1.1-1.4-2
					C-214.9-228.1-214.9-228.1-214.8-228.1z"/>
			</defs>
			<use xlink:href="#XMLID_105_"  style="overflow:visible;fill:#B8C800;"/>
			<clipPath id="XMLID_00000034054403658310102760000013738066820898480540_">
				<use xlink:href="#XMLID_105_"  style="overflow:visible;"/>
			</clipPath>
			<path style="opacity:3.000000e-02;clip-path:url(#XMLID_00000034054403658310102760000013738066820898480540_);" d="
				M-197.9-250.8c-0.4,0.7-1,1.6-1.8,2.7c-0.8,1.1-1.8,2.4-3,3.6c-0.6,0.6-1.2,1.2-1.8,1.8c-0.6,0.6-1.2,1.2-1.8,1.8
				c-0.6,0.6-1.1,1.3-1.6,1.9c-0.5,0.7-1,1.3-1.4,2c-0.4,0.7-0.8,1.3-1.2,2c-0.4,0.6-0.7,1.2-0.9,1.8c-0.5,1.1-0.9,2.1-1.1,2.8
				c-0.1,0.3-0.2,0.6-0.2,0.8c0,0.2-0.1,0.3-0.1,0.3l0,0c-0.2,0.9-1.1,1.5-2.1,1.3c0,0,0,0-0.1,0c0,0,0,0,0,0.1
				c-0.2,0.9,0.4,1.8,1.4,2s1.8-0.4,2-1.4l0,0c0,0,0-0.1,0-0.3c0-0.2,0.1-0.4,0.2-0.8c0.2-0.7,0.5-1.7,1-2.8
				c0.2-0.6,0.5-1.2,0.8-1.9c0.3-0.7,0.7-1.3,1.1-2c0.4-0.7,0.8-1.4,1.3-2.1c0.5-0.7,1-1.4,1.5-2c0.5-0.7,1.1-1.3,1.7-1.9
				c0.6-0.6,1.2-1.3,1.7-1.9c1.1-1.3,2.1-2.6,2.8-3.7c0.7-1.2,1.2-2.1,1.6-2.8c0.4-0.7,0.6-1.1,0.6-1.1c0.2-0.3,0.1-0.7-0.2-0.8
				C-197.6-251.4-197.7-251.1-197.9-250.8z"/>
		</g>
		<g>
			<defs>
				<path id="XMLID_107_" d="M-323.1-242.2c8,8.3,21.1-3.2,13.9-12.3c-1.2-1.5-2.7-3-4.2-4.5c-3.7-3.7-4.9-7.2-5.3-9.8
					c-0.1-1.2-1.6-1.5-2.3-0.5C-324.9-263.2-331.2-250.6-323.1-242.2z"/>
			</defs>
			<use xlink:href="#XMLID_107_"  style="overflow:visible;fill:#BBD500;"/>
			<clipPath id="XMLID_00000131342205137215788140000017755058161076405173_">
				<use xlink:href="#XMLID_107_"  style="overflow:visible;"/>
			</clipPath>
			<path style="opacity:3.000000e-02;clip-path:url(#XMLID_00000131342205137215788140000017755058161076405173_);" d="
				M-318.4-272.9c0,0,0.3-0.3,0.9,3.4c-4.4,8.2-10.2,24.2,4.5,30.7c0.5,0.2,1,0.4,1.5,0.4c-1.4,1.1-3.4,1.4-5.2,0.6
				C-338.9-247.7-318.4-272.9-318.4-272.9z"/>
			
				<polyline style="opacity:2.000000e-02;clip-path:url(#XMLID_00000131342205137215788140000017755058161076405173_);fill:none;stroke:#000000;stroke-width:0.6461;stroke-miterlimit:10;" points="
				-312.2,-260.6 -318.7,-253.7 -328.3,-258.3 			"/>
			
				<polyline style="opacity:2.000000e-02;clip-path:url(#XMLID_00000131342205137215788140000017755058161076405173_);fill:none;stroke:#000000;stroke-width:0.6461;stroke-miterlimit:10;" points="
				-309.5,-255 -316,-248.1 -330,-254.5 			"/>
			
				<polyline style="opacity:2.000000e-02;clip-path:url(#XMLID_00000131342205137215788140000017755058161076405173_);fill:none;stroke:#000000;stroke-width:0.6461;stroke-miterlimit:10;" points="
				-307.4,-248.8 -314,-241.9 -328,-248.3 			"/>
			
				<polyline style="opacity:2.000000e-02;clip-path:url(#XMLID_00000131342205137215788140000017755058161076405173_);fill:none;stroke:#000000;stroke-width:0.6461;stroke-miterlimit:10;" points="
				-313.1,-265.5 -319.7,-258.5 -329.2,-263.2 			"/>
		</g>
		<g>
			<defs>
				<path id="XMLID_106_" d="M-311.3-232.8c0,0,0-0.1,0-0.4c0-0.2,0-0.6,0-1c0-0.8,0-2-0.2-3.4c-0.1-0.7-0.2-1.4-0.3-2.2
					c-0.1-0.8-0.3-1.6-0.6-2.4c-0.2-0.8-0.5-1.7-0.8-2.5c-0.3-0.8-0.6-1.7-1-2.5c-0.3-0.8-0.8-1.6-1.2-2.4c-0.4-0.8-0.8-1.5-1.2-2.2
					c-0.7-1.4-1.3-2.8-1.6-4c-0.4-1.2-0.7-2.3-0.8-3c-0.2-0.7-0.3-1.2-0.3-1.2l0,0c-0.1-0.3-0.4-0.6-0.8-0.5
					c-0.3,0.1-0.5,0.4-0.5,0.7c0,0,0.1,0.4,0.2,1.2c0.1,0.8,0.3,1.9,0.6,3.2c0.3,1.3,0.8,2.9,1.4,4.4c0.3,0.8,0.7,1.6,1,2.4
					c0.3,0.8,0.7,1.6,0.9,2.4c0.3,0.8,0.5,1.6,0.8,2.4c0.2,0.8,0.4,1.6,0.6,2.4c0.1,0.8,0.3,1.5,0.3,2.2c0.1,0.7,0.1,1.4,0.2,2
					c0.1,1.3,0,2.3,0,3c0,0.4-0.1,0.6-0.1,0.8c0,0.2,0,0.3,0,0.3l0,0c-0.1,0.9,0.5,1.8,1.4,1.9c0.9,0.1,1.8-0.5,1.9-1.4
					C-311.3-232.7-311.3-232.7-311.3-232.8z"/>
			</defs>
			<use xlink:href="#XMLID_106_"  style="overflow:visible;fill:#B8C800;"/>
			<clipPath id="XMLID_00000110432951006581571990000016771217989132402313_">
				<use xlink:href="#XMLID_106_"  style="overflow:visible;"/>
			</clipPath>
			<path style="opacity:3.000000e-02;clip-path:url(#XMLID_00000110432951006581571990000016771217989132402313_);" d="M-320-259.7
				c0.2,0.8,0.4,1.8,0.8,3.1c0.4,1.3,0.9,2.8,1.6,4.4c0.4,0.8,0.8,1.5,1.1,2.3c0.4,0.8,0.8,1.5,1.1,2.3c0.3,0.8,0.6,1.6,0.9,2.4
				c0.3,0.8,0.5,1.6,0.7,2.3c0.2,0.8,0.4,1.5,0.5,2.2c0.1,0.7,0.2,1.4,0.3,2c0.1,1.2,0.1,2.3,0.1,3c0,0.4,0,0.6,0,0.8
				c0,0.2,0,0.3,0,0.3l0,0c-0.1,0.9,0.6,1.8,1.5,1.9c0,0,0,0,0.1,0c0,0,0,0,0,0.1c-0.1,0.9-1,1.6-1.9,1.4c-0.9-0.1-1.6-1-1.4-1.9
				l0,0c0,0,0-0.1,0-0.3c0-0.2,0.1-0.4,0.1-0.8c0.1-0.7,0.1-1.7,0-3c0-0.6-0.1-1.3-0.2-2c-0.1-0.7-0.2-1.5-0.3-2.2
				c-0.1-0.8-0.3-1.6-0.6-2.4c-0.2-0.8-0.5-1.6-0.8-2.4c-0.3-0.8-0.6-1.6-0.9-2.4c-0.4-0.8-0.7-1.6-1-2.4c-0.7-1.6-1.1-3.1-1.4-4.4
				c-0.3-1.3-0.5-2.4-0.6-3.2c-0.1-0.8-0.2-1.2-0.2-1.2c-0.1-0.3,0.1-0.6,0.5-0.7C-320.1-260.4-320-260.1-320-259.7z"/>
		</g>
	</g>
	<g>
		<g>
			<defs>
				<circle id="XMLID_31_" cx="263.1" cy="-208" r="13.7"/>
			</defs>
			<use xlink:href="#XMLID_31_"  style="overflow:visible;fill:#BBD500;"/>
			<clipPath id="XMLID_00000139283735582427855000000013206046728508048319_">
				<use xlink:href="#XMLID_31_"  style="overflow:visible;"/>
			</clipPath>
			<path style="opacity:2.000000e-02;clip-path:url(#XMLID_00000139283735582427855000000013206046728508048319_);" d="M268.8-220.5
				c1.3,2.1,2,4.5,2,7.1c0,7.6-6.1,13.7-13.7,13.7c-2,0-3.9-0.5-5.7-1.2c2.4,3.9,6.7,6.6,11.7,6.6c7.6,0,13.7-6.1,13.7-13.7
				C276.8-213.6,273.5-218.3,268.8-220.5z"/>
		</g>
		<text transform="matrix(1 0 0 1 256.4885 -200.7552)" class="st17" style="font-family:'TrashHand'; font-size:24.4902px;">1</text>
	</g>
	<text transform="matrix(1 0 0 1 223.7971 -176.5346)"><tspan x="0" y="0" style="font-family:'Montserrat-Regular'; font-size:10px;">Add 1-2 teaspoon </tspan><tspan x="-2.8" y="12" style="font-family:'Montserrat-Regular'; font-size:10px;">matcha into a cup </tspan></text>
	<g>
		<ellipse class="st9" cx="379.2" cy="-105.8" rx="31.8" ry="7"/>
		<path class="st10" d="M361.6-112.2c0,0,4.3,2.3,5.7,3.9c1.2,1.3,2.6,2.4,4.4,2.7c3,0.6,7.8,1.1,13.4,0.1c2-0.4,3.9-1.4,5-3.2
			c0.4-0.6,1.8-2.1,3.1-2.5"/>
		<g>
			<g>
				<defs>
					<path id="XMLID_36_" d="M408-116.3c-1.8,0-3.9-0.4-6.3-1.4c-0.8-0.3-1.1-1.2-0.8-2c0.3-0.8,1.2-1.1,2-0.8
						c5.2,2.1,9.4,1.2,11.9-2.6c2.5-3.8,2.6-9.4,0.1-11.8c-1.1-1.1-2.1-1.6-3.2-1.4c-2,0.3-3.7,2.8-4.2,3.6c-0.4,0.7-1.3,1-2,0.6
						c-0.7-0.4-1-1.3-0.6-2c0.3-0.5,2.6-4.6,6.4-5.2c2-0.3,3.9,0.5,5.7,2.3c3.5,3.5,3.6,10.6,0.2,15.6
						C416.1-119.5,413.3-116.3,408-116.3z"/>
				</defs>
				<use xlink:href="#XMLID_36_"  style="overflow:visible;fill:#996000;"/>
				<clipPath id="XMLID_00000090978338320942717520000014575330751226983044_">
					<use xlink:href="#XMLID_36_"  style="overflow:visible;"/>
				</clipPath>
				<g style="opacity:0.27;clip-path:url(#XMLID_00000090978338320942717520000014575330751226983044_);">
					<path class="st12" d="M411.5-137.1c-2,0.3-4.7,2.7-5.1,3.6c-0.4,0.6-1.1,0.9-1.8,0.7c0,0.5,0.3,1,0.8,1.3
						c0.7,0.4,1.7,0.1,2.1-0.6c0.5-0.9,2.3-3.4,4.3-3.7c1-0.1,2.3,2,3.4,3c-0.2-0.5,0.8-0.2,0.5-1.5
						C415-136.1,413.5-137.4,411.5-137.1z"/>
					<path class="st12" d="M417.8-136.8c2.4,3.8,2.1,10-0.9,14.4c-1.2,1.8-4.1,5.1-9.4,5.1c-1.8,0-3.9-0.4-6.2-1.3
						c0,0.6,0.4,1.1,0.9,1.3c2.4,1,4.5,1.4,6.4,1.4c5.3,0,8.3-3.3,9.4-5.1C421.3-126,421.2-133.2,417.8-136.8z"/>
				</g>
			</g>
		</g>
		<g>
			<defs>
				<path id="XMLID_35_" d="M348.1-141.4c0,0-3.3,32.8,29.7,33c36.9,0.3,30.3-33,30.3-33"/>
			</defs>
			<use xlink:href="#XMLID_35_"  style="overflow:visible;fill:#996000;"/>
			<clipPath id="XMLID_00000158744433714949599150000009890107223672975754_">
				<use xlink:href="#XMLID_35_"  style="overflow:visible;"/>
			</clipPath>
			<path style="opacity:0.41;clip-path:url(#XMLID_00000158744433714949599150000009890107223672975754_);fill:#8E5400;" d="
				M408.2-141.4h-9.5c0.5,8.4-1,30-30.7,29.7c-2.3,0-4.4-0.2-6.4-0.5c4.1,2.3,9.4,3.8,16.3,3.8C414.8-108.1,408.2-141.4,408.2-141.4
				z"/>
			<path style="opacity:0.66;clip-path:url(#XMLID_00000158744433714949599150000009890107223672975754_);fill:#8E5400;" d="
				M411.2-142.4l-9.5,0.8c1.3,8.3,1.6,29.9-28.1,32.2c-2.3,0.2-4.4,0.2-6.4,0c4.3,1.9,9.7,3,16.5,2.4
				C420.7-109.8,411.2-142.4,411.2-142.4z"/>
		</g>
		<g>
			<defs>
				<path id="XMLID_37_" d="M408.2-141.4c0,3.8-13.4,6.9-30,6.9c-16.6,0-30-3.1-30-6.9s13.4-6.9,30-6.9
					C394.8-148.3,408.2-145.2,408.2-141.4z"/>
			</defs>
			<use xlink:href="#XMLID_37_"  style="overflow:visible;fill:#7A4800;"/>
			<clipPath id="XMLID_00000116236456968444699950000011693939106596455850_">
				<use xlink:href="#XMLID_37_"  style="overflow:visible;"/>
			</clipPath>
			<path style="opacity:5.000000e-02;clip-path:url(#XMLID_00000116236456968444699950000011693939106596455850_);" d="M378.2-148.3
				c-15.8,0-28.8,2.8-29.9,6.4c5.1-2.1,15-3.6,26.3-3.6c16.6,0,30,3.1,30,6.9c0,0.2,0,0.3-0.1,0.5c2.4-1,3.7-2.1,3.7-3.3
				C408.2-145.2,394.8-148.3,378.2-148.3z"/>
		</g>
		<g class="st16">
			<path class="st17" d="M354.4-134c3,5.4,5.8,10,9.7,14.8c0.7,0.9,0,2.3-1.1,2.1c-5.6-0.7-9.8-5.9-10.9-11.2
				c-0.3-1.5-1-6.8,1.5-6.3C353.9-134.5,354.2-134.3,354.4-134L354.4-134z"/>
		</g>
		<g>
			<defs>
				<path id="XMLID_40_" d="M450.9-169.9c-0.1-0.8-0.9-1.4-1.7-1.2l-42.2,6.9l-4.3,0.7l-15.4,2.5c-0.6,0.1-0.9,0.6-0.7,1.2
					c1.4,5.2,6.5,8.5,11.9,7.7c4-0.6,7-3.4,8.2-7c0.4-1.3,1.5-2.2,2.9-2.5l40.2-6.6C450.4-168.3,451-169,450.9-169.9L450.9-169.9z"
					/>
			</defs>
			<use xlink:href="#XMLID_40_"  style="overflow:visible;fill:#996000;"/>
			<clipPath id="XMLID_00000107566436674949101200000011815985110810114689_">
				<use xlink:href="#XMLID_40_"  style="overflow:visible;"/>
			</clipPath>
			<path style="opacity:5.000000e-02;clip-path:url(#XMLID_00000107566436674949101200000011815985110810114689_);" d="M450.2-171.1
				c0.2,0.9-1.2,1.5-1.8,1.6l-40.2,6.6c-1.3,0.2-2.5,1.2-2.9,2.5c-1.2,3.6-4.3,6.3-8.2,7c-3.4,0.6-6.7-0.6-9-2.9
				c2.2,3.4,6.3,5.4,10.6,4.7c4-0.6,7-3.4,8.2-7c0.4-1.3,1.5-2.2,2.9-2.5l40.2-6.6c0.8-0.1,1.4-0.9,1.2-1.7
				C451-170.1,450.9-171.1,450.2-171.1z"/>
			<path style="opacity:5.000000e-02;clip-path:url(#XMLID_00000107566436674949101200000011815985110810114689_);" d="M385.7-160.2
				c0,0,5.6,5.9,16.5,0.1c0,0-10.8,2.5-15.9-1.1L385.7-160.2z"/>
		</g>
		<g>
			<defs>
				<path id="XMLID_41_" d="M386.6-160.3c0,0,4.8,3.5,11.6,1.6c6.8-1.8,6.7-5.1,6.7-5.1s-1.1-2.8-2.7-2.9c-1.6-0.1-1.3-2.3-3.3-2.3
					c-1,0-2.3-1.9-4.1-1.8c-1.7,0.1-1.7,1.9-3.1,2.6c-1.4,0.7-1.2,2.3-2.1,2.8c-0.8,0.4-0.9,2.7-2,3
					C386.4-161.9,386.6-160.3,386.6-160.3z"/>
			</defs>
			<use xlink:href="#XMLID_41_"  style="overflow:visible;fill:#BBD700;"/>
			<clipPath id="XMLID_00000059988518777242555910000018217355066520075405_">
				<use xlink:href="#XMLID_41_"  style="overflow:visible;"/>
			</clipPath>
			<path style="opacity:5.000000e-02;clip-path:url(#XMLID_00000059988518777242555910000018217355066520075405_);" d="M392.5-172
				c0,0,4.6,3.2,4.8,5.8s2.7,1.5,3.5,3.2c0.8,1.7,2.6,5.1,2.6,5.1l3.5-5.8C406.8-163.8,396.9-174.3,392.5-172z"/>
			<path style="opacity:5.000000e-02;clip-path:url(#XMLID_00000059988518777242555910000018217355066520075405_);" d="M393.1-171.8
				c0,0,5,2.6,5.5,5.1c0.6,2.6,2.8,1.1,3.8,2.7c1,1.6,3.2,4.7,3.2,4.7l2.7-6.3C408.4-165.5,397.1-174.6,393.1-171.8z"/>
			<path style="opacity:0.3;clip-path:url(#XMLID_00000059988518777242555910000018217355066520075405_);fill:#FFFFFF;" d="
				M390.1-161.4c0,0.3-0.1,0.5-0.4,0.6c-0.3,0-0.5-0.1-0.6-0.4c0-0.3,0.1-0.5,0.4-0.6C389.8-161.8,390.1-161.6,390.1-161.4z"/>
			<path style="opacity:0.3;clip-path:url(#XMLID_00000059988518777242555910000018217355066520075405_);fill:#FFFFFF;" d="
				M392.7-163.6c0.3,0.4,0.1,0.2-0.2,0.6c-0.2,0.4-0.5,0.9-0.9,0.6c-0.4-0.3-0.6-0.8-0.4-1.2C391.5-164,392-164.4,392.7-163.6z"/>
			<path style="opacity:0.3;clip-path:url(#XMLID_00000059988518777242555910000018217355066520075405_);fill:#FFFFFF;" d="
				M392.4-160.9c0,0.3-0.1,0.5-0.4,0.6c-0.3,0-0.5-0.1-0.6-0.4c0-0.3,0.1-0.5,0.4-0.6C392.1-161.3,392.4-161.2,392.4-160.9z"/>
			<path style="opacity:0.3;clip-path:url(#XMLID_00000059988518777242555910000018217355066520075405_);fill:#FFFFFF;" d="
				M403.6-157.1c0,0.1-0.1,0.3-0.2,0.3c-0.1,0-0.3-0.1-0.3-0.2c0-0.1,0.1-0.3,0.2-0.3C403.4-157.4,403.6-157.3,403.6-157.1z"/>
			<path style="opacity:0.3;clip-path:url(#XMLID_00000059988518777242555910000018217355066520075405_);fill:#FFFFFF;" d="
				M390.1-163.1c0,0.1-0.1,0.3-0.2,0.3c-0.1,0-0.3-0.1-0.3-0.2c0-0.1,0.1-0.3,0.2-0.3C390-163.3,390.1-163.3,390.1-163.1z"/>
			<path style="opacity:0.3;clip-path:url(#XMLID_00000059988518777242555910000018217355066520075405_);fill:#FFFFFF;" d="
				M394.3-160.4c0,0.3-0.1,0.5-0.4,0.6c-0.3,0-0.5-0.1-0.6-0.4c0-0.3,0.1-0.5,0.4-0.6C394-160.9,394.2-160.7,394.3-160.4z"/>
			<path style="opacity:0.3;clip-path:url(#XMLID_00000059988518777242555910000018217355066520075405_);fill:#FFFFFF;" d="
				M393.6-162.1c0,0.1-0.1,0.3-0.2,0.3c-0.1,0-0.3-0.1-0.3-0.2c0-0.1,0.1-0.3,0.2-0.3C393.5-162.3,393.6-162.2,393.6-162.1z"/>
		</g>
	</g>
	<g>
		<g>
			<defs>
				<circle id="XMLID_81_" cx="264.1" cy="-27.8" r="13.7"/>
			</defs>
			<use xlink:href="#XMLID_81_"  style="overflow:visible;fill:#BBD500;"/>
			<clipPath id="XMLID_00000052785482671311435070000005962612849614380175_">
				<use xlink:href="#XMLID_81_"  style="overflow:visible;"/>
			</clipPath>
			<path style="opacity:2.000000e-02;clip-path:url(#XMLID_00000052785482671311435070000005962612849614380175_);" d="M269.8-40.2
				c1.3,2.1,2,4.5,2,7.1c0,7.6-6.1,13.7-13.7,13.7c-2,0-3.9-0.5-5.7-1.2c2.4,3.9,6.7,6.6,11.7,6.6c7.6,0,13.7-6.1,13.7-13.7
				C277.8-33.3,274.5-38.1,269.8-40.2z"/>
		</g>
		<text transform="matrix(1 0 0 1 258.4879 -21.5187)" class="st17" style="font-family:'TrashHand'; font-size:24.4902px;">3</text>
	</g>
	<text transform="matrix(1 0 0 1 229.6716 3.7019)"><tspan x="0" y="0" style="font-family:'Montserrat-Regular'; font-size:10px;">Stir until it gets </tspan><tspan x="-11.9" y="12" style="font-family:'Montserrat-Regular'; font-size:10px;">dissolved and foamy</tspan></text>
	<ellipse class="st9" cx="52.2" cy="100.7" rx="31.8" ry="7"/>
	<path class="st10" d="M34.6,94.3c0,0,4.3,2.3,5.7,3.9c1.2,1.3,2.6,2.4,4.4,2.7c3,0.6,7.8,1.1,13.4,0.1c2-0.4,3.9-1.4,5-3.2
		c0.4-0.6,1.8-2.1,3.1-2.5"/>
	<g>
		<g>
			<defs>
				<path id="XMLID_85_" d="M81.1,90.2c-1.8,0-3.9-0.4-6.3-1.4c-0.8-0.3-1.1-1.2-0.8-2c0.3-0.8,1.2-1.1,2-0.8
					c5.2,2.1,9.4,1.2,11.9-2.6c2.5-3.8,2.6-9.4,0.1-11.8c-1.1-1.1-2.1-1.6-3.2-1.4c-2,0.3-3.7,2.8-4.2,3.6c-0.4,0.7-1.3,1-2,0.6
					c-0.7-0.4-1-1.3-0.6-2c0.3-0.5,2.6-4.6,6.4-5.2c2-0.3,3.9,0.5,5.7,2.3c3.5,3.5,3.6,10.6,0.2,15.6C89.2,86.9,86.3,90.2,81.1,90.2
					z"/>
			</defs>
			<use xlink:href="#XMLID_85_"  style="overflow:visible;fill:#996000;"/>
			<clipPath id="XMLID_00000012465568028774529080000006798070956731618971_">
				<use xlink:href="#XMLID_85_"  style="overflow:visible;"/>
			</clipPath>
			<g style="opacity:0.27;clip-path:url(#XMLID_00000012465568028774529080000006798070956731618971_);">
				<path class="st12" d="M84.5,69.3c-2,0.3-4.7,2.7-5.1,3.6c-0.4,0.6-1.1,0.9-1.8,0.7c0,0.5,0.3,1,0.8,1.3c0.7,0.4,1.7,0.1,2.1-0.6
					c0.5-0.9,2.3-3.4,4.3-3.7c1-0.1,2.3,2,3.4,3c-0.2-0.5,0.8-0.2,0.5-1.5C88,70.4,86.5,69.1,84.5,69.3z"/>
				<path class="st12" d="M90.8,69.7c2.4,3.8,2.1,10-0.9,14.4c-1.2,1.8-4.1,5.1-9.4,5.1c-1.8,0-3.9-0.4-6.2-1.3
					c0,0.6,0.4,1.1,0.9,1.3c2.4,1,4.5,1.4,6.4,1.4c5.3,0,8.3-3.3,9.4-5.1C94.3,80.5,94.2,73.3,90.8,69.7z"/>
			</g>
		</g>
	</g>
	<g>
		<defs>
			<path id="XMLID_84_" d="M21.2,65.1c0,0-3.3,32.8,29.7,33c36.9,0.3,30.3-33,30.3-33"/>
		</defs>
		<use xlink:href="#XMLID_84_"  style="overflow:visible;fill:#996000;"/>
		<clipPath id="XMLID_00000137130306249520087060000001028103507527853188_">
			<use xlink:href="#XMLID_84_"  style="overflow:visible;"/>
		</clipPath>
		<path style="opacity:0.41;clip-path:url(#XMLID_00000137130306249520087060000001028103507527853188_);fill:#8E5400;" d="
			M81.2,65.1h-9.5c0.5,8.4-1,30-30.7,29.7c-2.3,0-4.4-0.2-6.4-0.5c4.1,2.3,9.4,3.8,16.3,3.8C87.8,98.4,81.2,65.1,81.2,65.1z"/>
		<path style="opacity:0.66;clip-path:url(#XMLID_00000137130306249520087060000001028103507527853188_);fill:#8E5400;" d="
			M84.2,64.1l-9.5,0.8c1.3,8.3,1.6,29.9-28.1,32.2c-2.3,0.2-4.4,0.2-6.4,0c4.3,1.9,9.7,3,16.5,2.4C93.7,96.7,84.2,64.1,84.2,64.1z"
			/>
	</g>
	<g>
		<defs>
			<path id="XMLID_33_" d="M81.2,65.1c0,3.8-13.4,6.9-30,6.9s-30-3.1-30-6.9s13.4-6.9,30-6.9S81.2,61.3,81.2,65.1z"/>
		</defs>
		<use xlink:href="#XMLID_33_"  style="overflow:visible;fill:#7A4800;"/>
		<clipPath id="XMLID_00000097460733901414247980000017342173583066541717_">
			<use xlink:href="#XMLID_33_"  style="overflow:visible;"/>
		</clipPath>
		<path style="opacity:5.000000e-02;clip-path:url(#XMLID_00000097460733901414247980000017342173583066541717_);" d="M51.2,58.2
			c-15.8,0-28.8,2.8-29.9,6.4c5.1-2.1,15-3.6,26.3-3.6c16.6,0,30,3.1,30,6.9c0,0.2,0,0.3-0.1,0.5c2.4-1,3.7-2.1,3.7-3.3
			C81.2,61.3,67.8,58.2,51.2,58.2z"/>
		<g style="clip-path:url(#XMLID_00000097460733901414247980000017342173583066541717_);">
			<defs>
				<path id="XMLID_83_" d="M81.2,70.7c0,3.8-13.4,6.9-30,6.9s-30-3.1-30-6.9c0-3.8,13.4-6.9,30-6.9S81.2,66.8,81.2,70.7z"/>
			</defs>
			<use xlink:href="#XMLID_83_"  style="overflow:visible;fill:#BBD700;"/>
			<clipPath id="XMLID_00000016785940473484685820000013579425746565745582_">
				<use xlink:href="#XMLID_83_"  style="overflow:visible;"/>
			</clipPath>
			<g style="clip-path:url(#XMLID_00000016785940473484685820000013579425746565745582_);">
				<defs>
					<path id="XMLID_102_" d="M137.3-24.8c0,0,9.8,11.1,27.3,10.6c17.6-0.6,19.1-8.5,19.1-8.5s-1-7.3-4.9-8.6
						c-3.9-1.3-1.8-6.2-6.8-7.4c-2.4-0.6-4.6-6-8.8-6.8c-4.2-0.8-5.3,3.7-9.1,4.7c-3.8,1-4.3,5-6.6,5.6c-2.3,0.6-3.6,6-6.7,6.3
						C137.8-28.7,137.3-24.8,137.3-24.8z"/>
				</defs>
				<use xlink:href="#XMLID_102_"  style="overflow:visible;fill:#BBD700;"/>
				<clipPath id="XMLID_00000102543103349446990360000014189732107679081092_">
					<use xlink:href="#XMLID_102_"  style="overflow:visible;"/>
				</clipPath>
				<path style="opacity:5.000000e-02;clip-path:url(#XMLID_00000102543103349446990360000014189732107679081092_);" d="M158.2-49.7
					c0,0,9.3,10.4,8.4,16.8c-0.9,6.4,5.7,5.1,6.6,9.7c1,4.6,3.4,13.7,3.4,13.7l11.8-12.2C188.4-21.7,170.1-52.9,158.2-49.7z"/>
				<path style="opacity:5.000000e-02;clip-path:url(#XMLID_00000102543103349446990360000014189732107679081092_);" d="M159.5-48.9
					c0,0,10.6,9.1,10.5,15.6c-0.1,6.5,6.3,4.4,7.8,8.8c1.5,4.4,5.1,13.2,5.1,13.2L193.1-25C193.1-25,171-53.6,159.5-48.9z"/>
				<path style="opacity:0.3;clip-path:url(#XMLID_00000102543103349446990360000014189732107679081092_);fill:#FFFFFF;" d="
					M146.4-25.3c0,0.7-0.6,1.2-1.3,1.2c-0.7,0-1.2-0.6-1.2-1.3s0.6-1.2,1.3-1.2C146-26.6,146.5-26,146.4-25.3z"/>
				<path style="opacity:0.3;clip-path:url(#XMLID_00000102543103349446990360000014189732107679081092_);fill:#FFFFFF;" d="
					M153.9-29.3c0.6,1.1,0,0.6-0.8,1.5c-0.8,0.9-1.7,1.9-2.6,1c-0.9-0.9-1-2.3-0.2-3.2C151.2-30.9,152.6-31.7,153.9-29.3z"/>
				<path style="opacity:0.3;clip-path:url(#XMLID_00000102543103349446990360000014189732107679081092_);fill:#FFFFFF;" d="
					M151.7-22.8c0,0.7-0.6,1.2-1.3,1.2c-0.7,0-1.2-0.6-1.2-1.3c0-0.7,0.6-1.2,1.3-1.2C151.2-24.1,151.8-23.5,151.7-22.8z"/>
				<path style="opacity:0.3;clip-path:url(#XMLID_00000102543103349446990360000014189732107679081092_);fill:#FFFFFF;" d="
					M176.7-7.4c0,0.3-0.3,0.6-0.7,0.6c-0.3,0-0.6-0.3-0.6-0.7c0-0.3,0.3-0.6,0.7-0.6C176.5-8.1,176.8-7.8,176.7-7.4z"/>
				<path style="opacity:0.3;clip-path:url(#XMLID_00000102543103349446990360000014189732107679081092_);fill:#FFFFFF;" d="
					M147.5-29.5c0,0.3-0.3,0.6-0.7,0.6c-0.3,0-0.6-0.3-0.6-0.7c0-0.3,0.3-0.6,0.7-0.6C147.2-30.2,147.5-29.9,147.5-29.5z"/>
				<path style="opacity:0.3;clip-path:url(#XMLID_00000102543103349446990360000014189732107679081092_);fill:#FFFFFF;" d="
					M156-20.6c0,0.7-0.6,1.2-1.3,1.2c-0.7,0-1.2-0.6-1.2-1.3c0-0.7,0.6-1.2,1.3-1.2C155.5-21.9,156.1-21.3,156-20.6z"/>
				<path style="opacity:0.3;clip-path:url(#XMLID_00000102543103349446990360000014189732107679081092_);fill:#FFFFFF;" d="
					M155.4-25c0,0.3-0.3,0.6-0.7,0.6c-0.3,0-0.6-0.3-0.6-0.7c0-0.3,0.3-0.6,0.7-0.6C155.1-25.7,155.4-25.4,155.4-25z"/>
			</g>
		</g>
		
			<path id="XMLID_82_" style="opacity:0.12;clip-path:url(#XMLID_00000097460733901414247980000017342173583066541717_);fill:#FFFFFF;" d="
			M84.7,72.2c0,3.8-13.4,6.9-30,6.9s-30-3.1-30-6.9c0-3.8,13.4-6.9,30-6.9S84.7,68.3,84.7,72.2z"/>
		
			<path id="XMLID_86_" style="opacity:0.12;clip-path:url(#XMLID_00000097460733901414247980000017342173583066541717_);fill:#FFFFFF;" d="
			M89,74.7c0,3.8-13.4,6.9-30,6.9s-30-3.1-30-6.9c0-3.8,13.4-6.9,30-6.9S89,70.8,89,74.7z"/>
	</g>
	<g>
		<g>
			<g>
				<defs>
					<path id="XMLID_94_" d="M79.3,47.5c0.1-0.1,0.2-0.2,0.4-0.1c0.2,0.1,0.2,0.3,0.2,0.4c-0.3,0.6-6.4,15.6-8.5,18.6
						c-0.7,1.1-1.5,1.6-2.4,1.7c-1,0.1-1.7-0.5-1.7-0.5c-0.1-0.1-0.1-0.3,0-0.4c0.1-0.1,0.3-0.1,0.4,0c0,0,0.5,0.4,1.2,0.3
						c0.7-0.1,1.3-0.6,1.9-1.5C72.8,63.1,79.2,47.7,79.3,47.5C79.3,47.5,79.3,47.5,79.3,47.5z"/>
				</defs>
				<use xlink:href="#XMLID_94_"  style="overflow:visible;fill:#4A2C04;"/>
				<clipPath id="XMLID_00000146482008270890010200000007310403211538343313_">
					<use xlink:href="#XMLID_94_"  style="overflow:visible;"/>
				</clipPath>
				<path style="clip-path:url(#XMLID_00000146482008270890010200000007310403211538343313_);fill:#3B2205;" d="M67.4,67.6
					c-0.1,0-0.1-0.1-0.1-0.2c0.2,0.1,0.8,0.5,1.6,0.4c0.8-0.1,1.5-0.6,2.1-1.5c0.1-0.1,0.1-0.2,0.2-0.3c2-3,8.1-18,8.3-18.6
					c0-0.1,0-0.1,0-0.2c0.1,0.1,0.2,0.2,0.1,0.4c-0.3,0.6-6.3,15.6-8.3,18.6c-0.1,0.1-0.1,0.2-0.2,0.3c-0.7,0.9-1.4,1.4-2.1,1.5
					C68.1,68.2,67.5,67.6,67.4,67.6z"/>
			</g>
		</g>
		<g>
			<g>
				<defs>
					<path id="XMLID_93_" d="M62.6,64.3C62.7,64.3,62.7,64.3,62.6,64.3c0.2-0.2,0.4-0.2,0.5,0c0,0,0.5,0.5,1.2,0.5
						c0.7,0,1.3-0.4,2-1.3c2.3-2.7,10.2-17.3,10.2-17.5c0.1-0.2,0.3-0.2,0.4-0.1c0.2,0.1,0.2,0.3,0.1,0.4c-0.3,0.6-8,14.9-10.3,17.6
						c-0.8,1-1.7,1.5-2.5,1.5c-1,0-1.6-0.6-1.6-0.7C62.6,64.6,62.6,64.4,62.6,64.3z"/>
				</defs>
				<use xlink:href="#XMLID_93_"  style="overflow:visible;fill:#4A2C04;"/>
				<clipPath id="XMLID_00000070112070210140816900000014022725271242107791_">
					<use xlink:href="#XMLID_93_"  style="overflow:visible;"/>
				</clipPath>
				<path style="clip-path:url(#XMLID_00000070112070210140816900000014022725271242107791_);fill:#3B2205;" d="M62.7,64.7
					c0-0.1-0.1-0.1-0.1-0.2c0.2,0.2,0.7,0.6,1.6,0.6c0.8,0,1.5-0.4,2.3-1.2c0.1-0.1,0.2-0.2,0.2-0.3C69,60.9,76.6,46.6,77,46
					c0-0.1,0-0.1,0-0.2c0.1,0.1,0.2,0.3,0.1,0.4c-0.3,0.6-7.9,14.9-10.2,17.6c-0.1,0.1-0.2,0.2-0.2,0.3c-0.7,0.8-1.5,1.2-2.3,1.2
					C63.3,65.4,62.7,64.8,62.7,64.7z"/>
			</g>
		</g>
		<g>
			<g>
				<defs>
					<path id="XMLID_92_" d="M76,45.2c0.1-0.1,0.3-0.2,0.4-0.1c0.1,0.1,0.2,0.3,0.1,0.4c-0.4,0.6-9.5,14.5-12.1,17.2
						c-0.4,0.4-0.9,0.8-1.3,1c-0.2,0.1-0.4,0-0.4-0.1c-0.1-0.2,0-0.4,0.1-0.4c0.4-0.2,0.7-0.5,1.1-0.9C66.5,59.7,75.9,45.3,76,45.2
						C76,45.2,76,45.2,76,45.2z"/>
				</defs>
				<use xlink:href="#XMLID_92_"  style="overflow:visible;fill:#4A2C04;"/>
				<clipPath id="XMLID_00000019642198900094722880000011835013958325107850_">
					<use xlink:href="#XMLID_92_"  style="overflow:visible;"/>
				</clipPath>
				<path style="clip-path:url(#XMLID_00000019642198900094722880000011835013958325107850_);fill:#3B2205;" d="M76.4,45.4
					C76,46,66.8,60,64.2,62.6c-0.4,0.4-0.9,0.8-1.3,1c-0.1,0-0.1,0-0.2,0c0,0,0,0,0,0c0.1,0.2,0.3,0.2,0.4,0.1
					c0.4-0.2,0.9-0.6,1.3-1c2.6-2.6,11.7-16.6,12.1-17.2c0.1-0.1,0.1-0.3-0.1-0.4c0,0-0.1,0-0.1,0C76.4,45.2,76.4,45.3,76.4,45.4z"
					/>
			</g>
		</g>
		<g>
			<g>
				<defs>
					<path id="XMLID_91_" d="M56.1,55.1c0.1-0.1,0.1-0.2,0.2-0.3c2.4-2.7,15.4-12.3,16-12.7c0.1-0.1,0.3-0.1,0.4,0.1
						c0.1,0.1,0.1,0.3-0.1,0.4c-0.1,0.1-13.5,10-15.9,12.6c-0.7,0.8-1,1.5-1,2.2c0.1,0.7,0.6,1.1,0.6,1.1c0.1,0.1,0.2,0.3,0.1,0.4
						c-0.1,0.1-0.3,0.2-0.4,0.1c0,0-0.8-0.5-0.9-1.5C55.1,56.7,55.4,55.9,56.1,55.1z"/>
				</defs>
				<use xlink:href="#XMLID_91_"  style="overflow:visible;fill:#4A2C04;"/>
				<clipPath id="XMLID_00000043439426938266254450000012813267161166141333_">
					<use xlink:href="#XMLID_91_"  style="overflow:visible;"/>
				</clipPath>
				<path style="clip-path:url(#XMLID_00000043439426938266254450000012813267161166141333_);fill:#3B2205;" d="M56.1,59
					c0.1,0,0.1,0.1,0.2,0c-0.2-0.1-0.7-0.6-0.8-1.5c-0.1-0.8,0.2-1.6,0.9-2.4c0.1-0.1,0.1-0.2,0.2-0.3c2.4-2.7,15.4-12.3,16-12.7
					c0,0,0.1,0,0.2-0.1c-0.1-0.1-0.3-0.1-0.4,0c-0.6,0.4-13.6,10-16,12.7c-0.1,0.1-0.2,0.2-0.2,0.3c-0.7,0.9-1,1.7-0.9,2.4
					C55.4,58.5,56.1,59,56.1,59z"/>
			</g>
		</g>
		<g>
			<g>
				<defs>
					<path id="XMLID_90_" d="M60,58.1c2.6-3.4,13.4-13.9,13.9-14.4c0.1-0.1,0.3-0.1,0.4,0c0.1,0.1,0.1,0.3,0,0.4
						c-0.1,0.1-12,11.7-14,14.6c-0.6,0.9-0.8,1.7-0.7,2.3c0.2,0.7,0.7,1,0.8,1c0.2,0.1,0.2,0.3,0.1,0.4c-0.1,0.2-0.3,0.2-0.4,0.1
						c0,0-0.8-0.4-1.1-1.4c-0.2-0.8,0-1.8,0.7-2.8C59.8,58.4,59.9,58.3,60,58.1z"/>
				</defs>
				<use xlink:href="#XMLID_90_"  style="overflow:visible;fill:#4A2C04;"/>
				<clipPath id="XMLID_00000173135329953709338230000001542943406936597159_">
					<use xlink:href="#XMLID_90_"  style="overflow:visible;"/>
				</clipPath>
				<path style="clip-path:url(#XMLID_00000173135329953709338230000001542943406936597159_);fill:#3B2205;" d="M60,62.7
					c0.1,0,0.1,0,0.2,0c-0.2-0.1-0.8-0.5-1-1.3c-0.2-0.7,0-1.6,0.5-2.5c0.1-0.1,0.1-0.2,0.2-0.3c2-3,13.5-14.3,14-14.8
					c0,0,0.1-0.1,0.1-0.1c-0.1-0.1-0.3-0.1-0.4,0c-0.5,0.5-12,11.8-14,14.8c-0.1,0.1-0.1,0.2-0.2,0.3c-0.6,0.9-0.8,1.8-0.5,2.5
					C59.2,62.2,60,62.7,60,62.7z"/>
			</g>
		</g>
		<g>
			<g>
				<defs>
					<path id="XMLID_89_" d="M63.4,58c3.6-4.8,11.1-13.4,11.5-13.9c0.1-0.1,0.3-0.1,0.5,0c0.1,0.1,0.1,0.3,0,0.5
						c-0.1,0.1-11.3,13.1-13.1,16.2c-0.3,0.5-0.5,1-0.6,1.4c0,0.2-0.2,0.3-0.4,0.3c-0.2,0-0.3-0.2-0.3-0.4c0.1-0.5,0.3-1.1,0.6-1.6
						C62.1,59.9,62.7,59,63.4,58z"/>
				</defs>
				<use xlink:href="#XMLID_89_"  style="overflow:visible;fill:#4A2C04;"/>
				<clipPath id="XMLID_00000171700374512039372880000015127807412405854111_">
					<use xlink:href="#XMLID_89_"  style="overflow:visible;"/>
				</clipPath>
				<path style="clip-path:url(#XMLID_00000171700374512039372880000015127807412405854111_);fill:#3B2205;" d="M75.1,44.4
					c-0.5,0.5-11.4,13.1-13.2,16.3c-0.3,0.5-0.5,1-0.6,1.5c0,0.1,0,0.1,0,0.2c0,0,0,0,0,0c-0.2,0-0.3-0.2-0.2-0.4
					c0.1-0.5,0.3-1,0.6-1.5c1.8-3.2,12.7-15.8,13.2-16.3c0.1-0.1,0.3-0.1,0.5,0c0,0,0.1,0.1,0.1,0.1C75.2,44.3,75.1,44.3,75.1,44.4z
					"/>
			</g>
		</g>
		<g>
			<g>
				<defs>
					<path id="XMLID_88_" d="M57.9,57.7c0.1-0.1,0.1-0.2,0.2-0.3C60.2,54.7,71.5,44,72,43.5c0.1-0.1,0.3-0.1,0.4,0
						c0.1,0.1,0.1,0.3-0.1,0.4C72.2,44.1,60.6,55,58.5,57.8c-0.6,0.8-0.9,1.6-0.8,2.2c0.1,0.6,0.5,0.9,0.6,0.9
						c0.1,0.1,0.2,0.2,0.1,0.4c-0.1,0.1-0.3,0.2-0.4,0.1c0,0-0.7-0.4-0.8-1.3C57,59.4,57.3,58.6,57.9,57.7z"/>
				</defs>
				<use xlink:href="#XMLID_88_"  style="overflow:visible;fill:#4A2C04;"/>
				<clipPath id="XMLID_00000115481080341219623200000004631018812606368931_">
					<use xlink:href="#XMLID_88_"  style="overflow:visible;"/>
				</clipPath>
				<path style="clip-path:url(#XMLID_00000115481080341219623200000004631018812606368931_);fill:#3B2205;" d="M57.9,61.4
					c0.1,0,0.1,0,0.2,0c-0.2-0.1-0.6-0.5-0.7-1.2c-0.1-0.7,0.2-1.5,0.8-2.4c0.1-0.1,0.1-0.2,0.2-0.3c2.1-2.8,13.4-13.5,13.9-13.9
					c0,0,0.1-0.1,0.1-0.1c-0.1-0.1-0.3-0.1-0.4,0C71.5,44,60.2,54.7,58.1,57.5c-0.1,0.1-0.1,0.2-0.2,0.3c-0.6,0.9-0.9,1.7-0.8,2.4
					C57.2,61,57.9,61.4,57.9,61.4z"/>
			</g>
		</g>
		<g>
			<g>
				<defs>
					<path id="XMLID_95_" d="M64.1,65.9C64.1,65.9,64.1,65.8,64.1,65.9c0.2-0.2,0.4-0.2,0.5,0c0,0,0.5,0.5,1.2,0.5
						c0.7,0,1.3-0.4,2-1.3C70,62.3,77.9,47.7,78,47.6c0.1-0.2,0.3-0.2,0.4-0.1c0.2,0.1,0.2,0.3,0.1,0.4c-0.3,0.6-8,14.9-10.3,17.6
						c-0.8,1-1.7,1.5-2.5,1.5c-1,0-1.6-0.6-1.6-0.7C64,66.2,64,66,64.1,65.9z"/>
				</defs>
				<use xlink:href="#XMLID_95_"  style="overflow:visible;fill:#4A2C04;"/>
				<clipPath id="XMLID_00000040575963309213028440000000447673347189606327_">
					<use xlink:href="#XMLID_95_"  style="overflow:visible;"/>
				</clipPath>
				<path style="clip-path:url(#XMLID_00000040575963309213028440000000447673347189606327_);fill:#3B2205;" d="M64.1,66.3
					c0-0.1-0.1-0.1-0.1-0.2c0.2,0.2,0.7,0.6,1.6,0.6c0.8,0,1.5-0.4,2.3-1.2c0.1-0.1,0.2-0.2,0.2-0.3c2.3-2.8,9.9-17,10.2-17.6
					c0-0.1,0-0.1,0-0.2c0.1,0.1,0.2,0.3,0.1,0.4c-0.3,0.6-7.9,14.9-10.2,17.6c-0.1,0.1-0.2,0.2-0.2,0.3c-0.7,0.8-1.5,1.2-2.3,1.2
					C64.8,67,64.1,66.3,64.1,66.3z"/>
			</g>
		</g>
		<g>
			<defs>
				<path id="XMLID_87_" d="M80.1,51.5c0.3-0.4,0.4-0.9,0.3-1.4c0,0,0.1-0.1,0.1-0.1l6.4-8.5c1.7-2.2,1.2-5.4-1-7l-2.1-1.6
					c-2.2-1.7-5.4-1.2-7,1l-6.4,8.5c0,0,0,0,0,0.1c-0.5,0-1,0.3-1.3,0.7c-0.6,0.8-0.4,1.9,0.4,2.6l8.1,6.1
					C78.3,52.5,79.4,52.3,80.1,51.5z"/>
			</defs>
			<use xlink:href="#XMLID_87_"  style="overflow:visible;fill:#996000;"/>
			<clipPath id="XMLID_00000033359305101313678200000015163901348557511808_">
				<use xlink:href="#XMLID_87_"  style="overflow:visible;"/>
			</clipPath>
			<path style="opacity:6.000000e-02;clip-path:url(#XMLID_00000033359305101313678200000015163901348557511808_);" d="M84.3,23.1
				c0.6,1.2,6.4,13.1-9.5,28.2l5.5,4.8l18.2-20.3L84.3,23.1z"/>
			
				<line style="clip-path:url(#XMLID_00000033359305101313678200000015163901348557511808_);fill:none;stroke:#000000;stroke-miterlimit:10;" x1="69.3" y1="41.6" x2="81.4" y2="50.9"/>
		</g>
	</g>
	<path class="st41" d="M58.4,68.7c0,0,0.8-0.5,1.6-0.1c0.7,0.4,0.9,1.2,0,1.2C58.1,69.9,58.4,68.7,58.4,68.7z"/>
	<path class="st41" d="M61.1,70.2c0,0-0.4-1.7,0.5-1.1c0.6,0.3,0.9,0.9,0.6,1.1C61.9,70.4,61.1,70.2,61.1,70.2z"/>
	<path class="st41" d="M60.5,70.7c0,0.2-0.2,0.4-0.4,0.4s-0.4-0.2-0.4-0.4c0-0.2,0.2-0.4,0.4-0.4S60.5,70.5,60.5,70.7z"/>
	<circle class="st41" cx="60.9" cy="68.4" r="0.4"/>
	<circle class="st41" cx="57.5" cy="69.8" r="0.4"/>
	<g class="st16">
		<path class="st17" d="M26.9,72c3,5.4,5.8,10,9.7,14.8c0.7,0.9,0,2.3-1.1,2.1c-5.6-0.7-9.8-5.9-10.9-11.2c-0.3-1.5-1-6.8,1.5-6.3
			C26.5,71.4,26.8,71.7,26.9,72L26.9,72z"/>
	</g>
	<path class="st41" d="M39,67.5c0,0,0.5-0.8,1.3-0.8c0.8,0,1.4,0.6,0.6,1.1C39.3,68.7,39,67.5,39,67.5z"/>
	<path class="st41" d="M42.1,67.5c0,0-1.2-1.2-0.1-1.2c0.6,0,1.2,0.3,1.1,0.7S42.1,67.5,42.1,67.5z"/>
	<path class="st41" d="M41.3,68.2c0,0,0.8-0.5,1.6-0.1c0.7,0.4,0.9,1.2,0,1.2C41,69.4,41.3,68.2,41.3,68.2z"/>
	<path class="st41" d="M44,69.7c0,0-0.4-1.7,0.5-1.1c0.6,0.3,0.9,0.9,0.6,1.1C44.9,70,44,69.7,44,69.7z"/>
	<path class="st41" d="M43.4,70.2c0,0.2-0.2,0.4-0.4,0.4c-0.2,0-0.4-0.2-0.4-0.4c0-0.2,0.2-0.4,0.4-0.4C43.3,69.9,43.4,70,43.4,70.2
		z"/>
	<circle class="st41" cx="43.8" cy="67.9" r="0.4"/>
	<circle class="st41" cx="40.3" cy="69.1" r="0.4"/>
	<path class="st41" d="M39,68.6c0,0.2-0.2,0.4-0.4,0.4c-0.2,0-0.4-0.2-0.4-0.4c0-0.2,0.2-0.4,0.4-0.4C38.9,68.3,39,68.4,39,68.6z"/>
	<g>
		<ellipse class="st9" cx="463.2" cy="91.1" rx="31.8" ry="7"/>
		<path class="st10" d="M445.7,84.7c0,0,4.3,2.3,5.7,3.9c1.2,1.3,2.6,2.4,4.4,2.7c3,0.6,7.8,1.1,13.4,0.1c2-0.4,3.9-1.4,5-3.2
			c0.4-0.6,1.8-2.1,3.1-2.5"/>
		<g>
			<g>
				<defs>
					<path id="XMLID_101_" d="M492.1,80.6c-1.8,0-3.9-0.4-6.3-1.4c-0.8-0.3-1.1-1.2-0.8-2c0.3-0.8,1.2-1.1,2-0.8
						c5.2,2.1,9.4,1.2,11.9-2.6c2.5-3.8,2.6-9.4,0.1-11.8c-1.1-1.1-2.1-1.6-3.2-1.4c-2,0.3-3.7,2.8-4.2,3.6c-0.4,0.7-1.3,1-2,0.6
						c-0.7-0.4-1-1.3-0.6-2c0.3-0.5,2.6-4.6,6.4-5.2c2-0.3,3.9,0.5,5.7,2.3c3.5,3.5,3.6,10.6,0.2,15.6
						C500.2,77.3,497.3,80.6,492.1,80.6z"/>
				</defs>
				<use xlink:href="#XMLID_101_"  style="overflow:visible;fill:#996000;"/>
				<clipPath id="XMLID_00000177481493580665053970000013572435769436602034_">
					<use xlink:href="#XMLID_101_"  style="overflow:visible;"/>
				</clipPath>
				<g style="opacity:0.27;clip-path:url(#XMLID_00000177481493580665053970000013572435769436602034_);">
					<path class="st12" d="M495.5,59.7c-2,0.3-4.7,2.7-5.1,3.6c-0.4,0.6-1.1,0.9-1.8,0.7c0,0.5,0.3,1,0.8,1.3
						c0.7,0.4,1.7,0.1,2.1-0.6c0.5-0.9,2.3-3.4,4.3-3.7c1-0.1,2.3,2,3.4,3c-0.2-0.5,0.8-0.2,0.5-1.5
						C499.1,60.8,497.5,59.5,495.5,59.7z"/>
					<path class="st12" d="M501.8,60.1c2.4,3.8,2.1,10-0.9,14.4c-1.2,1.8-4.1,5.1-9.4,5.1c-1.8,0-3.9-0.4-6.2-1.3
						c0,0.6,0.4,1.1,0.9,1.3c2.4,1,4.5,1.4,6.4,1.4c5.3,0,8.3-3.3,9.4-5.1C505.4,70.9,505.3,63.6,501.8,60.1z"/>
				</g>
			</g>
		</g>
		<g>
			<g>
				<defs>
					<circle id="XMLID_100_" cx="463.1" cy="-27.8" r="13.7"/>
				</defs>
				<use xlink:href="#XMLID_100_"  style="overflow:visible;fill:#BBD500;"/>
				<clipPath id="XMLID_00000037651335253160533820000001302396540850820285_">
					<use xlink:href="#XMLID_100_"  style="overflow:visible;"/>
				</clipPath>
				<path style="opacity:2.000000e-02;clip-path:url(#XMLID_00000037651335253160533820000001302396540850820285_);" d="M468.8-40.2
					c1.3,2.1,2,4.5,2,7.1c0,7.6-6.1,13.7-13.7,13.7c-2,0-3.9-0.5-5.7-1.2c2.4,3.9,6.7,6.6,11.7,6.6c7.6,0,13.7-6.1,13.7-13.7
					C476.8-33.3,473.5-38.1,468.8-40.2z"/>
			</g>
			<text transform="matrix(1 0 0 1 456.4885 -22.5187)" class="st17" style="font-family:'TrashHand'; font-size:24.4902px;">4</text>
		</g>
		<text transform="matrix(1 0 0 1 419.6223 3.7019)" style="font-family:'Montserrat-Regular'; font-size:10px;">Enjoy your matcha!</text>
		<g>
			<defs>
				<path id="XMLID_99_" d="M432.2,55.5c0,0-3.3,32.8,29.7,33c36.9,0.3,30.3-33,30.3-33"/>
			</defs>
			<use xlink:href="#XMLID_99_"  style="overflow:visible;fill:#996000;"/>
			<clipPath id="XMLID_00000037681349291267813260000009154968703731867322_">
				<use xlink:href="#XMLID_99_"  style="overflow:visible;"/>
			</clipPath>
			<path style="opacity:0.41;clip-path:url(#XMLID_00000037681349291267813260000009154968703731867322_);fill:#8E5400;" d="
				M492.3,55.5h-9.5c0.5,8.4-1,30-30.7,29.7c-2.3,0-4.4-0.2-6.4-0.5c4.1,2.3,9.4,3.8,16.3,3.8C498.9,88.8,492.3,55.5,492.3,55.5z"/>
			<path style="opacity:0.66;clip-path:url(#XMLID_00000037681349291267813260000009154968703731867322_);fill:#8E5400;" d="
				M495.3,54.4l-9.5,0.8c1.3,8.3,1.6,29.9-28.1,32.2c-2.3,0.2-4.4,0.2-6.4,0c4.3,1.9,9.7,3,16.5,2.4
				C504.7,87.1,495.3,54.4,495.3,54.4z"/>
		</g>
		<g>
			<defs>
				<path id="XMLID_98_" d="M492.3,55.5c0,3.8-13.4,6.9-30,6.9c-16.6,0-30-3.1-30-6.9s13.4-6.9,30-6.9
					C478.8,48.5,492.3,51.6,492.3,55.5z"/>
			</defs>
			<use xlink:href="#XMLID_98_"  style="overflow:visible;fill:#7A4800;"/>
			<clipPath id="XMLID_00000018205333034380280870000015505498397825034676_">
				<use xlink:href="#XMLID_98_"  style="overflow:visible;"/>
			</clipPath>
			<path style="opacity:5.000000e-02;clip-path:url(#XMLID_00000018205333034380280870000015505498397825034676_);" d="M463,48.5
				c-15.8,0.4-28.7,3.5-29.8,7.1c5.1-2.3,14.9-3.9,26.2-4.2c16.6-0.4,30.1,2.4,30.2,6.2c0,0.2,0,0.3-0.1,0.5c2.3-1,3.6-2.2,3.6-3.4
				C493.1,50.9,479.6,48.1,463,48.5z"/>
			<g style="clip-path:url(#XMLID_00000018205333034380280870000015505498397825034676_);">
				<defs>
					<path id="XMLID_97_" d="M491.6,57.8c0.1,3.8-13.3,7.2-29.9,7.6c-16.6,0.4-30.1-2.4-30.2-6.2c-0.1-3.8,13.3-7.2,29.9-7.6
						C478,51.3,491.5,54,491.6,57.8z"/>
				</defs>
				<use xlink:href="#XMLID_97_"  style="overflow:visible;fill:#BBD700;"/>
				<clipPath id="XMLID_00000147207200981993305160000016905729548644604085_">
					<use xlink:href="#XMLID_97_"  style="overflow:visible;"/>
				</clipPath>
				<path style="opacity:0.33;clip-path:url(#XMLID_00000147207200981993305160000016905729548644604085_);fill:#FFFFFF;" d="
					M440.6,59.1c0.2,0.3-0.1,0.5-0.3,0.7c-0.2,0.2-0.5,0.2-0.8,0c-0.2-0.2-0.3-0.5-0.1-0.7C439.6,58.9,440.2,58.6,440.6,59.1z"/>
				<path style="opacity:0.33;clip-path:url(#XMLID_00000147207200981993305160000016905729548644604085_);fill:#FFFFFF;" d="
					M443.8,61.8c0.2,0.3-0.1,0.5-0.3,0.7c-0.2,0.2-0.5,0.2-0.8,0c-0.2-0.2-0.3-0.5-0.1-0.7C442.9,61.6,443.5,61.2,443.8,61.8z"/>
				<path style="opacity:0.33;clip-path:url(#XMLID_00000147207200981993305160000016905729548644604085_);fill:#FFFFFF;" d="
					M448,58.5c0,0.2-0.1,0.3-0.3,0.3s-0.3-0.1-0.3-0.3c0-0.2,0.1-0.3,0.3-0.3S448,58.3,448,58.5z"/>
				<path style="opacity:0.33;clip-path:url(#XMLID_00000147207200981993305160000016905729548644604085_);fill:#FFFFFF;" d="
					M451.5,59.7c0,0.2-0.1,0.3-0.3,0.3s-0.3-0.1-0.3-0.3c0-0.2,0.1-0.3,0.3-0.3S451.5,59.6,451.5,59.7z"/>
				<path style="opacity:0.33;clip-path:url(#XMLID_00000147207200981993305160000016905729548644604085_);fill:#FFFFFF;" d="
					M459,61c0,0.2-0.1,0.3-0.3,0.3c-0.2,0-0.3-0.1-0.3-0.3c0-0.2,0.1-0.3,0.3-0.3C458.8,60.7,459,60.8,459,61z"/>
				<path style="opacity:0.33;clip-path:url(#XMLID_00000147207200981993305160000016905729548644604085_);fill:#FFFFFF;" d="
					M458.1,64.3c0,0.2-0.1,0.3-0.3,0.3c-0.2,0-0.3-0.1-0.3-0.3c0-0.2,0.1-0.3,0.3-0.3C457.9,64,458.1,64.2,458.1,64.3z"/>
				<path style="opacity:0.61;clip-path:url(#XMLID_00000147207200981993305160000016905729548644604085_);fill:#D7DF00;" d="
					M448.6,63.6c0,0.2-0.1,0.3-0.3,0.3c-0.2,0-0.3-0.1-0.3-0.3c0-0.2,0.1-0.3,0.3-0.3C448.5,63.3,448.6,63.4,448.6,63.6z"/>
				<path style="opacity:0.33;clip-path:url(#XMLID_00000147207200981993305160000016905729548644604085_);fill:#FFFFFF;" d="
					M453.6,58.3c0,0.2-0.1,0.3-0.3,0.3s-0.3-0.1-0.3-0.3c0-0.2,0.1-0.3,0.3-0.3S453.6,58.2,453.6,58.3z"/>
				<path style="opacity:0.33;clip-path:url(#XMLID_00000147207200981993305160000016905729548644604085_);fill:#FFFFFF;" d="
					M458.4,56.7c0,0.2-0.1,0.3-0.3,0.3c-0.2,0-0.3-0.1-0.3-0.3c0-0.2,0.1-0.3,0.3-0.3C458.3,56.4,458.4,56.5,458.4,56.7z"/>
				
					<circle style="opacity:0.3;clip-path:url(#XMLID_00000147207200981993305160000016905729548644604085_);fill:#FFFFFF;" cx="463.5" cy="55.2" r="0.3"/>
				<path style="opacity:0.33;clip-path:url(#XMLID_00000147207200981993305160000016905729548644604085_);fill:#FFFFFF;" d="
					M453.1,55.6c0,0.2-0.1,0.3-0.3,0.3s-0.3-0.1-0.3-0.3c0-0.2,0.1-0.3,0.3-0.3S453.1,55.4,453.1,55.6z"/>
				<path style="opacity:0.3;clip-path:url(#XMLID_00000147207200981993305160000016905729548644604085_);fill:#FFFFFF;" d="
					M463.8,57.5c0.2,0.3-0.1,0.5-0.3,0.7c-0.2,0.2-0.5,0.2-0.8,0c-0.2-0.2-0.3-0.5-0.1-0.7C462.8,57.3,463.4,56.9,463.8,57.5z"/>
				<path style="opacity:0.3;clip-path:url(#XMLID_00000147207200981993305160000016905729548644604085_);fill:#FFFFFF;" d="
					M470.6,59.6c0,0.2-0.1,0.3-0.3,0.3c-0.2,0-0.3-0.1-0.3-0.3c0-0.2,0.1-0.3,0.3-0.3C470.4,59.3,470.6,59.4,470.6,59.6z"/>
				<path style="opacity:0.3;clip-path:url(#XMLID_00000147207200981993305160000016905729548644604085_);fill:#FFFFFF;" d="
					M473.9,58.5c0.2,0.3,0,0.1-0.2,0.4c-0.2,0.2-0.4,0.5-0.6,0.3c-0.2-0.2-0.3-0.5-0.1-0.7C473.2,58.2,473.6,58,473.9,58.5z"/>
				<path style="opacity:0.33;clip-path:url(#XMLID_00000147207200981993305160000016905729548644604085_);fill:#FFFFFF;" d="
					M444.9,56.4c-0.1,0.3-0.1,0.1-0.4,0.1c-0.3,0-0.6,0.1-0.6-0.2c0-0.3,0.2-0.6,0.4-0.6C444.7,55.7,445.1,55.8,444.9,56.4z"/>
				<path style="opacity:0.3;clip-path:url(#XMLID_00000147207200981993305160000016905729548644604085_);fill:#FFFFFF;" d="
					M475.6,61.7c0,0.2-0.1,0.3-0.3,0.3c-0.2,0-0.3-0.1-0.3-0.3c0-0.2,0.1-0.3,0.3-0.3C475.5,61.4,475.6,61.5,475.6,61.7z"/>
				<path style="opacity:0.3;clip-path:url(#XMLID_00000147207200981993305160000016905729548644604085_);fill:#FFFFFF;" d="
					M472.7,55.7c0,0.1-0.1,0.2-0.2,0.2c-0.1,0-0.2-0.1-0.2-0.2c0-0.1,0.1-0.2,0.2-0.2C472.6,55.5,472.7,55.6,472.7,55.7z"/>
				
					<circle style="opacity:0.23;clip-path:url(#XMLID_00000147207200981993305160000016905729548644604085_);fill:#FFFFFF;" cx="467.5" cy="61.7" r="0.2"/>
				
					<circle style="opacity:0.33;clip-path:url(#XMLID_00000147207200981993305160000016905729548644604085_);fill:#FFFFFF;" cx="468.8" cy="55.9" r="0.3"/>
				<path style="opacity:0.33;clip-path:url(#XMLID_00000147207200981993305160000016905729548644604085_);fill:#FFFFFF;" d="
					M456,61.3c0.2,0.3-0.1,0.5-0.3,0.7c-0.2,0.2-0.5,0.2-0.8,0c-0.2-0.2-0.3-0.5-0.1-0.7C455,61.1,455.6,60.8,456,61.3z"/>
				<path style="opacity:0.33;clip-path:url(#XMLID_00000147207200981993305160000016905729548644604085_);fill:#FFFFFF;" d="
					M459.2,64c0.2,0.3-0.1,0.5-0.3,0.7c-0.2,0.2-0.5,0.2-0.8,0c-0.2-0.2-0.3-0.5-0.1-0.7C458.2,63.7,458.8,63.4,459.2,64z"/>
				<path style="opacity:0.33;clip-path:url(#XMLID_00000147207200981993305160000016905729548644604085_);fill:#FFFFFF;" d="
					M463.3,60.7c0,0.2-0.1,0.3-0.3,0.3s-0.3-0.1-0.3-0.3c0-0.2,0.1-0.3,0.3-0.3S463.3,60.5,463.3,60.7z"/>
				<path style="opacity:0.33;clip-path:url(#XMLID_00000147207200981993305160000016905729548644604085_);fill:#FFFFFF;" d="
					M466.9,61.9c0,0.2-0.1,0.3-0.3,0.3c-0.2,0-0.3-0.1-0.3-0.3c0-0.2,0.1-0.3,0.3-0.3C466.7,61.6,466.9,61.8,466.9,61.9z"/>
				<path style="opacity:0.33;clip-path:url(#XMLID_00000147207200981993305160000016905729548644604085_);fill:#FFFFFF;" d="
					M474.3,63.2c0,0.2-0.1,0.3-0.3,0.3c-0.2,0-0.3-0.1-0.3-0.3c0-0.2,0.1-0.3,0.3-0.3C474.2,62.9,474.3,63,474.3,63.2z"/>
				<path style="opacity:0.33;clip-path:url(#XMLID_00000147207200981993305160000016905729548644604085_);fill:#FFFFFF;" d="
					M473.4,66.5c0,0.2-0.1,0.3-0.3,0.3s-0.3-0.1-0.3-0.3c0-0.2,0.1-0.3,0.3-0.3S473.4,66.3,473.4,66.5z"/>
				<path style="opacity:0.61;clip-path:url(#XMLID_00000147207200981993305160000016905729548644604085_);fill:#D7DF00;" d="
					M464,65.7c0,0.2-0.1,0.3-0.3,0.3c-0.2,0-0.3-0.1-0.3-0.3c0-0.2,0.1-0.3,0.3-0.3C463.9,65.4,464,65.6,464,65.7z"/>
				<path style="opacity:0.33;clip-path:url(#XMLID_00000147207200981993305160000016905729548644604085_);fill:#FFFFFF;" d="
					M469,60.5c0,0.2-0.1,0.3-0.3,0.3c-0.2,0-0.3-0.1-0.3-0.3c0-0.2,0.1-0.3,0.3-0.3C468.9,60.2,469,60.3,469,60.5z"/>
				<path style="opacity:0.33;clip-path:url(#XMLID_00000147207200981993305160000016905729548644604085_);fill:#FFFFFF;" d="
					M473.8,58.9c0,0.2-0.1,0.3-0.3,0.3c-0.2,0-0.3-0.1-0.3-0.3c0-0.2,0.1-0.3,0.3-0.3C473.7,58.6,473.8,58.7,473.8,58.9z"/>
				
					<circle style="opacity:0.3;clip-path:url(#XMLID_00000147207200981993305160000016905729548644604085_);fill:#FFFFFF;" cx="478.9" cy="57.4" r="0.3"/>
				<path style="opacity:0.33;clip-path:url(#XMLID_00000147207200981993305160000016905729548644604085_);fill:#FFFFFF;" d="
					M468.5,57.7c0,0.2-0.1,0.3-0.3,0.3s-0.3-0.1-0.3-0.3c0-0.2,0.1-0.3,0.3-0.3S468.5,57.6,468.5,57.7z"/>
				<path style="opacity:0.3;clip-path:url(#XMLID_00000147207200981993305160000016905729548644604085_);fill:#FFFFFF;" d="
					M479.1,59.6c0.2,0.3-0.1,0.5-0.3,0.7c-0.2,0.2-0.5,0.2-0.8,0c-0.2-0.2-0.3-0.5-0.1-0.7C478.2,59.4,478.8,59.1,479.1,59.6z"/>
				
					<circle style="opacity:0.3;clip-path:url(#XMLID_00000147207200981993305160000016905729548644604085_);fill:#FFFFFF;" cx="485.6" cy="61.7" r="0.3"/>
				<path style="opacity:0.3;clip-path:url(#XMLID_00000147207200981993305160000016905729548644604085_);fill:#FFFFFF;" d="
					M489.3,60.7c0.2,0.3,0,0.1-0.2,0.4c-0.2,0.2-0.4,0.5-0.6,0.3c-0.2-0.2-0.3-0.5-0.1-0.7C488.6,60.4,488.9,60.1,489.3,60.7z"/>
				<path style="opacity:0.33;clip-path:url(#XMLID_00000147207200981993305160000016905729548644604085_);fill:#FFFFFF;" d="
					M460.3,58.6c-0.1,0.3-0.1,0.1-0.4,0.1c-0.3,0-0.6,0.1-0.6-0.2s0.2-0.6,0.4-0.6C460,57.9,460.4,57.9,460.3,58.6z"/>
				<path style="opacity:0.3;clip-path:url(#XMLID_00000147207200981993305160000016905729548644604085_);fill:#FFFFFF;" d="
					M491,63.9c0,0.2-0.1,0.3-0.3,0.3s-0.3-0.1-0.3-0.3c0-0.2,0.1-0.3,0.3-0.3S491,63.7,491,63.9z"/>
				<path style="opacity:0.3;clip-path:url(#XMLID_00000147207200981993305160000016905729548644604085_);fill:#FFFFFF;" d="
					M488,57.9c0,0.1-0.1,0.2-0.2,0.2c-0.1,0-0.2-0.1-0.2-0.2c0-0.1,0.1-0.2,0.2-0.2C488,57.7,488,57.8,488,57.9z"/>
				<path style="opacity:0.23;clip-path:url(#XMLID_00000147207200981993305160000016905729548644604085_);fill:#FFFFFF;" d="
					M483,63.9c0,0.1-0.1,0.2-0.2,0.2s-0.2-0.1-0.2-0.2c0-0.1,0.1-0.2,0.2-0.2S483,63.8,483,63.9z"/>
				<path style="opacity:0.33;clip-path:url(#XMLID_00000147207200981993305160000016905729548644604085_);fill:#FFFFFF;" d="
					M484.4,58.1c0,0.2-0.1,0.3-0.3,0.3s-0.3-0.1-0.3-0.3c0-0.2,0.1-0.3,0.3-0.3S484.4,57.9,484.4,58.1z"/>
			</g>
			
				<path id="XMLID_96_" style="opacity:0.12;clip-path:url(#XMLID_00000018205333034380280870000015505498397825034676_);fill:#FFFFFF;" d="
				M492.8,61.3c0.1,3.8-13.3,7.2-29.9,7.6c-16.6,0.4-30.1-2.4-30.2-6.2c-0.1-3.8,13.3-7.2,29.9-7.6
				C479.2,54.7,492.7,57.4,492.8,61.3z"/>
			
				<path id="XMLID_34_" style="opacity:0.12;clip-path:url(#XMLID_00000018205333034380280870000015505498397825034676_);fill:#FFFFFF;" d="
				M497.1,63.7c0.1,3.8-13.3,7.2-29.9,7.6c-16.6,0.4-30.1-2.4-30.2-6.2c-0.1-3.8,13.3-7.2,29.9-7.6C483.5,57.1,497,59.8,497.1,63.7z
				"/>
		</g>
		<g class="st16">
			<path class="st17" d="M438.4,62.9c0,0,0.2,0.3,0.5,0.8c0.3,0.4,0.6,1.1,1.1,1.8c0.8,1.5,1.9,3.4,3,5.2c0.3,0.4,0.6,0.9,0.9,1.3
				c0.3,0.4,0.6,0.8,0.9,1.2c0.3,0.4,0.6,0.8,0.8,1.2c0.3,0.4,0.5,0.7,0.8,1c0.3,0.3,0.5,0.6,0.7,0.9c0.2,0.3,0.4,0.5,0.6,0.7
				c0.3,0.4,0.5,0.7,0.5,0.7l0.1,0.1c0.4,0.6,0.2,1.4-0.4,1.8c-0.2,0.2-0.5,0.2-0.8,0.2c0,0-0.3,0-0.9-0.2c-0.3-0.1-0.7-0.1-1.1-0.3
				c-0.4-0.1-0.8-0.3-1.3-0.5c-0.5-0.2-0.9-0.5-1.5-0.8c-0.5-0.4-1-0.7-1.5-1.2c-0.5-0.5-1-0.9-1.4-1.5c-0.4-0.5-0.8-1.1-1.2-1.7
				c-1.5-2.4-2.2-5.1-2.3-7.1c0-0.5,0-1,0-1.4c0-0.4,0.1-0.8,0.1-1.1c0.1-0.6,0.2-0.9,0.2-0.9l0,0c0.2-0.7,0.9-1.1,1.6-0.9
				C438,62.4,438.3,62.6,438.4,62.9z"/>
		</g>
		<g>
			<defs>
				<path id="XMLID_103_" d="M487.8,48.5c0,0,4-3.4,4-5.8c0-1.3-1.1-2.4-2.4-2.4c-1,0-1.8,0.6-2.2,1.4c-0.4-0.9-1.2-1.4-2.2-1.4
					c-1.3,0-2.4,1.1-2.4,2.4c0.2,2.9,3.9,5.8,3.9,5.8S487.1,49.1,487.8,48.5z"/>
			</defs>
			<use xlink:href="#XMLID_103_"  style="overflow:visible;fill:#BBD700;"/>
			<clipPath id="XMLID_00000076583047498405767390000012828822625197275325_">
				<use xlink:href="#XMLID_103_"  style="overflow:visible;"/>
			</clipPath>
			<g style="opacity:3.000000e-02;clip-path:url(#XMLID_00000076583047498405767390000012828822625197275325_);">
				<path class="st54" d="M490.4,40.5c0.3,0.4,0.5,0.9,0.5,1.5c0,2.4-4,5.8-4,5.8c-0.3,0.3-0.5,0.3-0.7,0.3c0.3,0.3,0.5,0.4,0.5,0.4
					s0.6,0.7,1.2,0c0,0,4-3.4,4-5.8C491.9,41.7,491.3,40.8,490.4,40.5z"/>
			</g>
			<g style="opacity:0.19;clip-path:url(#XMLID_00000076583047498405767390000012828822625197275325_);">
				<path class="st17" d="M485.6,41.5c0,0-0.2,0.2-0.3,0.5c-0.1,0.1-0.1,0.3-0.2,0.4c0,0.1,0,0.1,0,0.2c0,0.1,0,0.1,0,0.2
					c0,0.1,0,0.1,0,0.2c0,0.1,0,0.2,0,0.3c0,0.2,0,0.4,0,0.6c0,0.4,0,0.7,0,0.7l0,0c0,0.2-0.2,0.3-0.4,0.3c-0.1,0-0.1,0-0.1,0
					c0,0-0.1,0-0.2-0.1c-0.1,0-0.1-0.1-0.2-0.2c-0.1-0.1-0.2-0.1-0.2-0.2c-0.3-0.4-0.6-1-0.6-1.8c0-0.2,0.1-0.4,0.1-0.6
					c0.1-0.2,0.2-0.4,0.3-0.5c0.2-0.3,0.5-0.5,0.8-0.6c0.3-0.1,0.5-0.1,0.6-0.1c0.2,0,0.3,0,0.2,0c0.2,0,0.3,0.1,0.4,0.2
					C485.8,41.3,485.7,41.5,485.6,41.5z"/>
			</g>
		</g>
		<g>
			<defs>
				<path id="XMLID_1_" d="M480.3,39.2c0,0,4.6-3.8,4.6-6.5c0-1.5-1.2-2.7-2.7-2.7c-1.1,0-2.1,0.7-2.5,1.6c-0.4-1-1.4-1.6-2.5-1.6
					c-1.5,0-2.7,1.2-2.7,2.7c0.3,3.3,4.5,6.5,4.5,6.5S479.5,40,480.3,39.2z"/>
			</defs>
			<use xlink:href="#XMLID_1_"  style="overflow:visible;fill:#BBD700;"/>
			<clipPath id="XMLID_00000025431735748095322500000009827318341620722072_">
				<use xlink:href="#XMLID_1_"  style="overflow:visible;"/>
			</clipPath>
			<g style="opacity:3.000000e-02;clip-path:url(#XMLID_00000025431735748095322500000009827318341620722072_);">
				<path class="st54" d="M483.2,30.3c0.4,0.5,0.6,1.1,0.6,1.7c0,2.7-4.6,6.5-4.6,6.5c-0.3,0.3-0.6,0.3-0.8,0.3
					c0.4,0.3,0.6,0.5,0.6,0.5s0.7,0.8,1.4,0c0,0,4.6-3.8,4.6-6.5C485,31.6,484.3,30.6,483.2,30.3z"/>
			</g>
			<g style="opacity:0.19;clip-path:url(#XMLID_00000025431735748095322500000009827318341620722072_);">
				<path class="st17" d="M477.8,31.4c0,0-0.2,0.3-0.4,0.6c-0.1,0.2-0.1,0.3-0.2,0.4c0,0.1,0,0.1-0.1,0.2c0,0.1,0,0.1,0,0.2
					c0,0.1,0,0.2,0,0.3c0,0.1,0,0.2,0,0.3c0,0.2,0,0.4,0,0.7c0,0.4,0,0.8,0,0.8l0,0c0,0.2-0.2,0.4-0.4,0.4c-0.1,0-0.1,0-0.2-0.1
					c0,0-0.1,0-0.2-0.1c-0.1,0-0.1-0.1-0.2-0.2c-0.1-0.1-0.2-0.1-0.3-0.3c-0.3-0.4-0.7-1.1-0.7-2c0-0.2,0.1-0.4,0.1-0.7
					c0.1-0.2,0.2-0.4,0.3-0.6c0.3-0.3,0.6-0.5,0.9-0.6c0.3-0.1,0.5-0.1,0.7-0.1c0.2,0,0.3,0.1,0.3,0.1c0.2,0,0.4,0.1,0.4,0.2
					C478.1,31.1,478,31.3,477.8,31.4z"/>
			</g>
		</g>
	</g>
	<g>
		<g>
			<defs>
				<circle id="XMLID_73_" cx="32.2" cy="32.5" r="13.7"/>
			</defs>
			<use xlink:href="#XMLID_73_"  style="overflow:visible;fill:#BBD500;"/>
			<clipPath id="XMLID_00000012463940431977198480000001944656622783581591_">
				<use xlink:href="#XMLID_73_"  style="overflow:visible;"/>
			</clipPath>
			<path style="opacity:2.000000e-02;clip-path:url(#XMLID_00000012463940431977198480000001944656622783581591_);" d="M37.9,20.1
				c1.3,2.1,2,4.5,2,7.1c0,7.6-6.1,13.7-13.7,13.7c-2,0-3.9-0.5-5.7-1.2c2.4,3.9,6.7,6.6,11.7,6.6c7.6,0,13.7-6.1,13.7-13.7
				C45.9,27,42.6,22.3,37.9,20.1z"/>
		</g>
		<g>
			<g>
				<path class="st17" d="M36.1,35.6c0,1.2-0.4,2.3-1.3,3.1c-0.9,0.9-1.9,1.3-3.2,1.3c-1.3,0-2.3-0.4-3.2-1.3
					c-0.8-0.9-1.3-2-1.3-3.3h1.5c0,0.5,0.1,0.8,0.1,1c0,0.2,0.2,0.5,0.3,0.7c0.6,0.9,1.4,1.4,2.4,1.4c0.8,0,1.5-0.3,2.1-0.9
					c0.6-0.6,0.9-1.3,0.9-2.1c0-0.6-0.2-1.2-0.6-1.7s-0.8-0.9-1.4-1.1c-0.2-0.1-0.4-0.1-0.6-0.1c-0.2,0-0.4,0-0.8,0h-0.5v-1.4
					l0.5,0.1c0.7,0,1.2-0.2,1.7-0.5c0.5-0.4,0.8-0.9,0.8-1.6c0-0.6-0.2-1-0.6-1.4c-0.4-0.4-0.9-0.6-1.5-0.6c-0.6,0-1.1,0.2-1.4,0.7
					c-0.4,0.4-0.5,1-0.5,1.6h-1.5c0-1.1,0.3-1.9,1-2.6c0.7-0.7,1.5-1.1,2.6-1.1c1,0,1.8,0.3,2.5,1c0.7,0.7,1,1.5,1,2.5
					c0,0.5-0.1,1-0.3,1.4c-0.2,0.4-0.6,0.8-1,1.1c0.7,0.3,1.2,0.8,1.6,1.5C35.9,34.1,36.1,34.9,36.1,35.6z"/>
			</g>
		</g>
	</g>
	<text transform="matrix(1 0 0 1 49.9337 -75.8389)"><tspan x="0" y="0" style="font-family:'Montserrat-Regular'; font-size:10px;">Add 60ml of </tspan><tspan x="7.9" y="12" style="font-family:'Montserrat-Regular'; font-size:10px;">hot water</tspan></text>
	<ellipse class="st9" cx="5.2" cy="-151.5" rx="31.8" ry="7"/>
	<path class="st10" d="M-12.4-157.9c0,0,4.3,2.3,5.7,3.9c1.2,1.3,2.6,2.4,4.4,2.7c3,0.6,7.8,1.1,13.4,0.1c2-0.4,3.9-1.4,5-3.2
		c0.4-0.6,1.8-2.1,3.1-2.5"/>
	<g>
		<g>
			<defs>
				<path id="XMLID_76_" d="M34.1-162c-1.8,0-3.9-0.4-6.3-1.4c-0.8-0.3-1.1-1.2-0.8-2c0.3-0.8,1.2-1.1,2-0.8
					c5.2,2.1,9.4,1.2,11.9-2.6c2.5-3.8,2.6-9.4,0.1-11.8c-1.1-1.1-2.1-1.6-3.2-1.4c-2,0.3-3.7,2.8-4.2,3.6c-0.4,0.7-1.3,1-2,0.6
					c-0.7-0.4-1-1.3-0.6-2c0.3-0.5,2.6-4.6,6.4-5.2c2-0.3,3.9,0.5,5.7,2.3c3.5,3.5,3.6,10.6,0.2,15.6C42.2-165.3,39.3-162,34.1-162z
					"/>
			</defs>
			<use xlink:href="#XMLID_76_"  style="overflow:visible;fill:#996000;"/>
			<clipPath id="XMLID_00000163776472508252602650000005734268710694804666_">
				<use xlink:href="#XMLID_76_"  style="overflow:visible;"/>
			</clipPath>
			<g style="opacity:0.27;clip-path:url(#XMLID_00000163776472508252602650000005734268710694804666_);">
				<path class="st12" d="M37.5-182.9c-2,0.3-4.7,2.7-5.1,3.6c-0.4,0.6-1.1,0.9-1.8,0.7c0,0.5,0.3,1,0.8,1.3
					c0.7,0.4,1.7,0.1,2.1-0.6c0.5-0.9,2.3-3.4,4.3-3.7c1-0.1,2.3,2,3.4,3c-0.2-0.5,0.8-0.2,0.5-1.5
					C41.1-181.9,39.5-183.2,37.5-182.9z"/>
				<path class="st12" d="M43.8-182.5c2.4,3.8,2.1,10-0.9,14.4c-1.2,1.8-4.1,5.1-9.4,5.1c-1.8,0-3.9-0.4-6.2-1.3
					c0,0.6,0.4,1.1,0.9,1.3c2.4,1,4.5,1.4,6.4,1.4c5.3,0,8.3-3.3,9.4-5.1C47.3-171.8,47.2-179,43.8-182.5z"/>
			</g>
		</g>
	</g>
	<g>
		<defs>
			<path id="XMLID_75_" d="M-25.8-187.2c0,0-3.3,32.8,29.7,33c36.9,0.3,30.3-33,30.3-33"/>
		</defs>
		<use xlink:href="#XMLID_75_"  style="overflow:visible;fill:#996000;"/>
		<clipPath id="XMLID_00000034790008662836500620000007284729354054314908_">
			<use xlink:href="#XMLID_75_"  style="overflow:visible;"/>
		</clipPath>
		<path style="opacity:0.41;clip-path:url(#XMLID_00000034790008662836500620000007284729354054314908_);fill:#8E5400;" d="
			M34.2-187.2h-9.5c0.5,8.4-1,30-30.7,29.7c-2.3,0-4.4-0.2-6.4-0.5c4.1,2.3,9.4,3.8,16.3,3.8C40.9-153.8,34.2-187.2,34.2-187.2z"/>
		<path style="opacity:0.66;clip-path:url(#XMLID_00000034790008662836500620000007284729354054314908_);fill:#8E5400;" d="
			M37.3-188.2l-9.5,0.8c1.3,8.3,1.6,29.9-28.1,32.2c-2.3,0.2-4.4,0.2-6.4,0c4.3,1.9,9.7,3,16.5,2.4
			C46.7-155.5,37.3-188.2,37.3-188.2z"/>
	</g>
	<g>
		<defs>
			<path id="XMLID_74_" d="M34.2-187.2c0,3.8-13.4,6.9-30,6.9s-30-3.1-30-6.9s13.4-6.9,30-6.9S34.2-191,34.2-187.2z"/>
		</defs>
		<use xlink:href="#XMLID_74_"  style="overflow:visible;fill:#7A4800;"/>
		<clipPath id="XMLID_00000039101498747180937800000001636203769181025693_">
			<use xlink:href="#XMLID_74_"  style="overflow:visible;"/>
		</clipPath>
		<path style="opacity:5.000000e-02;clip-path:url(#XMLID_00000039101498747180937800000001636203769181025693_);" d="M4.2-194.1
			c-15.8,0-28.8,2.8-29.9,6.4c5.1-2.1,15-3.6,26.3-3.6c16.6,0,30,3.1,30,6.9c0,0.2,0,0.3-0.1,0.5c2.4-1,3.7-2.1,3.7-3.3
			C34.2-191,20.8-194.1,4.2-194.1z"/>
		<path id="XMLID_77_" style="clip-path:url(#XMLID_00000039101498747180937800000001636203769181025693_);fill:#BBD700;" d="
			M34.2-176.8c0,3.8-13.4,6.9-30,6.9s-30-3.1-30-6.9s13.4-6.9,30-6.9S34.2-180.6,34.2-176.8z"/>
		<g style="clip-path:url(#XMLID_00000039101498747180937800000001636203769181025693_);">
			<defs>
				<path id="XMLID_78_" d="M-19.6-169.7c0,0,9.8,11.1,27.3,10.6c17.6-0.6,19.1-8.5,19.1-8.5s-1-7.3-4.9-8.6
					c-3.9-1.3-1.8-6.2-6.8-7.4c-2.4-0.6-4.6-6-8.8-6.8c-4.2-0.8-5.3,3.7-9.1,4.7c-3.8,1-4.3,5-6.6,5.6c-2.3,0.6-3.6,6-6.7,6.3
					C-19.1-173.6-19.6-169.7-19.6-169.7z"/>
			</defs>
			<use xlink:href="#XMLID_78_"  style="overflow:visible;fill:#BBD700;"/>
			<clipPath id="XMLID_00000050641487955167254890000014328923353595521417_">
				<use xlink:href="#XMLID_78_"  style="overflow:visible;"/>
			</clipPath>
			<path style="opacity:5.000000e-02;clip-path:url(#XMLID_00000050641487955167254890000014328923353595521417_);" d="M1.3-194.6
				c0,0,9.3,10.4,8.4,16.8c-0.9,6.4,5.7,5.1,6.6,9.7c1,4.6,3.4,13.7,3.4,13.7l11.8-12.2C31.5-166.6,13.3-197.8,1.3-194.6z"/>
			<path style="opacity:5.000000e-02;clip-path:url(#XMLID_00000050641487955167254890000014328923353595521417_);" d="M2.7-193.7
				c0,0,10.6,9.1,10.5,15.6c-0.1,6.5,6.3,4.4,7.8,8.8c1.5,4.4,5.1,13.2,5.1,13.2l10.1-13.7C36.2-169.9,14.1-198.5,2.7-193.7z"/>
			<path style="opacity:0.3;clip-path:url(#XMLID_00000050641487955167254890000014328923353595521417_);fill:#FFFFFF;" d="
				M-10.4-170.2c0,0.7-0.6,1.2-1.3,1.2c-0.7,0-1.2-0.6-1.2-1.3c0-0.7,0.6-1.2,1.3-1.2C-10.9-171.5-10.4-170.9-10.4-170.2z"/>
			<path style="opacity:0.3;clip-path:url(#XMLID_00000050641487955167254890000014328923353595521417_);fill:#FFFFFF;" d="
				M-2.9-174.2c0.6,1.1,0,0.6-0.8,1.5c-0.8,0.9-1.7,1.9-2.6,1c-0.9-0.9-1-2.3-0.2-3.2C-5.7-175.8-4.2-176.6-2.9-174.2z"/>
			<path style="opacity:0.3;clip-path:url(#XMLID_00000050641487955167254890000014328923353595521417_);fill:#FFFFFF;" d="
				M-5.1-167.7c0,0.7-0.6,1.2-1.3,1.2c-0.7,0-1.2-0.6-1.2-1.3c0-0.7,0.6-1.2,1.3-1.2C-5.6-169-5.1-168.4-5.1-167.7z"/>
			<path style="opacity:0.3;clip-path:url(#XMLID_00000050641487955167254890000014328923353595521417_);fill:#FFFFFF;" d="
				M19.9-152.3c0,0.3-0.3,0.6-0.7,0.6c-0.3,0-0.6-0.3-0.6-0.7c0-0.3,0.3-0.6,0.7-0.6C19.7-152.9,19.9-152.6,19.9-152.3z"/>
			<path style="opacity:0.3;clip-path:url(#XMLID_00000050641487955167254890000014328923353595521417_);fill:#FFFFFF;" d="
				M-9.4-174.4c0,0.3-0.3,0.6-0.7,0.6c-0.3,0-0.6-0.3-0.6-0.7c0-0.3,0.3-0.6,0.7-0.6C-9.6-175.1-9.3-174.8-9.4-174.4z"/>
			<path style="opacity:0.3;clip-path:url(#XMLID_00000050641487955167254890000014328923353595521417_);fill:#FFFFFF;" d="
				M-0.8-165.5c0,0.7-0.6,1.2-1.3,1.2c-0.7,0-1.2-0.6-1.2-1.3c0-0.7,0.6-1.2,1.3-1.2C-1.3-166.8-0.8-166.2-0.8-165.5z"/>
			<path style="opacity:0.3;clip-path:url(#XMLID_00000050641487955167254890000014328923353595521417_);fill:#FFFFFF;" d="
				M-1.5-169.9c0,0.3-0.3,0.6-0.7,0.6c-0.3,0-0.6-0.3-0.6-0.7c0-0.3,0.3-0.6,0.7-0.6C-1.7-170.6-1.4-170.3-1.5-169.9z"/>
		</g>
	</g>
	<g class="st67">
		<path class="st17" d="M32.6-212c0-0.6,0.5-1.2,1.1-1.1c0.1,0,0.2,0.2,0.2,0.3c-0.1,0.3-0.4,0.3-0.5,0.5c-0.1,0.1-0.2,0.3-0.4,0.5
			C32.9-211.6,32.6-211.8,32.6-212L32.6-212z"/>
	</g>
	<path class="st68" d="M1.8-197.2c0,0,0.2-2.2-1.2-7.8s-1.8-14.2,0-16.8s1.2-8,3-12.8c1.4-3.8,2,9,3.2,12.8S5-214.2,5-209.5
		S3.5-197.2,1.8-197.2z"/>
	<path class="st68" d="M9.5-197.2c0,0-3.9-8.6-1.7-13c2.2-4.2,3.7-11,3.7-11c-0.8-3.3,2.3,8.8,0.2,13.2
		C10-204.6,9.5-197.2,9.5-197.2z"/>
	<g>
		<g>
			<g>
				<g>
					<defs>
						<path id="XMLID_72_" d="M79.9-223.5c-13.9,4-28.6-4-32.6-18c-2.3-8-0.7-16.7,4.4-23.3c3.4-4.5,8.1-7.7,13.6-9.3
							c13.9-4,28.6,4,32.6,18C101.9-242.1,93.8-227.5,79.9-223.5z M65.5-273.1c-5.3,1.5-9.8,4.6-13.1,8.9
							c-4.9,6.4-6.5,14.8-4.2,22.5c3.9,13.4,18,21.2,31.4,17.3c13.4-3.9,21.2-18,17.3-31.4C93.1-269.3,79-277,65.5-273.1z"/>
					</defs>
					<use xlink:href="#XMLID_72_"  style="overflow:visible;fill:#723F03;"/>
					<clipPath id="XMLID_00000116205736047165190240000008178143731424350353_">
						<use xlink:href="#XMLID_72_"  style="overflow:visible;"/>
					</clipPath>
					<g style="clip-path:url(#XMLID_00000116205736047165190240000008178143731424350353_);">
						<path class="st70" d="M51.8-264.3c3.4-4.5,8.1-7.7,13.6-9.3c13.8-4,28.3,3.9,32.5,17.6c0-0.1-0.1-0.2-0.1-0.4
							c-4-13.9-18.7-22-32.6-18c-5.4,1.6-10.1,4.8-13.6,9.3c-5.1,6.6-6.7,15.3-4.4,23.3c0,0.1,0.1,0.3,0.1,0.4
							C45.2-249.2,46.8-257.8,51.8-264.3z"/>
						<path class="st70" d="M79.8-223.9c13.4-3.9,21.2-18,17.3-31.4c0-0.1-0.1-0.2-0.1-0.4c3.6,13.3-4.1,27.2-17.4,31.1
							c-13.3,3.9-27.3-3.7-31.3-16.9c0,0.1,0.1,0.2,0.1,0.3C52.2-227.8,66.3-220,79.8-223.9z"/>
					</g>
				</g>
			</g>
			<g>
				<defs>
					<path id="XMLID_70_" d="M28.1-216.5c0.2,0.7,0.9,1.2,1.7,1.2c2.3-0.1,7.2,0,8.7,3.5c2,4.5,6.9,27,25.2,16.1
						c0.8-0.5,1.1-1.5,0.7-2.3l-8.7-16.7c0,0-6.9-14.8-27.8-7.7c-0.9,0.3-1.4,1.3-1.1,2.2L28.1-216.5z"/>
				</defs>
				<use xlink:href="#XMLID_70_"  style="overflow:visible;fill:#824D02;"/>
				<clipPath id="XMLID_00000176024950975316125950000009076975891676525475_">
					<use xlink:href="#XMLID_70_"  style="overflow:visible;"/>
				</clipPath>
				<path style="opacity:0.39;clip-path:url(#XMLID_00000176024950975316125950000009076975891676525475_);fill:#754103;" d="
					M39.8-213.9c-1.8-3.7-8.5-3.7-11.1-3.4c-0.8,0.1-1.6-0.4-1.9-1.2l-0.2-0.6l1.1,3.1c0.2,0.7,0.9,1.2,1.7,1.2
					c2.3-0.1,7.2,0,8.7,3.5c2,4.5,6.9,27,25.2,16.1c0.3-0.2,0.6-0.5,0.7-0.9C46.6-187.1,42-209.3,39.8-213.9z"/>
			</g>
			<path class="st72" d="M78.1-190.3l0,0.9c0.1,1.8,1.7,3.2,3.5,3c4.7-0.5,13.5-2.1,21.5-6.8c1.7-1,2.1-3.3,0.8-4.8l-1-1.2"/>
			<g>
				<defs>
					<path id="XMLID_68_" d="M114.3-223.2c4.7,16.7-8.1,26.3-24.8,31.1c-16.7,4.8-30.4,3-35.7-13.6c-6.1-19.2,2.9-37.3,19.6-42.1
						C90-252.6,108.5-243.5,114.3-223.2z"/>
				</defs>
				<use xlink:href="#XMLID_68_"  style="overflow:visible;fill:#9A6001;"/>
				<clipPath id="XMLID_00000078726083564060474660000009658356343451422106_">
					<use xlink:href="#XMLID_68_"  style="overflow:visible;"/>
				</clipPath>
				<path style="opacity:0.47;clip-path:url(#XMLID_00000078726083564060474660000009658356343451422106_);fill:#915602;" d="
					M82.3-250.1c9.8,3.6,18.2,12.1,21.7,24.7c4.9,17.3-8.4,27.2-25.7,32.2c-6.7,1.9-13,2.8-18.5,2.2c6.7,2.9,16.7,5.8,26.3,3
					c17.3-5,37.3-14.2,30.9-38.1C112.9-241.5,94.8-248.2,82.3-250.1z"/>
				<path style="clip-path:url(#XMLID_00000078726083564060474660000009658356343451422106_);fill:#915602;" d="M87.4-248.7
					c9.8,3.6,18.2,12.1,21.7,24.7c4.9,17.3-8.4,27.2-25.7,32.2c-6.7,1.9-13,2.8-18.5,2.2c6.7,2.9,15.3,2.2,24.9-0.5
					c17.3-5,30.6-14.9,25.7-32.2C111.2-237.7,99.9-246.8,87.4-248.7z"/>
			</g>
			<g>
				<defs>
					<path id="XMLID_67_" d="M92.5-248.5c1.4,4.7-6.5,7.3-16.5,10.1c-10,2.9-18.3,5-19.7,0.3c-1.4-4.7,4.2-12.8,14.2-15.7
						C80.5-256.6,91.2-253.1,92.5-248.5z"/>
				</defs>
				<use xlink:href="#XMLID_67_"  style="overflow:visible;fill:#824D02;"/>
				<clipPath id="XMLID_00000114788837582367429120000013780399115894828182_">
					<use xlink:href="#XMLID_67_"  style="overflow:visible;"/>
				</clipPath>
				<path style="opacity:0.2;clip-path:url(#XMLID_00000114788837582367429120000013780399115894828182_);fill:#723F03;" d="
					M52.5-237.8c0,0,22.8,1.5,41.9-12.6l2.1,5.4l-18.6,9.5l-24.5,2.7L52.5-237.8z"/>
				<path style="opacity:0.2;clip-path:url(#XMLID_00000114788837582367429120000013780399115894828182_);fill:#723F03;" d="
					M74.6-254.9c0.5,1.9-0.5,3.8-2.4,4.3c-1.9,0.5-3.8-0.5-4.3-2.4c-0.5-1.9,0.5-3.8,2.4-4.3C72.2-257.8,74.1-256.8,74.6-254.9z"/>
			</g>
			<g>
				<g>
					<defs>
						<path id="XMLID_71_" d="M84-270.6c-0.5,0.1-1,0.1-1.5,0c-18-5.8-29.2,8.3-29.3,8.4c-0.8,1.1-2.4,1.3-3.5,0.4
							c-1.1-0.8-1.3-2.4-0.4-3.5c0.1-0.2,13.5-17,34.8-10.1c1.3,0.4,2,1.8,1.6,3.1C85.5-271.4,84.8-270.9,84-270.6z"/>
					</defs>
					<use xlink:href="#XMLID_71_"  style="overflow:visible;fill:#723F03;"/>
					<clipPath id="XMLID_00000047047872180105559650000002665921273504592051_">
						<use xlink:href="#XMLID_71_"  style="overflow:visible;"/>
					</clipPath>
					<path style="opacity:0.48;clip-path:url(#XMLID_00000047047872180105559650000002665921273504592051_);fill:#683503;" d="
						M49.6-263.3c0.1-0.2,13.5-17,34.8-10.1c0.5,0.2,1,0.5,1.3,0.9c0.3-1.2-0.4-2.5-1.7-2.9c-21.3-6.8-34.6,9.9-34.8,10.1
						c-0.7,0.9-0.7,2.1-0.1,3C49.2-262.6,49.4-263,49.6-263.3z"/>
				</g>
			</g>
			<g>
				<defs>
					<path id="XMLID_69_" d="M74.2-256.1c0.5,1.9-0.5,3.8-2.4,4.3c-1.9,0.5-3.8-0.5-4.3-2.4c-0.5-1.9,0.5-3.8,2.4-4.3
						C71.7-259,73.7-257.9,74.2-256.1z"/>
				</defs>
				<use xlink:href="#XMLID_69_"  style="overflow:visible;fill:#9A6001;"/>
				<clipPath id="XMLID_00000029018229914959887700000011723490775104451218_">
					<use xlink:href="#XMLID_69_"  style="overflow:visible;"/>
				</clipPath>
				<path style="opacity:0.53;clip-path:url(#XMLID_00000029018229914959887700000011723490775104451218_);fill:#8C5302;" d="
					M70.5-258.6c0.7,0.4,1.3,1.1,1.5,2c0.5,1.9-0.5,3.8-2.4,4.3c-0.2,0.1-0.4,0.1-0.6,0.1c0.8,0.5,1.8,0.7,2.8,0.4
					c1.9-0.5,2.9-2.5,2.4-4.3C73.7-257.7,72.1-258.8,70.5-258.6z"/>
			</g>
			<g class="st78">
				<path class="st17" d="M68.3-253.8c-1.1-1.2-0.4-3.5,1.2-3.8c0.3,0,0.6,0.1,0.6,0.4c0,0.2,0,0.3-0.1,0.4
					c-0.5,0.9-0.4,1.6-0.8,2.6C69.2-253.6,68.6-253.4,68.3-253.8L68.3-253.8z"/>
			</g>
		</g>
		<g>
			<defs>
				<path id="XMLID_79_" d="M25.8-214.6c-0.1-0.6-0.8-0.8-1.3-0.5c-0.8,0.7-1.9,1.8-2.1,3.5c-0.3,1.6,3,2.4,3.5,0.8
					C26.1-211.7,26.2-213,25.8-214.6z"/>
			</defs>
			<use xlink:href="#XMLID_79_"  style="overflow:visible;fill:#63CADB;"/>
			<clipPath id="XMLID_00000036252857437055768070000003932036644782169223_">
				<use xlink:href="#XMLID_79_"  style="overflow:visible;"/>
			</clipPath>
			<path style="opacity:0.14;clip-path:url(#XMLID_00000036252857437055768070000003932036644782169223_);fill:#56B1BA;" d="
				M25.8-214.6c-0.1-0.3-0.3-0.5-0.6-0.6c0.3,1.5,0.2,2.7,0,3.6c-0.3,1.1-1.9,1.1-2.8,0.4c0.2,1.4,3,1.9,3.4,0.4
				C26.1-211.7,26.2-213,25.8-214.6z"/>
		</g>
		<g>
			<g>
				<defs>
					<path id="XMLID_80_" d="M28.6-208.8c-0.2-0.5-0.8-0.6-1.2-0.2c-0.6,0.7-1.4,1.8-1.4,3.4c0,1.5,2.9,1.7,3.1,0.3
						C29.2-206.3,29.1-207.5,28.6-208.8z"/>
				</defs>
				<use xlink:href="#XMLID_80_"  style="overflow:visible;fill:#63CADB;"/>
				<clipPath id="XMLID_00000027563305873626955250000017513514063311563407_">
					<use xlink:href="#XMLID_80_"  style="overflow:visible;"/>
				</clipPath>
				<path style="opacity:0.14;clip-path:url(#XMLID_00000027563305873626955250000017513514063311563407_);fill:#56B1BA;" d="
					M28.6-208.8c-0.1-0.3-0.3-0.4-0.6-0.5c0.4,1.3,0.5,2.4,0.4,3.2c-0.1,1-1.5,1.2-2.4,0.7c0.4,1.2,2.9,1.3,3.1-0.1
					C29.2-206.3,29.1-207.5,28.6-208.8z"/>
			</g>
			<g class="st67">
				<path class="st17" d="M27-207.5c-0.1-0.5,0.3-1.1,0.8-1.1c0.1,0,0.2,0.1,0.2,0.2c0,0.2-0.3,0.3-0.4,0.5
					c-0.1,0.1-0.1,0.3-0.3,0.5C27.3-207.2,27-207.3,27-207.5L27-207.5z"/>
			</g>
		</g>
		<g>
			<g>
				<defs>
					<path id="XMLID_32_" d="M25.6-201.2c-0.2-0.5-0.8-0.6-1.2-0.2c-0.6,0.7-1.4,1.8-1.4,3.4c0,1.5,2.9,1.7,3.1,0.3
						C26.2-198.6,26.1-199.8,25.6-201.2z"/>
				</defs>
				<use xlink:href="#XMLID_32_"  style="overflow:visible;fill:#63CADB;"/>
				<clipPath id="XMLID_00000090986236781286312520000011759846407733721246_">
					<use xlink:href="#XMLID_32_"  style="overflow:visible;"/>
				</clipPath>
				<path style="opacity:0.14;clip-path:url(#XMLID_00000090986236781286312520000011759846407733721246_);fill:#56B1BA;" d="
					M25.6-201.2c-0.1-0.3-0.3-0.4-0.6-0.5c0.4,1.3,0.5,2.4,0.4,3.2c-0.1,1-1.5,1.2-2.4,0.7c0.4,1.2,2.9,1.3,3.1-0.1
					C26.2-198.6,26.1-199.8,25.6-201.2z"/>
			</g>
			<g class="st67">
				<path class="st17" d="M24-199.8c-0.1-0.5,0.3-1.1,0.8-1.1c0.1,0,0.2,0.1,0.2,0.2c0,0.2-0.3,0.3-0.4,0.5
					c-0.1,0.1-0.1,0.3-0.3,0.5C24.3-199.6,24-199.6,24-199.8L24-199.8z"/>
			</g>
		</g>
		<g class="st16">
			<path class="st17" d="M60.4-227c0.1,6.1,0.3,11.6,1.3,17.6c0.2,1.1-1.1,2-2,1.3c-4.6-3.3-5.7-9.9-4.1-15c0.5-1.4,2.4-6.4,4.4-4.8
				C60.3-227.7,60.4-227.3,60.4-227L60.4-227z"/>
		</g>
	</g>
</g>
</svg>
