<?xml version="1.0" encoding="utf-8"?>
<!-- Generator: Adobe Illustrator 27.3.1, SVG Export Plug-In . SVG Version: 6.00 Build 0)  -->
<svg version="1.1" xmlns="http://www.w3.org/2000/svg" xmlns:xlink="http://www.w3.org/1999/xlink" x="0px" y="0px"
	 viewBox="0 0 117.3 117.8" style="enable-background:new 0 0 117.3 117.8;" xml:space="preserve">
<style type="text/css">
	.st0{display:none;}
	.st1{display:inline;fill:#FFFFFF;}
	.st2{opacity:3.000000e-02;clip-path:url(#XMLID_00000067230083470448007230000018045885226981747878_);}
	
		.st3{opacity:2.000000e-02;clip-path:url(#XMLID_00000067230083470448007230000018045885226981747878_);fill:none;stroke:#000000;stroke-width:0.6461;stroke-miterlimit:10;}
	.st4{opacity:3.000000e-02;clip-path:url(#XMLID_00000120561013092889926860000018181895556921875335_);}
	.st5{opacity:3.000000e-02;clip-path:url(#XMLID_00000138550150954306092220000018271761211489369738_);}
	
		.st6{opacity:2.000000e-02;clip-path:url(#XMLID_00000138550150954306092220000018271761211489369738_);fill:none;stroke:#000000;stroke-width:0.6461;stroke-miterlimit:10;}
	.st7{opacity:3.000000e-02;clip-path:url(#XMLID_00000129924424467975367770000012579913580514709395_);}
	.st8{opacity:2.000000e-02;clip-path:url(#XMLID_00000145020487366325896360000012173489745025150125_);}
	.st9{opacity:0.2;fill:#7A4800;}
	.st10{fill:#9A6100;}
	.st11{opacity:0.27;clip-path:url(#XMLID_00000144301698211837621450000002027637748567164594_);}
	.st12{fill:#6D3E00;}
	.st13{opacity:0.41;clip-path:url(#XMLID_00000054977762213066215940000001179477282350119358_);fill:#8E5400;}
	.st14{opacity:0.66;clip-path:url(#XMLID_00000054977762213066215940000001179477282350119358_);fill:#8E5400;}
	.st15{opacity:5.000000e-02;clip-path:url(#XMLID_00000180354987414780005040000003892713074233931702_);}
	.st16{opacity:5.000000e-02;}
	.st17{fill:#FFFFFF;}
	.st18{opacity:5.000000e-02;clip-path:url(#XMLID_00000099632048761814535780000017087577683893692862_);}
	.st19{opacity:5.000000e-02;clip-path:url(#XMLID_00000145054937290236367360000008649382422969831043_);}
	.st20{opacity:0.3;clip-path:url(#XMLID_00000145054937290236367360000008649382422969831043_);fill:#FFFFFF;}
	.st21{opacity:2.000000e-02;clip-path:url(#XMLID_00000173119873928216257700000007401504167549532850_);}
	.st22{opacity:0.27;clip-path:url(#XMLID_00000012437933913974143310000000762688595909920438_);}
	.st23{opacity:0.41;clip-path:url(#XMLID_00000146488903068158768560000017143846801624905356_);fill:#8E5400;}
	.st24{opacity:0.66;clip-path:url(#XMLID_00000146488903068158768560000017143846801624905356_);fill:#8E5400;}
	.st25{opacity:5.000000e-02;clip-path:url(#XMLID_00000156563482104168036340000015750521407527855750_);}
	.st26{clip-path:url(#XMLID_00000156563482104168036340000015750521407527855750_);}
	.st27{clip-path:url(#XMLID_00000163044089302195764550000002480172286426877107_);}
	.st28{opacity:5.000000e-02;clip-path:url(#XMLID_00000129904123978708110030000009377591648414085558_);}
	.st29{opacity:0.3;clip-path:url(#XMLID_00000129904123978708110030000009377591648414085558_);fill:#FFFFFF;}
	.st30{opacity:0.12;clip-path:url(#XMLID_00000156563482104168036340000015750521407527855750_);fill:#FFFFFF;}
	.st31{clip-path:url(#XMLID_00000107569127436032953240000001639217050511732409_);fill:#3B2205;}
	.st32{clip-path:url(#XMLID_00000039824032432571895370000014282033760851837112_);fill:#3B2205;}
	.st33{clip-path:url(#XMLID_00000034804759540161123390000018164596204098782893_);fill:#3B2205;}
	.st34{clip-path:url(#XMLID_00000041285684987743036530000002543478397925238414_);fill:#3B2205;}
	.st35{clip-path:url(#XMLID_00000147900974913958567190000005593964031769161623_);fill:#3B2205;}
	.st36{clip-path:url(#XMLID_00000057853740999655153720000001764541051944723341_);fill:#3B2205;}
	.st37{clip-path:url(#XMLID_00000119821453645090130370000001829342676616235964_);fill:#3B2205;}
	.st38{clip-path:url(#XMLID_00000084527870336075672260000014519993349341087631_);fill:#3B2205;}
	.st39{opacity:6.000000e-02;clip-path:url(#XMLID_00000040559818847442988510000008136618490487125912_);}
	.st40{clip-path:url(#XMLID_00000040559818847442988510000008136618490487125912_);fill:none;stroke:#000000;stroke-miterlimit:10;}
	.st41{fill:#BBD700;}
	.st42{opacity:0.27;clip-path:url(#XMLID_00000085964464280521873150000003020133563086036360_);}
	.st43{opacity:2.000000e-02;clip-path:url(#XMLID_00000012452713683919980380000010458851776138027448_);}
	.st44{opacity:0.41;clip-path:url(#XMLID_00000181798790321801603820000013641034703864504482_);fill:#8E5400;}
	.st45{opacity:0.66;clip-path:url(#XMLID_00000181798790321801603820000013641034703864504482_);fill:#8E5400;}
	.st46{opacity:5.000000e-02;clip-path:url(#XMLID_00000175309118795107816130000012630192584197280392_);}
	.st47{clip-path:url(#XMLID_00000175309118795107816130000012630192584197280392_);}
	.st48{opacity:0.33;clip-path:url(#XMLID_00000040571420469407350800000004518849485696624289_);fill:#FFFFFF;}
	.st49{opacity:0.61;clip-path:url(#XMLID_00000040571420469407350800000004518849485696624289_);fill:#D7DF00;}
	.st50{opacity:0.3;clip-path:url(#XMLID_00000040571420469407350800000004518849485696624289_);fill:#FFFFFF;}
	.st51{opacity:0.23;clip-path:url(#XMLID_00000040571420469407350800000004518849485696624289_);fill:#FFFFFF;}
	.st52{opacity:0.12;clip-path:url(#XMLID_00000175309118795107816130000012630192584197280392_);fill:#FFFFFF;}
	.st53{opacity:3.000000e-02;clip-path:url(#XMLID_00000143578663192501987140000012327757012023296176_);}
	.st54{fill:#050500;}
	.st55{opacity:0.19;clip-path:url(#XMLID_00000143578663192501987140000012327757012023296176_);}
	.st56{opacity:3.000000e-02;clip-path:url(#XMLID_00000073684319426811257600000003313838806605659010_);}
	.st57{opacity:0.19;clip-path:url(#XMLID_00000073684319426811257600000003313838806605659010_);}
	.st58{opacity:0.27;clip-path:url(#XMLID_00000060031455223661912630000017523696784386281128_);}
	.st59{opacity:2.000000e-02;clip-path:url(#XMLID_00000115479882915273763780000011127769115378487936_);}
	.st60{opacity:0.41;clip-path:url(#XMLID_00000150097811142361539980000005707215742543886491_);fill:#8E5400;}
	.st61{opacity:0.66;clip-path:url(#XMLID_00000150097811142361539980000005707215742543886491_);fill:#8E5400;}
	.st62{opacity:5.000000e-02;clip-path:url(#XMLID_00000005985676134535123650000013894727552799705244_);}
	.st63{clip-path:url(#XMLID_00000005985676134535123650000013894727552799705244_);}
	.st64{opacity:0.33;clip-path:url(#XMLID_00000066493945524872358650000001488043555608573859_);fill:#FFFFFF;}
	.st65{opacity:0.61;clip-path:url(#XMLID_00000066493945524872358650000001488043555608573859_);fill:#D7DF00;}
	.st66{opacity:0.3;clip-path:url(#XMLID_00000066493945524872358650000001488043555608573859_);fill:#FFFFFF;}
	.st67{opacity:0.23;clip-path:url(#XMLID_00000066493945524872358650000001488043555608573859_);fill:#FFFFFF;}
	.st68{opacity:0.12;clip-path:url(#XMLID_00000005985676134535123650000013894727552799705244_);fill:#FFFFFF;}
	.st69{opacity:3.000000e-02;clip-path:url(#XMLID_00000121262751977456416260000016533939808993360264_);}
	.st70{opacity:0.19;clip-path:url(#XMLID_00000121262751977456416260000016533939808993360264_);}
	.st71{opacity:3.000000e-02;clip-path:url(#XMLID_00000086666048162301738970000010782053509428356023_);}
	.st72{opacity:0.19;clip-path:url(#XMLID_00000086666048162301738970000010782053509428356023_);}
	.st73{opacity:2.000000e-02;clip-path:url(#XMLID_00000078038931519771197460000001664816425731934897_);}
	.st74{opacity:0.27;clip-path:url(#XMLID_00000028316806057031905880000017850842556131992740_);}
	.st75{opacity:0.41;clip-path:url(#XMLID_00000036944355183664146960000017813726788600456859_);fill:#8E5400;}
	.st76{opacity:0.66;clip-path:url(#XMLID_00000036944355183664146960000017813726788600456859_);fill:#8E5400;}
	.st77{opacity:5.000000e-02;clip-path:url(#XMLID_00000072963175819752996700000014250691114861456295_);}
	.st78{clip-path:url(#XMLID_00000072963175819752996700000014250691114861456295_);fill:#BBD700;}
	.st79{clip-path:url(#XMLID_00000072963175819752996700000014250691114861456295_);}
	.st80{opacity:5.000000e-02;clip-path:url(#XMLID_00000052823975573061678720000007224573323181196456_);}
	.st81{opacity:0.3;clip-path:url(#XMLID_00000052823975573061678720000007224573323181196456_);fill:#FFFFFF;}
	.st82{opacity:9.000000e-02;}
	.st83{opacity:0.36;fill:#747477;}
	.st84{clip-path:url(#XMLID_00000116917300232817253310000010568164953745718912_);}
	.st85{fill:#603103;}
	.st86{opacity:0.39;clip-path:url(#XMLID_00000087396467113452187480000001169262761244337536_);fill:#754103;}
	.st87{fill:#824D02;}
	.st88{opacity:0.47;clip-path:url(#XMLID_00000016034243280099894860000011764931307157776057_);fill:#915602;}
	.st89{clip-path:url(#XMLID_00000016034243280099894860000011764931307157776057_);fill:#915602;}
	.st90{opacity:0.2;clip-path:url(#XMLID_00000052795650942609093820000005052026830745959605_);fill:#723F03;}
	.st91{opacity:0.48;clip-path:url(#XMLID_00000023241265415489654400000002638264136171842475_);fill:#683503;}
	.st92{opacity:0.53;clip-path:url(#XMLID_00000091700672889612401780000012950727815573962153_);fill:#8C5302;}
	.st93{opacity:4.000000e-02;}
	.st94{opacity:0.14;clip-path:url(#XMLID_00000162335371727341463110000002324218520845549981_);fill:#56B1BA;}
	.st95{opacity:0.14;clip-path:url(#XMLID_00000058568233627316754800000000041930718163409580_);fill:#56B1BA;}
	.st96{opacity:0.14;clip-path:url(#XMLID_00000163768644865632499640000007179469922176834699_);fill:#56B1BA;}
	.st97{fill:none;stroke:#FFFFFF;stroke-miterlimit:10;}
</style>
<g id="BACKGROUND" class="st0">
	<rect x="15.1" y="-382.2" class="st1" width="500" height="500"/>
</g>
<g id="OBJECTS">
	<g id="title">
		<text transform="matrix(1 0 0 1 -388.9176 -274.5323)"><tspan x="0" y="0" style="font-family:'TrashHand'; font-size:40px;">HOW TO MAKE </tspan><tspan x="64" y="36" style="font-family:'TrashHand'; font-size:40px;">MACHA</tspan></text>
		<g>
			<defs>
				<path id="XMLID_104_" d="M-200.7-233.2c-10.3,5.3-18.9-9.9-9.2-16.2c1.6-1.1,3.5-2,5.5-2.9c4.7-2.3,7-5.2,8.2-7.5
					c0.5-1.1,2.1-0.9,2.3,0.2C-192.2-252.5-190.3-238.5-200.7-233.2z"/>
			</defs>
			<use xlink:href="#XMLID_104_"  style="overflow:visible;fill:#BBD500;"/>
			<clipPath id="XMLID_00000049928915938034682760000011857666916963026319_">
				<use xlink:href="#XMLID_104_"  style="overflow:visible;"/>
			</clipPath>
			<path style="opacity:3.000000e-02;clip-path:url(#XMLID_00000049928915938034682760000011857666916963026319_);" d="
				M-195.1-263.8c0,0-0.1-0.4-1.9,2.9c1.5,9.2,1.7,26.2-14.3,27.6c-0.5,0-1.1,0-1.6-0.1c0.9,1.5,2.7,2.4,4.7,2.2
				C-183.9-233.3-195.1-263.8-195.1-263.8z"/>
			
				<polyline style="opacity:2.000000e-02;clip-path:url(#XMLID_00000049928915938034682760000011857666916963026319_);fill:none;stroke:#000000;stroke-width:0.6461;stroke-miterlimit:10;" points="
				-205,-254.2 -201,-245.5 -190.4,-246.8 			"/>
			
				<polyline style="opacity:2.000000e-02;clip-path:url(#XMLID_00000049928915938034682760000011857666916963026319_);fill:none;stroke:#000000;stroke-width:0.6461;stroke-miterlimit:10;" points="
				-209.4,-249.8 -205.4,-241.1 -190.1,-242.6 			"/>
			
				<polyline style="opacity:2.000000e-02;clip-path:url(#XMLID_00000049928915938034682760000011857666916963026319_);fill:none;stroke:#000000;stroke-width:0.6461;stroke-miterlimit:10;" points="
				-213.3,-244.6 -209.4,-235.9 -194.1,-237.4 			"/>
			
				<polyline style="opacity:2.000000e-02;clip-path:url(#XMLID_00000049928915938034682760000011857666916963026319_);fill:none;stroke:#000000;stroke-width:0.6461;stroke-miterlimit:10;" points="
				-202.5,-258.5 -198.6,-249.8 -188,-251.1 			"/>
		</g>
		<g>
			<defs>
				<path id="XMLID_105_" d="M-214.8-228.1c0,0,0-0.1,0.1-0.4c0.1-0.2,0.2-0.5,0.3-0.9c0.3-0.8,0.7-1.9,1.3-3.1
					c0.3-0.6,0.6-1.3,1.1-2c0.4-0.7,0.8-1.4,1.3-2.1c0.5-0.7,1-1.4,1.6-2.1c0.6-0.7,1.2-1.4,1.8-2.1c0.6-0.7,1.3-1.3,1.9-1.9
					c0.6-0.6,1.3-1.2,1.8-1.7c1.2-1.1,2.1-2.2,2.9-3.3c0.8-1,1.4-2,1.8-2.6c0.4-0.6,0.7-1,0.7-1l0,0c0.2-0.3,0.6-0.4,0.9-0.2
					c0.3,0.2,0.4,0.6,0.2,0.9c0,0-0.2,0.4-0.6,1.1c-0.4,0.7-0.9,1.6-1.6,2.8c-0.7,1.1-1.6,2.5-2.8,3.7c-0.6,0.6-1.1,1.3-1.7,1.9
					c-0.6,0.6-1.1,1.3-1.7,1.9c-0.5,0.7-1,1.4-1.5,2c-0.5,0.7-0.9,1.4-1.3,2.1c-0.4,0.7-0.8,1.4-1.1,2c-0.3,0.6-0.6,1.3-0.8,1.9
					c-0.5,1.2-0.8,2.2-1,2.8c-0.1,0.3-0.1,0.6-0.2,0.8c0,0.2,0,0.3,0,0.3l0,0c-0.2,0.9-1.1,1.5-2,1.4s-1.5-1.1-1.4-2
					C-214.9-228.1-214.9-228.1-214.8-228.1z"/>
			</defs>
			<use xlink:href="#XMLID_105_"  style="overflow:visible;fill:#B8C800;"/>
			<clipPath id="XMLID_00000036247049853369981660000005793871487809403061_">
				<use xlink:href="#XMLID_105_"  style="overflow:visible;"/>
			</clipPath>
			<path style="opacity:3.000000e-02;clip-path:url(#XMLID_00000036247049853369981660000005793871487809403061_);" d="
				M-197.9-250.8c-0.4,0.7-1,1.6-1.8,2.7c-0.8,1.1-1.8,2.4-3,3.6c-0.6,0.6-1.2,1.2-1.8,1.8c-0.6,0.6-1.2,1.2-1.8,1.8
				c-0.6,0.6-1.1,1.3-1.6,1.9c-0.5,0.7-1,1.3-1.4,2c-0.4,0.7-0.8,1.3-1.2,2c-0.4,0.6-0.7,1.2-0.9,1.8c-0.5,1.1-0.9,2.1-1.1,2.8
				c-0.1,0.3-0.2,0.6-0.2,0.8c0,0.2-0.1,0.3-0.1,0.3l0,0c-0.2,0.9-1.1,1.5-2.1,1.3c0,0,0,0-0.1,0c0,0,0,0,0,0.1
				c-0.2,0.9,0.4,1.8,1.4,2s1.8-0.4,2-1.4l0,0c0,0,0-0.1,0-0.3c0-0.2,0.1-0.4,0.2-0.8c0.2-0.7,0.5-1.7,1-2.8
				c0.2-0.6,0.5-1.2,0.8-1.9c0.3-0.7,0.7-1.3,1.1-2c0.4-0.7,0.8-1.4,1.3-2.1c0.5-0.7,1-1.4,1.5-2c0.5-0.7,1.1-1.3,1.7-1.9
				c0.6-0.6,1.2-1.3,1.7-1.9c1.1-1.3,2.1-2.6,2.8-3.7c0.7-1.2,1.2-2.1,1.6-2.8c0.4-0.7,0.6-1.1,0.6-1.1c0.2-0.3,0.1-0.7-0.2-0.8
				C-197.6-251.4-197.7-251.1-197.9-250.8z"/>
		</g>
		<g>
			<defs>
				<path id="XMLID_107_" d="M-323.1-242.2c8,8.3,21.1-3.2,13.9-12.3c-1.2-1.5-2.7-3-4.2-4.5c-3.7-3.7-4.9-7.2-5.3-9.8
					c-0.1-1.2-1.6-1.5-2.3-0.5C-324.9-263.2-331.2-250.6-323.1-242.2z"/>
			</defs>
			<use xlink:href="#XMLID_107_"  style="overflow:visible;fill:#BBD500;"/>
			<clipPath id="XMLID_00000109745559577091567700000010948403200226307990_">
				<use xlink:href="#XMLID_107_"  style="overflow:visible;"/>
			</clipPath>
			<path style="opacity:3.000000e-02;clip-path:url(#XMLID_00000109745559577091567700000010948403200226307990_);" d="
				M-318.4-272.9c0,0,0.3-0.3,0.9,3.4c-4.4,8.2-10.2,24.2,4.5,30.7c0.5,0.2,1,0.4,1.5,0.4c-1.4,1.1-3.4,1.4-5.2,0.6
				C-338.9-247.7-318.4-272.9-318.4-272.9z"/>
			
				<polyline style="opacity:2.000000e-02;clip-path:url(#XMLID_00000109745559577091567700000010948403200226307990_);fill:none;stroke:#000000;stroke-width:0.6461;stroke-miterlimit:10;" points="
				-312.2,-260.6 -318.7,-253.7 -328.3,-258.3 			"/>
			
				<polyline style="opacity:2.000000e-02;clip-path:url(#XMLID_00000109745559577091567700000010948403200226307990_);fill:none;stroke:#000000;stroke-width:0.6461;stroke-miterlimit:10;" points="
				-309.5,-255 -316,-248.1 -330,-254.5 			"/>
			
				<polyline style="opacity:2.000000e-02;clip-path:url(#XMLID_00000109745559577091567700000010948403200226307990_);fill:none;stroke:#000000;stroke-width:0.6461;stroke-miterlimit:10;" points="
				-307.4,-248.8 -314,-241.9 -328,-248.3 			"/>
			
				<polyline style="opacity:2.000000e-02;clip-path:url(#XMLID_00000109745559577091567700000010948403200226307990_);fill:none;stroke:#000000;stroke-width:0.6461;stroke-miterlimit:10;" points="
				-313.1,-265.5 -319.7,-258.5 -329.2,-263.2 			"/>
		</g>
		<g>
			<defs>
				<path id="XMLID_106_" d="M-311.3-232.8c0,0,0-0.1,0-0.4c0-0.2,0-0.6,0-1c0-0.8,0-2-0.2-3.4c-0.1-0.7-0.2-1.4-0.3-2.2
					c-0.1-0.8-0.3-1.6-0.6-2.4c-0.2-0.8-0.5-1.7-0.8-2.5c-0.3-0.8-0.6-1.7-1-2.5c-0.3-0.8-0.8-1.6-1.2-2.4c-0.4-0.8-0.8-1.5-1.2-2.2
					c-0.7-1.4-1.3-2.8-1.6-4c-0.4-1.2-0.7-2.3-0.8-3c-0.2-0.7-0.3-1.2-0.3-1.2l0,0c-0.1-0.3-0.4-0.6-0.8-0.5
					c-0.3,0.1-0.5,0.4-0.5,0.7c0,0,0.1,0.4,0.2,1.2c0.1,0.8,0.3,1.9,0.6,3.2c0.3,1.3,0.8,2.9,1.4,4.4c0.3,0.8,0.7,1.6,1,2.4
					c0.3,0.8,0.7,1.6,0.9,2.4c0.3,0.8,0.5,1.6,0.8,2.4c0.2,0.8,0.4,1.6,0.6,2.4c0.1,0.8,0.3,1.5,0.3,2.2c0.1,0.7,0.1,1.4,0.2,2
					c0.1,1.3,0,2.3,0,3c0,0.4-0.1,0.6-0.1,0.8c0,0.2,0,0.3,0,0.3l0,0c-0.1,0.9,0.5,1.8,1.4,1.9c0.9,0.1,1.8-0.5,1.9-1.4
					C-311.3-232.7-311.3-232.7-311.3-232.8z"/>
			</defs>
			<use xlink:href="#XMLID_106_"  style="overflow:visible;fill:#B8C800;"/>
			<clipPath id="XMLID_00000008138007227232869010000011691944713416777406_">
				<use xlink:href="#XMLID_106_"  style="overflow:visible;"/>
			</clipPath>
			<path style="opacity:3.000000e-02;clip-path:url(#XMLID_00000008138007227232869010000011691944713416777406_);" d="M-320-259.7
				c0.2,0.8,0.4,1.8,0.8,3.1c0.4,1.3,0.9,2.8,1.6,4.4c0.4,0.8,0.8,1.5,1.1,2.3c0.4,0.8,0.8,1.5,1.1,2.3c0.3,0.8,0.6,1.6,0.9,2.4
				c0.3,0.8,0.5,1.6,0.7,2.3c0.2,0.8,0.4,1.5,0.5,2.2c0.1,0.7,0.2,1.4,0.3,2c0.1,1.2,0.1,2.3,0.1,3c0,0.4,0,0.6,0,0.8
				c0,0.2,0,0.3,0,0.3l0,0c-0.1,0.9,0.6,1.8,1.5,1.9c0,0,0,0,0.1,0c0,0,0,0,0,0.1c-0.1,0.9-1,1.6-1.9,1.4c-0.9-0.1-1.6-1-1.4-1.9
				l0,0c0,0,0-0.1,0-0.3c0-0.2,0.1-0.4,0.1-0.8c0.1-0.7,0.1-1.7,0-3c0-0.6-0.1-1.3-0.2-2c-0.1-0.7-0.2-1.5-0.3-2.2
				c-0.1-0.8-0.3-1.6-0.6-2.4c-0.2-0.8-0.5-1.6-0.8-2.4c-0.3-0.8-0.6-1.6-0.9-2.4c-0.4-0.8-0.7-1.6-1-2.4c-0.7-1.6-1.1-3.1-1.4-4.4
				c-0.3-1.3-0.5-2.4-0.6-3.2c-0.1-0.8-0.2-1.2-0.2-1.2c-0.1-0.3,0.1-0.6,0.5-0.7C-320.1-260.4-320-260.1-320-259.7z"/>
		</g>
	</g>
	<g>
		<g>
			<defs>
				<circle id="XMLID_31_" cx="263.1" cy="-208" r="13.7"/>
			</defs>
			<use xlink:href="#XMLID_31_"  style="overflow:visible;fill:#BBD500;"/>
			<clipPath id="XMLID_00000066488612110120035360000009159731524144847497_">
				<use xlink:href="#XMLID_31_"  style="overflow:visible;"/>
			</clipPath>
			<path style="opacity:2.000000e-02;clip-path:url(#XMLID_00000066488612110120035360000009159731524144847497_);" d="M268.8-220.5
				c1.3,2.1,2,4.5,2,7.1c0,7.6-6.1,13.7-13.7,13.7c-2,0-3.9-0.5-5.7-1.2c2.4,3.9,6.7,6.6,11.7,6.6c7.6,0,13.7-6.1,13.7-13.7
				C276.8-213.6,273.5-218.3,268.8-220.5z"/>
		</g>
		<text transform="matrix(1 0 0 1 256.4885 -200.7552)" class="st17" style="font-family:'TrashHand'; font-size:24.4902px;">1</text>
	</g>
	<text transform="matrix(1 0 0 1 223.7971 -176.5346)"><tspan x="0" y="0" style="font-family:'Montserrat-Regular'; font-size:10px;">Add 1-2 teaspoon </tspan><tspan x="-2.8" y="12" style="font-family:'Montserrat-Regular'; font-size:10px;">matcha into a cup </tspan></text>
	<g>
		<ellipse class="st9" cx="379.2" cy="-105.8" rx="31.8" ry="7"/>
		<path class="st10" d="M361.6-112.2c0,0,4.3,2.3,5.7,3.9c1.2,1.3,2.6,2.4,4.4,2.7c3,0.6,7.8,1.1,13.4,0.1c2-0.4,3.9-1.4,5-3.2
			c0.4-0.6,1.8-2.1,3.1-2.5"/>
		<g>
			<g>
				<defs>
					<path id="XMLID_36_" d="M408-116.3c-1.8,0-3.9-0.4-6.3-1.4c-0.8-0.3-1.1-1.2-0.8-2c0.3-0.8,1.2-1.1,2-0.8
						c5.2,2.1,9.4,1.2,11.9-2.6c2.5-3.8,2.6-9.4,0.1-11.8c-1.1-1.1-2.1-1.6-3.2-1.4c-2,0.3-3.7,2.8-4.2,3.6c-0.4,0.7-1.3,1-2,0.6
						c-0.7-0.4-1-1.3-0.6-2c0.3-0.5,2.6-4.6,6.4-5.2c2-0.3,3.9,0.5,5.7,2.3c3.5,3.5,3.6,10.6,0.2,15.6
						C416.1-119.5,413.3-116.3,408-116.3z"/>
				</defs>
				<use xlink:href="#XMLID_36_"  style="overflow:visible;fill:#996000;"/>
				<clipPath id="XMLID_00000101784825738565052210000017694219762102722973_">
					<use xlink:href="#XMLID_36_"  style="overflow:visible;"/>
				</clipPath>
				<g style="opacity:0.27;clip-path:url(#XMLID_00000101784825738565052210000017694219762102722973_);">
					<path class="st12" d="M411.5-137.1c-2,0.3-4.7,2.7-5.1,3.6c-0.4,0.6-1.1,0.9-1.8,0.7c0,0.5,0.3,1,0.8,1.3
						c0.7,0.4,1.7,0.1,2.1-0.6c0.5-0.9,2.3-3.4,4.3-3.7c1-0.1,2.3,2,3.4,3c-0.2-0.5,0.8-0.2,0.5-1.5
						C415-136.1,413.5-137.4,411.5-137.1z"/>
					<path class="st12" d="M417.8-136.8c2.4,3.8,2.1,10-0.9,14.4c-1.2,1.8-4.1,5.1-9.4,5.1c-1.8,0-3.9-0.4-6.2-1.3
						c0,0.6,0.4,1.1,0.9,1.3c2.4,1,4.5,1.4,6.4,1.4c5.3,0,8.3-3.3,9.4-5.1C421.3-126,421.2-133.2,417.8-136.8z"/>
				</g>
			</g>
		</g>
		<g>
			<defs>
				<path id="XMLID_35_" d="M348.1-141.4c0,0-3.3,32.8,29.7,33c36.9,0.3,30.3-33,30.3-33"/>
			</defs>
			<use xlink:href="#XMLID_35_"  style="overflow:visible;fill:#996000;"/>
			<clipPath id="XMLID_00000123404452789768219290000016116042624064900002_">
				<use xlink:href="#XMLID_35_"  style="overflow:visible;"/>
			</clipPath>
			<path style="opacity:0.41;clip-path:url(#XMLID_00000123404452789768219290000016116042624064900002_);fill:#8E5400;" d="
				M408.2-141.4h-9.5c0.5,8.4-1,30-30.7,29.7c-2.3,0-4.4-0.2-6.4-0.5c4.1,2.3,9.4,3.8,16.3,3.8C414.8-108.1,408.2-141.4,408.2-141.4
				z"/>
			<path style="opacity:0.66;clip-path:url(#XMLID_00000123404452789768219290000016116042624064900002_);fill:#8E5400;" d="
				M411.2-142.4l-9.5,0.8c1.3,8.3,1.6,29.9-28.1,32.2c-2.3,0.2-4.4,0.2-6.4,0c4.3,1.9,9.7,3,16.5,2.4
				C420.7-109.8,411.2-142.4,411.2-142.4z"/>
		</g>
		<g>
			<defs>
				<path id="XMLID_37_" d="M408.2-141.4c0,3.8-13.4,6.9-30,6.9c-16.6,0-30-3.1-30-6.9s13.4-6.9,30-6.9
					C394.8-148.3,408.2-145.2,408.2-141.4z"/>
			</defs>
			<use xlink:href="#XMLID_37_"  style="overflow:visible;fill:#7A4800;"/>
			<clipPath id="XMLID_00000110440460161301259330000010499826620366205585_">
				<use xlink:href="#XMLID_37_"  style="overflow:visible;"/>
			</clipPath>
			<path style="opacity:5.000000e-02;clip-path:url(#XMLID_00000110440460161301259330000010499826620366205585_);" d="M378.2-148.3
				c-15.8,0-28.8,2.8-29.9,6.4c5.1-2.1,15-3.6,26.3-3.6c16.6,0,30,3.1,30,6.9c0,0.2,0,0.3-0.1,0.5c2.4-1,3.7-2.1,3.7-3.3
				C408.2-145.2,394.8-148.3,378.2-148.3z"/>
		</g>
		<g class="st16">
			<path class="st17" d="M354.4-134c3,5.4,5.8,10,9.7,14.8c0.7,0.9,0,2.3-1.1,2.1c-5.6-0.7-9.8-5.9-10.9-11.2
				c-0.3-1.5-1-6.8,1.5-6.3C353.9-134.5,354.2-134.3,354.4-134L354.4-134z"/>
		</g>
		<g>
			<defs>
				<path id="XMLID_40_" d="M450.9-169.9c-0.1-0.8-0.9-1.4-1.7-1.2l-42.2,6.9l-4.3,0.7l-15.4,2.5c-0.6,0.1-0.9,0.6-0.7,1.2
					c1.4,5.2,6.5,8.5,11.9,7.7c4-0.6,7-3.4,8.2-7c0.4-1.3,1.5-2.2,2.9-2.5l40.2-6.6C450.4-168.3,451-169,450.9-169.9L450.9-169.9z"
					/>
			</defs>
			<use xlink:href="#XMLID_40_"  style="overflow:visible;fill:#996000;"/>
			<clipPath id="XMLID_00000079487074229804119310000000001058311793309068_">
				<use xlink:href="#XMLID_40_"  style="overflow:visible;"/>
			</clipPath>
			<path style="opacity:5.000000e-02;clip-path:url(#XMLID_00000079487074229804119310000000001058311793309068_);" d="M450.2-171.1
				c0.2,0.9-1.2,1.5-1.8,1.6l-40.2,6.6c-1.3,0.2-2.5,1.2-2.9,2.5c-1.2,3.6-4.3,6.3-8.2,7c-3.4,0.6-6.7-0.6-9-2.9
				c2.2,3.4,6.3,5.4,10.6,4.7c4-0.6,7-3.4,8.2-7c0.4-1.3,1.5-2.2,2.9-2.5l40.2-6.6c0.8-0.1,1.4-0.9,1.2-1.7
				C451-170.1,450.9-171.1,450.2-171.1z"/>
			<path style="opacity:5.000000e-02;clip-path:url(#XMLID_00000079487074229804119310000000001058311793309068_);" d="M385.7-160.2
				c0,0,5.6,5.9,16.5,0.1c0,0-10.8,2.5-15.9-1.1L385.7-160.2z"/>
		</g>
		<g>
			<defs>
				<path id="XMLID_41_" d="M386.6-160.3c0,0,4.8,3.5,11.6,1.6c6.8-1.8,6.7-5.1,6.7-5.1s-1.1-2.8-2.7-2.9c-1.6-0.1-1.3-2.3-3.3-2.3
					c-1,0-2.3-1.9-4.1-1.8c-1.7,0.1-1.7,1.9-3.1,2.6c-1.4,0.7-1.2,2.3-2.1,2.8c-0.8,0.4-0.9,2.7-2,3
					C386.4-161.9,386.6-160.3,386.6-160.3z"/>
			</defs>
			<use xlink:href="#XMLID_41_"  style="overflow:visible;fill:#BBD700;"/>
			<clipPath id="XMLID_00000164511005376309714120000000757667155502321287_">
				<use xlink:href="#XMLID_41_"  style="overflow:visible;"/>
			</clipPath>
			<path style="opacity:5.000000e-02;clip-path:url(#XMLID_00000164511005376309714120000000757667155502321287_);" d="M392.5-172
				c0,0,4.6,3.2,4.8,5.8s2.7,1.5,3.5,3.2c0.8,1.7,2.6,5.1,2.6,5.1l3.5-5.8C406.8-163.8,396.9-174.3,392.5-172z"/>
			<path style="opacity:5.000000e-02;clip-path:url(#XMLID_00000164511005376309714120000000757667155502321287_);" d="M393.1-171.8
				c0,0,5,2.6,5.5,5.1c0.6,2.6,2.8,1.1,3.8,2.7c1,1.6,3.2,4.7,3.2,4.7l2.7-6.3C408.4-165.5,397.1-174.6,393.1-171.8z"/>
			<path style="opacity:0.3;clip-path:url(#XMLID_00000164511005376309714120000000757667155502321287_);fill:#FFFFFF;" d="
				M390.1-161.4c0,0.3-0.1,0.5-0.4,0.6c-0.3,0-0.5-0.1-0.6-0.4c0-0.3,0.1-0.5,0.4-0.6C389.8-161.8,390.1-161.6,390.1-161.4z"/>
			<path style="opacity:0.3;clip-path:url(#XMLID_00000164511005376309714120000000757667155502321287_);fill:#FFFFFF;" d="
				M392.7-163.6c0.3,0.4,0.1,0.2-0.2,0.6c-0.2,0.4-0.5,0.9-0.9,0.6c-0.4-0.3-0.6-0.8-0.4-1.2C391.5-164,392-164.4,392.7-163.6z"/>
			<path style="opacity:0.3;clip-path:url(#XMLID_00000164511005376309714120000000757667155502321287_);fill:#FFFFFF;" d="
				M392.4-160.9c0,0.3-0.1,0.5-0.4,0.6c-0.3,0-0.5-0.1-0.6-0.4c0-0.3,0.1-0.5,0.4-0.6C392.1-161.3,392.4-161.2,392.4-160.9z"/>
			<path style="opacity:0.3;clip-path:url(#XMLID_00000164511005376309714120000000757667155502321287_);fill:#FFFFFF;" d="
				M403.6-157.1c0,0.1-0.1,0.3-0.2,0.3c-0.1,0-0.3-0.1-0.3-0.2c0-0.1,0.1-0.3,0.2-0.3C403.4-157.4,403.6-157.3,403.6-157.1z"/>
			<path style="opacity:0.3;clip-path:url(#XMLID_00000164511005376309714120000000757667155502321287_);fill:#FFFFFF;" d="
				M390.1-163.1c0,0.1-0.1,0.3-0.2,0.3c-0.1,0-0.3-0.1-0.3-0.2c0-0.1,0.1-0.3,0.2-0.3C390-163.3,390.1-163.3,390.1-163.1z"/>
			<path style="opacity:0.3;clip-path:url(#XMLID_00000164511005376309714120000000757667155502321287_);fill:#FFFFFF;" d="
				M394.3-160.4c0,0.3-0.1,0.5-0.4,0.6c-0.3,0-0.5-0.1-0.6-0.4c0-0.3,0.1-0.5,0.4-0.6C394-160.9,394.2-160.7,394.3-160.4z"/>
			<path style="opacity:0.3;clip-path:url(#XMLID_00000164511005376309714120000000757667155502321287_);fill:#FFFFFF;" d="
				M393.6-162.1c0,0.1-0.1,0.3-0.2,0.3c-0.1,0-0.3-0.1-0.3-0.2c0-0.1,0.1-0.3,0.2-0.3C393.5-162.3,393.6-162.2,393.6-162.1z"/>
		</g>
	</g>
	<g>
		<g>
			<defs>
				<circle id="XMLID_81_" cx="264.1" cy="-27.8" r="13.7"/>
			</defs>
			<use xlink:href="#XMLID_81_"  style="overflow:visible;fill:#BBD500;"/>
			<clipPath id="XMLID_00000074418107370307778700000000490449550593264282_">
				<use xlink:href="#XMLID_81_"  style="overflow:visible;"/>
			</clipPath>
			<path style="opacity:2.000000e-02;clip-path:url(#XMLID_00000074418107370307778700000000490449550593264282_);" d="M269.8-40.2
				c1.3,2.1,2,4.5,2,7.1c0,7.6-6.1,13.7-13.7,13.7c-2,0-3.9-0.5-5.7-1.2c2.4,3.9,6.7,6.6,11.7,6.6c7.6,0,13.7-6.1,13.7-13.7
				C277.8-33.3,274.5-38.1,269.8-40.2z"/>
		</g>
		<text transform="matrix(1 0 0 1 258.4879 -21.5187)" class="st17" style="font-family:'TrashHand'; font-size:24.4902px;">3</text>
	</g>
	<text transform="matrix(1 0 0 1 229.6716 3.7019)"><tspan x="0" y="0" style="font-family:'Montserrat-Regular'; font-size:10px;">Stir until it gets </tspan><tspan x="-11.9" y="12" style="font-family:'Montserrat-Regular'; font-size:10px;">dissolved and foamy</tspan></text>
	<ellipse class="st9" cx="316.4" cy="101.2" rx="31.8" ry="7"/>
	<path class="st10" d="M298.8,94.8c0,0,4.3,2.3,5.7,3.9c1.2,1.3,2.6,2.4,4.4,2.7c3,0.6,7.8,1.1,13.4,0.1c2-0.4,3.9-1.4,5-3.2
		c0.4-0.6,1.8-2.1,3.1-2.5"/>
	<g>
		<g>
			<defs>
				<path id="XMLID_85_" d="M345.3,90.7c-1.8,0-3.9-0.4-6.3-1.4c-0.8-0.3-1.1-1.2-0.8-2c0.3-0.8,1.2-1.1,2-0.8
					c5.2,2.1,9.4,1.2,11.9-2.6c2.5-3.8,2.6-9.4,0.1-11.8c-1.1-1.1-2.1-1.6-3.2-1.4c-2,0.3-3.7,2.8-4.2,3.6c-0.4,0.7-1.3,1-2,0.6
					c-0.7-0.4-1-1.3-0.6-2c0.3-0.5,2.6-4.6,6.4-5.2c2-0.3,3.9,0.5,5.7,2.3c3.5,3.5,3.6,10.6,0.2,15.6
					C353.4,87.4,350.5,90.7,345.3,90.7z"/>
			</defs>
			<use xlink:href="#XMLID_85_"  style="overflow:visible;fill:#996000;"/>
			<clipPath id="XMLID_00000087372229346506475270000003412384130477863302_">
				<use xlink:href="#XMLID_85_"  style="overflow:visible;"/>
			</clipPath>
			<g style="opacity:0.27;clip-path:url(#XMLID_00000087372229346506475270000003412384130477863302_);">
				<path class="st12" d="M348.7,69.8c-2,0.3-4.7,2.7-5.1,3.6c-0.4,0.6-1.1,0.9-1.8,0.7c0,0.5,0.3,1,0.8,1.3
					c0.7,0.4,1.7,0.1,2.1-0.6c0.5-0.9,2.3-3.4,4.3-3.7c1-0.1,2.3,2,3.4,3c-0.2-0.5,0.8-0.2,0.5-1.5
					C352.2,70.9,350.7,69.6,348.7,69.8z"/>
				<path class="st12" d="M355,70.2c2.4,3.8,2.1,10-0.9,14.4c-1.2,1.8-4.1,5.1-9.4,5.1c-1.8,0-3.9-0.4-6.2-1.3
					c0,0.6,0.4,1.1,0.9,1.3c2.4,1,4.5,1.4,6.4,1.4c5.3,0,8.3-3.3,9.5-5.1C358.5,81,358.4,73.8,355,70.2z"/>
			</g>
		</g>
	</g>
	<g>
		<defs>
			<path id="XMLID_84_" d="M285.4,65.6c0,0-3.3,32.8,29.7,33c36.9,0.3,30.3-33,30.3-33"/>
		</defs>
		<use xlink:href="#XMLID_84_"  style="overflow:visible;fill:#996000;"/>
		<clipPath id="XMLID_00000090259388298452560230000015838947078331268235_">
			<use xlink:href="#XMLID_84_"  style="overflow:visible;"/>
		</clipPath>
		<path style="opacity:0.41;clip-path:url(#XMLID_00000090259388298452560230000015838947078331268235_);fill:#8E5400;" d="
			M345.4,65.6h-9.5c0.5,8.4-1,30-30.7,29.7c-2.3,0-4.4-0.2-6.4-0.5c4.1,2.3,9.4,3.8,16.3,3.8C352,98.9,345.4,65.6,345.4,65.6z"/>
		<path style="opacity:0.66;clip-path:url(#XMLID_00000090259388298452560230000015838947078331268235_);fill:#8E5400;" d="
			M348.4,64.6l-9.5,0.8c1.3,8.3,1.6,29.9-28.1,32.2c-2.3,0.2-4.4,0.2-6.4,0c4.3,1.9,9.7,3,16.5,2.4
			C357.9,97.2,348.4,64.6,348.4,64.6z"/>
	</g>
	<g>
		<defs>
			<path id="XMLID_33_" d="M345.4,65.6c0,3.8-13.4,6.9-30,6.9c-16.6,0-30-3.1-30-6.9s13.4-6.9,30-6.9
				C332,58.7,345.4,61.8,345.4,65.6z"/>
		</defs>
		<use xlink:href="#XMLID_33_"  style="overflow:visible;fill:#7A4800;"/>
		<clipPath id="XMLID_00000011749195078874037000000013305489994561565882_">
			<use xlink:href="#XMLID_33_"  style="overflow:visible;"/>
		</clipPath>
		<path style="opacity:5.000000e-02;clip-path:url(#XMLID_00000011749195078874037000000013305489994561565882_);" d="M315.4,58.7
			c-15.8,0-28.8,2.8-29.9,6.4c5.1-2.1,15-3.6,26.3-3.6c16.6,0,30,3.1,30,6.9c0,0.2,0,0.3-0.1,0.5c2.4-1,3.7-2.1,3.7-3.3
			C345.4,61.8,332,58.7,315.4,58.7z"/>
		<g style="clip-path:url(#XMLID_00000011749195078874037000000013305489994561565882_);">
			<defs>
				<path id="XMLID_83_" d="M345.4,71.2c0,3.8-13.4,6.9-30,6.9c-16.6,0-30-3.1-30-6.9c0-3.8,13.4-6.9,30-6.9
					C332,64.3,345.4,67.4,345.4,71.2z"/>
			</defs>
			<use xlink:href="#XMLID_83_"  style="overflow:visible;fill:#BBD700;"/>
			<clipPath id="XMLID_00000029004698554826608550000005445771409952768953_">
				<use xlink:href="#XMLID_83_"  style="overflow:visible;"/>
			</clipPath>
			<g style="clip-path:url(#XMLID_00000029004698554826608550000005445771409952768953_);">
				<defs>
					<path id="XMLID_102_" d="M401.5-24.3c0,0,9.8,11.1,27.3,10.6c17.6-0.6,19.1-8.5,19.1-8.5s-1-7.3-4.9-8.6s-1.8-6.2-6.8-7.4
						c-2.4-0.6-4.6-6-8.8-6.8c-4.2-0.8-5.3,3.7-9.1,4.7c-3.8,1-4.3,5-6.6,5.6c-2.3,0.6-3.6,6-6.7,6.3
						C402-28.2,401.5-24.3,401.5-24.3z"/>
				</defs>
				<use xlink:href="#XMLID_102_"  style="overflow:visible;fill:#BBD700;"/>
				<clipPath id="XMLID_00000079444871140333838340000005419980117651272863_">
					<use xlink:href="#XMLID_102_"  style="overflow:visible;"/>
				</clipPath>
				<path style="opacity:5.000000e-02;clip-path:url(#XMLID_00000079444871140333838340000005419980117651272863_);" d="M422.4-49.2
					c0,0,9.3,10.4,8.4,16.8c-0.9,6.4,5.7,5.1,6.6,9.7c1,4.6,3.4,13.7,3.4,13.7l11.8-12.2C452.6-21.2,434.3-52.4,422.4-49.2z"/>
				<path style="opacity:5.000000e-02;clip-path:url(#XMLID_00000079444871140333838340000005419980117651272863_);" d="M423.7-48.3
					c0,0,10.6,9.1,10.5,15.6c-0.1,6.5,6.3,4.4,7.8,8.8c1.5,4.4,5.1,13.2,5.1,13.2l10.1-13.7C457.3-24.5,435.2-53.1,423.7-48.3z"/>
				<path style="opacity:0.3;clip-path:url(#XMLID_00000079444871140333838340000005419980117651272863_);fill:#FFFFFF;" d="
					M410.6-24.8c0,0.7-0.6,1.2-1.3,1.2c-0.7,0-1.2-0.6-1.2-1.3s0.6-1.2,1.3-1.2C410.2-26.1,410.7-25.5,410.6-24.8z"/>
				<path style="opacity:0.3;clip-path:url(#XMLID_00000079444871140333838340000005419980117651272863_);fill:#FFFFFF;" d="
					M418.1-28.8c0.6,1.1,0,0.6-0.8,1.5c-0.8,0.9-1.7,1.9-2.6,1c-0.9-0.9-1-2.3-0.2-3.2C415.4-30.4,416.8-31.2,418.1-28.8z"/>
				<path style="opacity:0.3;clip-path:url(#XMLID_00000079444871140333838340000005419980117651272863_);fill:#FFFFFF;" d="
					M415.9-22.3c0,0.7-0.6,1.2-1.3,1.2c-0.7,0-1.2-0.6-1.2-1.3c0-0.7,0.6-1.2,1.3-1.2C415.4-23.6,416-23,415.9-22.3z"/>
				<path style="opacity:0.3;clip-path:url(#XMLID_00000079444871140333838340000005419980117651272863_);fill:#FFFFFF;" d="
					M440.9-6.9c0,0.3-0.3,0.6-0.7,0.6c-0.3,0-0.6-0.3-0.6-0.7c0-0.3,0.3-0.6,0.7-0.6C440.7-7.5,441-7.2,440.9-6.9z"/>
				<path style="opacity:0.3;clip-path:url(#XMLID_00000079444871140333838340000005419980117651272863_);fill:#FFFFFF;" d="
					M411.7-29c0,0.3-0.3,0.6-0.7,0.6c-0.3,0-0.6-0.3-0.6-0.7c0-0.3,0.3-0.6,0.7-0.6C411.4-29.7,411.7-29.4,411.7-29z"/>
				<path style="opacity:0.3;clip-path:url(#XMLID_00000079444871140333838340000005419980117651272863_);fill:#FFFFFF;" d="
					M420.2-20.1c0,0.7-0.6,1.2-1.3,1.2c-0.7,0-1.2-0.6-1.2-1.3c0-0.7,0.6-1.2,1.3-1.2C419.7-21.4,420.3-20.8,420.2-20.1z"/>
				<path style="opacity:0.3;clip-path:url(#XMLID_00000079444871140333838340000005419980117651272863_);fill:#FFFFFF;" d="
					M419.6-24.5c0,0.3-0.3,0.6-0.7,0.6c-0.3,0-0.6-0.3-0.6-0.7c0-0.3,0.3-0.6,0.7-0.6C419.3-25.2,419.6-24.9,419.6-24.5z"/>
			</g>
		</g>
		
			<path id="XMLID_82_" style="opacity:0.12;clip-path:url(#XMLID_00000011749195078874037000000013305489994561565882_);fill:#FFFFFF;" d="
			M348.9,72.7c0,3.8-13.4,6.9-30,6.9c-16.6,0-30-3.1-30-6.9c0-3.8,13.4-6.9,30-6.9C335.5,65.8,348.9,68.9,348.9,72.7z"/>
		
			<path id="XMLID_86_" style="opacity:0.12;clip-path:url(#XMLID_00000011749195078874037000000013305489994561565882_);fill:#FFFFFF;" d="
			M353.2,75.2c0,3.8-13.4,6.9-30,6.9c-16.6,0-30-3.1-30-6.9c0-3.8,13.4-6.9,30-6.9C339.7,68.3,353.2,71.4,353.2,75.2z"/>
	</g>
	<g>
		<g>
			<g>
				<defs>
					<path id="XMLID_94_" d="M343.5,48c0.1-0.1,0.2-0.2,0.4-0.1c0.2,0.1,0.2,0.3,0.2,0.4c-0.3,0.6-6.4,15.6-8.5,18.6
						c-0.7,1.1-1.5,1.6-2.4,1.7c-1,0.1-1.7-0.5-1.7-0.5c-0.1-0.1-0.1-0.3,0-0.4c0.1-0.1,0.3-0.1,0.4,0c0,0,0.5,0.4,1.2,0.3
						c0.7-0.1,1.3-0.6,1.9-1.5C337,63.6,343.4,48.2,343.5,48C343.5,48,343.5,48,343.5,48z"/>
				</defs>
				<use xlink:href="#XMLID_94_"  style="overflow:visible;fill:#4A2C04;"/>
				<clipPath id="XMLID_00000038395858879902731690000012439896338941788064_">
					<use xlink:href="#XMLID_94_"  style="overflow:visible;"/>
				</clipPath>
				<path style="clip-path:url(#XMLID_00000038395858879902731690000012439896338941788064_);fill:#3B2205;" d="M331.6,68.1
					c-0.1,0-0.1-0.1-0.1-0.2c0.2,0.1,0.8,0.5,1.6,0.4c0.8-0.1,1.5-0.6,2.1-1.5c0.1-0.1,0.1-0.2,0.2-0.3c2-3,8.1-18,8.3-18.6
					c0-0.1,0-0.1,0-0.2c0.1,0.1,0.2,0.2,0.1,0.4c-0.3,0.6-6.3,15.6-8.3,18.6c-0.1,0.1-0.1,0.2-0.2,0.3c-0.7,0.9-1.4,1.4-2.1,1.5
					C332.3,68.7,331.7,68.1,331.6,68.1z"/>
			</g>
		</g>
		<g>
			<g>
				<defs>
					<path id="XMLID_93_" d="M326.8,64.8C326.8,64.8,326.9,64.8,326.8,64.8c0.2-0.2,0.4-0.2,0.5,0c0,0,0.5,0.5,1.2,0.5
						c0.7,0,1.3-0.4,2-1.3c2.3-2.7,10.2-17.3,10.2-17.5c0.1-0.2,0.3-0.2,0.4-0.1c0.2,0.1,0.2,0.3,0.1,0.4c-0.3,0.6-8,14.9-10.3,17.6
						c-0.8,1-1.7,1.5-2.5,1.5c-1,0-1.6-0.6-1.6-0.7C326.8,65.1,326.7,64.9,326.8,64.8z"/>
				</defs>
				<use xlink:href="#XMLID_93_"  style="overflow:visible;fill:#4A2C04;"/>
				<clipPath id="XMLID_00000136413927570335400440000002149958416447040397_">
					<use xlink:href="#XMLID_93_"  style="overflow:visible;"/>
				</clipPath>
				<path style="clip-path:url(#XMLID_00000136413927570335400440000002149958416447040397_);fill:#3B2205;" d="M326.9,65.2
					c0-0.1-0.1-0.1-0.1-0.2c0.2,0.2,0.7,0.6,1.6,0.6c0.8,0,1.5-0.4,2.3-1.2c0.1-0.1,0.2-0.2,0.2-0.3c2.3-2.8,9.9-17,10.2-17.6
					c0-0.1,0-0.1,0-0.2c0.1,0.1,0.2,0.3,0.1,0.4c-0.3,0.6-7.9,14.9-10.2,17.6c-0.1,0.1-0.2,0.2-0.2,0.3c-0.7,0.8-1.5,1.2-2.3,1.2
					C327.5,65.9,326.9,65.3,326.9,65.2z"/>
			</g>
		</g>
		<g>
			<g>
				<defs>
					<path id="XMLID_92_" d="M340.2,45.7c0.1-0.1,0.3-0.2,0.4-0.1c0.1,0.1,0.2,0.3,0.1,0.4c-0.4,0.6-9.5,14.5-12.1,17.2
						c-0.4,0.4-0.9,0.8-1.3,1c-0.2,0.1-0.4,0-0.4-0.1c-0.1-0.2,0-0.4,0.1-0.4c0.4-0.2,0.7-0.5,1.1-0.9
						C330.7,60.2,340.1,45.8,340.2,45.7C340.2,45.7,340.2,45.7,340.2,45.7z"/>
				</defs>
				<use xlink:href="#XMLID_92_"  style="overflow:visible;fill:#4A2C04;"/>
				<clipPath id="XMLID_00000176741769606929692830000013694211944801495706_">
					<use xlink:href="#XMLID_92_"  style="overflow:visible;"/>
				</clipPath>
				<path style="clip-path:url(#XMLID_00000176741769606929692830000013694211944801495706_);fill:#3B2205;" d="M340.6,45.9
					c-0.4,0.6-9.5,14.5-12.1,17.2c-0.4,0.4-0.9,0.8-1.3,1c-0.1,0-0.1,0-0.2,0c0,0,0,0,0,0c0.1,0.2,0.3,0.2,0.4,0.1
					c0.4-0.2,0.9-0.6,1.3-1c2.6-2.6,11.7-16.6,12.1-17.2c0.1-0.1,0.1-0.3-0.1-0.4c0,0-0.1,0-0.1,0C340.6,45.7,340.6,45.8,340.6,45.9
					z"/>
			</g>
		</g>
		<g>
			<g>
				<defs>
					<path id="XMLID_91_" d="M320.3,55.6c0.1-0.1,0.1-0.2,0.2-0.3c2.4-2.7,15.4-12.3,16-12.7c0.1-0.1,0.3-0.1,0.4,0.1
						c0.1,0.1,0.1,0.3-0.1,0.4c-0.1,0.1-13.5,10-15.9,12.6c-0.7,0.8-1,1.5-1,2.2c0.1,0.7,0.6,1.1,0.6,1.1c0.1,0.1,0.2,0.3,0.1,0.4
						c-0.1,0.1-0.3,0.2-0.4,0.1c0,0-0.8-0.5-0.9-1.5C319.3,57.2,319.6,56.4,320.3,55.6z"/>
				</defs>
				<use xlink:href="#XMLID_91_"  style="overflow:visible;fill:#4A2C04;"/>
				<clipPath id="XMLID_00000129894180617568825950000018007522178493408956_">
					<use xlink:href="#XMLID_91_"  style="overflow:visible;"/>
				</clipPath>
				<path style="clip-path:url(#XMLID_00000129894180617568825950000018007522178493408956_);fill:#3B2205;" d="M320.3,59.5
					c0.1,0,0.1,0.1,0.2,0c-0.2-0.1-0.7-0.6-0.8-1.5c-0.1-0.8,0.2-1.6,0.9-2.4c0.1-0.1,0.1-0.2,0.2-0.3c2.4-2.7,15.4-12.3,16-12.7
					c0,0,0.1,0,0.2-0.1c-0.1-0.1-0.3-0.1-0.4,0c-0.6,0.4-13.6,10-16,12.7c-0.1,0.1-0.2,0.2-0.2,0.3c-0.7,0.9-1,1.7-0.9,2.4
					C319.6,59,320.3,59.5,320.3,59.5z"/>
			</g>
		</g>
		<g>
			<g>
				<defs>
					<path id="XMLID_90_" d="M324.1,58.6c2.6-3.4,13.4-13.9,13.9-14.4c0.1-0.1,0.3-0.1,0.4,0c0.1,0.1,0.1,0.3,0,0.4
						c-0.1,0.1-12,11.7-14,14.6c-0.6,0.9-0.8,1.7-0.7,2.3c0.2,0.7,0.7,1,0.8,1c0.2,0.1,0.2,0.3,0.1,0.4c-0.1,0.2-0.3,0.2-0.4,0.1
						c0,0-0.8-0.4-1.1-1.4c-0.2-0.8,0-1.8,0.7-2.8C324,58.9,324,58.8,324.1,58.6z"/>
				</defs>
				<use xlink:href="#XMLID_90_"  style="overflow:visible;fill:#4A2C04;"/>
				<clipPath id="XMLID_00000081635221930198745880000002429754267931614851_">
					<use xlink:href="#XMLID_90_"  style="overflow:visible;"/>
				</clipPath>
				<path style="clip-path:url(#XMLID_00000081635221930198745880000002429754267931614851_);fill:#3B2205;" d="M324.2,63.2
					c0.1,0,0.1,0,0.2,0c-0.2-0.1-0.8-0.5-1-1.3c-0.2-0.7,0-1.6,0.5-2.5c0.1-0.1,0.1-0.2,0.2-0.3c2-3,13.5-14.3,14-14.8
					c0,0,0.1-0.1,0.1-0.1c-0.1-0.1-0.3-0.1-0.4,0c-0.5,0.5-12,11.8-14,14.8c-0.1,0.1-0.1,0.2-0.2,0.3c-0.6,0.9-0.8,1.8-0.5,2.5
					C323.4,62.8,324.2,63.2,324.2,63.2z"/>
			</g>
		</g>
		<g>
			<g>
				<defs>
					<path id="XMLID_89_" d="M327.6,58.5c3.6-4.8,11.1-13.4,11.5-13.9c0.1-0.1,0.3-0.1,0.5,0c0.1,0.1,0.1,0.3,0,0.5
						c-0.1,0.1-11.3,13.1-13.1,16.2c-0.3,0.5-0.5,1-0.6,1.4c0,0.2-0.2,0.3-0.4,0.3c-0.2,0-0.3-0.2-0.3-0.4c0.1-0.5,0.3-1.1,0.6-1.6
						C326.3,60.4,326.9,59.5,327.6,58.5z"/>
				</defs>
				<use xlink:href="#XMLID_89_"  style="overflow:visible;fill:#4A2C04;"/>
				<clipPath id="XMLID_00000078004939390338072800000000049776994101590665_">
					<use xlink:href="#XMLID_89_"  style="overflow:visible;"/>
				</clipPath>
				<path style="clip-path:url(#XMLID_00000078004939390338072800000000049776994101590665_);fill:#3B2205;" d="M339.2,44.9
					c-0.5,0.5-11.4,13.1-13.2,16.3c-0.3,0.5-0.5,1-0.6,1.5c0,0.1,0,0.1,0,0.2c0,0,0,0,0,0c-0.2,0-0.3-0.2-0.2-0.4
					c0.1-0.5,0.3-1,0.6-1.5c1.8-3.2,12.7-15.8,13.2-16.3c0.1-0.1,0.3-0.1,0.5,0c0,0,0.1,0.1,0.1,0.1
					C339.4,44.8,339.3,44.8,339.2,44.9z"/>
			</g>
		</g>
		<g>
			<g>
				<defs>
					<path id="XMLID_88_" d="M322.1,58.2c0.1-0.1,0.1-0.2,0.2-0.3c2.1-2.8,13.4-13.5,13.9-13.9c0.1-0.1,0.3-0.1,0.4,0
						c0.1,0.1,0.1,0.3-0.1,0.4c-0.1,0.1-11.8,11.1-13.8,13.8c-0.6,0.8-0.9,1.6-0.8,2.2c0.1,0.6,0.5,0.9,0.6,0.9
						c0.1,0.1,0.2,0.2,0.1,0.4c-0.1,0.1-0.3,0.2-0.4,0.1c0,0-0.7-0.4-0.8-1.3C321.2,59.9,321.5,59.1,322.1,58.2z"/>
				</defs>
				<use xlink:href="#XMLID_88_"  style="overflow:visible;fill:#4A2C04;"/>
				<clipPath id="XMLID_00000023269022259108957490000004643218911386110124_">
					<use xlink:href="#XMLID_88_"  style="overflow:visible;"/>
				</clipPath>
				<path style="clip-path:url(#XMLID_00000023269022259108957490000004643218911386110124_);fill:#3B2205;" d="M322.1,61.9
					c0.1,0,0.1,0,0.2,0c-0.2-0.1-0.6-0.5-0.7-1.2c-0.1-0.7,0.2-1.5,0.8-2.4c0.1-0.1,0.1-0.2,0.2-0.3c2.1-2.8,13.4-13.5,13.9-13.9
					c0,0,0.1-0.1,0.1-0.1c-0.1-0.1-0.3-0.1-0.4,0c-0.5,0.5-11.9,11.1-13.9,13.9c-0.1,0.1-0.1,0.2-0.2,0.3c-0.6,0.9-0.9,1.7-0.8,2.4
					C321.4,61.5,322.1,61.9,322.1,61.9z"/>
			</g>
		</g>
		<g>
			<g>
				<defs>
					<path id="XMLID_95_" d="M328.3,66.4C328.3,66.4,328.3,66.3,328.3,66.4c0.2-0.2,0.4-0.2,0.5,0c0,0,0.5,0.5,1.2,0.5
						c0.7,0,1.3-0.4,2-1.3c2.3-2.7,10.2-17.3,10.2-17.5c0.1-0.2,0.3-0.2,0.4-0.1c0.2,0.1,0.2,0.3,0.1,0.4c-0.3,0.6-8,14.9-10.3,17.6
						c-0.8,1-1.7,1.5-2.5,1.5c-1,0-1.6-0.6-1.6-0.7C328.2,66.7,328.2,66.5,328.3,66.4z"/>
				</defs>
				<use xlink:href="#XMLID_95_"  style="overflow:visible;fill:#4A2C04;"/>
				<clipPath id="XMLID_00000071560862381760613350000013763728286678480822_">
					<use xlink:href="#XMLID_95_"  style="overflow:visible;"/>
				</clipPath>
				<path style="clip-path:url(#XMLID_00000071560862381760613350000013763728286678480822_);fill:#3B2205;" d="M328.3,66.8
					c0-0.1-0.1-0.1-0.1-0.2c0.2,0.2,0.7,0.6,1.6,0.6c0.8,0,1.5-0.4,2.3-1.2c0.1-0.1,0.2-0.2,0.2-0.3c2.3-2.8,9.9-17,10.2-17.6
					c0-0.1,0-0.1,0-0.2c0.1,0.1,0.2,0.3,0.1,0.4c-0.3,0.6-7.9,14.9-10.2,17.6c-0.1,0.1-0.2,0.2-0.2,0.3c-0.7,0.8-1.5,1.2-2.3,1.2
					C329,67.5,328.3,66.9,328.3,66.8z"/>
			</g>
		</g>
		<g>
			<defs>
				<path id="XMLID_87_" d="M344.2,52c0.3-0.4,0.4-0.9,0.3-1.4c0,0,0.1-0.1,0.1-0.1l6.4-8.5c1.7-2.2,1.2-5.4-1-7l-2.1-1.6
					c-2.2-1.7-5.4-1.2-7,1l-6.4,8.5c0,0,0,0,0,0.1c-0.5,0-1,0.3-1.3,0.7c-0.6,0.8-0.4,1.9,0.4,2.6l8.1,6.1
					C342.5,53,343.6,52.8,344.2,52z"/>
			</defs>
			<use xlink:href="#XMLID_87_"  style="overflow:visible;fill:#996000;"/>
			<clipPath id="XMLID_00000135681387781064851330000013661236943562098563_">
				<use xlink:href="#XMLID_87_"  style="overflow:visible;"/>
			</clipPath>
			<path style="opacity:6.000000e-02;clip-path:url(#XMLID_00000135681387781064851330000013661236943562098563_);" d="M348.5,23.6
				c0.6,1.2,6.4,13.1-9.5,28.2l5.5,4.8l18.2-20.3L348.5,23.6z"/>
			
				<line style="clip-path:url(#XMLID_00000135681387781064851330000013661236943562098563_);fill:none;stroke:#000000;stroke-miterlimit:10;" x1="333.5" y1="42.1" x2="345.6" y2="51.4"/>
		</g>
	</g>
	<path class="st41" d="M322.6,69.2c0,0,0.8-0.5,1.6-0.1c0.7,0.4,0.9,1.2,0,1.2C322.3,70.4,322.6,69.2,322.6,69.2z"/>
	<path class="st41" d="M325.3,70.7c0,0-0.4-1.7,0.5-1.1c0.6,0.3,0.9,0.9,0.6,1.1C326.1,70.9,325.3,70.7,325.3,70.7z"/>
	<path class="st41" d="M324.7,71.2c0,0.2-0.2,0.4-0.4,0.4c-0.2,0-0.4-0.2-0.4-0.4c0-0.2,0.2-0.4,0.4-0.4
		C324.5,70.8,324.7,71,324.7,71.2z"/>
	<circle class="st41" cx="325.1" cy="68.9" r="0.4"/>
	<circle class="st41" cx="321.7" cy="70.3" r="0.4"/>
	<g class="st16">
		<path class="st17" d="M291.1,72.5c3,5.4,5.8,10,9.7,14.8c0.7,0.9,0,2.3-1.1,2.1c-5.6-0.7-9.8-5.9-10.9-11.2
			c-0.3-1.5-1-6.8,1.5-6.3C290.7,71.9,291,72.2,291.1,72.5L291.1,72.5z"/>
	</g>
	<path class="st41" d="M303.2,68c0,0,0.5-0.8,1.3-0.8c0.8,0,1.4,0.6,0.6,1.1C303.5,69.2,303.2,68,303.2,68z"/>
	<path class="st41" d="M306.3,68c0,0-1.2-1.2-0.1-1.2c0.6,0,1.2,0.3,1.1,0.7S306.3,68,306.3,68z"/>
	<path class="st41" d="M305.5,68.7c0,0,0.8-0.5,1.6-0.1s0.9,1.2,0,1.2C305.2,69.9,305.5,68.7,305.5,68.7z"/>
	<path class="st41" d="M308.2,70.2c0,0-0.4-1.7,0.5-1.1c0.6,0.3,0.9,0.9,0.6,1.1C309.1,70.5,308.2,70.2,308.2,70.2z"/>
	<path class="st41" d="M307.6,70.7c0,0.2-0.2,0.4-0.4,0.4c-0.2,0-0.4-0.2-0.4-0.4c0-0.2,0.2-0.4,0.4-0.4
		C307.5,70.4,307.6,70.5,307.6,70.7z"/>
	<circle class="st41" cx="308" cy="68.4" r="0.4"/>
	<circle class="st41" cx="304.5" cy="69.6" r="0.4"/>
	<path class="st41" d="M303.2,69.1c0,0.2-0.2,0.4-0.4,0.4c-0.2,0-0.4-0.2-0.4-0.4s0.2-0.4,0.4-0.4C303.1,68.8,303.2,68.9,303.2,69.1
		z"/>
	<g>
		<ellipse class="st9" cx="463.2" cy="91.1" rx="31.8" ry="7"/>
		<path class="st10" d="M445.7,84.7c0,0,4.3,2.3,5.7,3.9c1.2,1.3,2.6,2.4,4.4,2.7c3,0.6,7.8,1.1,13.4,0.1c2-0.4,3.9-1.4,5-3.2
			c0.4-0.6,1.8-2.1,3.1-2.5"/>
		<g>
			<g>
				<defs>
					<path id="XMLID_101_" d="M492.1,80.6c-1.8,0-3.9-0.4-6.3-1.4c-0.8-0.3-1.1-1.2-0.8-2c0.3-0.8,1.2-1.1,2-0.8
						c5.2,2.1,9.4,1.2,11.9-2.6c2.5-3.8,2.6-9.4,0.1-11.8c-1.1-1.1-2.1-1.6-3.2-1.4c-2,0.3-3.7,2.8-4.2,3.6c-0.4,0.7-1.3,1-2,0.6
						c-0.7-0.4-1-1.3-0.6-2c0.3-0.5,2.6-4.6,6.4-5.2c2-0.3,3.9,0.5,5.7,2.3c3.5,3.5,3.6,10.6,0.2,15.6
						C500.2,77.3,497.3,80.6,492.1,80.6z"/>
				</defs>
				<use xlink:href="#XMLID_101_"  style="overflow:visible;fill:#996000;"/>
				<clipPath id="XMLID_00000074433731727479691060000011855355816231186314_">
					<use xlink:href="#XMLID_101_"  style="overflow:visible;"/>
				</clipPath>
				<g style="opacity:0.27;clip-path:url(#XMLID_00000074433731727479691060000011855355816231186314_);">
					<path class="st12" d="M495.5,59.7c-2,0.3-4.7,2.7-5.1,3.6c-0.4,0.6-1.1,0.9-1.8,0.7c0,0.5,0.3,1,0.8,1.3
						c0.7,0.4,1.7,0.1,2.1-0.6c0.5-0.9,2.3-3.4,4.3-3.7c1-0.1,2.3,2,3.4,3c-0.2-0.5,0.8-0.2,0.5-1.5
						C499.1,60.8,497.5,59.5,495.5,59.7z"/>
					<path class="st12" d="M501.8,60.1c2.4,3.8,2.1,10-0.9,14.4c-1.2,1.8-4.1,5.1-9.4,5.1c-1.8,0-3.9-0.4-6.2-1.3
						c0,0.6,0.4,1.1,0.9,1.3c2.4,1,4.5,1.4,6.4,1.4c5.3,0,8.3-3.3,9.4-5.1C505.4,70.9,505.3,63.6,501.8,60.1z"/>
				</g>
			</g>
		</g>
		<g>
			<g>
				<defs>
					<circle id="XMLID_100_" cx="463.1" cy="-27.8" r="13.7"/>
				</defs>
				<use xlink:href="#XMLID_100_"  style="overflow:visible;fill:#BBD500;"/>
				<clipPath id="XMLID_00000000180865259521062550000000118313397372777151_">
					<use xlink:href="#XMLID_100_"  style="overflow:visible;"/>
				</clipPath>
				<path style="opacity:2.000000e-02;clip-path:url(#XMLID_00000000180865259521062550000000118313397372777151_);" d="M468.8-40.2
					c1.3,2.1,2,4.5,2,7.1c0,7.6-6.1,13.7-13.7,13.7c-2,0-3.9-0.5-5.7-1.2c2.4,3.9,6.7,6.6,11.7,6.6c7.6,0,13.7-6.1,13.7-13.7
					C476.8-33.3,473.5-38.1,468.8-40.2z"/>
			</g>
			<text transform="matrix(1 0 0 1 456.4885 -22.5187)" class="st17" style="font-family:'TrashHand'; font-size:24.4902px;">4</text>
		</g>
		<text transform="matrix(1 0 0 1 419.6223 3.7019)" style="font-family:'Montserrat-Regular'; font-size:10px;">Enjoy your matcha!</text>
		<g>
			<defs>
				<path id="XMLID_99_" d="M432.2,55.5c0,0-3.3,32.8,29.7,33c36.9,0.3,30.3-33,30.3-33"/>
			</defs>
			<use xlink:href="#XMLID_99_"  style="overflow:visible;fill:#996000;"/>
			<clipPath id="XMLID_00000144327364935276021190000016286500056549526670_">
				<use xlink:href="#XMLID_99_"  style="overflow:visible;"/>
			</clipPath>
			<path style="opacity:0.41;clip-path:url(#XMLID_00000144327364935276021190000016286500056549526670_);fill:#8E5400;" d="
				M492.3,55.5h-9.5c0.5,8.4-1,30-30.7,29.7c-2.3,0-4.4-0.2-6.4-0.5c4.1,2.3,9.4,3.8,16.3,3.8C498.9,88.8,492.3,55.5,492.3,55.5z"/>
			<path style="opacity:0.66;clip-path:url(#XMLID_00000144327364935276021190000016286500056549526670_);fill:#8E5400;" d="
				M495.3,54.4l-9.5,0.8c1.3,8.3,1.6,29.9-28.1,32.2c-2.3,0.2-4.4,0.2-6.4,0c4.3,1.9,9.7,3,16.5,2.4
				C504.7,87.1,495.3,54.4,495.3,54.4z"/>
		</g>
		<g>
			<defs>
				<path id="XMLID_98_" d="M492.3,55.5c0,3.8-13.4,6.9-30,6.9c-16.6,0-30-3.1-30-6.9s13.4-6.9,30-6.9
					C478.8,48.5,492.3,51.6,492.3,55.5z"/>
			</defs>
			<use xlink:href="#XMLID_98_"  style="overflow:visible;fill:#7A4800;"/>
			<clipPath id="XMLID_00000008841581903111791070000005826884987691512971_">
				<use xlink:href="#XMLID_98_"  style="overflow:visible;"/>
			</clipPath>
			<path style="opacity:5.000000e-02;clip-path:url(#XMLID_00000008841581903111791070000005826884987691512971_);" d="M463,48.5
				c-15.8,0.4-28.7,3.5-29.8,7.1c5.1-2.3,14.9-3.9,26.2-4.2c16.6-0.4,30.1,2.4,30.2,6.2c0,0.2,0,0.3-0.1,0.5c2.3-1,3.6-2.2,3.6-3.4
				C493.1,50.9,479.6,48.1,463,48.5z"/>
			<g style="clip-path:url(#XMLID_00000008841581903111791070000005826884987691512971_);">
				<defs>
					<path id="XMLID_97_" d="M491.6,57.8c0.1,3.8-13.3,7.2-29.9,7.6c-16.6,0.4-30.1-2.4-30.2-6.2c-0.1-3.8,13.3-7.2,29.9-7.6
						C478,51.3,491.5,54,491.6,57.8z"/>
				</defs>
				<use xlink:href="#XMLID_97_"  style="overflow:visible;fill:#BBD700;"/>
				<clipPath id="XMLID_00000042711402658946076390000007329217840914890399_">
					<use xlink:href="#XMLID_97_"  style="overflow:visible;"/>
				</clipPath>
				<path style="opacity:0.33;clip-path:url(#XMLID_00000042711402658946076390000007329217840914890399_);fill:#FFFFFF;" d="
					M440.6,59.1c0.2,0.3-0.1,0.5-0.3,0.7c-0.2,0.2-0.5,0.2-0.8,0c-0.2-0.2-0.3-0.5-0.1-0.7C439.6,58.9,440.2,58.6,440.6,59.1z"/>
				<path style="opacity:0.33;clip-path:url(#XMLID_00000042711402658946076390000007329217840914890399_);fill:#FFFFFF;" d="
					M443.8,61.8c0.2,0.3-0.1,0.5-0.3,0.7c-0.2,0.2-0.5,0.2-0.8,0c-0.2-0.2-0.3-0.5-0.1-0.7C442.9,61.6,443.5,61.2,443.8,61.8z"/>
				<path style="opacity:0.33;clip-path:url(#XMLID_00000042711402658946076390000007329217840914890399_);fill:#FFFFFF;" d="
					M448,58.5c0,0.2-0.1,0.3-0.3,0.3s-0.3-0.1-0.3-0.3c0-0.2,0.1-0.3,0.3-0.3S448,58.3,448,58.5z"/>
				<path style="opacity:0.33;clip-path:url(#XMLID_00000042711402658946076390000007329217840914890399_);fill:#FFFFFF;" d="
					M451.5,59.7c0,0.2-0.1,0.3-0.3,0.3s-0.3-0.1-0.3-0.3c0-0.2,0.1-0.3,0.3-0.3S451.5,59.6,451.5,59.7z"/>
				<path style="opacity:0.33;clip-path:url(#XMLID_00000042711402658946076390000007329217840914890399_);fill:#FFFFFF;" d="
					M459,61c0,0.2-0.1,0.3-0.3,0.3c-0.2,0-0.3-0.1-0.3-0.3c0-0.2,0.1-0.3,0.3-0.3C458.8,60.7,459,60.8,459,61z"/>
				<path style="opacity:0.33;clip-path:url(#XMLID_00000042711402658946076390000007329217840914890399_);fill:#FFFFFF;" d="
					M458.1,64.3c0,0.2-0.1,0.3-0.3,0.3c-0.2,0-0.3-0.1-0.3-0.3c0-0.2,0.1-0.3,0.3-0.3C457.9,64,458.1,64.2,458.1,64.3z"/>
				<path style="opacity:0.61;clip-path:url(#XMLID_00000042711402658946076390000007329217840914890399_);fill:#D7DF00;" d="
					M448.6,63.6c0,0.2-0.1,0.3-0.3,0.3c-0.2,0-0.3-0.1-0.3-0.3c0-0.2,0.1-0.3,0.3-0.3C448.5,63.3,448.6,63.4,448.6,63.6z"/>
				<path style="opacity:0.33;clip-path:url(#XMLID_00000042711402658946076390000007329217840914890399_);fill:#FFFFFF;" d="
					M453.6,58.3c0,0.2-0.1,0.3-0.3,0.3s-0.3-0.1-0.3-0.3c0-0.2,0.1-0.3,0.3-0.3S453.6,58.2,453.6,58.3z"/>
				<path style="opacity:0.33;clip-path:url(#XMLID_00000042711402658946076390000007329217840914890399_);fill:#FFFFFF;" d="
					M458.4,56.7c0,0.2-0.1,0.3-0.3,0.3c-0.2,0-0.3-0.1-0.3-0.3c0-0.2,0.1-0.3,0.3-0.3C458.3,56.4,458.4,56.5,458.4,56.7z"/>
				
					<circle style="opacity:0.3;clip-path:url(#XMLID_00000042711402658946076390000007329217840914890399_);fill:#FFFFFF;" cx="463.5" cy="55.2" r="0.3"/>
				<path style="opacity:0.33;clip-path:url(#XMLID_00000042711402658946076390000007329217840914890399_);fill:#FFFFFF;" d="
					M453.1,55.6c0,0.2-0.1,0.3-0.3,0.3s-0.3-0.1-0.3-0.3c0-0.2,0.1-0.3,0.3-0.3S453.1,55.4,453.1,55.6z"/>
				<path style="opacity:0.3;clip-path:url(#XMLID_00000042711402658946076390000007329217840914890399_);fill:#FFFFFF;" d="
					M463.8,57.5c0.2,0.3-0.1,0.5-0.3,0.7c-0.2,0.2-0.5,0.2-0.8,0c-0.2-0.2-0.3-0.5-0.1-0.7C462.8,57.3,463.4,56.9,463.8,57.5z"/>
				<path style="opacity:0.3;clip-path:url(#XMLID_00000042711402658946076390000007329217840914890399_);fill:#FFFFFF;" d="
					M470.6,59.6c0,0.2-0.1,0.3-0.3,0.3c-0.2,0-0.3-0.1-0.3-0.3c0-0.2,0.1-0.3,0.3-0.3C470.4,59.3,470.6,59.4,470.6,59.6z"/>
				<path style="opacity:0.3;clip-path:url(#XMLID_00000042711402658946076390000007329217840914890399_);fill:#FFFFFF;" d="
					M473.9,58.5c0.2,0.3,0,0.1-0.2,0.4c-0.2,0.2-0.4,0.5-0.6,0.3c-0.2-0.2-0.3-0.5-0.1-0.7C473.2,58.2,473.6,58,473.9,58.5z"/>
				<path style="opacity:0.33;clip-path:url(#XMLID_00000042711402658946076390000007329217840914890399_);fill:#FFFFFF;" d="
					M444.9,56.4c-0.1,0.3-0.1,0.1-0.4,0.1c-0.3,0-0.6,0.1-0.6-0.2c0-0.3,0.2-0.6,0.4-0.6C444.7,55.7,445.1,55.8,444.9,56.4z"/>
				<path style="opacity:0.3;clip-path:url(#XMLID_00000042711402658946076390000007329217840914890399_);fill:#FFFFFF;" d="
					M475.6,61.7c0,0.2-0.1,0.3-0.3,0.3c-0.2,0-0.3-0.1-0.3-0.3c0-0.2,0.1-0.3,0.3-0.3C475.5,61.4,475.6,61.5,475.6,61.7z"/>
				<path style="opacity:0.3;clip-path:url(#XMLID_00000042711402658946076390000007329217840914890399_);fill:#FFFFFF;" d="
					M472.7,55.7c0,0.1-0.1,0.2-0.2,0.2c-0.1,0-0.2-0.1-0.2-0.2c0-0.1,0.1-0.2,0.2-0.2C472.6,55.5,472.7,55.6,472.7,55.7z"/>
				
					<circle style="opacity:0.23;clip-path:url(#XMLID_00000042711402658946076390000007329217840914890399_);fill:#FFFFFF;" cx="467.5" cy="61.7" r="0.2"/>
				
					<circle style="opacity:0.33;clip-path:url(#XMLID_00000042711402658946076390000007329217840914890399_);fill:#FFFFFF;" cx="468.8" cy="55.9" r="0.3"/>
				<path style="opacity:0.33;clip-path:url(#XMLID_00000042711402658946076390000007329217840914890399_);fill:#FFFFFF;" d="
					M456,61.3c0.2,0.3-0.1,0.5-0.3,0.7c-0.2,0.2-0.5,0.2-0.8,0c-0.2-0.2-0.3-0.5-0.1-0.7C455,61.1,455.6,60.8,456,61.3z"/>
				<path style="opacity:0.33;clip-path:url(#XMLID_00000042711402658946076390000007329217840914890399_);fill:#FFFFFF;" d="
					M459.2,64c0.2,0.3-0.1,0.5-0.3,0.7c-0.2,0.2-0.5,0.2-0.8,0c-0.2-0.2-0.3-0.5-0.1-0.7C458.2,63.7,458.8,63.4,459.2,64z"/>
				<path style="opacity:0.33;clip-path:url(#XMLID_00000042711402658946076390000007329217840914890399_);fill:#FFFFFF;" d="
					M463.3,60.7c0,0.2-0.1,0.3-0.3,0.3s-0.3-0.1-0.3-0.3c0-0.2,0.1-0.3,0.3-0.3S463.3,60.5,463.3,60.7z"/>
				<path style="opacity:0.33;clip-path:url(#XMLID_00000042711402658946076390000007329217840914890399_);fill:#FFFFFF;" d="
					M466.9,61.9c0,0.2-0.1,0.3-0.3,0.3c-0.2,0-0.3-0.1-0.3-0.3c0-0.2,0.1-0.3,0.3-0.3C466.7,61.6,466.9,61.8,466.9,61.9z"/>
				<path style="opacity:0.33;clip-path:url(#XMLID_00000042711402658946076390000007329217840914890399_);fill:#FFFFFF;" d="
					M474.3,63.2c0,0.2-0.1,0.3-0.3,0.3c-0.2,0-0.3-0.1-0.3-0.3c0-0.2,0.1-0.3,0.3-0.3C474.2,62.9,474.3,63,474.3,63.2z"/>
				<path style="opacity:0.33;clip-path:url(#XMLID_00000042711402658946076390000007329217840914890399_);fill:#FFFFFF;" d="
					M473.4,66.5c0,0.2-0.1,0.3-0.3,0.3s-0.3-0.1-0.3-0.3c0-0.2,0.1-0.3,0.3-0.3S473.4,66.3,473.4,66.5z"/>
				<path style="opacity:0.61;clip-path:url(#XMLID_00000042711402658946076390000007329217840914890399_);fill:#D7DF00;" d="
					M464,65.7c0,0.2-0.1,0.3-0.3,0.3c-0.2,0-0.3-0.1-0.3-0.3c0-0.2,0.1-0.3,0.3-0.3C463.9,65.4,464,65.6,464,65.7z"/>
				<path style="opacity:0.33;clip-path:url(#XMLID_00000042711402658946076390000007329217840914890399_);fill:#FFFFFF;" d="
					M469,60.5c0,0.2-0.1,0.3-0.3,0.3c-0.2,0-0.3-0.1-0.3-0.3c0-0.2,0.1-0.3,0.3-0.3C468.9,60.2,469,60.3,469,60.5z"/>
				<path style="opacity:0.33;clip-path:url(#XMLID_00000042711402658946076390000007329217840914890399_);fill:#FFFFFF;" d="
					M473.8,58.9c0,0.2-0.1,0.3-0.3,0.3c-0.2,0-0.3-0.1-0.3-0.3c0-0.2,0.1-0.3,0.3-0.3C473.7,58.6,473.8,58.7,473.8,58.9z"/>
				
					<circle style="opacity:0.3;clip-path:url(#XMLID_00000042711402658946076390000007329217840914890399_);fill:#FFFFFF;" cx="478.9" cy="57.4" r="0.3"/>
				<path style="opacity:0.33;clip-path:url(#XMLID_00000042711402658946076390000007329217840914890399_);fill:#FFFFFF;" d="
					M468.5,57.7c0,0.2-0.1,0.3-0.3,0.3s-0.3-0.1-0.3-0.3c0-0.2,0.1-0.3,0.3-0.3S468.5,57.6,468.5,57.7z"/>
				<path style="opacity:0.3;clip-path:url(#XMLID_00000042711402658946076390000007329217840914890399_);fill:#FFFFFF;" d="
					M479.1,59.6c0.2,0.3-0.1,0.5-0.3,0.7c-0.2,0.2-0.5,0.2-0.8,0c-0.2-0.2-0.3-0.5-0.1-0.7C478.2,59.4,478.8,59.1,479.1,59.6z"/>
				
					<circle style="opacity:0.3;clip-path:url(#XMLID_00000042711402658946076390000007329217840914890399_);fill:#FFFFFF;" cx="485.6" cy="61.7" r="0.3"/>
				<path style="opacity:0.3;clip-path:url(#XMLID_00000042711402658946076390000007329217840914890399_);fill:#FFFFFF;" d="
					M489.3,60.7c0.2,0.3,0,0.1-0.2,0.4c-0.2,0.2-0.4,0.5-0.6,0.3c-0.2-0.2-0.3-0.5-0.1-0.7C488.6,60.4,488.9,60.1,489.3,60.7z"/>
				<path style="opacity:0.33;clip-path:url(#XMLID_00000042711402658946076390000007329217840914890399_);fill:#FFFFFF;" d="
					M460.3,58.6c-0.1,0.3-0.1,0.1-0.4,0.1c-0.3,0-0.6,0.1-0.6-0.2s0.2-0.6,0.4-0.6C460,57.9,460.4,57.9,460.3,58.6z"/>
				<path style="opacity:0.3;clip-path:url(#XMLID_00000042711402658946076390000007329217840914890399_);fill:#FFFFFF;" d="
					M491,63.9c0,0.2-0.1,0.3-0.3,0.3s-0.3-0.1-0.3-0.3c0-0.2,0.1-0.3,0.3-0.3S491,63.7,491,63.9z"/>
				<path style="opacity:0.3;clip-path:url(#XMLID_00000042711402658946076390000007329217840914890399_);fill:#FFFFFF;" d="
					M488,57.9c0,0.1-0.1,0.2-0.2,0.2c-0.1,0-0.2-0.1-0.2-0.2c0-0.1,0.1-0.2,0.2-0.2C488,57.7,488,57.8,488,57.9z"/>
				<path style="opacity:0.23;clip-path:url(#XMLID_00000042711402658946076390000007329217840914890399_);fill:#FFFFFF;" d="
					M483,63.9c0,0.1-0.1,0.2-0.2,0.2s-0.2-0.1-0.2-0.2c0-0.1,0.1-0.2,0.2-0.2S483,63.8,483,63.9z"/>
				<path style="opacity:0.33;clip-path:url(#XMLID_00000042711402658946076390000007329217840914890399_);fill:#FFFFFF;" d="
					M484.4,58.1c0,0.2-0.1,0.3-0.3,0.3s-0.3-0.1-0.3-0.3c0-0.2,0.1-0.3,0.3-0.3S484.4,57.9,484.4,58.1z"/>
			</g>
			
				<path id="XMLID_96_" style="opacity:0.12;clip-path:url(#XMLID_00000008841581903111791070000005826884987691512971_);fill:#FFFFFF;" d="
				M492.8,61.3c0.1,3.8-13.3,7.2-29.9,7.6c-16.6,0.4-30.1-2.4-30.2-6.2c-0.1-3.8,13.3-7.2,29.9-7.6
				C479.2,54.7,492.7,57.4,492.8,61.3z"/>
			
				<path id="XMLID_34_" style="opacity:0.12;clip-path:url(#XMLID_00000008841581903111791070000005826884987691512971_);fill:#FFFFFF;" d="
				M497.1,63.7c0.1,3.8-13.3,7.2-29.9,7.6c-16.6,0.4-30.1-2.4-30.2-6.2c-0.1-3.8,13.3-7.2,29.9-7.6C483.5,57.1,497,59.8,497.1,63.7z
				"/>
		</g>
		<g class="st16">
			<path class="st17" d="M438.4,62.9c0,0,0.2,0.3,0.5,0.8c0.3,0.4,0.6,1.1,1.1,1.8c0.8,1.5,1.9,3.4,3,5.2c0.3,0.4,0.6,0.9,0.9,1.3
				c0.3,0.4,0.6,0.8,0.9,1.2c0.3,0.4,0.6,0.8,0.8,1.2c0.3,0.4,0.5,0.7,0.8,1c0.3,0.3,0.5,0.6,0.7,0.9c0.2,0.3,0.4,0.5,0.6,0.7
				c0.3,0.4,0.5,0.7,0.5,0.7l0.1,0.1c0.4,0.6,0.2,1.4-0.4,1.8c-0.2,0.2-0.5,0.2-0.8,0.2c0,0-0.3,0-0.9-0.2c-0.3-0.1-0.7-0.1-1.1-0.3
				c-0.4-0.1-0.8-0.3-1.3-0.5c-0.5-0.2-0.9-0.5-1.5-0.8c-0.5-0.4-1-0.7-1.5-1.2c-0.5-0.5-1-0.9-1.4-1.5c-0.4-0.5-0.8-1.1-1.2-1.7
				c-1.5-2.4-2.2-5.1-2.3-7.1c0-0.5,0-1,0-1.4c0-0.4,0.1-0.8,0.1-1.1c0.1-0.6,0.2-0.9,0.2-0.9l0,0c0.2-0.7,0.9-1.1,1.6-0.9
				C438,62.4,438.3,62.6,438.4,62.9z"/>
		</g>
		<g>
			<defs>
				<path id="XMLID_103_" d="M487.8,48.5c0,0,4-3.4,4-5.8c0-1.3-1.1-2.4-2.4-2.4c-1,0-1.8,0.6-2.2,1.4c-0.4-0.9-1.2-1.4-2.2-1.4
					c-1.3,0-2.4,1.1-2.4,2.4c0.2,2.9,3.9,5.8,3.9,5.8S487.1,49.1,487.8,48.5z"/>
			</defs>
			<use xlink:href="#XMLID_103_"  style="overflow:visible;fill:#BBD700;"/>
			<clipPath id="XMLID_00000116222895994863679720000004070244822827226536_">
				<use xlink:href="#XMLID_103_"  style="overflow:visible;"/>
			</clipPath>
			<g style="opacity:3.000000e-02;clip-path:url(#XMLID_00000116222895994863679720000004070244822827226536_);">
				<path class="st54" d="M490.4,40.5c0.3,0.4,0.5,0.9,0.5,1.5c0,2.4-4,5.8-4,5.8c-0.3,0.3-0.5,0.3-0.7,0.3c0.3,0.3,0.5,0.4,0.5,0.4
					s0.6,0.7,1.2,0c0,0,4-3.4,4-5.8C491.9,41.7,491.3,40.8,490.4,40.5z"/>
			</g>
			<g style="opacity:0.19;clip-path:url(#XMLID_00000116222895994863679720000004070244822827226536_);">
				<path class="st17" d="M485.6,41.5c0,0-0.2,0.2-0.3,0.5c-0.1,0.1-0.1,0.3-0.2,0.4c0,0.1,0,0.1,0,0.2c0,0.1,0,0.1,0,0.2
					c0,0.1,0,0.1,0,0.2c0,0.1,0,0.2,0,0.3c0,0.2,0,0.4,0,0.6c0,0.4,0,0.7,0,0.7l0,0c0,0.2-0.2,0.3-0.4,0.3c-0.1,0-0.1,0-0.1,0
					c0,0-0.1,0-0.2-0.1c-0.1,0-0.1-0.1-0.2-0.2c-0.1-0.1-0.2-0.1-0.2-0.2c-0.3-0.4-0.6-1-0.6-1.8c0-0.2,0.1-0.4,0.1-0.6
					c0.1-0.2,0.2-0.4,0.3-0.5c0.2-0.3,0.5-0.5,0.8-0.6c0.3-0.1,0.5-0.1,0.6-0.1c0.2,0,0.3,0,0.2,0c0.2,0,0.3,0.1,0.4,0.2
					C485.8,41.3,485.7,41.5,485.6,41.5z"/>
			</g>
		</g>
		<g>
			<defs>
				<path id="XMLID_1_" d="M480.3,39.2c0,0,4.6-3.8,4.6-6.5c0-1.5-1.2-2.7-2.7-2.7c-1.1,0-2.1,0.7-2.5,1.6c-0.4-1-1.4-1.6-2.5-1.6
					c-1.5,0-2.7,1.2-2.7,2.7c0.3,3.3,4.5,6.5,4.5,6.5S479.5,40,480.3,39.2z"/>
			</defs>
			<use xlink:href="#XMLID_1_"  style="overflow:visible;fill:#BBD700;"/>
			<clipPath id="XMLID_00000139265518595654454190000001816099601278790072_">
				<use xlink:href="#XMLID_1_"  style="overflow:visible;"/>
			</clipPath>
			<g style="opacity:3.000000e-02;clip-path:url(#XMLID_00000139265518595654454190000001816099601278790072_);">
				<path class="st54" d="M483.2,30.3c0.4,0.5,0.6,1.1,0.6,1.7c0,2.7-4.6,6.5-4.6,6.5c-0.3,0.3-0.6,0.3-0.8,0.3
					c0.4,0.3,0.6,0.5,0.6,0.5s0.7,0.8,1.4,0c0,0,4.6-3.8,4.6-6.5C485,31.6,484.3,30.6,483.2,30.3z"/>
			</g>
			<g style="opacity:0.19;clip-path:url(#XMLID_00000139265518595654454190000001816099601278790072_);">
				<path class="st17" d="M477.8,31.4c0,0-0.2,0.3-0.4,0.6c-0.1,0.2-0.1,0.3-0.2,0.4c0,0.1,0,0.1-0.1,0.2c0,0.1,0,0.1,0,0.2
					c0,0.1,0,0.2,0,0.3c0,0.1,0,0.2,0,0.3c0,0.2,0,0.4,0,0.7c0,0.4,0,0.8,0,0.8l0,0c0,0.2-0.2,0.4-0.4,0.4c-0.1,0-0.1,0-0.2-0.1
					c0,0-0.1,0-0.2-0.1c-0.1,0-0.1-0.1-0.2-0.2c-0.1-0.1-0.2-0.1-0.3-0.3c-0.3-0.4-0.7-1.1-0.7-2c0-0.2,0.1-0.4,0.1-0.7
					c0.1-0.2,0.2-0.4,0.3-0.6c0.3-0.3,0.6-0.5,0.9-0.6c0.3-0.1,0.5-0.1,0.7-0.1c0.2,0,0.3,0.1,0.3,0.1c0.2,0,0.4,0.1,0.4,0.2
					C478.1,31.1,478,31.3,477.8,31.4z"/>
			</g>
		</g>
	</g>
	<ellipse class="st9" cx="52.5" cy="99.7" rx="31.8" ry="7"/>
	<path class="st10" d="M35,93.3c0,0,4.3,2.3,5.7,3.9c1.2,1.3,2.6,2.4,4.4,2.7c3,0.6,7.8,1.1,13.4,0.1c2-0.4,3.9-1.4,5-3.2
		c0.4-0.6,1.8-2.1,3.1-2.5"/>
	<g>
		<g>
			<defs>
				<path id="XMLID_00000109723038930650626350000017382878268394804652_" d="M81.4,89.2c-1.8,0-3.9-0.4-6.3-1.4
					c-0.8-0.3-1.1-1.2-0.8-2c0.3-0.8,1.2-1.1,2-0.8c5.2,2.1,9.4,1.2,11.9-2.6c2.5-3.8,2.6-9.4,0.1-11.8c-1.1-1.1-2.1-1.6-3.2-1.4
					c-2,0.3-3.7,2.8-4.2,3.6c-0.4,0.7-1.3,1-2,0.6c-0.7-0.4-1-1.3-0.6-2c0.3-0.5,2.6-4.6,6.4-5.2c2-0.3,3.9,0.5,5.7,2.3
					c3.5,3.5,3.6,10.6,0.2,15.6C89.5,86,86.6,89.2,81.4,89.2z"/>
			</defs>
			<use xlink:href="#XMLID_00000109723038930650626350000017382878268394804652_"  style="overflow:visible;fill:#996000;"/>
			<clipPath id="XMLID_00000000195140826437644690000007676507089131874444_">
				<use xlink:href="#XMLID_00000109723038930650626350000017382878268394804652_"  style="overflow:visible;"/>
			</clipPath>
			<g style="opacity:0.27;clip-path:url(#XMLID_00000000195140826437644690000007676507089131874444_);">
				<path class="st12" d="M84.8,68.4c-2,0.3-4.7,2.7-5.1,3.6c-0.4,0.6-1.1,0.9-1.8,0.7c0,0.5,0.3,1,0.8,1.3c0.7,0.4,1.7,0.1,2.1-0.6
					c0.5-0.9,2.3-3.4,4.3-3.7c1-0.1,2.3,2,3.4,3c-0.2-0.5,0.8-0.2,0.5-1.5C88.4,69.4,86.8,68.1,84.8,68.4z"/>
				<path class="st12" d="M91.1,68.7c2.4,3.8,2.1,10-0.9,14.4c-1.2,1.8-4.1,5.1-9.4,5.1c-1.8,0-3.9-0.4-6.2-1.3
					c0,0.6,0.4,1.1,0.9,1.3c2.4,1,4.5,1.4,6.4,1.4c5.3,0,8.3-3.3,9.4-5.1C94.6,79.5,94.6,72.3,91.1,68.7z"/>
			</g>
		</g>
	</g>
	<g>
		<g>
			<defs>
				<circle id="XMLID_00000120544671787735682210000005109466335235447950_" cx="169.3" cy="-145.4" r="13.7"/>
			</defs>
			<use xlink:href="#XMLID_00000120544671787735682210000005109466335235447950_"  style="overflow:visible;fill:#BBD500;"/>
			<clipPath id="XMLID_00000111914220181093086790000006077538952724449431_">
				<use xlink:href="#XMLID_00000120544671787735682210000005109466335235447950_"  style="overflow:visible;"/>
			</clipPath>
			<path style="opacity:2.000000e-02;clip-path:url(#XMLID_00000111914220181093086790000006077538952724449431_);" d="M175-157.8
				c1.3,2.1,2,4.5,2,7.1c0,7.6-6.1,13.7-13.7,13.7c-2,0-3.9-0.5-5.7-1.2c2.4,3.9,6.7,6.6,11.7,6.6c7.6,0,13.7-6.1,13.7-13.7
				C183-150.9,179.7-155.7,175-157.8z"/>
		</g>
		<text transform="matrix(1 0 0 1 162.6367 -140.1359)" class="st17" style="font-family:'TrashHand'; font-size:24.4902px;">4</text>
	</g>
	<text transform="matrix(1 0 0 1 125.7705 -113.9153)" style="font-family:'Montserrat-Regular'; font-size:10px;">Enjoy your matcha!</text>
	<g>
		<defs>
			<path id="XMLID_00000068660998781709299220000017491228421742457786_" d="M21.5,64.1c0,0-3.3,32.8,29.7,33
				c36.9,0.3,30.3-33,30.3-33"/>
		</defs>
		<use xlink:href="#XMLID_00000068660998781709299220000017491228421742457786_"  style="overflow:visible;fill:#996000;"/>
		<clipPath id="XMLID_00000183930851761993800480000018281818084684255360_">
			<use xlink:href="#XMLID_00000068660998781709299220000017491228421742457786_"  style="overflow:visible;"/>
		</clipPath>
		<path style="opacity:0.41;clip-path:url(#XMLID_00000183930851761993800480000018281818084684255360_);fill:#8E5400;" d="
			M81.6,64.1H72c0.5,8.4-1,30-30.7,29.7c-2.3,0-4.4-0.2-6.4-0.5c4.1,2.3,9.4,3.8,16.3,3.8C88.2,97.4,81.6,64.1,81.6,64.1z"/>
		<path style="opacity:0.66;clip-path:url(#XMLID_00000183930851761993800480000018281818084684255360_);fill:#8E5400;" d="
			M84.6,63.1l-9.5,0.8c1.3,8.3,1.6,29.9-28.1,32.2c-2.3,0.2-4.4,0.2-6.4,0c4.3,1.9,9.7,3,16.5,2.4C94,95.7,84.6,63.1,84.6,63.1z"/>
	</g>
	<g>
		<defs>
			<path id="XMLID_00000001641149244466129050000003539702031754454429_" d="M81.6,64.1c0,3.8-13.4,6.9-30,6.9
				c-16.6,0-30-3.1-30-6.9s13.4-6.9,30-6.9C68.1,57.2,81.6,60.3,81.6,64.1z"/>
		</defs>
		<use xlink:href="#XMLID_00000001641149244466129050000003539702031754454429_"  style="overflow:visible;fill:#7A4800;"/>
		<clipPath id="XMLID_00000123423819826433425620000018233916281391839667_">
			<use xlink:href="#XMLID_00000001641149244466129050000003539702031754454429_"  style="overflow:visible;"/>
		</clipPath>
		<path style="opacity:5.000000e-02;clip-path:url(#XMLID_00000123423819826433425620000018233916281391839667_);" d="M52.2,57.2
			c-15.8,0.4-28.7,3.5-29.8,7.1c5.1-2.3,14.9-3.9,26.2-4.2c16.6-0.4,30.1,2.4,30.2,6.2c0,0.2,0,0.3-0.1,0.5c2.3-1,3.6-2.2,3.6-3.4
			C82.3,59.6,68.8,56.8,52.2,57.2z"/>
		<g style="clip-path:url(#XMLID_00000123423819826433425620000018233916281391839667_);">
			<defs>
				<path id="XMLID_00000106837512304160253410000000578027131212173469_" d="M80.8,66.5c0.1,3.8-13.3,7.2-29.9,7.6
					c-16.6,0.4-30.1-2.4-30.2-6.2c-0.1-3.8,13.3-7.2,29.9-7.6C67.2,59.9,80.8,62.7,80.8,66.5z"/>
			</defs>
			<use xlink:href="#XMLID_00000106837512304160253410000000578027131212173469_"  style="overflow:visible;fill:#BBD700;"/>
			<clipPath id="XMLID_00000031170142135692527840000008226300635871374478_">
				<use xlink:href="#XMLID_00000106837512304160253410000000578027131212173469_"  style="overflow:visible;"/>
			</clipPath>
			<path style="opacity:0.33;clip-path:url(#XMLID_00000031170142135692527840000008226300635871374478_);fill:#FFFFFF;" d="
				M29.9,67.8c0.2,0.3-0.1,0.5-0.3,0.7c-0.2,0.2-0.5,0.2-0.8,0c-0.2-0.2-0.3-0.5-0.1-0.7C28.9,67.6,29.5,67.2,29.9,67.8z"/>
			<path style="opacity:0.33;clip-path:url(#XMLID_00000031170142135692527840000008226300635871374478_);fill:#FFFFFF;" d="
				M33.1,70.4c0.2,0.3-0.1,0.5-0.3,0.7c-0.2,0.2-0.5,0.2-0.8,0c-0.2-0.2-0.3-0.5-0.1-0.7C32.2,70.2,32.8,69.9,33.1,70.4z"/>
			<path style="opacity:0.33;clip-path:url(#XMLID_00000031170142135692527840000008226300635871374478_);fill:#FFFFFF;" d="
				M37.2,67.2c0,0.2-0.1,0.3-0.3,0.3c-0.2,0-0.3-0.1-0.3-0.3c0-0.2,0.1-0.3,0.3-0.3C37.1,66.8,37.2,67,37.2,67.2z"/>
			<path style="opacity:0.33;clip-path:url(#XMLID_00000031170142135692527840000008226300635871374478_);fill:#FFFFFF;" d="
				M40.8,68.4c0,0.2-0.1,0.3-0.3,0.3c-0.2,0-0.3-0.1-0.3-0.3c0-0.2,0.1-0.3,0.3-0.3C40.7,68.1,40.8,68.2,40.8,68.4z"/>
			<path style="opacity:0.33;clip-path:url(#XMLID_00000031170142135692527840000008226300635871374478_);fill:#FFFFFF;" d="
				M48.3,69.6c0,0.2-0.1,0.3-0.3,0.3c-0.2,0-0.3-0.1-0.3-0.3c0-0.2,0.1-0.3,0.3-0.3C48.1,69.3,48.3,69.5,48.3,69.6z"/>
			<path style="opacity:0.33;clip-path:url(#XMLID_00000031170142135692527840000008226300635871374478_);fill:#FFFFFF;" d="
				M47.4,73c0,0.2-0.1,0.3-0.3,0.3c-0.2,0-0.3-0.1-0.3-0.3c0-0.2,0.1-0.3,0.3-0.3C47.2,72.7,47.4,72.8,47.4,73z"/>
			<path style="opacity:0.61;clip-path:url(#XMLID_00000031170142135692527840000008226300635871374478_);fill:#D7DF00;" d="
				M37.9,72.2c0,0.2-0.1,0.3-0.3,0.3c-0.2,0-0.3-0.1-0.3-0.3c0-0.2,0.1-0.3,0.3-0.3C37.8,71.9,37.9,72,37.9,72.2z"/>
			<path style="opacity:0.33;clip-path:url(#XMLID_00000031170142135692527840000008226300635871374478_);fill:#FFFFFF;" d="
				M42.9,67c0,0.2-0.1,0.3-0.3,0.3c-0.2,0-0.3-0.1-0.3-0.3c0-0.2,0.1-0.3,0.3-0.3C42.8,66.7,42.9,66.8,42.9,67z"/>
			<path style="opacity:0.33;clip-path:url(#XMLID_00000031170142135692527840000008226300635871374478_);fill:#FFFFFF;" d="
				M47.7,65.4c0,0.2-0.1,0.3-0.3,0.3c-0.2,0-0.3-0.1-0.3-0.3c0-0.2,0.1-0.3,0.3-0.3C47.6,65.1,47.7,65.2,47.7,65.4z"/>
			
				<circle style="opacity:0.3;clip-path:url(#XMLID_00000031170142135692527840000008226300635871374478_);fill:#FFFFFF;" cx="52.8" cy="63.9" r="0.3"/>
			<path style="opacity:0.33;clip-path:url(#XMLID_00000031170142135692527840000008226300635871374478_);fill:#FFFFFF;" d="
				M42.4,64.2c0,0.2-0.1,0.3-0.3,0.3c-0.2,0-0.3-0.1-0.3-0.3c0-0.2,0.1-0.3,0.3-0.3C42.3,63.9,42.4,64.1,42.4,64.2z"/>
			<path style="opacity:0.3;clip-path:url(#XMLID_00000031170142135692527840000008226300635871374478_);fill:#FFFFFF;" d="
				M53.1,66.1c0.2,0.3-0.1,0.5-0.3,0.7c-0.2,0.2-0.5,0.2-0.8,0c-0.2-0.2-0.3-0.5-0.1-0.7C52.1,65.9,52.7,65.6,53.1,66.1z"/>
			<path style="opacity:0.3;clip-path:url(#XMLID_00000031170142135692527840000008226300635871374478_);fill:#FFFFFF;" d="
				M59.8,68.2c0,0.2-0.1,0.3-0.3,0.3c-0.2,0-0.3-0.1-0.3-0.3c0-0.2,0.1-0.3,0.3-0.3C59.7,67.9,59.8,68,59.8,68.2z"/>
			<path style="opacity:0.3;clip-path:url(#XMLID_00000031170142135692527840000008226300635871374478_);fill:#FFFFFF;" d="
				M63.2,67.2c0.2,0.3,0,0.1-0.2,0.4c-0.2,0.2-0.4,0.5-0.6,0.3c-0.2-0.2-0.3-0.5-0.1-0.7C62.5,66.8,62.9,66.6,63.2,67.2z"/>
			<path style="opacity:0.33;clip-path:url(#XMLID_00000031170142135692527840000008226300635871374478_);fill:#FFFFFF;" d="
				M34.2,65c-0.1,0.3-0.1,0.1-0.4,0.1c-0.3,0-0.6,0.1-0.6-0.2c0-0.3,0.2-0.6,0.4-0.6C33.9,64.3,34.3,64.4,34.2,65z"/>
			<path style="opacity:0.3;clip-path:url(#XMLID_00000031170142135692527840000008226300635871374478_);fill:#FFFFFF;" d="
				M64.9,70.3c0,0.2-0.1,0.3-0.3,0.3c-0.2,0-0.3-0.1-0.3-0.3s0.1-0.3,0.3-0.3C64.7,70,64.9,70.2,64.9,70.3z"/>
			<path style="opacity:0.3;clip-path:url(#XMLID_00000031170142135692527840000008226300635871374478_);fill:#FFFFFF;" d="
				M61.9,64.3c0,0.1-0.1,0.2-0.2,0.2c-0.1,0-0.2-0.1-0.2-0.2c0-0.1,0.1-0.2,0.2-0.2C61.9,64.2,61.9,64.3,61.9,64.3z"/>
			
				<circle style="opacity:0.23;clip-path:url(#XMLID_00000031170142135692527840000008226300635871374478_);fill:#FFFFFF;" cx="56.8" cy="70.4" r="0.2"/>
			
				<circle style="opacity:0.33;clip-path:url(#XMLID_00000031170142135692527840000008226300635871374478_);fill:#FFFFFF;" cx="58" cy="64.6" r="0.3"/>
			<path style="opacity:0.33;clip-path:url(#XMLID_00000031170142135692527840000008226300635871374478_);fill:#FFFFFF;" d="
				M45.2,70c0.2,0.3-0.1,0.5-0.3,0.7c-0.2,0.2-0.5,0.2-0.8,0c-0.2-0.2-0.3-0.5-0.1-0.7C44.3,69.7,44.9,69.4,45.2,70z"/>
			<path style="opacity:0.33;clip-path:url(#XMLID_00000031170142135692527840000008226300635871374478_);fill:#FFFFFF;" d="
				M48.5,72.6c0.2,0.3-0.1,0.5-0.3,0.7c-0.2,0.2-0.5,0.2-0.8,0c-0.2-0.2-0.3-0.5-0.1-0.7C47.5,72.4,48.1,72,48.5,72.6z"/>
			<path style="opacity:0.33;clip-path:url(#XMLID_00000031170142135692527840000008226300635871374478_);fill:#FFFFFF;" d="
				M52.6,69.3c0,0.2-0.1,0.3-0.3,0.3c-0.2,0-0.3-0.1-0.3-0.3c0-0.2,0.1-0.3,0.3-0.3C52.5,69,52.6,69.2,52.6,69.3z"/>
			<path style="opacity:0.33;clip-path:url(#XMLID_00000031170142135692527840000008226300635871374478_);fill:#FFFFFF;" d="
				M56.1,70.6c0,0.2-0.1,0.3-0.3,0.3c-0.2,0-0.3-0.1-0.3-0.3c0-0.2,0.1-0.3,0.3-0.3C56,70.3,56.1,70.4,56.1,70.6z"/>
			<path style="opacity:0.33;clip-path:url(#XMLID_00000031170142135692527840000008226300635871374478_);fill:#FFFFFF;" d="
				M63.6,71.8c0,0.2-0.1,0.3-0.3,0.3c-0.2,0-0.3-0.1-0.3-0.3s0.1-0.3,0.3-0.3C63.5,71.5,63.6,71.6,63.6,71.8z"/>
			<path style="opacity:0.33;clip-path:url(#XMLID_00000031170142135692527840000008226300635871374478_);fill:#FFFFFF;" d="
				M62.7,75.2c0,0.2-0.1,0.3-0.3,0.3c-0.2,0-0.3-0.1-0.3-0.3c0-0.2,0.1-0.3,0.3-0.3C62.6,74.9,62.7,75,62.7,75.2z"/>
			<path style="opacity:0.61;clip-path:url(#XMLID_00000031170142135692527840000008226300635871374478_);fill:#D7DF00;" d="
				M53.3,74.4c0,0.2-0.1,0.3-0.3,0.3c-0.2,0-0.3-0.1-0.3-0.3c0-0.2,0.1-0.3,0.3-0.3C53.1,74.1,53.3,74.2,53.3,74.4z"/>
			<path style="opacity:0.33;clip-path:url(#XMLID_00000031170142135692527840000008226300635871374478_);fill:#FFFFFF;" d="
				M58.3,69.1c0,0.2-0.1,0.3-0.3,0.3c-0.2,0-0.3-0.1-0.3-0.3c0-0.2,0.1-0.3,0.3-0.3C58.1,68.8,58.3,69,58.3,69.1z"/>
			<path style="opacity:0.33;clip-path:url(#XMLID_00000031170142135692527840000008226300635871374478_);fill:#FFFFFF;" d="
				M63.1,67.5c0,0.2-0.1,0.3-0.3,0.3c-0.2,0-0.3-0.1-0.3-0.3s0.1-0.3,0.3-0.3C62.9,67.2,63.1,67.4,63.1,67.5z"/>
			
				<circle style="opacity:0.3;clip-path:url(#XMLID_00000031170142135692527840000008226300635871374478_);fill:#FFFFFF;" cx="68.2" cy="66" r="0.3"/>
			<path style="opacity:0.33;clip-path:url(#XMLID_00000031170142135692527840000008226300635871374478_);fill:#FFFFFF;" d="
				M57.8,66.4c0,0.2-0.1,0.3-0.3,0.3c-0.2,0-0.3-0.1-0.3-0.3s0.1-0.3,0.3-0.3C57.6,66.1,57.8,66.2,57.8,66.4z"/>
			<path style="opacity:0.3;clip-path:url(#XMLID_00000031170142135692527840000008226300635871374478_);fill:#FFFFFF;" d="
				M68.4,68.3c0.2,0.3-0.1,0.5-0.3,0.7c-0.2,0.2-0.5,0.2-0.8,0c-0.2-0.2-0.3-0.5-0.1-0.7C67.5,68.1,68.1,67.7,68.4,68.3z"/>
			
				<circle style="opacity:0.3;clip-path:url(#XMLID_00000031170142135692527840000008226300635871374478_);fill:#FFFFFF;" cx="74.9" cy="70.4" r="0.3"/>
			<path style="opacity:0.3;clip-path:url(#XMLID_00000031170142135692527840000008226300635871374478_);fill:#FFFFFF;" d="
				M78.6,69.3c0.2,0.3,0,0.1-0.2,0.4c-0.2,0.2-0.4,0.5-0.6,0.3c-0.2-0.2-0.3-0.5-0.1-0.7C77.9,69,78.2,68.8,78.6,69.3z"/>
			<path style="opacity:0.33;clip-path:url(#XMLID_00000031170142135692527840000008226300635871374478_);fill:#FFFFFF;" d="
				M49.6,67.2c-0.1,0.3-0.1,0.1-0.4,0.1c-0.3,0-0.6,0.1-0.6-0.2c0-0.3,0.2-0.6,0.4-0.6C49.3,66.5,49.7,66.6,49.6,67.2z"/>
			<path style="opacity:0.3;clip-path:url(#XMLID_00000031170142135692527840000008226300635871374478_);fill:#FFFFFF;" d="
				M80.2,72.5c0,0.2-0.1,0.3-0.3,0.3s-0.3-0.1-0.3-0.3c0-0.2,0.1-0.3,0.3-0.3S80.2,72.3,80.2,72.5z"/>
			<path style="opacity:0.3;clip-path:url(#XMLID_00000031170142135692527840000008226300635871374478_);fill:#FFFFFF;" d="
				M77.3,66.5c0,0.1-0.1,0.2-0.2,0.2c-0.1,0-0.2-0.1-0.2-0.2c0-0.1,0.1-0.2,0.2-0.2C77.2,66.4,77.3,66.4,77.3,66.5z"/>
			<path style="opacity:0.23;clip-path:url(#XMLID_00000031170142135692527840000008226300635871374478_);fill:#FFFFFF;" d="
				M72.3,72.5c0,0.1-0.1,0.2-0.2,0.2c-0.1,0-0.2-0.1-0.2-0.2c0-0.1,0.1-0.2,0.2-0.2C72.2,72.4,72.3,72.5,72.3,72.5z"/>
			<path style="opacity:0.33;clip-path:url(#XMLID_00000031170142135692527840000008226300635871374478_);fill:#FFFFFF;" d="
				M73.7,66.7c0,0.2-0.1,0.3-0.3,0.3c-0.2,0-0.3-0.1-0.3-0.3c0-0.2,0.1-0.3,0.3-0.3C73.6,66.4,73.7,66.6,73.7,66.7z"/>
		</g>
		
			<path id="XMLID_00000070804455814555252660000016369666008444171908_" style="opacity:0.12;clip-path:url(#XMLID_00000123423819826433425620000018233916281391839667_);fill:#FFFFFF;" d="
			M82.1,69.9c0.1,3.8-13.3,7.2-29.9,7.6c-16.6,0.4-30.1-2.4-30.2-6.2c-0.1-3.8,13.3-7.2,29.9-7.6C68.5,63.3,82,66.1,82.1,69.9z"/>
		
			<path id="XMLID_00000058554910804629480310000012234960492629543080_" style="opacity:0.12;clip-path:url(#XMLID_00000123423819826433425620000018233916281391839667_);fill:#FFFFFF;" d="
			M86.4,72.3c0.1,3.8-13.3,7.2-29.9,7.6c-16.6,0.4-30.1-2.4-30.2-6.2c-0.1-3.8,13.3-7.2,29.9-7.6C72.8,65.7,86.3,68.5,86.4,72.3z"/>
	</g>
	<g class="st16">
		<path class="st17" d="M27.7,71.5c0,0,0.2,0.3,0.5,0.8c0.3,0.4,0.6,1.1,1.1,1.8c0.8,1.5,1.9,3.4,3,5.2c0.3,0.4,0.6,0.9,0.9,1.3
			c0.3,0.4,0.6,0.8,0.9,1.2c0.3,0.4,0.6,0.8,0.8,1.2c0.3,0.4,0.5,0.7,0.8,1c0.3,0.3,0.5,0.6,0.7,0.9c0.2,0.3,0.4,0.5,0.6,0.7
			c0.3,0.4,0.5,0.7,0.5,0.7l0.1,0.1c0.4,0.6,0.2,1.4-0.4,1.8c-0.2,0.2-0.5,0.2-0.8,0.2c0,0-0.3,0-0.9-0.2c-0.3-0.1-0.7-0.1-1.1-0.3
			c-0.4-0.1-0.8-0.3-1.3-0.5c-0.5-0.2-0.9-0.5-1.5-0.8c-0.5-0.4-1-0.7-1.5-1.2c-0.5-0.5-1-0.9-1.4-1.5c-0.4-0.5-0.8-1.1-1.2-1.7
			c-1.5-2.4-2.2-5.1-2.3-7.1c0-0.5,0-1,0-1.4c0-0.4,0.1-0.8,0.1-1.1c0.1-0.6,0.2-0.9,0.2-0.9l0,0c0.2-0.7,0.9-1.1,1.6-0.9
			C27.3,71,27.6,71.2,27.7,71.5z"/>
	</g>
	<g>
		<defs>
			<path id="XMLID_00000075863251038820660360000011767261317246159524_" d="M193.9-69.2c0,0,4-3.4,4-5.8c0-1.3-1.1-2.4-2.4-2.4
				c-1,0-1.8,0.6-2.2,1.4c-0.4-0.9-1.2-1.4-2.2-1.4c-1.3,0-2.4,1.1-2.4,2.4c0.2,2.9,3.9,5.8,3.9,5.8S193.3-68.5,193.9-69.2z"/>
		</defs>
		<use xlink:href="#XMLID_00000075863251038820660360000011767261317246159524_"  style="overflow:visible;fill:#BBD700;"/>
		<clipPath id="XMLID_00000044867756744802751530000016136866844600889767_">
			<use xlink:href="#XMLID_00000075863251038820660360000011767261317246159524_"  style="overflow:visible;"/>
		</clipPath>
		<g style="opacity:3.000000e-02;clip-path:url(#XMLID_00000044867756744802751530000016136866844600889767_);">
			<path class="st54" d="M196.5-77.1c0.3,0.4,0.5,0.9,0.5,1.5c0,2.4-4,5.8-4,5.8c-0.3,0.3-0.5,0.3-0.7,0.3c0.3,0.3,0.5,0.4,0.5,0.4
				s0.6,0.7,1.2,0c0,0,4-3.4,4-5.8C198.1-75.9,197.4-76.8,196.5-77.1z"/>
		</g>
		<g style="opacity:0.19;clip-path:url(#XMLID_00000044867756744802751530000016136866844600889767_);">
			<path class="st17" d="M191.7-76.1c0,0-0.2,0.2-0.3,0.5c-0.1,0.1-0.1,0.3-0.2,0.4c0,0.1,0,0.1,0,0.2c0,0.1,0,0.1,0,0.2
				c0,0.1,0,0.1,0,0.2c0,0.1,0,0.2,0,0.3c0,0.2,0,0.4,0,0.6c0,0.4,0,0.7,0,0.7l0,0c0,0.2-0.2,0.3-0.4,0.3c-0.1,0-0.1,0-0.1,0
				c0,0-0.1,0-0.2-0.1c-0.1,0-0.1-0.1-0.2-0.2c-0.1-0.1-0.2-0.1-0.2-0.2c-0.3-0.4-0.6-1-0.6-1.8c0-0.2,0.1-0.4,0.1-0.6
				c0.1-0.2,0.2-0.4,0.3-0.5c0.2-0.3,0.5-0.5,0.8-0.6c0.3-0.1,0.5-0.1,0.6-0.1c0.2,0,0.3,0,0.2,0c0.2,0,0.3,0.1,0.4,0.2
				S191.9-76.2,191.7-76.1z"/>
		</g>
	</g>
	<g>
		<defs>
			<path id="XMLID_00000053509879819161737660000009991701791773975188_" d="M186.4-78.4c0,0,4.6-3.8,4.6-6.5c0-1.5-1.2-2.7-2.7-2.7
				c-1.1,0-2.1,0.7-2.5,1.6c-0.4-1-1.4-1.6-2.5-1.6c-1.5,0-2.7,1.2-2.7,2.7c0.3,3.3,4.5,6.5,4.5,6.5S185.7-77.6,186.4-78.4z"/>
		</defs>
		<use xlink:href="#XMLID_00000053509879819161737660000009991701791773975188_"  style="overflow:visible;fill:#BBD700;"/>
		<clipPath id="XMLID_00000003820132487479671520000002278790193621987985_">
			<use xlink:href="#XMLID_00000053509879819161737660000009991701791773975188_"  style="overflow:visible;"/>
		</clipPath>
		<g style="opacity:3.000000e-02;clip-path:url(#XMLID_00000003820132487479671520000002278790193621987985_);">
			<path class="st54" d="M189.4-87.4c0.4,0.5,0.6,1.1,0.6,1.7c0,2.7-4.6,6.5-4.6,6.5c-0.3,0.3-0.6,0.3-0.8,0.3
				c0.4,0.3,0.6,0.5,0.6,0.5s0.7,0.8,1.4,0c0,0,4.6-3.8,4.6-6.5C191.2-86,190.4-87,189.4-87.4z"/>
		</g>
		<g style="opacity:0.19;clip-path:url(#XMLID_00000003820132487479671520000002278790193621987985_);">
			<path class="st17" d="M183.9-86.2c0,0-0.2,0.3-0.4,0.6c-0.1,0.2-0.1,0.3-0.2,0.4c0,0.1,0,0.1-0.1,0.2c0,0.1,0,0.1,0,0.2
				c0,0.1,0,0.2,0,0.3c0,0.1,0,0.2,0,0.3c0,0.2,0,0.4,0,0.7c0,0.4,0,0.8,0,0.8l0,0c0,0.2-0.2,0.4-0.4,0.4c-0.1,0-0.1,0-0.2-0.1
				c0,0-0.1,0-0.2-0.1c-0.1,0-0.1-0.1-0.2-0.2c-0.1-0.1-0.2-0.1-0.3-0.3c-0.3-0.4-0.7-1.1-0.7-2c0-0.2,0.1-0.4,0.1-0.7
				c0.1-0.2,0.2-0.4,0.3-0.6c0.3-0.3,0.6-0.5,0.9-0.6c0.3-0.1,0.5-0.1,0.7-0.1c0.2,0,0.3,0.1,0.3,0.1c0.2,0,0.4,0.1,0.4,0.2
				C184.2-86.5,184.1-86.3,183.9-86.2z"/>
		</g>
	</g>
	<g>
		<g>
			<defs>
				<circle id="XMLID_73_" cx="32.2" cy="32.5" r="13.7"/>
			</defs>
			<use xlink:href="#XMLID_73_"  style="overflow:visible;fill:#BBD500;"/>
			<clipPath id="XMLID_00000121961021880946371660000015604821054710088615_">
				<use xlink:href="#XMLID_73_"  style="overflow:visible;"/>
			</clipPath>
			<path style="opacity:2.000000e-02;clip-path:url(#XMLID_00000121961021880946371660000015604821054710088615_);" d="M37.9,20.1
				c1.3,2.1,2,4.5,2,7.1c0,7.6-6.1,13.7-13.7,13.7c-2,0-3.9-0.5-5.7-1.2c2.4,3.9,6.7,6.6,11.7,6.6c7.6,0,13.7-6.1,13.7-13.7
				C45.9,27,42.6,22.3,37.9,20.1z"/>
		</g>
		<g>
			<g>
				<path class="st17" d="M36.5,37.3h-1.2v2.5h-1.5v-2.5h-6.9V36l6.7-9.9h1.8V36h1.2V37.3z M33.8,36v-7.6L28.7,36H33.8z"/>
			</g>
		</g>
	</g>
	<text transform="matrix(1 0 0 1 49.9337 -75.8389)"><tspan x="0" y="0" style="font-family:'Montserrat-Regular'; font-size:10px;">Add 60ml of </tspan><tspan x="7.9" y="12" style="font-family:'Montserrat-Regular'; font-size:10px;">hot water</tspan></text>
	<ellipse class="st9" cx="5.2" cy="-151.5" rx="31.8" ry="7"/>
	<path class="st10" d="M-12.4-157.9c0,0,4.3,2.3,5.7,3.9c1.2,1.3,2.6,2.4,4.4,2.7c3,0.6,7.8,1.1,13.4,0.1c2-0.4,3.9-1.4,5-3.2
		c0.4-0.6,1.8-2.1,3.1-2.5"/>
	<g>
		<g>
			<defs>
				<path id="XMLID_76_" d="M34.1-162c-1.8,0-3.9-0.4-6.3-1.4c-0.8-0.3-1.1-1.2-0.8-2c0.3-0.8,1.2-1.1,2-0.8
					c5.2,2.1,9.4,1.2,11.9-2.6c2.5-3.8,2.6-9.4,0.1-11.8c-1.1-1.1-2.1-1.6-3.2-1.4c-2,0.3-3.7,2.8-4.2,3.6c-0.4,0.7-1.3,1-2,0.6
					c-0.7-0.4-1-1.3-0.6-2c0.3-0.5,2.6-4.6,6.4-5.2c2-0.3,3.9,0.5,5.7,2.3c3.5,3.5,3.6,10.6,0.2,15.6C42.2-165.3,39.3-162,34.1-162z
					"/>
			</defs>
			<use xlink:href="#XMLID_76_"  style="overflow:visible;fill:#996000;"/>
			<clipPath id="XMLID_00000139287364482075282650000010246822010537257860_">
				<use xlink:href="#XMLID_76_"  style="overflow:visible;"/>
			</clipPath>
			<g style="opacity:0.27;clip-path:url(#XMLID_00000139287364482075282650000010246822010537257860_);">
				<path class="st12" d="M37.5-182.9c-2,0.3-4.7,2.7-5.1,3.6c-0.4,0.6-1.1,0.9-1.8,0.7c0,0.5,0.3,1,0.8,1.3
					c0.7,0.4,1.7,0.1,2.1-0.6c0.5-0.9,2.3-3.4,4.3-3.7c1-0.1,2.3,2,3.4,3c-0.2-0.5,0.8-0.2,0.5-1.5
					C41.1-181.9,39.5-183.2,37.5-182.9z"/>
				<path class="st12" d="M43.8-182.5c2.4,3.8,2.1,10-0.9,14.4c-1.2,1.8-4.1,5.1-9.4,5.1c-1.8,0-3.9-0.4-6.2-1.3
					c0,0.6,0.4,1.1,0.9,1.3c2.4,1,4.5,1.4,6.4,1.4c5.3,0,8.3-3.3,9.4-5.1C47.3-171.8,47.2-179,43.8-182.5z"/>
			</g>
		</g>
	</g>
	<g>
		<defs>
			<path id="XMLID_75_" d="M-25.8-187.2c0,0-3.3,32.8,29.7,33c36.9,0.3,30.3-33,30.3-33"/>
		</defs>
		<use xlink:href="#XMLID_75_"  style="overflow:visible;fill:#996000;"/>
		<clipPath id="XMLID_00000114782594632924480420000012718863283764133252_">
			<use xlink:href="#XMLID_75_"  style="overflow:visible;"/>
		</clipPath>
		<path style="opacity:0.41;clip-path:url(#XMLID_00000114782594632924480420000012718863283764133252_);fill:#8E5400;" d="
			M34.2-187.2h-9.5c0.5,8.4-1,30-30.7,29.7c-2.3,0-4.4-0.2-6.4-0.5c4.1,2.3,9.4,3.8,16.3,3.8C40.9-153.8,34.2-187.2,34.2-187.2z"/>
		<path style="opacity:0.66;clip-path:url(#XMLID_00000114782594632924480420000012718863283764133252_);fill:#8E5400;" d="
			M37.3-188.2l-9.5,0.8c1.3,8.3,1.6,29.9-28.1,32.2c-2.3,0.2-4.4,0.2-6.4,0c4.3,1.9,9.7,3,16.5,2.4
			C46.7-155.5,37.3-188.2,37.3-188.2z"/>
	</g>
	<g>
		<defs>
			<path id="XMLID_74_" d="M34.2-187.2c0,3.8-13.4,6.9-30,6.9s-30-3.1-30-6.9s13.4-6.9,30-6.9S34.2-191,34.2-187.2z"/>
		</defs>
		<use xlink:href="#XMLID_74_"  style="overflow:visible;fill:#7A4800;"/>
		<clipPath id="XMLID_00000178897683519734024350000004152303116768633271_">
			<use xlink:href="#XMLID_74_"  style="overflow:visible;"/>
		</clipPath>
		<path style="opacity:5.000000e-02;clip-path:url(#XMLID_00000178897683519734024350000004152303116768633271_);" d="M4.2-194.1
			c-15.8,0-28.8,2.8-29.9,6.4c5.1-2.1,15-3.6,26.3-3.6c16.6,0,30,3.1,30,6.9c0,0.2,0,0.3-0.1,0.5c2.4-1,3.7-2.1,3.7-3.3
			C34.2-191,20.8-194.1,4.2-194.1z"/>
		<path id="XMLID_77_" style="clip-path:url(#XMLID_00000178897683519734024350000004152303116768633271_);fill:#BBD700;" d="
			M34.2-176.8c0,3.8-13.4,6.9-30,6.9s-30-3.1-30-6.9s13.4-6.9,30-6.9S34.2-180.6,34.2-176.8z"/>
		<g style="clip-path:url(#XMLID_00000178897683519734024350000004152303116768633271_);">
			<defs>
				<path id="XMLID_78_" d="M-19.6-169.7c0,0,9.8,11.1,27.3,10.6c17.6-0.6,19.1-8.5,19.1-8.5s-1-7.3-4.9-8.6
					c-3.9-1.3-1.8-6.2-6.8-7.4c-2.4-0.6-4.6-6-8.8-6.8c-4.2-0.8-5.3,3.7-9.1,4.7c-3.8,1-4.3,5-6.6,5.6c-2.3,0.6-3.6,6-6.7,6.3
					C-19.1-173.6-19.6-169.7-19.6-169.7z"/>
			</defs>
			<use xlink:href="#XMLID_78_"  style="overflow:visible;fill:#BBD700;"/>
			<clipPath id="XMLID_00000051369947883953219650000009521468434143168666_">
				<use xlink:href="#XMLID_78_"  style="overflow:visible;"/>
			</clipPath>
			<path style="opacity:5.000000e-02;clip-path:url(#XMLID_00000051369947883953219650000009521468434143168666_);" d="M1.3-194.6
				c0,0,9.3,10.4,8.4,16.8c-0.9,6.4,5.7,5.1,6.6,9.7c1,4.6,3.4,13.7,3.4,13.7l11.8-12.2C31.5-166.6,13.3-197.8,1.3-194.6z"/>
			<path style="opacity:5.000000e-02;clip-path:url(#XMLID_00000051369947883953219650000009521468434143168666_);" d="M2.7-193.7
				c0,0,10.6,9.1,10.5,15.6c-0.1,6.5,6.3,4.4,7.8,8.8c1.5,4.4,5.1,13.2,5.1,13.2l10.1-13.7C36.2-169.9,14.1-198.5,2.7-193.7z"/>
			<path style="opacity:0.3;clip-path:url(#XMLID_00000051369947883953219650000009521468434143168666_);fill:#FFFFFF;" d="
				M-10.4-170.2c0,0.7-0.6,1.2-1.3,1.2c-0.7,0-1.2-0.6-1.2-1.3c0-0.7,0.6-1.2,1.3-1.2C-10.9-171.5-10.4-170.9-10.4-170.2z"/>
			<path style="opacity:0.3;clip-path:url(#XMLID_00000051369947883953219650000009521468434143168666_);fill:#FFFFFF;" d="
				M-2.9-174.2c0.6,1.1,0,0.6-0.8,1.5c-0.8,0.9-1.7,1.9-2.6,1c-0.9-0.9-1-2.3-0.2-3.2C-5.7-175.8-4.2-176.6-2.9-174.2z"/>
			<path style="opacity:0.3;clip-path:url(#XMLID_00000051369947883953219650000009521468434143168666_);fill:#FFFFFF;" d="
				M-5.1-167.7c0,0.7-0.6,1.2-1.3,1.2c-0.7,0-1.2-0.6-1.2-1.3c0-0.7,0.6-1.2,1.3-1.2C-5.6-169-5.1-168.4-5.1-167.7z"/>
			<path style="opacity:0.3;clip-path:url(#XMLID_00000051369947883953219650000009521468434143168666_);fill:#FFFFFF;" d="
				M19.9-152.3c0,0.3-0.3,0.6-0.7,0.6c-0.3,0-0.6-0.3-0.6-0.7c0-0.3,0.3-0.6,0.7-0.6C19.7-152.9,19.9-152.6,19.9-152.3z"/>
			<path style="opacity:0.3;clip-path:url(#XMLID_00000051369947883953219650000009521468434143168666_);fill:#FFFFFF;" d="
				M-9.4-174.4c0,0.3-0.3,0.6-0.7,0.6c-0.3,0-0.6-0.3-0.6-0.7c0-0.3,0.3-0.6,0.7-0.6C-9.6-175.1-9.3-174.8-9.4-174.4z"/>
			<path style="opacity:0.3;clip-path:url(#XMLID_00000051369947883953219650000009521468434143168666_);fill:#FFFFFF;" d="
				M-0.8-165.5c0,0.7-0.6,1.2-1.3,1.2c-0.7,0-1.2-0.6-1.2-1.3c0-0.7,0.6-1.2,1.3-1.2C-1.3-166.8-0.8-166.2-0.8-165.5z"/>
			<path style="opacity:0.3;clip-path:url(#XMLID_00000051369947883953219650000009521468434143168666_);fill:#FFFFFF;" d="
				M-1.5-169.9c0,0.3-0.3,0.6-0.7,0.6c-0.3,0-0.6-0.3-0.6-0.7c0-0.3,0.3-0.6,0.7-0.6C-1.7-170.6-1.4-170.3-1.5-169.9z"/>
		</g>
	</g>
	<g class="st82">
		<path class="st17" d="M32.6-212c0-0.6,0.5-1.2,1.1-1.1c0.1,0,0.2,0.2,0.2,0.3c-0.1,0.3-0.4,0.3-0.5,0.5c-0.1,0.1-0.2,0.3-0.4,0.5
			C32.9-211.6,32.6-211.8,32.6-212L32.6-212z"/>
	</g>
	<path class="st83" d="M61.8,53.1c0,0,0.2-2.2-1.2-7.8s-1.8-14.3,0-16.8s1.2-8,3-12.7c1.4-3.8,2,9,3.3,12.7s-1.8,7.5-1.8,12.3
		S63.6,53.1,61.8,53.1z"/>
	<path class="st83" d="M71.2,53.2c0,0-3.9-8.6-1.7-13c2.2-4.2,3.7-11,3.7-11c-0.8-3.3,2.3,8.8,0.2,13.2
		C71.6,45.7,71.2,53.2,71.2,53.2z"/>
	<g>
		<g>
			<g>
				<g>
					<defs>
						<path id="XMLID_72_" d="M79.9-223.5c-13.9,4-28.6-4-32.6-18c-2.3-8-0.7-16.7,4.4-23.3c3.4-4.5,8.1-7.7,13.6-9.3
							c13.9-4,28.6,4,32.6,18C101.9-242.1,93.8-227.5,79.9-223.5z M65.5-273.1c-5.3,1.5-9.8,4.6-13.1,8.9
							c-4.9,6.4-6.5,14.8-4.2,22.5c3.9,13.4,18,21.2,31.4,17.3c13.4-3.9,21.2-18,17.3-31.4C93.1-269.3,79-277,65.5-273.1z"/>
					</defs>
					<use xlink:href="#XMLID_72_"  style="overflow:visible;fill:#723F03;"/>
					<clipPath id="XMLID_00000015312800850372356190000011363952698819855527_">
						<use xlink:href="#XMLID_72_"  style="overflow:visible;"/>
					</clipPath>
					<g style="clip-path:url(#XMLID_00000015312800850372356190000011363952698819855527_);">
						<path class="st85" d="M51.8-264.3c3.4-4.5,8.1-7.7,13.6-9.3c13.8-4,28.3,3.9,32.5,17.6c0-0.1-0.1-0.2-0.1-0.4
							c-4-13.9-18.7-22-32.6-18c-5.4,1.6-10.1,4.8-13.6,9.3c-5.1,6.6-6.7,15.3-4.4,23.3c0,0.1,0.1,0.3,0.1,0.4
							C45.2-249.2,46.8-257.8,51.8-264.3z"/>
						<path class="st85" d="M79.8-223.9c13.4-3.9,21.2-18,17.3-31.4c0-0.1-0.1-0.2-0.1-0.4c3.6,13.3-4.1,27.2-17.4,31.1
							c-13.3,3.9-27.3-3.7-31.3-16.9c0,0.1,0.1,0.2,0.1,0.3C52.2-227.8,66.3-220,79.8-223.9z"/>
					</g>
				</g>
			</g>
			<g>
				<defs>
					<path id="XMLID_70_" d="M28.1-216.5c0.2,0.7,0.9,1.2,1.7,1.2c2.3-0.1,7.2,0,8.7,3.5c2,4.5,6.9,27,25.2,16.1
						c0.8-0.5,1.1-1.5,0.7-2.3l-8.7-16.7c0,0-6.9-14.8-27.8-7.7c-0.9,0.3-1.4,1.3-1.1,2.2L28.1-216.5z"/>
				</defs>
				<use xlink:href="#XMLID_70_"  style="overflow:visible;fill:#824D02;"/>
				<clipPath id="XMLID_00000128477539111979189880000014182096106583635849_">
					<use xlink:href="#XMLID_70_"  style="overflow:visible;"/>
				</clipPath>
				<path style="opacity:0.39;clip-path:url(#XMLID_00000128477539111979189880000014182096106583635849_);fill:#754103;" d="
					M39.8-213.9c-1.8-3.7-8.5-3.7-11.1-3.4c-0.8,0.1-1.6-0.4-1.9-1.2l-0.2-0.6l1.1,3.1c0.2,0.7,0.9,1.2,1.7,1.2
					c2.3-0.1,7.2,0,8.7,3.5c2,4.5,6.9,27,25.2,16.1c0.3-0.2,0.6-0.5,0.7-0.9C46.6-187.1,42-209.3,39.8-213.9z"/>
			</g>
			<path class="st87" d="M78.1-190.3l0,0.9c0.1,1.8,1.7,3.2,3.5,3c4.7-0.5,13.5-2.1,21.5-6.8c1.7-1,2.1-3.3,0.8-4.8l-1-1.2"/>
			<g>
				<defs>
					<path id="XMLID_68_" d="M114.3-223.2c4.7,16.7-8.1,26.3-24.8,31.1c-16.7,4.8-30.4,3-35.7-13.6c-6.1-19.2,2.9-37.3,19.6-42.1
						C90-252.6,108.5-243.5,114.3-223.2z"/>
				</defs>
				<use xlink:href="#XMLID_68_"  style="overflow:visible;fill:#9A6001;"/>
				<clipPath id="XMLID_00000055666602426528226660000017426058019577985946_">
					<use xlink:href="#XMLID_68_"  style="overflow:visible;"/>
				</clipPath>
				<path style="opacity:0.47;clip-path:url(#XMLID_00000055666602426528226660000017426058019577985946_);fill:#915602;" d="
					M82.3-250.1c9.8,3.6,18.2,12.1,21.7,24.7c4.9,17.3-8.4,27.2-25.7,32.2c-6.7,1.9-13,2.8-18.5,2.2c6.7,2.9,16.7,5.8,26.3,3
					c17.3-5,37.3-14.2,30.9-38.1C112.9-241.5,94.8-248.2,82.3-250.1z"/>
				<path style="clip-path:url(#XMLID_00000055666602426528226660000017426058019577985946_);fill:#915602;" d="M87.4-248.7
					c9.8,3.6,18.2,12.1,21.7,24.7c4.9,17.3-8.4,27.2-25.7,32.2c-6.7,1.9-13,2.8-18.5,2.2c6.7,2.9,15.3,2.2,24.9-0.5
					c17.3-5,30.6-14.9,25.7-32.2C111.2-237.7,99.9-246.8,87.4-248.7z"/>
			</g>
			<g>
				<defs>
					<path id="XMLID_67_" d="M92.5-248.5c1.4,4.7-6.5,7.3-16.5,10.1c-10,2.9-18.3,5-19.7,0.3c-1.4-4.7,4.2-12.8,14.2-15.7
						C80.5-256.6,91.2-253.1,92.5-248.5z"/>
				</defs>
				<use xlink:href="#XMLID_67_"  style="overflow:visible;fill:#824D02;"/>
				<clipPath id="XMLID_00000120552631191773350250000008240210309397767316_">
					<use xlink:href="#XMLID_67_"  style="overflow:visible;"/>
				</clipPath>
				<path style="opacity:0.2;clip-path:url(#XMLID_00000120552631191773350250000008240210309397767316_);fill:#723F03;" d="
					M52.5-237.8c0,0,22.8,1.5,41.9-12.6l2.1,5.4l-18.6,9.5l-24.5,2.7L52.5-237.8z"/>
				<path style="opacity:0.2;clip-path:url(#XMLID_00000120552631191773350250000008240210309397767316_);fill:#723F03;" d="
					M74.6-254.9c0.5,1.9-0.5,3.8-2.4,4.3c-1.9,0.5-3.8-0.5-4.3-2.4c-0.5-1.9,0.5-3.8,2.4-4.3C72.2-257.8,74.1-256.8,74.6-254.9z"/>
			</g>
			<g>
				<g>
					<defs>
						<path id="XMLID_71_" d="M84-270.6c-0.5,0.1-1,0.1-1.5,0c-18-5.8-29.2,8.3-29.3,8.4c-0.8,1.1-2.4,1.3-3.5,0.4
							c-1.1-0.8-1.3-2.4-0.4-3.5c0.1-0.2,13.5-17,34.8-10.1c1.3,0.4,2,1.8,1.6,3.1C85.5-271.4,84.8-270.9,84-270.6z"/>
					</defs>
					<use xlink:href="#XMLID_71_"  style="overflow:visible;fill:#723F03;"/>
					<clipPath id="XMLID_00000121970753351096131200000004143659831695865226_">
						<use xlink:href="#XMLID_71_"  style="overflow:visible;"/>
					</clipPath>
					<path style="opacity:0.48;clip-path:url(#XMLID_00000121970753351096131200000004143659831695865226_);fill:#683503;" d="
						M49.6-263.3c0.1-0.2,13.5-17,34.8-10.1c0.5,0.2,1,0.5,1.3,0.9c0.3-1.2-0.4-2.5-1.7-2.9c-21.3-6.8-34.6,9.9-34.8,10.1
						c-0.7,0.9-0.7,2.1-0.1,3C49.2-262.6,49.4-263,49.6-263.3z"/>
				</g>
			</g>
			<g>
				<defs>
					<path id="XMLID_69_" d="M74.2-256.1c0.5,1.9-0.5,3.8-2.4,4.3c-1.9,0.5-3.8-0.5-4.3-2.4c-0.5-1.9,0.5-3.8,2.4-4.3
						C71.7-259,73.7-257.9,74.2-256.1z"/>
				</defs>
				<use xlink:href="#XMLID_69_"  style="overflow:visible;fill:#9A6001;"/>
				<clipPath id="XMLID_00000019677846506753329190000003660753063940391087_">
					<use xlink:href="#XMLID_69_"  style="overflow:visible;"/>
				</clipPath>
				<path style="opacity:0.53;clip-path:url(#XMLID_00000019677846506753329190000003660753063940391087_);fill:#8C5302;" d="
					M70.5-258.6c0.7,0.4,1.3,1.1,1.5,2c0.5,1.9-0.5,3.8-2.4,4.3c-0.2,0.1-0.4,0.1-0.6,0.1c0.8,0.5,1.8,0.7,2.8,0.4
					c1.9-0.5,2.9-2.5,2.4-4.3C73.7-257.7,72.1-258.8,70.5-258.6z"/>
			</g>
			<g class="st93">
				<path class="st17" d="M68.3-253.8c-1.1-1.2-0.4-3.5,1.2-3.8c0.3,0,0.6,0.1,0.6,0.4c0,0.2,0,0.3-0.1,0.4
					c-0.5,0.9-0.4,1.6-0.8,2.6C69.2-253.6,68.6-253.4,68.3-253.8L68.3-253.8z"/>
			</g>
		</g>
		<g>
			<defs>
				<path id="XMLID_79_" d="M25.8-214.6c-0.1-0.6-0.8-0.8-1.3-0.5c-0.8,0.7-1.9,1.8-2.1,3.5c-0.3,1.6,3,2.4,3.5,0.8
					C26.1-211.7,26.2-213,25.8-214.6z"/>
			</defs>
			<use xlink:href="#XMLID_79_"  style="overflow:visible;fill:#63CADB;"/>
			<clipPath id="XMLID_00000037667166306537961680000001330080380956994456_">
				<use xlink:href="#XMLID_79_"  style="overflow:visible;"/>
			</clipPath>
			<path style="opacity:0.14;clip-path:url(#XMLID_00000037667166306537961680000001330080380956994456_);fill:#56B1BA;" d="
				M25.8-214.6c-0.1-0.3-0.3-0.5-0.6-0.6c0.3,1.5,0.2,2.7,0,3.6c-0.3,1.1-1.9,1.1-2.8,0.4c0.2,1.4,3,1.9,3.4,0.4
				C26.1-211.7,26.2-213,25.8-214.6z"/>
		</g>
		<g>
			<g>
				<defs>
					<path id="XMLID_80_" d="M28.6-208.8c-0.2-0.5-0.8-0.6-1.2-0.2c-0.6,0.7-1.4,1.8-1.4,3.4c0,1.5,2.9,1.7,3.1,0.3
						C29.2-206.3,29.1-207.5,28.6-208.8z"/>
				</defs>
				<use xlink:href="#XMLID_80_"  style="overflow:visible;fill:#63CADB;"/>
				<clipPath id="XMLID_00000115480346978737884760000007318227194888299446_">
					<use xlink:href="#XMLID_80_"  style="overflow:visible;"/>
				</clipPath>
				<path style="opacity:0.14;clip-path:url(#XMLID_00000115480346978737884760000007318227194888299446_);fill:#56B1BA;" d="
					M28.6-208.8c-0.1-0.3-0.3-0.4-0.6-0.5c0.4,1.3,0.5,2.4,0.4,3.2c-0.1,1-1.5,1.2-2.4,0.7c0.4,1.2,2.9,1.3,3.1-0.1
					C29.2-206.3,29.1-207.5,28.6-208.8z"/>
			</g>
			<g class="st82">
				<path class="st17" d="M27-207.5c-0.1-0.5,0.3-1.1,0.8-1.1c0.1,0,0.2,0.1,0.2,0.2c0,0.2-0.3,0.3-0.4,0.5
					c-0.1,0.1-0.1,0.3-0.3,0.5C27.3-207.2,27-207.3,27-207.5L27-207.5z"/>
			</g>
		</g>
		<g>
			<g>
				<defs>
					<path id="XMLID_32_" d="M25.6-201.2c-0.2-0.5-0.8-0.6-1.2-0.2c-0.6,0.7-1.4,1.8-1.4,3.4c0,1.5,2.9,1.7,3.1,0.3
						C26.2-198.6,26.1-199.8,25.6-201.2z"/>
				</defs>
				<use xlink:href="#XMLID_32_"  style="overflow:visible;fill:#63CADB;"/>
				<clipPath id="XMLID_00000152251792171501635640000012238617282547429298_">
					<use xlink:href="#XMLID_32_"  style="overflow:visible;"/>
				</clipPath>
				<path style="opacity:0.14;clip-path:url(#XMLID_00000152251792171501635640000012238617282547429298_);fill:#56B1BA;" d="
					M25.6-201.2c-0.1-0.3-0.3-0.4-0.6-0.5c0.4,1.3,0.5,2.4,0.4,3.2c-0.1,1-1.5,1.2-2.4,0.7c0.4,1.2,2.9,1.3,3.1-0.1
					C26.2-198.6,26.1-199.8,25.6-201.2z"/>
			</g>
			<g class="st82">
				<path class="st17" d="M24-199.8c-0.1-0.5,0.3-1.1,0.8-1.1c0.1,0,0.2,0.1,0.2,0.2c0,0.2-0.3,0.3-0.4,0.5
					c-0.1,0.1-0.1,0.3-0.3,0.5C24.3-199.6,24-199.6,24-199.8L24-199.8z"/>
			</g>
		</g>
		<g class="st16">
			<path class="st17" d="M60.4-227c0.1,6.1,0.3,11.6,1.3,17.6c0.2,1.1-1.1,2-2,1.3c-4.6-3.3-5.7-9.9-4.1-15c0.5-1.4,2.4-6.4,4.4-4.8
				C60.3-227.7,60.4-227.3,60.4-227L60.4-227z"/>
		</g>
	</g>
	<circle class="st97" cx="49.4" cy="82.6" r="6.9"/>
	<path class="st97" d="M49.4,79.8v2.8l1.7,1.7"/>
</g>
</svg>
