<?xml version="1.0" encoding="utf-8"?>
<!-- Generator: Adobe Illustrator 27.3.1, SVG Export Plug-In . SVG Version: 6.00 Build 0)  -->
<svg version="1.1" xmlns="http://www.w3.org/2000/svg" xmlns:xlink="http://www.w3.org/1999/xlink" x="0px" y="0px"
	 viewBox="0 0 117.3 117.8" style="enable-background:new 0 0 117.3 117.8;" xml:space="preserve">
<style type="text/css">
	.st0{display:none;}
	.st1{display:inline;fill:#FFFFFF;}
	.st2{opacity:3.000000e-02;clip-path:url(#XMLID_00000128478647166110777510000007215451717491879846_);}
	
		.st3{opacity:2.000000e-02;clip-path:url(#XMLID_00000128478647166110777510000007215451717491879846_);fill:none;stroke:#000000;stroke-width:0.6461;stroke-miterlimit:10;}
	.st4{opacity:3.000000e-02;clip-path:url(#XMLID_00000013907927015953266820000015875830871533822634_);}
	.st5{opacity:3.000000e-02;clip-path:url(#XMLID_00000093895290638832607730000009503848509875151802_);}
	
		.st6{opacity:2.000000e-02;clip-path:url(#XMLID_00000093895290638832607730000009503848509875151802_);fill:none;stroke:#000000;stroke-width:0.6461;stroke-miterlimit:10;}
	.st7{opacity:3.000000e-02;clip-path:url(#XMLID_00000150813742789972819540000008619351058505626776_);}
	.st8{opacity:2.000000e-02;clip-path:url(#XMLID_00000182505955153237810570000006755857980920091268_);}
	.st9{opacity:0.2;fill:#7A4800;}
	.st10{fill:#9A6100;}
	.st11{opacity:0.27;clip-path:url(#XMLID_00000101809032200181025510000001864545715810784682_);}
	.st12{fill:#6D3E00;}
	.st13{opacity:0.41;clip-path:url(#XMLID_00000071523774212051292840000004701280305114172052_);fill:#8E5400;}
	.st14{opacity:0.66;clip-path:url(#XMLID_00000071523774212051292840000004701280305114172052_);fill:#8E5400;}
	.st15{opacity:5.000000e-02;clip-path:url(#XMLID_00000137822985371587203540000003129200976595474583_);}
	.st16{opacity:5.000000e-02;}
	.st17{fill:#FFFFFF;}
	.st18{opacity:5.000000e-02;clip-path:url(#XMLID_00000019653246257350987670000000503139196112767904_);}
	.st19{opacity:5.000000e-02;clip-path:url(#XMLID_00000048497254664211783390000010877054176198683055_);}
	.st20{opacity:0.3;clip-path:url(#XMLID_00000048497254664211783390000010877054176198683055_);fill:#FFFFFF;}
	.st21{opacity:2.000000e-02;clip-path:url(#XMLID_00000088106730139785528560000011763746528742889111_);}
	.st22{opacity:0.27;clip-path:url(#XMLID_00000155840384392184259380000014754517341084206477_);}
	.st23{opacity:0.41;clip-path:url(#XMLID_00000063627367946048865650000007222391616651043983_);fill:#8E5400;}
	.st24{opacity:0.66;clip-path:url(#XMLID_00000063627367946048865650000007222391616651043983_);fill:#8E5400;}
	.st25{opacity:5.000000e-02;clip-path:url(#XMLID_00000174580174621113891220000013184025057170532499_);}
	.st26{clip-path:url(#XMLID_00000174580174621113891220000013184025057170532499_);}
	.st27{clip-path:url(#XMLID_00000134961831361575511620000003629571158152721578_);}
	.st28{opacity:5.000000e-02;clip-path:url(#XMLID_00000003824850153127906870000011343504449787079303_);}
	.st29{opacity:0.3;clip-path:url(#XMLID_00000003824850153127906870000011343504449787079303_);fill:#FFFFFF;}
	.st30{opacity:0.12;clip-path:url(#XMLID_00000174580174621113891220000013184025057170532499_);fill:#FFFFFF;}
	.st31{clip-path:url(#XMLID_00000154428368395567331140000001212634668661257096_);fill:#3B2205;}
	.st32{clip-path:url(#XMLID_00000161605314839244298980000006843672882949901493_);fill:#3B2205;}
	.st33{clip-path:url(#XMLID_00000103946287515957280670000004404472905163456423_);fill:#3B2205;}
	.st34{clip-path:url(#XMLID_00000046329317389946886030000008076039070624296115_);fill:#3B2205;}
	.st35{clip-path:url(#XMLID_00000126289567822424910700000013919528757807278220_);fill:#3B2205;}
	.st36{clip-path:url(#XMLID_00000020370419179774915330000015061856546998363523_);fill:#3B2205;}
	.st37{clip-path:url(#XMLID_00000176765652685449259100000005717466612024678044_);fill:#3B2205;}
	.st38{clip-path:url(#XMLID_00000078747620903395065210000009441052268195921037_);fill:#3B2205;}
	.st39{opacity:6.000000e-02;clip-path:url(#XMLID_00000035505270201001680750000000622572598889233843_);}
	.st40{clip-path:url(#XMLID_00000035505270201001680750000000622572598889233843_);fill:none;stroke:#000000;stroke-miterlimit:10;}
	.st41{fill:#BBD700;}
	.st42{opacity:0.27;clip-path:url(#XMLID_00000152963720795160832870000013883487555312924600_);}
	.st43{opacity:2.000000e-02;clip-path:url(#XMLID_00000106855699326232750370000014779126192760183962_);}
	.st44{opacity:0.41;clip-path:url(#XMLID_00000173856187920526851820000017112202759313629088_);fill:#8E5400;}
	.st45{opacity:0.66;clip-path:url(#XMLID_00000173856187920526851820000017112202759313629088_);fill:#8E5400;}
	.st46{opacity:5.000000e-02;clip-path:url(#XMLID_00000139982312219317029260000004576030584628372097_);}
	.st47{clip-path:url(#XMLID_00000139982312219317029260000004576030584628372097_);}
	.st48{opacity:0.33;clip-path:url(#XMLID_00000098905130445076619850000009345697357625982639_);fill:#FFFFFF;}
	.st49{opacity:0.61;clip-path:url(#XMLID_00000098905130445076619850000009345697357625982639_);fill:#D7DF00;}
	.st50{opacity:0.3;clip-path:url(#XMLID_00000098905130445076619850000009345697357625982639_);fill:#FFFFFF;}
	.st51{opacity:0.23;clip-path:url(#XMLID_00000098905130445076619850000009345697357625982639_);fill:#FFFFFF;}
	.st52{opacity:0.12;clip-path:url(#XMLID_00000139982312219317029260000004576030584628372097_);fill:#FFFFFF;}
	.st53{opacity:3.000000e-02;clip-path:url(#XMLID_00000088106094256927661940000016278518089527766152_);}
	.st54{fill:#050500;}
	.st55{opacity:0.19;clip-path:url(#XMLID_00000088106094256927661940000016278518089527766152_);}
	.st56{opacity:3.000000e-02;clip-path:url(#XMLID_00000044157159331032942830000017270010233536213931_);}
	.st57{opacity:0.19;clip-path:url(#XMLID_00000044157159331032942830000017270010233536213931_);}
	.st58{opacity:0.27;clip-path:url(#XMLID_00000000924011377796154310000017854906214389615752_);}
	.st59{opacity:2.000000e-02;clip-path:url(#XMLID_00000127754646845476751370000003839927623140102822_);}
	.st60{opacity:0.41;clip-path:url(#XMLID_00000026861119354368945020000002156233987319052685_);fill:#8E5400;}
	.st61{opacity:0.66;clip-path:url(#XMLID_00000026861119354368945020000002156233987319052685_);fill:#8E5400;}
	.st62{opacity:5.000000e-02;clip-path:url(#XMLID_00000067956112145197889130000009713840329273528214_);}
	.st63{clip-path:url(#XMLID_00000067956112145197889130000009713840329273528214_);}
	.st64{opacity:0.33;clip-path:url(#XMLID_00000089567704001427449450000011861693621391047591_);fill:#FFFFFF;}
	.st65{opacity:0.61;clip-path:url(#XMLID_00000089567704001427449450000011861693621391047591_);fill:#D7DF00;}
	.st66{opacity:0.3;clip-path:url(#XMLID_00000089567704001427449450000011861693621391047591_);fill:#FFFFFF;}
	.st67{opacity:0.23;clip-path:url(#XMLID_00000089567704001427449450000011861693621391047591_);fill:#FFFFFF;}
	.st68{opacity:0.12;clip-path:url(#XMLID_00000067956112145197889130000009713840329273528214_);fill:#FFFFFF;}
	.st69{opacity:3.000000e-02;clip-path:url(#XMLID_00000055676601169740810290000008750807936555354524_);}
	.st70{opacity:0.19;clip-path:url(#XMLID_00000055676601169740810290000008750807936555354524_);}
	.st71{opacity:3.000000e-02;clip-path:url(#XMLID_00000082331798574065977350000011493798602243878809_);}
	.st72{opacity:0.19;clip-path:url(#XMLID_00000082331798574065977350000011493798602243878809_);}
	.st73{opacity:2.000000e-02;clip-path:url(#XMLID_00000132806864269633181840000012183001698928875399_);}
	.st74{opacity:0.27;clip-path:url(#XMLID_00000182495026747673160460000015631286482635489671_);}
	.st75{opacity:0.41;clip-path:url(#XMLID_00000016756927696144497240000004095181559217793462_);fill:#8E5400;}
	.st76{opacity:0.66;clip-path:url(#XMLID_00000016756927696144497240000004095181559217793462_);fill:#8E5400;}
	.st77{opacity:5.000000e-02;clip-path:url(#XMLID_00000103945377200885141820000007781554727911549570_);}
	.st78{clip-path:url(#XMLID_00000103945377200885141820000007781554727911549570_);fill:#BBD700;}
	.st79{clip-path:url(#XMLID_00000103945377200885141820000007781554727911549570_);}
	.st80{opacity:5.000000e-02;clip-path:url(#XMLID_00000080891965401409844590000008658361126422900614_);}
	.st81{opacity:0.3;clip-path:url(#XMLID_00000080891965401409844590000008658361126422900614_);fill:#FFFFFF;}
	.st82{opacity:9.000000e-02;}
	.st83{opacity:0.36;fill:#747477;}
	.st84{clip-path:url(#XMLID_00000067926863402505940200000004292420549449896125_);}
	.st85{fill:#603103;}
	.st86{opacity:0.39;clip-path:url(#XMLID_00000132063052708583235660000005440139711010108594_);fill:#754103;}
	.st87{fill:#824D02;}
	.st88{opacity:0.47;clip-path:url(#XMLID_00000026140390040051266110000000845728449879674005_);fill:#915602;}
	.st89{clip-path:url(#XMLID_00000026140390040051266110000000845728449879674005_);fill:#915602;}
	.st90{opacity:0.2;clip-path:url(#XMLID_00000133491720382329337040000011899937150009665962_);fill:#723F03;}
	.st91{opacity:0.48;clip-path:url(#XMLID_00000132067085169889789920000015053809232413583035_);fill:#683503;}
	.st92{opacity:0.53;clip-path:url(#XMLID_00000177473850411154659810000006052177995866862742_);fill:#8C5302;}
	.st93{opacity:4.000000e-02;}
	.st94{opacity:0.14;clip-path:url(#XMLID_00000036963518126838993470000016672662631062459800_);fill:#56B1BA;}
	.st95{opacity:0.14;clip-path:url(#XMLID_00000039818910327686858910000003856316851971142069_);fill:#56B1BA;}
	.st96{opacity:0.14;clip-path:url(#XMLID_00000054231519831905578650000017877720398999720094_);fill:#56B1BA;}
	.st97{fill:none;stroke:#FFFFFF;stroke-miterlimit:10;}
</style>
<g id="BACKGROUND" class="st0">
	<rect x="15.1" y="-382.2" class="st1" width="500" height="500"/>
</g>
<g id="OBJECTS">
	<g id="title">
		<text transform="matrix(1 0 0 1 -388.9176 -274.5323)"><tspan x="0" y="0" style="font-family:'TrashHand'; font-size:40px;">HOW TO MAKE </tspan><tspan x="64" y="36" style="font-family:'TrashHand'; font-size:40px;">MACHA</tspan></text>
		<g>
			<defs>
				<path id="XMLID_104_" d="M-200.7-233.2c-10.3,5.3-18.9-9.9-9.2-16.2c1.6-1.1,3.5-2,5.5-2.9c4.7-2.3,7-5.2,8.2-7.5
					c0.5-1.1,2.1-0.9,2.3,0.2C-192.2-252.5-190.3-238.5-200.7-233.2z"/>
			</defs>
			<use xlink:href="#XMLID_104_"  style="overflow:visible;fill:#BBD500;"/>
			<clipPath id="XMLID_00000040537978562455252360000007031068534022890165_">
				<use xlink:href="#XMLID_104_"  style="overflow:visible;"/>
			</clipPath>
			<path style="opacity:3.000000e-02;clip-path:url(#XMLID_00000040537978562455252360000007031068534022890165_);" d="
				M-195.1-263.8c0,0-0.1-0.4-1.9,2.9c1.5,9.2,1.7,26.2-14.3,27.6c-0.5,0-1.1,0-1.6-0.1c0.9,1.5,2.7,2.4,4.7,2.2
				C-183.9-233.3-195.1-263.8-195.1-263.8z"/>
			
				<polyline style="opacity:2.000000e-02;clip-path:url(#XMLID_00000040537978562455252360000007031068534022890165_);fill:none;stroke:#000000;stroke-width:0.6461;stroke-miterlimit:10;" points="
				-205,-254.2 -201,-245.5 -190.4,-246.8 			"/>
			
				<polyline style="opacity:2.000000e-02;clip-path:url(#XMLID_00000040537978562455252360000007031068534022890165_);fill:none;stroke:#000000;stroke-width:0.6461;stroke-miterlimit:10;" points="
				-209.4,-249.8 -205.4,-241.1 -190.1,-242.6 			"/>
			
				<polyline style="opacity:2.000000e-02;clip-path:url(#XMLID_00000040537978562455252360000007031068534022890165_);fill:none;stroke:#000000;stroke-width:0.6461;stroke-miterlimit:10;" points="
				-213.3,-244.6 -209.4,-235.9 -194.1,-237.4 			"/>
			
				<polyline style="opacity:2.000000e-02;clip-path:url(#XMLID_00000040537978562455252360000007031068534022890165_);fill:none;stroke:#000000;stroke-width:0.6461;stroke-miterlimit:10;" points="
				-202.5,-258.5 -198.6,-249.8 -188,-251.1 			"/>
		</g>
		<g>
			<defs>
				<path id="XMLID_105_" d="M-214.8-228.1c0,0,0-0.1,0.1-0.4c0.1-0.2,0.2-0.5,0.3-0.9c0.3-0.8,0.7-1.9,1.3-3.1
					c0.3-0.6,0.6-1.3,1.1-2c0.4-0.7,0.8-1.4,1.3-2.1c0.5-0.7,1-1.4,1.6-2.1c0.6-0.7,1.2-1.4,1.8-2.1c0.6-0.7,1.3-1.3,1.9-1.9
					c0.6-0.6,1.3-1.2,1.8-1.7c1.2-1.1,2.1-2.2,2.9-3.3c0.8-1,1.4-2,1.8-2.6c0.4-0.6,0.7-1,0.7-1l0,0c0.2-0.3,0.6-0.4,0.9-0.2
					c0.3,0.2,0.4,0.6,0.2,0.9c0,0-0.2,0.4-0.6,1.1c-0.4,0.7-0.9,1.6-1.6,2.8c-0.7,1.1-1.6,2.5-2.8,3.7c-0.6,0.6-1.1,1.3-1.7,1.9
					c-0.6,0.6-1.1,1.3-1.7,1.9c-0.5,0.7-1,1.4-1.5,2c-0.5,0.7-0.9,1.4-1.3,2.1c-0.4,0.7-0.8,1.4-1.1,2c-0.3,0.6-0.6,1.3-0.8,1.9
					c-0.5,1.2-0.8,2.2-1,2.8c-0.1,0.3-0.1,0.6-0.2,0.8c0,0.2,0,0.3,0,0.3l0,0c-0.2,0.9-1.1,1.5-2,1.4s-1.5-1.1-1.4-2
					C-214.9-228.1-214.9-228.1-214.8-228.1z"/>
			</defs>
			<use xlink:href="#XMLID_105_"  style="overflow:visible;fill:#B8C800;"/>
			<clipPath id="XMLID_00000140011908342127966670000007795336662979593905_">
				<use xlink:href="#XMLID_105_"  style="overflow:visible;"/>
			</clipPath>
			<path style="opacity:3.000000e-02;clip-path:url(#XMLID_00000140011908342127966670000007795336662979593905_);" d="
				M-197.9-250.8c-0.4,0.7-1,1.6-1.8,2.7c-0.8,1.1-1.8,2.4-3,3.6c-0.6,0.6-1.2,1.2-1.8,1.8c-0.6,0.6-1.2,1.2-1.8,1.8
				c-0.6,0.6-1.1,1.3-1.6,1.9c-0.5,0.7-1,1.3-1.4,2c-0.4,0.7-0.8,1.3-1.2,2c-0.4,0.6-0.7,1.2-0.9,1.8c-0.5,1.1-0.9,2.1-1.1,2.8
				c-0.1,0.3-0.2,0.6-0.2,0.8c0,0.2-0.1,0.3-0.1,0.3l0,0c-0.2,0.9-1.1,1.5-2.1,1.3c0,0,0,0-0.1,0c0,0,0,0,0,0.1
				c-0.2,0.9,0.4,1.8,1.4,2s1.8-0.4,2-1.4l0,0c0,0,0-0.1,0-0.3c0-0.2,0.1-0.4,0.2-0.8c0.2-0.7,0.5-1.7,1-2.8
				c0.2-0.6,0.5-1.2,0.8-1.9c0.3-0.7,0.7-1.3,1.1-2c0.4-0.7,0.8-1.4,1.3-2.1c0.5-0.7,1-1.4,1.5-2c0.5-0.7,1.1-1.3,1.7-1.9
				c0.6-0.6,1.2-1.3,1.7-1.9c1.1-1.3,2.1-2.6,2.8-3.7c0.7-1.2,1.2-2.1,1.6-2.8c0.4-0.7,0.6-1.1,0.6-1.1c0.2-0.3,0.1-0.7-0.2-0.8
				C-197.6-251.4-197.7-251.1-197.9-250.8z"/>
		</g>
		<g>
			<defs>
				<path id="XMLID_107_" d="M-323.1-242.2c8,8.3,21.1-3.2,13.9-12.3c-1.2-1.5-2.7-3-4.2-4.5c-3.7-3.7-4.9-7.2-5.3-9.8
					c-0.1-1.2-1.6-1.5-2.3-0.5C-324.9-263.2-331.2-250.6-323.1-242.2z"/>
			</defs>
			<use xlink:href="#XMLID_107_"  style="overflow:visible;fill:#BBD500;"/>
			<clipPath id="XMLID_00000067940665066323613800000013593374891613042074_">
				<use xlink:href="#XMLID_107_"  style="overflow:visible;"/>
			</clipPath>
			<path style="opacity:3.000000e-02;clip-path:url(#XMLID_00000067940665066323613800000013593374891613042074_);" d="
				M-318.4-272.9c0,0,0.3-0.3,0.9,3.4c-4.4,8.2-10.2,24.2,4.5,30.7c0.5,0.2,1,0.4,1.5,0.4c-1.4,1.1-3.4,1.4-5.2,0.6
				C-338.9-247.7-318.4-272.9-318.4-272.9z"/>
			
				<polyline style="opacity:2.000000e-02;clip-path:url(#XMLID_00000067940665066323613800000013593374891613042074_);fill:none;stroke:#000000;stroke-width:0.6461;stroke-miterlimit:10;" points="
				-312.2,-260.6 -318.7,-253.7 -328.3,-258.3 			"/>
			
				<polyline style="opacity:2.000000e-02;clip-path:url(#XMLID_00000067940665066323613800000013593374891613042074_);fill:none;stroke:#000000;stroke-width:0.6461;stroke-miterlimit:10;" points="
				-309.5,-255 -316,-248.1 -330,-254.5 			"/>
			
				<polyline style="opacity:2.000000e-02;clip-path:url(#XMLID_00000067940665066323613800000013593374891613042074_);fill:none;stroke:#000000;stroke-width:0.6461;stroke-miterlimit:10;" points="
				-307.4,-248.8 -314,-241.9 -328,-248.3 			"/>
			
				<polyline style="opacity:2.000000e-02;clip-path:url(#XMLID_00000067940665066323613800000013593374891613042074_);fill:none;stroke:#000000;stroke-width:0.6461;stroke-miterlimit:10;" points="
				-313.1,-265.5 -319.7,-258.5 -329.2,-263.2 			"/>
		</g>
		<g>
			<defs>
				<path id="XMLID_106_" d="M-311.3-232.8c0,0,0-0.1,0-0.4c0-0.2,0-0.6,0-1c0-0.8,0-2-0.2-3.4c-0.1-0.7-0.2-1.4-0.3-2.2
					c-0.1-0.8-0.3-1.6-0.6-2.4c-0.2-0.8-0.5-1.7-0.8-2.5c-0.3-0.8-0.6-1.7-1-2.5c-0.3-0.8-0.8-1.6-1.2-2.4c-0.4-0.8-0.8-1.5-1.2-2.2
					c-0.7-1.4-1.3-2.8-1.6-4c-0.4-1.2-0.7-2.3-0.8-3c-0.2-0.7-0.3-1.2-0.3-1.2l0,0c-0.1-0.3-0.4-0.6-0.8-0.5
					c-0.3,0.1-0.5,0.4-0.5,0.7c0,0,0.1,0.4,0.2,1.2c0.1,0.8,0.3,1.9,0.6,3.2c0.3,1.3,0.8,2.9,1.4,4.4c0.3,0.8,0.7,1.6,1,2.4
					c0.3,0.8,0.7,1.6,0.9,2.4c0.3,0.8,0.5,1.6,0.8,2.4c0.2,0.8,0.4,1.6,0.6,2.4c0.1,0.8,0.3,1.5,0.3,2.2c0.1,0.7,0.1,1.4,0.2,2
					c0.1,1.3,0,2.3,0,3c0,0.4-0.1,0.6-0.1,0.8c0,0.2,0,0.3,0,0.3l0,0c-0.1,0.9,0.5,1.8,1.4,1.9c0.9,0.1,1.8-0.5,1.9-1.4
					C-311.3-232.7-311.3-232.7-311.3-232.8z"/>
			</defs>
			<use xlink:href="#XMLID_106_"  style="overflow:visible;fill:#B8C800;"/>
			<clipPath id="XMLID_00000155850731690081734050000006827323281444736951_">
				<use xlink:href="#XMLID_106_"  style="overflow:visible;"/>
			</clipPath>
			<path style="opacity:3.000000e-02;clip-path:url(#XMLID_00000155850731690081734050000006827323281444736951_);" d="M-320-259.7
				c0.2,0.8,0.4,1.8,0.8,3.1c0.4,1.3,0.9,2.8,1.6,4.4c0.4,0.8,0.8,1.5,1.1,2.3c0.4,0.8,0.8,1.5,1.1,2.3c0.3,0.8,0.6,1.6,0.9,2.4
				c0.3,0.8,0.5,1.6,0.7,2.3c0.2,0.8,0.4,1.5,0.5,2.2c0.1,0.7,0.2,1.4,0.3,2c0.1,1.2,0.1,2.3,0.1,3c0,0.4,0,0.6,0,0.8
				c0,0.2,0,0.3,0,0.3l0,0c-0.1,0.9,0.6,1.8,1.5,1.9c0,0,0,0,0.1,0c0,0,0,0,0,0.1c-0.1,0.9-1,1.6-1.9,1.4c-0.9-0.1-1.6-1-1.4-1.9
				l0,0c0,0,0-0.1,0-0.3c0-0.2,0.1-0.4,0.1-0.8c0.1-0.7,0.1-1.7,0-3c0-0.6-0.1-1.3-0.2-2c-0.1-0.7-0.2-1.5-0.3-2.2
				c-0.1-0.8-0.3-1.6-0.6-2.4c-0.2-0.8-0.5-1.6-0.8-2.4c-0.3-0.8-0.6-1.6-0.9-2.4c-0.4-0.8-0.7-1.6-1-2.4c-0.7-1.6-1.1-3.1-1.4-4.4
				c-0.3-1.3-0.5-2.4-0.6-3.2c-0.1-0.8-0.2-1.2-0.2-1.2c-0.1-0.3,0.1-0.6,0.5-0.7C-320.1-260.4-320-260.1-320-259.7z"/>
		</g>
	</g>
	<g>
		<g>
			<defs>
				<circle id="XMLID_31_" cx="263.1" cy="-208" r="13.7"/>
			</defs>
			<use xlink:href="#XMLID_31_"  style="overflow:visible;fill:#BBD500;"/>
			<clipPath id="XMLID_00000074401663827726909390000017972964274761013380_">
				<use xlink:href="#XMLID_31_"  style="overflow:visible;"/>
			</clipPath>
			<path style="opacity:2.000000e-02;clip-path:url(#XMLID_00000074401663827726909390000017972964274761013380_);" d="M268.8-220.5
				c1.3,2.1,2,4.5,2,7.1c0,7.6-6.1,13.7-13.7,13.7c-2,0-3.9-0.5-5.7-1.2c2.4,3.9,6.7,6.6,11.7,6.6c7.6,0,13.7-6.1,13.7-13.7
				C276.8-213.6,273.5-218.3,268.8-220.5z"/>
		</g>
		<text transform="matrix(1 0 0 1 256.4885 -200.7552)" class="st17" style="font-family:'TrashHand'; font-size:24.4902px;">1</text>
	</g>
	<text transform="matrix(1 0 0 1 223.7971 -176.5346)"><tspan x="0" y="0" style="font-family:'Montserrat-Regular'; font-size:10px;">Add 1-2 teaspoon </tspan><tspan x="-2.8" y="12" style="font-family:'Montserrat-Regular'; font-size:10px;">matcha into a cup </tspan></text>
	<g>
		<ellipse class="st9" cx="379.2" cy="-105.8" rx="31.8" ry="7"/>
		<path class="st10" d="M361.6-112.2c0,0,4.3,2.3,5.7,3.9c1.2,1.3,2.6,2.4,4.4,2.7c3,0.6,7.8,1.1,13.4,0.1c2-0.4,3.9-1.4,5-3.2
			c0.4-0.6,1.8-2.1,3.1-2.5"/>
		<g>
			<g>
				<defs>
					<path id="XMLID_36_" d="M408-116.3c-1.8,0-3.9-0.4-6.3-1.4c-0.8-0.3-1.1-1.2-0.8-2c0.3-0.8,1.2-1.1,2-0.8
						c5.2,2.1,9.4,1.2,11.9-2.6c2.5-3.8,2.6-9.4,0.1-11.8c-1.1-1.1-2.1-1.6-3.2-1.4c-2,0.3-3.7,2.8-4.2,3.6c-0.4,0.7-1.3,1-2,0.6
						c-0.7-0.4-1-1.3-0.6-2c0.3-0.5,2.6-4.6,6.4-5.2c2-0.3,3.9,0.5,5.7,2.3c3.5,3.5,3.6,10.6,0.2,15.6
						C416.1-119.5,413.3-116.3,408-116.3z"/>
				</defs>
				<use xlink:href="#XMLID_36_"  style="overflow:visible;fill:#996000;"/>
				<clipPath id="XMLID_00000137107254136858018030000005412931145478494131_">
					<use xlink:href="#XMLID_36_"  style="overflow:visible;"/>
				</clipPath>
				<g style="opacity:0.27;clip-path:url(#XMLID_00000137107254136858018030000005412931145478494131_);">
					<path class="st12" d="M411.5-137.1c-2,0.3-4.7,2.7-5.1,3.6c-0.4,0.6-1.1,0.9-1.8,0.7c0,0.5,0.3,1,0.8,1.3
						c0.7,0.4,1.7,0.1,2.1-0.6c0.5-0.9,2.3-3.4,4.3-3.7c1-0.1,2.3,2,3.4,3c-0.2-0.5,0.8-0.2,0.5-1.5
						C415-136.1,413.5-137.4,411.5-137.1z"/>
					<path class="st12" d="M417.8-136.8c2.4,3.8,2.1,10-0.9,14.4c-1.2,1.8-4.1,5.1-9.4,5.1c-1.8,0-3.9-0.4-6.2-1.3
						c0,0.6,0.4,1.1,0.9,1.3c2.4,1,4.5,1.4,6.4,1.4c5.3,0,8.3-3.3,9.4-5.1C421.3-126,421.2-133.2,417.8-136.8z"/>
				</g>
			</g>
		</g>
		<g>
			<defs>
				<path id="XMLID_35_" d="M348.1-141.4c0,0-3.3,32.8,29.7,33c36.9,0.3,30.3-33,30.3-33"/>
			</defs>
			<use xlink:href="#XMLID_35_"  style="overflow:visible;fill:#996000;"/>
			<clipPath id="XMLID_00000070798181301687856440000013961664689977176716_">
				<use xlink:href="#XMLID_35_"  style="overflow:visible;"/>
			</clipPath>
			<path style="opacity:0.41;clip-path:url(#XMLID_00000070798181301687856440000013961664689977176716_);fill:#8E5400;" d="
				M408.2-141.4h-9.5c0.5,8.4-1,30-30.7,29.7c-2.3,0-4.4-0.2-6.4-0.5c4.1,2.3,9.4,3.8,16.3,3.8C414.8-108.1,408.2-141.4,408.2-141.4
				z"/>
			<path style="opacity:0.66;clip-path:url(#XMLID_00000070798181301687856440000013961664689977176716_);fill:#8E5400;" d="
				M411.2-142.4l-9.5,0.8c1.3,8.3,1.6,29.9-28.1,32.2c-2.3,0.2-4.4,0.2-6.4,0c4.3,1.9,9.7,3,16.5,2.4
				C420.7-109.8,411.2-142.4,411.2-142.4z"/>
		</g>
		<g>
			<defs>
				<path id="XMLID_37_" d="M408.2-141.4c0,3.8-13.4,6.9-30,6.9c-16.6,0-30-3.1-30-6.9s13.4-6.9,30-6.9
					C394.8-148.3,408.2-145.2,408.2-141.4z"/>
			</defs>
			<use xlink:href="#XMLID_37_"  style="overflow:visible;fill:#7A4800;"/>
			<clipPath id="XMLID_00000029005631567754983550000002912848372770787508_">
				<use xlink:href="#XMLID_37_"  style="overflow:visible;"/>
			</clipPath>
			<path style="opacity:5.000000e-02;clip-path:url(#XMLID_00000029005631567754983550000002912848372770787508_);" d="M378.2-148.3
				c-15.8,0-28.8,2.8-29.9,6.4c5.1-2.1,15-3.6,26.3-3.6c16.6,0,30,3.1,30,6.9c0,0.2,0,0.3-0.1,0.5c2.4-1,3.7-2.1,3.7-3.3
				C408.2-145.2,394.8-148.3,378.2-148.3z"/>
		</g>
		<g class="st16">
			<path class="st17" d="M354.4-134c3,5.4,5.8,10,9.7,14.8c0.7,0.9,0,2.3-1.1,2.1c-5.6-0.7-9.8-5.9-10.9-11.2
				c-0.3-1.5-1-6.8,1.5-6.3C353.9-134.5,354.2-134.3,354.4-134L354.4-134z"/>
		</g>
		<g>
			<defs>
				<path id="XMLID_40_" d="M450.9-169.9c-0.1-0.8-0.9-1.4-1.7-1.2l-42.2,6.9l-4.3,0.7l-15.4,2.5c-0.6,0.1-0.9,0.6-0.7,1.2
					c1.4,5.2,6.5,8.5,11.9,7.7c4-0.6,7-3.4,8.2-7c0.4-1.3,1.5-2.2,2.9-2.5l40.2-6.6C450.4-168.3,451-169,450.9-169.9L450.9-169.9z"
					/>
			</defs>
			<use xlink:href="#XMLID_40_"  style="overflow:visible;fill:#996000;"/>
			<clipPath id="XMLID_00000088118490401825736740000002480885521089634184_">
				<use xlink:href="#XMLID_40_"  style="overflow:visible;"/>
			</clipPath>
			<path style="opacity:5.000000e-02;clip-path:url(#XMLID_00000088118490401825736740000002480885521089634184_);" d="M450.2-171.1
				c0.2,0.9-1.2,1.5-1.8,1.6l-40.2,6.6c-1.3,0.2-2.5,1.2-2.9,2.5c-1.2,3.6-4.3,6.3-8.2,7c-3.4,0.6-6.7-0.6-9-2.9
				c2.2,3.4,6.3,5.4,10.6,4.7c4-0.6,7-3.4,8.2-7c0.4-1.3,1.5-2.2,2.9-2.5l40.2-6.6c0.8-0.1,1.4-0.9,1.2-1.7
				C451-170.1,450.9-171.1,450.2-171.1z"/>
			<path style="opacity:5.000000e-02;clip-path:url(#XMLID_00000088118490401825736740000002480885521089634184_);" d="M385.7-160.2
				c0,0,5.6,5.9,16.5,0.1c0,0-10.8,2.5-15.9-1.1L385.7-160.2z"/>
		</g>
		<g>
			<defs>
				<path id="XMLID_41_" d="M386.6-160.3c0,0,4.8,3.5,11.6,1.6c6.8-1.8,6.7-5.1,6.7-5.1s-1.1-2.8-2.7-2.9c-1.6-0.1-1.3-2.3-3.3-2.3
					c-1,0-2.3-1.9-4.1-1.8c-1.7,0.1-1.7,1.9-3.1,2.6c-1.4,0.7-1.2,2.3-2.1,2.8c-0.8,0.4-0.9,2.7-2,3
					C386.4-161.9,386.6-160.3,386.6-160.3z"/>
			</defs>
			<use xlink:href="#XMLID_41_"  style="overflow:visible;fill:#BBD700;"/>
			<clipPath id="XMLID_00000043448791094017454090000018114404538467187618_">
				<use xlink:href="#XMLID_41_"  style="overflow:visible;"/>
			</clipPath>
			<path style="opacity:5.000000e-02;clip-path:url(#XMLID_00000043448791094017454090000018114404538467187618_);" d="M392.5-172
				c0,0,4.6,3.2,4.8,5.8s2.7,1.5,3.5,3.2c0.8,1.7,2.6,5.1,2.6,5.1l3.5-5.8C406.8-163.8,396.9-174.3,392.5-172z"/>
			<path style="opacity:5.000000e-02;clip-path:url(#XMLID_00000043448791094017454090000018114404538467187618_);" d="M393.1-171.8
				c0,0,5,2.6,5.5,5.1c0.6,2.6,2.8,1.1,3.8,2.7c1,1.6,3.2,4.7,3.2,4.7l2.7-6.3C408.4-165.5,397.1-174.6,393.1-171.8z"/>
			<path style="opacity:0.3;clip-path:url(#XMLID_00000043448791094017454090000018114404538467187618_);fill:#FFFFFF;" d="
				M390.1-161.4c0,0.3-0.1,0.5-0.4,0.6c-0.3,0-0.5-0.1-0.6-0.4c0-0.3,0.1-0.5,0.4-0.6C389.8-161.8,390.1-161.6,390.1-161.4z"/>
			<path style="opacity:0.3;clip-path:url(#XMLID_00000043448791094017454090000018114404538467187618_);fill:#FFFFFF;" d="
				M392.7-163.6c0.3,0.4,0.1,0.2-0.2,0.6c-0.2,0.4-0.5,0.9-0.9,0.6c-0.4-0.3-0.6-0.8-0.4-1.2C391.5-164,392-164.4,392.7-163.6z"/>
			<path style="opacity:0.3;clip-path:url(#XMLID_00000043448791094017454090000018114404538467187618_);fill:#FFFFFF;" d="
				M392.4-160.9c0,0.3-0.1,0.5-0.4,0.6c-0.3,0-0.5-0.1-0.6-0.4c0-0.3,0.1-0.5,0.4-0.6C392.1-161.3,392.4-161.2,392.4-160.9z"/>
			<path style="opacity:0.3;clip-path:url(#XMLID_00000043448791094017454090000018114404538467187618_);fill:#FFFFFF;" d="
				M403.6-157.1c0,0.1-0.1,0.3-0.2,0.3c-0.1,0-0.3-0.1-0.3-0.2c0-0.1,0.1-0.3,0.2-0.3C403.4-157.4,403.6-157.3,403.6-157.1z"/>
			<path style="opacity:0.3;clip-path:url(#XMLID_00000043448791094017454090000018114404538467187618_);fill:#FFFFFF;" d="
				M390.1-163.1c0,0.1-0.1,0.3-0.2,0.3c-0.1,0-0.3-0.1-0.3-0.2c0-0.1,0.1-0.3,0.2-0.3C390-163.3,390.1-163.3,390.1-163.1z"/>
			<path style="opacity:0.3;clip-path:url(#XMLID_00000043448791094017454090000018114404538467187618_);fill:#FFFFFF;" d="
				M394.3-160.4c0,0.3-0.1,0.5-0.4,0.6c-0.3,0-0.5-0.1-0.6-0.4c0-0.3,0.1-0.5,0.4-0.6C394-160.9,394.2-160.7,394.3-160.4z"/>
			<path style="opacity:0.3;clip-path:url(#XMLID_00000043448791094017454090000018114404538467187618_);fill:#FFFFFF;" d="
				M393.6-162.1c0,0.1-0.1,0.3-0.2,0.3c-0.1,0-0.3-0.1-0.3-0.2c0-0.1,0.1-0.3,0.2-0.3C393.5-162.3,393.6-162.2,393.6-162.1z"/>
		</g>
	</g>
	<g>
		<g>
			<defs>
				<circle id="XMLID_81_" cx="264.1" cy="-27.8" r="13.7"/>
			</defs>
			<use xlink:href="#XMLID_81_"  style="overflow:visible;fill:#BBD500;"/>
			<clipPath id="XMLID_00000116918931008632785990000007562573941924807352_">
				<use xlink:href="#XMLID_81_"  style="overflow:visible;"/>
			</clipPath>
			<path style="opacity:2.000000e-02;clip-path:url(#XMLID_00000116918931008632785990000007562573941924807352_);" d="M269.8-40.2
				c1.3,2.1,2,4.5,2,7.1c0,7.6-6.1,13.7-13.7,13.7c-2,0-3.9-0.5-5.7-1.2c2.4,3.9,6.7,6.6,11.7,6.6c7.6,0,13.7-6.1,13.7-13.7
				C277.8-33.3,274.5-38.1,269.8-40.2z"/>
		</g>
		<text transform="matrix(1 0 0 1 258.4879 -21.5187)" class="st17" style="font-family:'TrashHand'; font-size:24.4902px;">3</text>
	</g>
	<text transform="matrix(1 0 0 1 229.6716 3.7019)"><tspan x="0" y="0" style="font-family:'Montserrat-Regular'; font-size:10px;">Stir until it gets </tspan><tspan x="-11.9" y="12" style="font-family:'Montserrat-Regular'; font-size:10px;">dissolved and foamy</tspan></text>
	<ellipse class="st9" cx="316.4" cy="101.2" rx="31.8" ry="7"/>
	<path class="st10" d="M298.8,94.8c0,0,4.3,2.3,5.7,3.9c1.2,1.3,2.6,2.4,4.4,2.7c3,0.6,7.8,1.1,13.4,0.1c2-0.4,3.9-1.4,5-3.2
		c0.4-0.6,1.8-2.1,3.1-2.5"/>
	<g>
		<g>
			<defs>
				<path id="XMLID_85_" d="M345.3,90.7c-1.8,0-3.9-0.4-6.3-1.4c-0.8-0.3-1.1-1.2-0.8-2c0.3-0.8,1.2-1.1,2-0.8
					c5.2,2.1,9.4,1.2,11.9-2.6c2.5-3.8,2.6-9.4,0.1-11.8c-1.1-1.1-2.1-1.6-3.2-1.4c-2,0.3-3.7,2.8-4.2,3.6c-0.4,0.7-1.3,1-2,0.6
					c-0.7-0.4-1-1.3-0.6-2c0.3-0.5,2.6-4.6,6.4-5.2c2-0.3,3.9,0.5,5.7,2.3c3.5,3.5,3.6,10.6,0.2,15.6
					C353.4,87.4,350.5,90.7,345.3,90.7z"/>
			</defs>
			<use xlink:href="#XMLID_85_"  style="overflow:visible;fill:#996000;"/>
			<clipPath id="XMLID_00000129907780069383307120000016151672908496493235_">
				<use xlink:href="#XMLID_85_"  style="overflow:visible;"/>
			</clipPath>
			<g style="opacity:0.27;clip-path:url(#XMLID_00000129907780069383307120000016151672908496493235_);">
				<path class="st12" d="M348.7,69.8c-2,0.3-4.7,2.7-5.1,3.6c-0.4,0.6-1.1,0.9-1.8,0.7c0,0.5,0.3,1,0.8,1.3
					c0.7,0.4,1.7,0.1,2.1-0.6c0.5-0.9,2.3-3.4,4.3-3.7c1-0.1,2.3,2,3.4,3c-0.2-0.5,0.8-0.2,0.5-1.5
					C352.2,70.9,350.7,69.6,348.7,69.8z"/>
				<path class="st12" d="M355,70.2c2.4,3.8,2.1,10-0.9,14.4c-1.2,1.8-4.1,5.1-9.4,5.1c-1.8,0-3.9-0.4-6.2-1.3
					c0,0.6,0.4,1.1,0.9,1.3c2.4,1,4.5,1.4,6.4,1.4c5.3,0,8.3-3.3,9.5-5.1C358.5,81,358.4,73.8,355,70.2z"/>
			</g>
		</g>
	</g>
	<g>
		<defs>
			<path id="XMLID_84_" d="M285.4,65.6c0,0-3.3,32.8,29.7,33c36.9,0.3,30.3-33,30.3-33"/>
		</defs>
		<use xlink:href="#XMLID_84_"  style="overflow:visible;fill:#996000;"/>
		<clipPath id="XMLID_00000152262500862240829750000001208150863410665357_">
			<use xlink:href="#XMLID_84_"  style="overflow:visible;"/>
		</clipPath>
		<path style="opacity:0.41;clip-path:url(#XMLID_00000152262500862240829750000001208150863410665357_);fill:#8E5400;" d="
			M345.4,65.6h-9.5c0.5,8.4-1,30-30.7,29.7c-2.3,0-4.4-0.2-6.4-0.5c4.1,2.3,9.4,3.8,16.3,3.8C352,98.9,345.4,65.6,345.4,65.6z"/>
		<path style="opacity:0.66;clip-path:url(#XMLID_00000152262500862240829750000001208150863410665357_);fill:#8E5400;" d="
			M348.4,64.6l-9.5,0.8c1.3,8.3,1.6,29.9-28.1,32.2c-2.3,0.2-4.4,0.2-6.4,0c4.3,1.9,9.7,3,16.5,2.4
			C357.9,97.2,348.4,64.6,348.4,64.6z"/>
	</g>
	<g>
		<defs>
			<path id="XMLID_33_" d="M345.4,65.6c0,3.8-13.4,6.9-30,6.9c-16.6,0-30-3.1-30-6.9s13.4-6.9,30-6.9
				C332,58.7,345.4,61.8,345.4,65.6z"/>
		</defs>
		<use xlink:href="#XMLID_33_"  style="overflow:visible;fill:#7A4800;"/>
		<clipPath id="XMLID_00000025410970233962316230000007519978836748117924_">
			<use xlink:href="#XMLID_33_"  style="overflow:visible;"/>
		</clipPath>
		<path style="opacity:5.000000e-02;clip-path:url(#XMLID_00000025410970233962316230000007519978836748117924_);" d="M315.4,58.7
			c-15.8,0-28.8,2.8-29.9,6.4c5.1-2.1,15-3.6,26.3-3.6c16.6,0,30,3.1,30,6.9c0,0.2,0,0.3-0.1,0.5c2.4-1,3.7-2.1,3.7-3.3
			C345.4,61.8,332,58.7,315.4,58.7z"/>
		<g style="clip-path:url(#XMLID_00000025410970233962316230000007519978836748117924_);">
			<defs>
				<path id="XMLID_83_" d="M345.4,71.2c0,3.8-13.4,6.9-30,6.9c-16.6,0-30-3.1-30-6.9c0-3.8,13.4-6.9,30-6.9
					C332,64.3,345.4,67.4,345.4,71.2z"/>
			</defs>
			<use xlink:href="#XMLID_83_"  style="overflow:visible;fill:#BBD700;"/>
			<clipPath id="XMLID_00000053519865663542618070000005491328037653212299_">
				<use xlink:href="#XMLID_83_"  style="overflow:visible;"/>
			</clipPath>
			<g style="clip-path:url(#XMLID_00000053519865663542618070000005491328037653212299_);">
				<defs>
					<path id="XMLID_102_" d="M401.5-24.3c0,0,9.8,11.1,27.3,10.6c17.6-0.6,19.1-8.5,19.1-8.5s-1-7.3-4.9-8.6s-1.8-6.2-6.8-7.4
						c-2.4-0.6-4.6-6-8.8-6.8c-4.2-0.8-5.3,3.7-9.1,4.7c-3.8,1-4.3,5-6.6,5.6c-2.3,0.6-3.6,6-6.7,6.3
						C402-28.2,401.5-24.3,401.5-24.3z"/>
				</defs>
				<use xlink:href="#XMLID_102_"  style="overflow:visible;fill:#BBD700;"/>
				<clipPath id="XMLID_00000140706541719332491260000008046175400133794221_">
					<use xlink:href="#XMLID_102_"  style="overflow:visible;"/>
				</clipPath>
				<path style="opacity:5.000000e-02;clip-path:url(#XMLID_00000140706541719332491260000008046175400133794221_);" d="M422.4-49.2
					c0,0,9.3,10.4,8.4,16.8c-0.9,6.4,5.7,5.1,6.6,9.7c1,4.6,3.4,13.7,3.4,13.7l11.8-12.2C452.6-21.2,434.3-52.4,422.4-49.2z"/>
				<path style="opacity:5.000000e-02;clip-path:url(#XMLID_00000140706541719332491260000008046175400133794221_);" d="M423.7-48.3
					c0,0,10.6,9.1,10.5,15.6c-0.1,6.5,6.3,4.4,7.8,8.8c1.5,4.4,5.1,13.2,5.1,13.2l10.1-13.7C457.3-24.5,435.2-53.1,423.7-48.3z"/>
				<path style="opacity:0.3;clip-path:url(#XMLID_00000140706541719332491260000008046175400133794221_);fill:#FFFFFF;" d="
					M410.6-24.8c0,0.7-0.6,1.2-1.3,1.2c-0.7,0-1.2-0.6-1.2-1.3s0.6-1.2,1.3-1.2C410.2-26.1,410.7-25.5,410.6-24.8z"/>
				<path style="opacity:0.3;clip-path:url(#XMLID_00000140706541719332491260000008046175400133794221_);fill:#FFFFFF;" d="
					M418.1-28.8c0.6,1.1,0,0.6-0.8,1.5c-0.8,0.9-1.7,1.9-2.6,1c-0.9-0.9-1-2.3-0.2-3.2C415.4-30.4,416.8-31.2,418.1-28.8z"/>
				<path style="opacity:0.3;clip-path:url(#XMLID_00000140706541719332491260000008046175400133794221_);fill:#FFFFFF;" d="
					M415.9-22.3c0,0.7-0.6,1.2-1.3,1.2c-0.7,0-1.2-0.6-1.2-1.3c0-0.7,0.6-1.2,1.3-1.2C415.4-23.6,416-23,415.9-22.3z"/>
				<path style="opacity:0.3;clip-path:url(#XMLID_00000140706541719332491260000008046175400133794221_);fill:#FFFFFF;" d="
					M440.9-6.9c0,0.3-0.3,0.6-0.7,0.6c-0.3,0-0.6-0.3-0.6-0.7c0-0.3,0.3-0.6,0.7-0.6C440.7-7.5,441-7.2,440.9-6.9z"/>
				<path style="opacity:0.3;clip-path:url(#XMLID_00000140706541719332491260000008046175400133794221_);fill:#FFFFFF;" d="
					M411.7-29c0,0.3-0.3,0.6-0.7,0.6c-0.3,0-0.6-0.3-0.6-0.7c0-0.3,0.3-0.6,0.7-0.6C411.4-29.7,411.7-29.4,411.7-29z"/>
				<path style="opacity:0.3;clip-path:url(#XMLID_00000140706541719332491260000008046175400133794221_);fill:#FFFFFF;" d="
					M420.2-20.1c0,0.7-0.6,1.2-1.3,1.2c-0.7,0-1.2-0.6-1.2-1.3c0-0.7,0.6-1.2,1.3-1.2C419.7-21.4,420.3-20.8,420.2-20.1z"/>
				<path style="opacity:0.3;clip-path:url(#XMLID_00000140706541719332491260000008046175400133794221_);fill:#FFFFFF;" d="
					M419.6-24.5c0,0.3-0.3,0.6-0.7,0.6c-0.3,0-0.6-0.3-0.6-0.7c0-0.3,0.3-0.6,0.7-0.6C419.3-25.2,419.6-24.9,419.6-24.5z"/>
			</g>
		</g>
		
			<path id="XMLID_82_" style="opacity:0.12;clip-path:url(#XMLID_00000025410970233962316230000007519978836748117924_);fill:#FFFFFF;" d="
			M348.9,72.7c0,3.8-13.4,6.9-30,6.9c-16.6,0-30-3.1-30-6.9c0-3.8,13.4-6.9,30-6.9C335.5,65.8,348.9,68.9,348.9,72.7z"/>
		
			<path id="XMLID_86_" style="opacity:0.12;clip-path:url(#XMLID_00000025410970233962316230000007519978836748117924_);fill:#FFFFFF;" d="
			M353.2,75.2c0,3.8-13.4,6.9-30,6.9c-16.6,0-30-3.1-30-6.9c0-3.8,13.4-6.9,30-6.9C339.7,68.3,353.2,71.4,353.2,75.2z"/>
	</g>
	<g>
		<g>
			<g>
				<defs>
					<path id="XMLID_94_" d="M343.5,48c0.1-0.1,0.2-0.2,0.4-0.1c0.2,0.1,0.2,0.3,0.2,0.4c-0.3,0.6-6.4,15.6-8.5,18.6
						c-0.7,1.1-1.5,1.6-2.4,1.7c-1,0.1-1.7-0.5-1.7-0.5c-0.1-0.1-0.1-0.3,0-0.4c0.1-0.1,0.3-0.1,0.4,0c0,0,0.5,0.4,1.2,0.3
						c0.7-0.1,1.3-0.6,1.9-1.5C337,63.6,343.4,48.2,343.5,48C343.5,48,343.5,48,343.5,48z"/>
				</defs>
				<use xlink:href="#XMLID_94_"  style="overflow:visible;fill:#4A2C04;"/>
				<clipPath id="XMLID_00000060708810552237165160000016245750942067682978_">
					<use xlink:href="#XMLID_94_"  style="overflow:visible;"/>
				</clipPath>
				<path style="clip-path:url(#XMLID_00000060708810552237165160000016245750942067682978_);fill:#3B2205;" d="M331.6,68.1
					c-0.1,0-0.1-0.1-0.1-0.2c0.2,0.1,0.8,0.5,1.6,0.4c0.8-0.1,1.5-0.6,2.1-1.5c0.1-0.1,0.1-0.2,0.2-0.3c2-3,8.1-18,8.3-18.6
					c0-0.1,0-0.1,0-0.2c0.1,0.1,0.2,0.2,0.1,0.4c-0.3,0.6-6.3,15.6-8.3,18.6c-0.1,0.1-0.1,0.2-0.2,0.3c-0.7,0.9-1.4,1.4-2.1,1.5
					C332.3,68.7,331.7,68.1,331.6,68.1z"/>
			</g>
		</g>
		<g>
			<g>
				<defs>
					<path id="XMLID_93_" d="M326.8,64.8C326.8,64.8,326.9,64.8,326.8,64.8c0.2-0.2,0.4-0.2,0.5,0c0,0,0.5,0.5,1.2,0.5
						c0.7,0,1.3-0.4,2-1.3c2.3-2.7,10.2-17.3,10.2-17.5c0.1-0.2,0.3-0.2,0.4-0.1c0.2,0.1,0.2,0.3,0.1,0.4c-0.3,0.6-8,14.9-10.3,17.6
						c-0.8,1-1.7,1.5-2.5,1.5c-1,0-1.6-0.6-1.6-0.7C326.8,65.1,326.7,64.9,326.8,64.8z"/>
				</defs>
				<use xlink:href="#XMLID_93_"  style="overflow:visible;fill:#4A2C04;"/>
				<clipPath id="XMLID_00000052819534668617167420000001198455649452849811_">
					<use xlink:href="#XMLID_93_"  style="overflow:visible;"/>
				</clipPath>
				<path style="clip-path:url(#XMLID_00000052819534668617167420000001198455649452849811_);fill:#3B2205;" d="M326.9,65.2
					c0-0.1-0.1-0.1-0.1-0.2c0.2,0.2,0.7,0.6,1.6,0.6c0.8,0,1.5-0.4,2.3-1.2c0.1-0.1,0.2-0.2,0.2-0.3c2.3-2.8,9.9-17,10.2-17.6
					c0-0.1,0-0.1,0-0.2c0.1,0.1,0.2,0.3,0.1,0.4c-0.3,0.6-7.9,14.9-10.2,17.6c-0.1,0.1-0.2,0.2-0.2,0.3c-0.7,0.8-1.5,1.2-2.3,1.2
					C327.5,65.9,326.9,65.3,326.9,65.2z"/>
			</g>
		</g>
		<g>
			<g>
				<defs>
					<path id="XMLID_92_" d="M340.2,45.7c0.1-0.1,0.3-0.2,0.4-0.1c0.1,0.1,0.2,0.3,0.1,0.4c-0.4,0.6-9.5,14.5-12.1,17.2
						c-0.4,0.4-0.9,0.8-1.3,1c-0.2,0.1-0.4,0-0.4-0.1c-0.1-0.2,0-0.4,0.1-0.4c0.4-0.2,0.7-0.5,1.1-0.9
						C330.7,60.2,340.1,45.8,340.2,45.7C340.2,45.7,340.2,45.7,340.2,45.7z"/>
				</defs>
				<use xlink:href="#XMLID_92_"  style="overflow:visible;fill:#4A2C04;"/>
				<clipPath id="XMLID_00000083778368763671372230000014364744030705499306_">
					<use xlink:href="#XMLID_92_"  style="overflow:visible;"/>
				</clipPath>
				<path style="clip-path:url(#XMLID_00000083778368763671372230000014364744030705499306_);fill:#3B2205;" d="M340.6,45.9
					c-0.4,0.6-9.5,14.5-12.1,17.2c-0.4,0.4-0.9,0.8-1.3,1c-0.1,0-0.1,0-0.2,0c0,0,0,0,0,0c0.1,0.2,0.3,0.2,0.4,0.1
					c0.4-0.2,0.9-0.6,1.3-1c2.6-2.6,11.7-16.6,12.1-17.2c0.1-0.1,0.1-0.3-0.1-0.4c0,0-0.1,0-0.1,0C340.6,45.7,340.6,45.8,340.6,45.9
					z"/>
			</g>
		</g>
		<g>
			<g>
				<defs>
					<path id="XMLID_91_" d="M320.3,55.6c0.1-0.1,0.1-0.2,0.2-0.3c2.4-2.7,15.4-12.3,16-12.7c0.1-0.1,0.3-0.1,0.4,0.1
						c0.1,0.1,0.1,0.3-0.1,0.4c-0.1,0.1-13.5,10-15.9,12.6c-0.7,0.8-1,1.5-1,2.2c0.1,0.7,0.6,1.1,0.6,1.1c0.1,0.1,0.2,0.3,0.1,0.4
						c-0.1,0.1-0.3,0.2-0.4,0.1c0,0-0.8-0.5-0.9-1.5C319.3,57.2,319.6,56.4,320.3,55.6z"/>
				</defs>
				<use xlink:href="#XMLID_91_"  style="overflow:visible;fill:#4A2C04;"/>
				<clipPath id="XMLID_00000177463692137824171380000003940746315444541058_">
					<use xlink:href="#XMLID_91_"  style="overflow:visible;"/>
				</clipPath>
				<path style="clip-path:url(#XMLID_00000177463692137824171380000003940746315444541058_);fill:#3B2205;" d="M320.3,59.5
					c0.1,0,0.1,0.1,0.2,0c-0.2-0.1-0.7-0.6-0.8-1.5c-0.1-0.8,0.2-1.6,0.9-2.4c0.1-0.1,0.1-0.2,0.2-0.3c2.4-2.7,15.4-12.3,16-12.7
					c0,0,0.1,0,0.2-0.1c-0.1-0.1-0.3-0.1-0.4,0c-0.6,0.4-13.6,10-16,12.7c-0.1,0.1-0.2,0.2-0.2,0.3c-0.7,0.9-1,1.7-0.9,2.4
					C319.6,59,320.3,59.5,320.3,59.5z"/>
			</g>
		</g>
		<g>
			<g>
				<defs>
					<path id="XMLID_90_" d="M324.1,58.6c2.6-3.4,13.4-13.9,13.9-14.4c0.1-0.1,0.3-0.1,0.4,0c0.1,0.1,0.1,0.3,0,0.4
						c-0.1,0.1-12,11.7-14,14.6c-0.6,0.9-0.8,1.7-0.7,2.3c0.2,0.7,0.7,1,0.8,1c0.2,0.1,0.2,0.3,0.1,0.4c-0.1,0.2-0.3,0.2-0.4,0.1
						c0,0-0.8-0.4-1.1-1.4c-0.2-0.8,0-1.8,0.7-2.8C324,58.9,324,58.8,324.1,58.6z"/>
				</defs>
				<use xlink:href="#XMLID_90_"  style="overflow:visible;fill:#4A2C04;"/>
				<clipPath id="XMLID_00000040543160486199214620000015148506782018633608_">
					<use xlink:href="#XMLID_90_"  style="overflow:visible;"/>
				</clipPath>
				<path style="clip-path:url(#XMLID_00000040543160486199214620000015148506782018633608_);fill:#3B2205;" d="M324.2,63.2
					c0.1,0,0.1,0,0.2,0c-0.2-0.1-0.8-0.5-1-1.3c-0.2-0.7,0-1.6,0.5-2.5c0.1-0.1,0.1-0.2,0.2-0.3c2-3,13.5-14.3,14-14.8
					c0,0,0.1-0.1,0.1-0.1c-0.1-0.1-0.3-0.1-0.4,0c-0.5,0.5-12,11.8-14,14.8c-0.1,0.1-0.1,0.2-0.2,0.3c-0.6,0.9-0.8,1.8-0.5,2.5
					C323.4,62.8,324.2,63.2,324.2,63.2z"/>
			</g>
		</g>
		<g>
			<g>
				<defs>
					<path id="XMLID_89_" d="M327.6,58.5c3.6-4.8,11.1-13.4,11.5-13.9c0.1-0.1,0.3-0.1,0.5,0c0.1,0.1,0.1,0.3,0,0.5
						c-0.1,0.1-11.3,13.1-13.1,16.2c-0.3,0.5-0.5,1-0.6,1.4c0,0.2-0.2,0.3-0.4,0.3c-0.2,0-0.3-0.2-0.3-0.4c0.1-0.5,0.3-1.1,0.6-1.6
						C326.3,60.4,326.9,59.5,327.6,58.5z"/>
				</defs>
				<use xlink:href="#XMLID_89_"  style="overflow:visible;fill:#4A2C04;"/>
				<clipPath id="XMLID_00000106124581117634071950000008488863358857355157_">
					<use xlink:href="#XMLID_89_"  style="overflow:visible;"/>
				</clipPath>
				<path style="clip-path:url(#XMLID_00000106124581117634071950000008488863358857355157_);fill:#3B2205;" d="M339.2,44.9
					c-0.5,0.5-11.4,13.1-13.2,16.3c-0.3,0.5-0.5,1-0.6,1.5c0,0.1,0,0.1,0,0.2c0,0,0,0,0,0c-0.2,0-0.3-0.2-0.2-0.4
					c0.1-0.5,0.3-1,0.6-1.5c1.8-3.2,12.7-15.8,13.2-16.3c0.1-0.1,0.3-0.1,0.5,0c0,0,0.1,0.1,0.1,0.1
					C339.4,44.8,339.3,44.8,339.2,44.9z"/>
			</g>
		</g>
		<g>
			<g>
				<defs>
					<path id="XMLID_88_" d="M322.1,58.2c0.1-0.1,0.1-0.2,0.2-0.3c2.1-2.8,13.4-13.5,13.9-13.9c0.1-0.1,0.3-0.1,0.4,0
						c0.1,0.1,0.1,0.3-0.1,0.4c-0.1,0.1-11.8,11.1-13.8,13.8c-0.6,0.8-0.9,1.6-0.8,2.2c0.1,0.6,0.5,0.9,0.6,0.9
						c0.1,0.1,0.2,0.2,0.1,0.4c-0.1,0.1-0.3,0.2-0.4,0.1c0,0-0.7-0.4-0.8-1.3C321.2,59.9,321.5,59.1,322.1,58.2z"/>
				</defs>
				<use xlink:href="#XMLID_88_"  style="overflow:visible;fill:#4A2C04;"/>
				<clipPath id="XMLID_00000036217541435220492280000015222020592688244122_">
					<use xlink:href="#XMLID_88_"  style="overflow:visible;"/>
				</clipPath>
				<path style="clip-path:url(#XMLID_00000036217541435220492280000015222020592688244122_);fill:#3B2205;" d="M322.1,61.9
					c0.1,0,0.1,0,0.2,0c-0.2-0.1-0.6-0.5-0.7-1.2c-0.1-0.7,0.2-1.5,0.8-2.4c0.1-0.1,0.1-0.2,0.2-0.3c2.1-2.8,13.4-13.5,13.9-13.9
					c0,0,0.1-0.1,0.1-0.1c-0.1-0.1-0.3-0.1-0.4,0c-0.5,0.5-11.9,11.1-13.9,13.9c-0.1,0.1-0.1,0.2-0.2,0.3c-0.6,0.9-0.9,1.7-0.8,2.4
					C321.4,61.5,322.1,61.9,322.1,61.9z"/>
			</g>
		</g>
		<g>
			<g>
				<defs>
					<path id="XMLID_95_" d="M328.3,66.4C328.3,66.4,328.3,66.3,328.3,66.4c0.2-0.2,0.4-0.2,0.5,0c0,0,0.5,0.5,1.2,0.5
						c0.7,0,1.3-0.4,2-1.3c2.3-2.7,10.2-17.3,10.2-17.5c0.1-0.2,0.3-0.2,0.4-0.1c0.2,0.1,0.2,0.3,0.1,0.4c-0.3,0.6-8,14.9-10.3,17.6
						c-0.8,1-1.7,1.5-2.5,1.5c-1,0-1.6-0.6-1.6-0.7C328.2,66.7,328.2,66.5,328.3,66.4z"/>
				</defs>
				<use xlink:href="#XMLID_95_"  style="overflow:visible;fill:#4A2C04;"/>
				<clipPath id="XMLID_00000013169985062390588150000018213064302032011648_">
					<use xlink:href="#XMLID_95_"  style="overflow:visible;"/>
				</clipPath>
				<path style="clip-path:url(#XMLID_00000013169985062390588150000018213064302032011648_);fill:#3B2205;" d="M328.3,66.8
					c0-0.1-0.1-0.1-0.1-0.2c0.2,0.2,0.7,0.6,1.6,0.6c0.8,0,1.5-0.4,2.3-1.2c0.1-0.1,0.2-0.2,0.2-0.3c2.3-2.8,9.9-17,10.2-17.6
					c0-0.1,0-0.1,0-0.2c0.1,0.1,0.2,0.3,0.1,0.4c-0.3,0.6-7.9,14.9-10.2,17.6c-0.1,0.1-0.2,0.2-0.2,0.3c-0.7,0.8-1.5,1.2-2.3,1.2
					C329,67.5,328.3,66.9,328.3,66.8z"/>
			</g>
		</g>
		<g>
			<defs>
				<path id="XMLID_87_" d="M344.2,52c0.3-0.4,0.4-0.9,0.3-1.4c0,0,0.1-0.1,0.1-0.1l6.4-8.5c1.7-2.2,1.2-5.4-1-7l-2.1-1.6
					c-2.2-1.7-5.4-1.2-7,1l-6.4,8.5c0,0,0,0,0,0.1c-0.5,0-1,0.3-1.3,0.7c-0.6,0.8-0.4,1.9,0.4,2.6l8.1,6.1
					C342.5,53,343.6,52.8,344.2,52z"/>
			</defs>
			<use xlink:href="#XMLID_87_"  style="overflow:visible;fill:#996000;"/>
			<clipPath id="XMLID_00000111154730962452900380000009587182561536654980_">
				<use xlink:href="#XMLID_87_"  style="overflow:visible;"/>
			</clipPath>
			<path style="opacity:6.000000e-02;clip-path:url(#XMLID_00000111154730962452900380000009587182561536654980_);" d="M348.5,23.6
				c0.6,1.2,6.4,13.1-9.5,28.2l5.5,4.8l18.2-20.3L348.5,23.6z"/>
			
				<line style="clip-path:url(#XMLID_00000111154730962452900380000009587182561536654980_);fill:none;stroke:#000000;stroke-miterlimit:10;" x1="333.5" y1="42.1" x2="345.6" y2="51.4"/>
		</g>
	</g>
	<path class="st41" d="M322.6,69.2c0,0,0.8-0.5,1.6-0.1c0.7,0.4,0.9,1.2,0,1.2C322.3,70.4,322.6,69.2,322.6,69.2z"/>
	<path class="st41" d="M325.3,70.7c0,0-0.4-1.7,0.5-1.1c0.6,0.3,0.9,0.9,0.6,1.1C326.1,70.9,325.3,70.7,325.3,70.7z"/>
	<path class="st41" d="M324.7,71.2c0,0.2-0.2,0.4-0.4,0.4c-0.2,0-0.4-0.2-0.4-0.4c0-0.2,0.2-0.4,0.4-0.4
		C324.5,70.8,324.7,71,324.7,71.2z"/>
	<circle class="st41" cx="325.1" cy="68.9" r="0.4"/>
	<circle class="st41" cx="321.7" cy="70.3" r="0.4"/>
	<g class="st16">
		<path class="st17" d="M291.1,72.5c3,5.4,5.8,10,9.7,14.8c0.7,0.9,0,2.3-1.1,2.1c-5.6-0.7-9.8-5.9-10.9-11.2
			c-0.3-1.5-1-6.8,1.5-6.3C290.7,71.9,291,72.2,291.1,72.5L291.1,72.5z"/>
	</g>
	<path class="st41" d="M303.2,68c0,0,0.5-0.8,1.3-0.8c0.8,0,1.4,0.6,0.6,1.1C303.5,69.2,303.2,68,303.2,68z"/>
	<path class="st41" d="M306.3,68c0,0-1.2-1.2-0.1-1.2c0.6,0,1.2,0.3,1.1,0.7S306.3,68,306.3,68z"/>
	<path class="st41" d="M305.5,68.7c0,0,0.8-0.5,1.6-0.1s0.9,1.2,0,1.2C305.2,69.9,305.5,68.7,305.5,68.7z"/>
	<path class="st41" d="M308.2,70.2c0,0-0.4-1.7,0.5-1.1c0.6,0.3,0.9,0.9,0.6,1.1C309.1,70.5,308.2,70.2,308.2,70.2z"/>
	<path class="st41" d="M307.6,70.7c0,0.2-0.2,0.4-0.4,0.4c-0.2,0-0.4-0.2-0.4-0.4c0-0.2,0.2-0.4,0.4-0.4
		C307.5,70.4,307.6,70.5,307.6,70.7z"/>
	<circle class="st41" cx="308" cy="68.4" r="0.4"/>
	<circle class="st41" cx="304.5" cy="69.6" r="0.4"/>
	<path class="st41" d="M303.2,69.1c0,0.2-0.2,0.4-0.4,0.4c-0.2,0-0.4-0.2-0.4-0.4s0.2-0.4,0.4-0.4C303.1,68.8,303.2,68.9,303.2,69.1
		z"/>
	<ellipse class="st9" cx="57.3" cy="95.8" rx="31.8" ry="7"/>
	<path class="st10" d="M39.8,89.4c0,0,4.3,2.3,5.7,3.9c1.2,1.3,2.6,2.4,4.4,2.7c3,0.6,7.8,1.1,13.4,0.1c2-0.4,3.9-1.4,5-3.2
		c0.4-0.6,1.8-2.1,3.1-2.5"/>
	<g>
		<g>
			<defs>
				<path id="XMLID_101_" d="M86.2,85.3c-1.8,0-3.9-0.4-6.3-1.4c-0.8-0.3-1.1-1.2-0.8-2c0.3-0.8,1.2-1.1,2-0.8
					c5.2,2.1,9.4,1.2,11.9-2.6c2.5-3.8,2.6-9.4,0.1-11.8c-1.1-1.1-2.1-1.6-3.2-1.4c-2,0.3-3.7,2.8-4.2,3.6c-0.4,0.7-1.3,1-2,0.6
					c-0.7-0.4-1-1.3-0.6-2c0.3-0.5,2.6-4.6,6.4-5.2c2-0.3,3.9,0.5,5.7,2.3c3.5,3.5,3.6,10.6,0.2,15.6C94.3,82,91.4,85.3,86.2,85.3z"
					/>
			</defs>
			<use xlink:href="#XMLID_101_"  style="overflow:visible;fill:#996000;"/>
			<clipPath id="XMLID_00000140719659260109230470000016342460182824667309_">
				<use xlink:href="#XMLID_101_"  style="overflow:visible;"/>
			</clipPath>
			<g style="opacity:0.27;clip-path:url(#XMLID_00000140719659260109230470000016342460182824667309_);">
				<path class="st12" d="M89.6,64.4c-2,0.3-4.7,2.7-5.1,3.6c-0.4,0.6-1.1,0.9-1.8,0.7c0,0.5,0.3,1,0.8,1.3c0.7,0.4,1.7,0.1,2.1-0.6
					c0.5-0.9,2.3-3.4,4.3-3.7c1-0.1,2.3,2,3.4,3c-0.2-0.5,0.8-0.2,0.5-1.5C93.2,65.5,91.6,64.2,89.6,64.4z"/>
				<path class="st12" d="M95.9,64.8c2.4,3.8,2.1,10-0.9,14.4c-1.2,1.8-4.1,5.1-9.4,5.1c-1.8,0-3.9-0.4-6.2-1.3
					c0,0.6,0.4,1.1,0.9,1.3c2.4,1,4.5,1.4,6.4,1.4c5.3,0,8.3-3.3,9.4-5.1C99.5,75.5,99.4,68.3,95.9,64.8z"/>
			</g>
		</g>
	</g>
	<g>
		<g>
			<defs>
				<circle id="XMLID_100_" cx="463.1" cy="-27.8" r="13.7"/>
			</defs>
			<use xlink:href="#XMLID_100_"  style="overflow:visible;fill:#BBD500;"/>
			<clipPath id="XMLID_00000059301172251875033380000001736480103202048944_">
				<use xlink:href="#XMLID_100_"  style="overflow:visible;"/>
			</clipPath>
			<path style="opacity:2.000000e-02;clip-path:url(#XMLID_00000059301172251875033380000001736480103202048944_);" d="M468.8-40.2
				c1.3,2.1,2,4.5,2,7.1c0,7.6-6.1,13.7-13.7,13.7c-2,0-3.9-0.5-5.7-1.2c2.4,3.9,6.7,6.6,11.7,6.6c7.6,0,13.7-6.1,13.7-13.7
				C476.8-33.3,473.5-38.1,468.8-40.2z"/>
		</g>
		<text transform="matrix(1 0 0 1 456.4885 -22.5187)" class="st17" style="font-family:'TrashHand'; font-size:24.4902px;">4</text>
	</g>
	<text transform="matrix(1 0 0 1 419.6223 3.7019)" style="font-family:'Montserrat-Regular'; font-size:10px;">Enjoy your matcha!</text>
	<g>
		<defs>
			<path id="XMLID_99_" d="M26.3,60.1c0,0-3.3,32.8,29.7,33c36.9,0.3,30.3-33,30.3-33"/>
		</defs>
		<use xlink:href="#XMLID_99_"  style="overflow:visible;fill:#996000;"/>
		<clipPath id="XMLID_00000182501625259642459900000000932875763777974944_">
			<use xlink:href="#XMLID_99_"  style="overflow:visible;"/>
		</clipPath>
		<path style="opacity:0.41;clip-path:url(#XMLID_00000182501625259642459900000000932875763777974944_);fill:#8E5400;" d="
			M86.4,60.1h-9.5c0.5,8.4-1,30-30.7,29.7c-2.3,0-4.4-0.2-6.4-0.5c4.1,2.3,9.4,3.8,16.3,3.8C93,93.5,86.4,60.1,86.4,60.1z"/>
		<path style="opacity:0.66;clip-path:url(#XMLID_00000182501625259642459900000000932875763777974944_);fill:#8E5400;" d="
			M89.4,59.1L79.9,60c1.3,8.3,1.6,29.9-28.1,32.2c-2.3,0.2-4.4,0.2-6.4,0c4.3,1.9,9.7,3,16.5,2.4C98.8,91.8,89.4,59.1,89.4,59.1z"/>
	</g>
	<g>
		<defs>
			<path id="XMLID_98_" d="M86.4,60.1c0,3.8-13.4,6.9-30,6.9c-16.6,0-30-3.1-30-6.9s13.4-6.9,30-6.9C72.9,53.2,86.4,56.3,86.4,60.1z
				"/>
		</defs>
		<use xlink:href="#XMLID_98_"  style="overflow:visible;fill:#7A4800;"/>
		<clipPath id="XMLID_00000143596363813239036240000018388621284903194525_">
			<use xlink:href="#XMLID_98_"  style="overflow:visible;"/>
		</clipPath>
		<path style="opacity:5.000000e-02;clip-path:url(#XMLID_00000143596363813239036240000018388621284903194525_);" d="M57.1,53.2
			c-15.8,0.4-28.7,3.5-29.8,7.1c5.1-2.3,14.9-3.9,26.2-4.2c16.6-0.4,30.1,2.4,30.2,6.2c0,0.2,0,0.3-0.1,0.5c2.3-1,3.6-2.2,3.6-3.4
			C87.2,55.6,73.6,52.8,57.1,53.2z"/>
		<g style="clip-path:url(#XMLID_00000143596363813239036240000018388621284903194525_);">
			<defs>
				<path id="XMLID_97_" d="M85.7,62.5c0.1,3.8-13.3,7.2-29.9,7.6c-16.6,0.4-30.1-2.4-30.2-6.2c-0.1-3.8,13.3-7.2,29.9-7.6
					C72,56,85.6,58.7,85.7,62.5z"/>
			</defs>
			<use xlink:href="#XMLID_97_"  style="overflow:visible;fill:#BBD700;"/>
			<clipPath id="XMLID_00000093876239877577310910000018269582175288132026_">
				<use xlink:href="#XMLID_97_"  style="overflow:visible;"/>
			</clipPath>
			<path style="opacity:0.33;clip-path:url(#XMLID_00000093876239877577310910000018269582175288132026_);fill:#FFFFFF;" d="
				M34.7,63.8c0.2,0.3-0.1,0.5-0.3,0.7c-0.2,0.2-0.5,0.2-0.8,0c-0.2-0.2-0.3-0.5-0.1-0.7C33.7,63.6,34.3,63.3,34.7,63.8z"/>
			<path style="opacity:0.33;clip-path:url(#XMLID_00000093876239877577310910000018269582175288132026_);fill:#FFFFFF;" d="
				M37.9,66.5c0.2,0.3-0.1,0.5-0.3,0.7c-0.2,0.2-0.5,0.2-0.8,0c-0.2-0.2-0.3-0.5-0.1-0.7C37,66.3,37.6,65.9,37.9,66.5z"/>
			<path style="opacity:0.33;clip-path:url(#XMLID_00000093876239877577310910000018269582175288132026_);fill:#FFFFFF;" d="
				M42.1,63.2c0,0.2-0.1,0.3-0.3,0.3c-0.2,0-0.3-0.1-0.3-0.3c0-0.2,0.1-0.3,0.3-0.3C41.9,62.9,42.1,63,42.1,63.2z"/>
			<path style="opacity:0.33;clip-path:url(#XMLID_00000093876239877577310910000018269582175288132026_);fill:#FFFFFF;" d="
				M45.6,64.4c0,0.2-0.1,0.3-0.3,0.3c-0.2,0-0.3-0.1-0.3-0.3c0-0.2,0.1-0.3,0.3-0.3C45.5,64.1,45.6,64.3,45.6,64.4z"/>
			<path style="opacity:0.33;clip-path:url(#XMLID_00000093876239877577310910000018269582175288132026_);fill:#FFFFFF;" d="
				M53.1,65.7c0,0.2-0.1,0.3-0.3,0.3c-0.2,0-0.3-0.1-0.3-0.3c0-0.2,0.1-0.3,0.3-0.3C52.9,65.4,53.1,65.5,53.1,65.7z"/>
			<path style="opacity:0.33;clip-path:url(#XMLID_00000093876239877577310910000018269582175288132026_);fill:#FFFFFF;" d="
				M52.2,69c0,0.2-0.1,0.3-0.3,0.3c-0.2,0-0.3-0.1-0.3-0.3c0-0.2,0.1-0.3,0.3-0.3C52,68.7,52.2,68.9,52.2,69z"/>
			<path style="opacity:0.61;clip-path:url(#XMLID_00000093876239877577310910000018269582175288132026_);fill:#D7DF00;" d="
				M42.7,68.3c0,0.2-0.1,0.3-0.3,0.3c-0.2,0-0.3-0.1-0.3-0.3s0.1-0.3,0.3-0.3C42.6,68,42.7,68.1,42.7,68.3z"/>
			<path style="opacity:0.33;clip-path:url(#XMLID_00000093876239877577310910000018269582175288132026_);fill:#FFFFFF;" d="
				M47.7,63c0,0.2-0.1,0.3-0.3,0.3c-0.2,0-0.3-0.1-0.3-0.3c0-0.2,0.1-0.3,0.3-0.3C47.6,62.7,47.7,62.9,47.7,63z"/>
			<path style="opacity:0.33;clip-path:url(#XMLID_00000093876239877577310910000018269582175288132026_);fill:#FFFFFF;" d="
				M52.5,61.4c0,0.2-0.1,0.3-0.3,0.3c-0.2,0-0.3-0.1-0.3-0.3c0-0.2,0.1-0.3,0.3-0.3C52.4,61.1,52.5,61.2,52.5,61.4z"/>
			
				<circle style="opacity:0.3;clip-path:url(#XMLID_00000093876239877577310910000018269582175288132026_);fill:#FFFFFF;" cx="57.6" cy="59.9" r="0.3"/>
			<path style="opacity:0.33;clip-path:url(#XMLID_00000093876239877577310910000018269582175288132026_);fill:#FFFFFF;" d="
				M47.2,60.3c0,0.2-0.1,0.3-0.3,0.3s-0.3-0.1-0.3-0.3c0-0.2,0.1-0.3,0.3-0.3S47.2,60.1,47.2,60.3z"/>
			<path style="opacity:0.3;clip-path:url(#XMLID_00000093876239877577310910000018269582175288132026_);fill:#FFFFFF;" d="
				M57.9,62.2c0.2,0.3-0.1,0.5-0.3,0.7c-0.2,0.2-0.5,0.2-0.8,0c-0.2-0.2-0.3-0.5-0.1-0.7C56.9,61.9,57.5,61.6,57.9,62.2z"/>
			<path style="opacity:0.3;clip-path:url(#XMLID_00000093876239877577310910000018269582175288132026_);fill:#FFFFFF;" d="
				M64.6,64.3c0,0.2-0.1,0.3-0.3,0.3c-0.2,0-0.3-0.1-0.3-0.3c0-0.2,0.1-0.3,0.3-0.3C64.5,64,64.6,64.1,64.6,64.3z"/>
			<path style="opacity:0.3;clip-path:url(#XMLID_00000093876239877577310910000018269582175288132026_);fill:#FFFFFF;" d="M68,63.2
				c0.2,0.3,0,0.1-0.2,0.4c-0.2,0.2-0.4,0.5-0.6,0.3c-0.2-0.2-0.3-0.5-0.1-0.7C67.3,62.9,67.7,62.7,68,63.2z"/>
			<path style="opacity:0.33;clip-path:url(#XMLID_00000093876239877577310910000018269582175288132026_);fill:#FFFFFF;" d="
				M39,61.1c-0.1,0.3-0.1,0.1-0.4,0.1c-0.3,0-0.6,0.1-0.6-0.2c0-0.3,0.2-0.6,0.4-0.6C38.8,60.4,39.1,60.5,39,61.1z"/>
			<path style="opacity:0.3;clip-path:url(#XMLID_00000093876239877577310910000018269582175288132026_);fill:#FFFFFF;" d="
				M69.7,66.4c0,0.2-0.1,0.3-0.3,0.3c-0.2,0-0.3-0.1-0.3-0.3c0-0.2,0.1-0.3,0.3-0.3C69.6,66.1,69.7,66.2,69.7,66.4z"/>
			<path style="opacity:0.3;clip-path:url(#XMLID_00000093876239877577310910000018269582175288132026_);fill:#FFFFFF;" d="
				M66.8,60.4c0,0.1-0.1,0.2-0.2,0.2c-0.1,0-0.2-0.1-0.2-0.2c0-0.1,0.1-0.2,0.2-0.2C66.7,60.2,66.8,60.3,66.8,60.4z"/>
			
				<circle style="opacity:0.23;clip-path:url(#XMLID_00000093876239877577310910000018269582175288132026_);fill:#FFFFFF;" cx="61.6" cy="66.4" r="0.2"/>
			
				<circle style="opacity:0.33;clip-path:url(#XMLID_00000093876239877577310910000018269582175288132026_);fill:#FFFFFF;" cx="62.8" cy="60.6" r="0.3"/>
			<path style="opacity:0.33;clip-path:url(#XMLID_00000093876239877577310910000018269582175288132026_);fill:#FFFFFF;" d="M50,66
				c0.2,0.3-0.1,0.5-0.3,0.7c-0.2,0.2-0.5,0.2-0.8,0c-0.2-0.2-0.3-0.5-0.1-0.7C49.1,65.8,49.7,65.5,50,66z"/>
			<path style="opacity:0.33;clip-path:url(#XMLID_00000093876239877577310910000018269582175288132026_);fill:#FFFFFF;" d="
				M53.3,68.6c0.2,0.3-0.1,0.5-0.3,0.7c-0.2,0.2-0.5,0.2-0.8,0c-0.2-0.2-0.3-0.5-0.1-0.7C52.3,68.4,52.9,68.1,53.3,68.6z"/>
			<path style="opacity:0.33;clip-path:url(#XMLID_00000093876239877577310910000018269582175288132026_);fill:#FFFFFF;" d="
				M57.4,65.4c0,0.2-0.1,0.3-0.3,0.3c-0.2,0-0.3-0.1-0.3-0.3c0-0.2,0.1-0.3,0.3-0.3C57.3,65.1,57.4,65.2,57.4,65.4z"/>
			<path style="opacity:0.33;clip-path:url(#XMLID_00000093876239877577310910000018269582175288132026_);fill:#FFFFFF;" d="
				M61,66.6c0,0.2-0.1,0.3-0.3,0.3c-0.2,0-0.3-0.1-0.3-0.3c0-0.2,0.1-0.3,0.3-0.3C60.8,66.3,61,66.5,61,66.6z"/>
			<path style="opacity:0.33;clip-path:url(#XMLID_00000093876239877577310910000018269582175288132026_);fill:#FFFFFF;" d="
				M68.4,67.8c0,0.2-0.1,0.3-0.3,0.3c-0.2,0-0.3-0.1-0.3-0.3c0-0.2,0.1-0.3,0.3-0.3C68.3,67.5,68.4,67.7,68.4,67.8z"/>
			<path style="opacity:0.33;clip-path:url(#XMLID_00000093876239877577310910000018269582175288132026_);fill:#FFFFFF;" d="
				M67.5,71.2c0,0.2-0.1,0.3-0.3,0.3c-0.2,0-0.3-0.1-0.3-0.3s0.1-0.3,0.3-0.3C67.4,70.9,67.5,71,67.5,71.2z"/>
			<path style="opacity:0.61;clip-path:url(#XMLID_00000093876239877577310910000018269582175288132026_);fill:#D7DF00;" d="
				M58.1,70.4c0,0.2-0.1,0.3-0.3,0.3c-0.2,0-0.3-0.1-0.3-0.3c0-0.2,0.1-0.3,0.3-0.3C58,70.1,58.1,70.3,58.1,70.4z"/>
			<path style="opacity:0.33;clip-path:url(#XMLID_00000093876239877577310910000018269582175288132026_);fill:#FFFFFF;" d="
				M63.1,65.2c0,0.2-0.1,0.3-0.3,0.3c-0.2,0-0.3-0.1-0.3-0.3c0-0.2,0.1-0.3,0.3-0.3C63,64.9,63.1,65,63.1,65.2z"/>
			<path style="opacity:0.33;clip-path:url(#XMLID_00000093876239877577310910000018269582175288132026_);fill:#FFFFFF;" d="
				M67.9,63.6c0,0.2-0.1,0.3-0.3,0.3c-0.2,0-0.3-0.1-0.3-0.3c0-0.2,0.1-0.3,0.3-0.3C67.7,63.3,67.9,63.4,67.9,63.6z"/>
			
				<circle style="opacity:0.3;clip-path:url(#XMLID_00000093876239877577310910000018269582175288132026_);fill:#FFFFFF;" cx="73" cy="62.1" r="0.3"/>
			<path style="opacity:0.33;clip-path:url(#XMLID_00000093876239877577310910000018269582175288132026_);fill:#FFFFFF;" d="
				M62.6,62.4c0,0.2-0.1,0.3-0.3,0.3c-0.2,0-0.3-0.1-0.3-0.3c0-0.2,0.1-0.3,0.3-0.3C62.5,62.1,62.6,62.3,62.6,62.4z"/>
			<path style="opacity:0.3;clip-path:url(#XMLID_00000093876239877577310910000018269582175288132026_);fill:#FFFFFF;" d="
				M73.2,64.3c0.2,0.3-0.1,0.5-0.3,0.7c-0.2,0.2-0.5,0.2-0.8,0c-0.2-0.2-0.3-0.5-0.1-0.7C72.3,64.1,72.9,63.8,73.2,64.3z"/>
			
				<circle style="opacity:0.3;clip-path:url(#XMLID_00000093876239877577310910000018269582175288132026_);fill:#FFFFFF;" cx="79.7" cy="66.4" r="0.3"/>
			<path style="opacity:0.3;clip-path:url(#XMLID_00000093876239877577310910000018269582175288132026_);fill:#FFFFFF;" d="
				M83.4,65.4c0.2,0.3,0,0.1-0.2,0.4C83,66,82.8,66.2,82.6,66c-0.2-0.2-0.3-0.5-0.1-0.7C82.7,65.1,83,64.8,83.4,65.4z"/>
			<path style="opacity:0.33;clip-path:url(#XMLID_00000093876239877577310910000018269582175288132026_);fill:#FFFFFF;" d="
				M54.4,63.3c-0.1,0.3-0.1,0.1-0.4,0.1c-0.3,0-0.6,0.1-0.6-0.2c0-0.3,0.2-0.6,0.4-0.6C54.1,62.6,54.5,62.6,54.4,63.3z"/>
			<path style="opacity:0.3;clip-path:url(#XMLID_00000093876239877577310910000018269582175288132026_);fill:#FFFFFF;" d="M85,68.6
				c0,0.2-0.1,0.3-0.3,0.3s-0.3-0.1-0.3-0.3c0-0.2,0.1-0.3,0.3-0.3S85,68.4,85,68.6z"/>
			<path style="opacity:0.3;clip-path:url(#XMLID_00000093876239877577310910000018269582175288132026_);fill:#FFFFFF;" d="
				M82.1,62.6c0,0.1-0.1,0.2-0.2,0.2c-0.1,0-0.2-0.1-0.2-0.2c0-0.1,0.1-0.2,0.2-0.2C82,62.4,82.1,62.5,82.1,62.6z"/>
			<path style="opacity:0.23;clip-path:url(#XMLID_00000093876239877577310910000018269582175288132026_);fill:#FFFFFF;" d="
				M77.1,68.6c0,0.1-0.1,0.2-0.2,0.2c-0.1,0-0.2-0.1-0.2-0.2c0-0.1,0.1-0.2,0.2-0.2C77,68.4,77.1,68.5,77.1,68.6z"/>
			<path style="opacity:0.33;clip-path:url(#XMLID_00000093876239877577310910000018269582175288132026_);fill:#FFFFFF;" d="
				M78.5,62.8c0,0.2-0.1,0.3-0.3,0.3c-0.2,0-0.3-0.1-0.3-0.3c0-0.2,0.1-0.3,0.3-0.3C78.4,62.5,78.5,62.6,78.5,62.8z"/>
		</g>
		
			<path id="XMLID_96_" style="opacity:0.12;clip-path:url(#XMLID_00000143596363813239036240000018388621284903194525_);fill:#FFFFFF;" d="
			M86.9,66c0.1,3.8-13.3,7.2-29.9,7.6s-30.1-2.4-30.2-6.2c-0.1-3.8,13.3-7.2,29.9-7.6C73.3,59.4,86.8,62.1,86.9,66z"/>
		
			<path id="XMLID_34_" style="opacity:0.12;clip-path:url(#XMLID_00000143596363813239036240000018388621284903194525_);fill:#FFFFFF;" d="
			M91.2,68.3c0.1,3.8-13.3,7.2-29.9,7.6c-16.6,0.4-30.1-2.4-30.2-6.2C31.1,66,44.4,62.6,61,62.2C77.6,61.8,91.1,64.5,91.2,68.3z"/>
	</g>
	<g class="st16">
		<path class="st17" d="M32.5,67.5c0,0,0.2,0.3,0.5,0.8c0.3,0.4,0.6,1.1,1.1,1.8c0.8,1.5,1.9,3.4,3,5.2c0.3,0.4,0.6,0.9,0.9,1.3
			c0.3,0.4,0.6,0.8,0.9,1.2c0.3,0.4,0.6,0.8,0.8,1.2c0.3,0.4,0.5,0.7,0.8,1c0.3,0.3,0.5,0.6,0.7,0.9c0.2,0.3,0.4,0.5,0.6,0.7
			c0.3,0.4,0.5,0.7,0.5,0.7l0.1,0.1c0.4,0.6,0.2,1.4-0.4,1.8c-0.2,0.2-0.5,0.2-0.8,0.2c0,0-0.3,0-0.9-0.2c-0.3-0.1-0.7-0.1-1.1-0.3
			c-0.4-0.1-0.8-0.3-1.3-0.5c-0.5-0.2-0.9-0.5-1.5-0.8c-0.5-0.4-1-0.7-1.5-1.2c-0.5-0.5-1-0.9-1.4-1.5c-0.4-0.5-0.8-1.1-1.2-1.7
			c-1.5-2.4-2.2-5.1-2.3-7.1c0-0.5,0-1,0-1.4c0-0.4,0.1-0.8,0.1-1.1c0.1-0.6,0.2-0.9,0.2-0.9l0,0c0.2-0.7,0.9-1.1,1.6-0.9
			C32.1,67.1,32.4,67.3,32.5,67.5z"/>
	</g>
	<g>
		<defs>
			<path id="XMLID_103_" d="M81.8,53.1c0,0,4-3.4,4-5.8c0-1.3-1.1-2.4-2.4-2.4c-1,0-1.8,0.6-2.2,1.4c-0.4-0.9-1.2-1.4-2.2-1.4
				c-1.3,0-2.4,1.1-2.4,2.4c0.2,2.9,3.9,5.8,3.9,5.8S81.2,53.8,81.8,53.1z"/>
		</defs>
		<use xlink:href="#XMLID_103_"  style="overflow:visible;fill:#BBD700;"/>
		<clipPath id="XMLID_00000178174791121906982960000016912402488418632345_">
			<use xlink:href="#XMLID_103_"  style="overflow:visible;"/>
		</clipPath>
		<g style="opacity:3.000000e-02;clip-path:url(#XMLID_00000178174791121906982960000016912402488418632345_);">
			<path class="st54" d="M84.4,45.2c0.3,0.4,0.5,0.9,0.5,1.5c0,2.4-4,5.8-4,5.8c-0.3,0.3-0.5,0.3-0.7,0.3c0.3,0.3,0.5,0.4,0.5,0.4
				s0.6,0.7,1.2,0c0,0,4-3.4,4-5.8C86,46.4,85.4,45.5,84.4,45.2z"/>
		</g>
		<g style="opacity:0.19;clip-path:url(#XMLID_00000178174791121906982960000016912402488418632345_);">
			<path class="st17" d="M79.6,46.2c0,0-0.2,0.2-0.3,0.5c-0.1,0.1-0.1,0.3-0.2,0.4c0,0.1,0,0.1,0,0.2c0,0.1,0,0.1,0,0.2
				c0,0.1,0,0.1,0,0.2c0,0.1,0,0.2,0,0.3c0,0.2,0,0.4,0,0.6c0,0.4,0,0.7,0,0.7l0,0c0,0.2-0.2,0.3-0.4,0.3c-0.1,0-0.1,0-0.1,0
				c0,0-0.1,0-0.2-0.1c-0.1,0-0.1-0.1-0.2-0.2C78.1,49.2,78,49.1,78,49c-0.3-0.4-0.6-1-0.6-1.8c0-0.2,0.1-0.4,0.1-0.6
				c0.1-0.2,0.2-0.4,0.3-0.5c0.2-0.3,0.5-0.5,0.8-0.6c0.3-0.1,0.5-0.1,0.6-0.1c0.2,0,0.3,0,0.2,0c0.2,0,0.3,0.1,0.4,0.2
				C79.9,46,79.8,46.1,79.6,46.2z"/>
		</g>
	</g>
	<g>
		<defs>
			<path id="XMLID_1_" d="M74.4,43.9c0,0,4.6-3.8,4.6-6.5c0-1.5-1.2-2.7-2.7-2.7c-1.1,0-2.1,0.7-2.5,1.6c-0.4-1-1.4-1.6-2.5-1.6
				c-1.5,0-2.7,1.2-2.7,2.7c0.3,3.3,4.5,6.5,4.5,6.5S73.6,44.7,74.4,43.9z"/>
		</defs>
		<use xlink:href="#XMLID_1_"  style="overflow:visible;fill:#BBD700;"/>
		<clipPath id="XMLID_00000144310152415011495680000012481508034915936685_">
			<use xlink:href="#XMLID_1_"  style="overflow:visible;"/>
		</clipPath>
		<g style="opacity:3.000000e-02;clip-path:url(#XMLID_00000144310152415011495680000012481508034915936685_);">
			<path class="st54" d="M77.3,34.9c0.4,0.5,0.6,1.1,0.6,1.7c0,2.7-4.6,6.5-4.6,6.5c-0.3,0.3-0.6,0.3-0.8,0.3
				c0.4,0.3,0.6,0.5,0.6,0.5s0.7,0.8,1.4,0c0,0,4.6-3.8,4.6-6.5C79.1,36.3,78.3,35.3,77.3,34.9z"/>
		</g>
		<g style="opacity:0.19;clip-path:url(#XMLID_00000144310152415011495680000012481508034915936685_);">
			<path class="st17" d="M71.9,36.1c0,0-0.2,0.3-0.4,0.6c-0.1,0.2-0.1,0.3-0.2,0.4c0,0.1,0,0.1-0.1,0.2c0,0.1,0,0.1,0,0.2
				c0,0.1,0,0.2,0,0.3c0,0.1,0,0.2,0,0.3c0,0.2,0,0.4,0,0.7c0,0.4,0,0.8,0,0.8l0,0c0,0.2-0.2,0.4-0.4,0.4c-0.1,0-0.1,0-0.2-0.1
				c0,0-0.1,0-0.2-0.1c-0.1,0-0.1-0.1-0.2-0.2c-0.1-0.1-0.2-0.1-0.3-0.3c-0.3-0.4-0.7-1.1-0.7-2c0-0.2,0.1-0.4,0.1-0.7
				c0.1-0.2,0.2-0.4,0.3-0.6c0.3-0.3,0.6-0.5,0.9-0.6c0.3-0.1,0.5-0.1,0.7-0.1c0.2,0,0.3,0.1,0.3,0.1c0.2,0,0.4,0.1,0.4,0.2
				C72.2,35.8,72.1,36,71.9,36.1z"/>
		</g>
	</g>
	<ellipse class="st9" cx="303" cy="-74.9" rx="31.8" ry="7"/>
	<path class="st10" d="M285.4-81.3c0,0,4.3,2.3,5.7,3.9c1.2,1.3,2.6,2.4,4.4,2.7c3,0.6,7.8,1.1,13.4,0.1c2-0.4,3.9-1.4,5-3.2
		c0.4-0.6,1.8-2.1,3.1-2.5"/>
	<g>
		<g>
			<defs>
				<path id="XMLID_00000109723038930650626350000017382878268394804652_" d="M331.8-85.4c-1.8,0-3.9-0.4-6.3-1.4
					c-0.8-0.3-1.1-1.2-0.8-2c0.3-0.8,1.2-1.1,2-0.8c5.2,2.1,9.4,1.2,11.9-2.6c2.5-3.8,2.6-9.4,0.1-11.8c-1.1-1.1-2.1-1.6-3.2-1.4
					c-2,0.3-3.7,2.8-4.2,3.6c-0.4,0.7-1.3,1-2,0.6c-0.7-0.4-1-1.3-0.6-2c0.3-0.5,2.6-4.6,6.4-5.2c2-0.3,3.9,0.5,5.7,2.3
					c3.5,3.5,3.6,10.6,0.2,15.6C339.9-88.7,337-85.4,331.8-85.4z"/>
			</defs>
			<use xlink:href="#XMLID_00000109723038930650626350000017382878268394804652_"  style="overflow:visible;fill:#996000;"/>
			<clipPath id="XMLID_00000134235990498689313540000006456086644365345454_">
				<use xlink:href="#XMLID_00000109723038930650626350000017382878268394804652_"  style="overflow:visible;"/>
			</clipPath>
			<g style="opacity:0.27;clip-path:url(#XMLID_00000134235990498689313540000006456086644365345454_);">
				<path class="st12" d="M335.2-106.3c-2,0.3-4.7,2.7-5.1,3.6c-0.4,0.6-1.1,0.9-1.8,0.7c0,0.5,0.3,1,0.8,1.3
					c0.7,0.4,1.7,0.1,2.1-0.6c0.5-0.9,2.3-3.4,4.3-3.7c1-0.1,2.3,2,3.4,3c-0.2-0.5,0.8-0.2,0.5-1.5
					C338.8-105.2,337.2-106.5,335.2-106.3z"/>
				<path class="st12" d="M341.5-105.9c2.4,3.8,2.1,10-0.9,14.4c-1.2,1.8-4.1,5.1-9.4,5.1c-1.8,0-3.9-0.4-6.2-1.3
					c0,0.6,0.4,1.1,0.9,1.3c2.4,1,4.5,1.4,6.4,1.4c5.3,0,8.3-3.3,9.4-5.1C345.1-95.1,345-102.3,341.5-105.9z"/>
			</g>
		</g>
	</g>
	<g>
		<g>
			<defs>
				<circle id="XMLID_00000120544671787735682210000005109466335235447950_" cx="169.3" cy="-145.4" r="13.7"/>
			</defs>
			<use xlink:href="#XMLID_00000120544671787735682210000005109466335235447950_"  style="overflow:visible;fill:#BBD500;"/>
			<clipPath id="XMLID_00000119117277469227758960000009041826612600027317_">
				<use xlink:href="#XMLID_00000120544671787735682210000005109466335235447950_"  style="overflow:visible;"/>
			</clipPath>
			<path style="opacity:2.000000e-02;clip-path:url(#XMLID_00000119117277469227758960000009041826612600027317_);" d="M175-157.8
				c1.3,2.1,2,4.5,2,7.1c0,7.6-6.1,13.7-13.7,13.7c-2,0-3.9-0.5-5.7-1.2c2.4,3.9,6.7,6.6,11.7,6.6c7.6,0,13.7-6.1,13.7-13.7
				C183-150.9,179.7-155.7,175-157.8z"/>
		</g>
		<text transform="matrix(1 0 0 1 162.6367 -140.1359)" class="st17" style="font-family:'TrashHand'; font-size:24.4902px;">4</text>
	</g>
	<text transform="matrix(1 0 0 1 125.7705 -113.9153)" style="font-family:'Montserrat-Regular'; font-size:10px;">Enjoy your matcha!</text>
	<g>
		<defs>
			<path id="XMLID_00000068660998781709299220000017491228421742457786_" d="M271.9-110.5c0,0-3.3,32.8,29.7,33
				c36.9,0.3,30.3-33,30.3-33"/>
		</defs>
		<use xlink:href="#XMLID_00000068660998781709299220000017491228421742457786_"  style="overflow:visible;fill:#996000;"/>
		<clipPath id="XMLID_00000075868989700047433410000001659303588535541659_">
			<use xlink:href="#XMLID_00000068660998781709299220000017491228421742457786_"  style="overflow:visible;"/>
		</clipPath>
		<path style="opacity:0.41;clip-path:url(#XMLID_00000075868989700047433410000001659303588535541659_);fill:#8E5400;" d="
			M332-110.5h-9.5c0.5,8.4-1,30-30.7,29.7c-2.3,0-4.4-0.2-6.4-0.5c4.1,2.3,9.4,3.8,16.3,3.8C338.6-77.2,332-110.5,332-110.5z"/>
		<path style="opacity:0.66;clip-path:url(#XMLID_00000075868989700047433410000001659303588535541659_);fill:#8E5400;" d="
			M335-111.5l-9.5,0.8c1.3,8.3,1.6,29.9-28.1,32.2c-2.3,0.2-4.4,0.2-6.4,0c4.3,1.9,9.7,3,16.5,2.4C344.4-78.9,335-111.5,335-111.5z"
			/>
	</g>
	<g>
		<defs>
			<path id="XMLID_00000001641149244466129050000003539702031754454429_" d="M332-110.5c0,3.8-13.4,6.9-30,6.9
				c-16.6,0-30-3.1-30-6.9s13.4-6.9,30-6.9C318.5-117.4,332-114.3,332-110.5z"/>
		</defs>
		<use xlink:href="#XMLID_00000001641149244466129050000003539702031754454429_"  style="overflow:visible;fill:#7A4800;"/>
		<clipPath id="XMLID_00000051368547036673024070000000662534091465322168_">
			<use xlink:href="#XMLID_00000001641149244466129050000003539702031754454429_"  style="overflow:visible;"/>
		</clipPath>
		<path style="opacity:5.000000e-02;clip-path:url(#XMLID_00000051368547036673024070000000662534091465322168_);" d="M302.7-117.4
			c-15.8,0.4-28.7,3.5-29.8,7.1c5.1-2.3,14.9-3.9,26.2-4.2c16.6-0.4,30.1,2.4,30.2,6.2c0,0.2,0,0.3-0.1,0.5c2.3-1,3.6-2.2,3.6-3.4
			C332.8-115.1,319.3-117.8,302.7-117.4z"/>
		<g style="clip-path:url(#XMLID_00000051368547036673024070000000662534091465322168_);">
			<defs>
				<path id="XMLID_00000106837512304160253410000000578027131212173469_" d="M331.3-108.1c0.1,3.8-13.3,7.2-29.9,7.6
					c-16.6,0.4-30.1-2.4-30.2-6.2c-0.1-3.8,13.3-7.2,29.9-7.6C317.7-114.7,331.2-112,331.3-108.1z"/>
			</defs>
			<use xlink:href="#XMLID_00000106837512304160253410000000578027131212173469_"  style="overflow:visible;fill:#BBD700;"/>
			<clipPath id="XMLID_00000005957356810210719060000014810838030429291951_">
				<use xlink:href="#XMLID_00000106837512304160253410000000578027131212173469_"  style="overflow:visible;"/>
			</clipPath>
			<path style="opacity:0.33;clip-path:url(#XMLID_00000005957356810210719060000014810838030429291951_);fill:#FFFFFF;" d="
				M280.3-106.9c0.2,0.3-0.1,0.5-0.3,0.7c-0.2,0.2-0.5,0.2-0.8,0c-0.2-0.2-0.3-0.5-0.1-0.7C279.3-107.1,280-107.4,280.3-106.9z"/>
			<path style="opacity:0.33;clip-path:url(#XMLID_00000005957356810210719060000014810838030429291951_);fill:#FFFFFF;" d="
				M283.6-104.2c0.2,0.3-0.1,0.5-0.3,0.7c-0.2,0.2-0.5,0.2-0.8,0c-0.2-0.2-0.3-0.5-0.1-0.7C282.6-104.4,283.2-104.8,283.6-104.2z"/>
			<path style="opacity:0.33;clip-path:url(#XMLID_00000005957356810210719060000014810838030429291951_);fill:#FFFFFF;" d="
				M287.7-107.5c0,0.2-0.1,0.3-0.3,0.3s-0.3-0.1-0.3-0.3c0-0.2,0.1-0.3,0.3-0.3S287.7-107.6,287.7-107.5z"/>
			<path style="opacity:0.33;clip-path:url(#XMLID_00000005957356810210719060000014810838030429291951_);fill:#FFFFFF;" d="
				M291.2-106.2c0,0.2-0.1,0.3-0.3,0.3s-0.3-0.1-0.3-0.3c0-0.2,0.1-0.3,0.3-0.3S291.2-106.4,291.2-106.2z"/>
			<path style="opacity:0.33;clip-path:url(#XMLID_00000005957356810210719060000014810838030429291951_);fill:#FFFFFF;" d="
				M298.7-105c0,0.2-0.1,0.3-0.3,0.3c-0.2,0-0.3-0.1-0.3-0.3s0.1-0.3,0.3-0.3C298.6-105.3,298.7-105.2,298.7-105z"/>
			<path style="opacity:0.33;clip-path:url(#XMLID_00000005957356810210719060000014810838030429291951_);fill:#FFFFFF;" d="
				M297.8-101.6c0,0.2-0.1,0.3-0.3,0.3s-0.3-0.1-0.3-0.3c0-0.2,0.1-0.3,0.3-0.3S297.8-101.8,297.8-101.6z"/>
			<path style="opacity:0.61;clip-path:url(#XMLID_00000005957356810210719060000014810838030429291951_);fill:#D7DF00;" d="
				M288.4-102.4c0,0.2-0.1,0.3-0.3,0.3c-0.2,0-0.3-0.1-0.3-0.3s0.1-0.3,0.3-0.3C288.2-102.7,288.4-102.6,288.4-102.4z"/>
			<path style="opacity:0.33;clip-path:url(#XMLID_00000005957356810210719060000014810838030429291951_);fill:#FFFFFF;" d="
				M293.4-107.7c0,0.2-0.1,0.3-0.3,0.3c-0.2,0-0.3-0.1-0.3-0.3c0-0.2,0.1-0.3,0.3-0.3C293.2-108,293.4-107.8,293.4-107.7z"/>
			<path style="opacity:0.33;clip-path:url(#XMLID_00000005957356810210719060000014810838030429291951_);fill:#FFFFFF;" d="
				M298.1-109.3c0,0.2-0.1,0.3-0.3,0.3c-0.2,0-0.3-0.1-0.3-0.3s0.1-0.3,0.3-0.3C298-109.6,298.1-109.4,298.1-109.3z"/>
			
				<circle style="opacity:0.3;clip-path:url(#XMLID_00000005957356810210719060000014810838030429291951_);fill:#FFFFFF;" cx="303.3" cy="-110.8" r="0.3"/>
			<path style="opacity:0.33;clip-path:url(#XMLID_00000005957356810210719060000014810838030429291951_);fill:#FFFFFF;" d="
				M292.9-110.4c0,0.2-0.1,0.3-0.3,0.3s-0.3-0.1-0.3-0.3c0-0.2,0.1-0.3,0.3-0.3S292.9-110.6,292.9-110.4z"/>
			<path style="opacity:0.3;clip-path:url(#XMLID_00000005957356810210719060000014810838030429291951_);fill:#FFFFFF;" d="
				M303.5-108.5c0.2,0.3-0.1,0.5-0.3,0.7c-0.2,0.2-0.5,0.2-0.8,0c-0.2-0.2-0.3-0.5-0.1-0.7C302.5-108.7,303.2-109.1,303.5-108.5z"/>
			<path style="opacity:0.3;clip-path:url(#XMLID_00000005957356810210719060000014810838030429291951_);fill:#FFFFFF;" d="
				M310.3-106.4c0,0.2-0.1,0.3-0.3,0.3c-0.2,0-0.3-0.1-0.3-0.3c0-0.2,0.1-0.3,0.3-0.3C310.1-106.7,310.3-106.6,310.3-106.4z"/>
			<path style="opacity:0.3;clip-path:url(#XMLID_00000005957356810210719060000014810838030429291951_);fill:#FFFFFF;" d="
				M313.6-107.5c0.2,0.3,0,0.1-0.2,0.4c-0.2,0.2-0.4,0.5-0.6,0.3c-0.2-0.2-0.3-0.5-0.1-0.7C313-107.8,313.3-108,313.6-107.5z"/>
			<path style="opacity:0.33;clip-path:url(#XMLID_00000005957356810210719060000014810838030429291951_);fill:#FFFFFF;" d="
				M284.6-109.6c-0.1,0.3-0.1,0.1-0.4,0.1c-0.3,0-0.6,0.1-0.6-0.2c0-0.3,0.2-0.6,0.4-0.6C284.4-110.3,284.8-110.2,284.6-109.6z"/>
			<path style="opacity:0.3;clip-path:url(#XMLID_00000005957356810210719060000014810838030429291951_);fill:#FFFFFF;" d="
				M315.3-104.3c0,0.2-0.1,0.3-0.3,0.3c-0.2,0-0.3-0.1-0.3-0.3c0-0.2,0.1-0.3,0.3-0.3C315.2-104.6,315.3-104.5,315.3-104.3z"/>
			<path style="opacity:0.3;clip-path:url(#XMLID_00000005957356810210719060000014810838030429291951_);fill:#FFFFFF;" d="
				M312.4-110.3c0,0.1-0.1,0.2-0.2,0.2c-0.1,0-0.2-0.1-0.2-0.2c0-0.1,0.1-0.2,0.2-0.2C312.3-110.4,312.4-110.4,312.4-110.3z"/>
			
				<circle style="opacity:0.23;clip-path:url(#XMLID_00000005957356810210719060000014810838030429291951_);fill:#FFFFFF;" cx="307.2" cy="-104.3" r="0.2"/>
			
				<circle style="opacity:0.33;clip-path:url(#XMLID_00000005957356810210719060000014810838030429291951_);fill:#FFFFFF;" cx="308.5" cy="-110.1" r="0.3"/>
			<path style="opacity:0.33;clip-path:url(#XMLID_00000005957356810210719060000014810838030429291951_);fill:#FFFFFF;" d="
				M295.7-104.7c0.2,0.3-0.1,0.5-0.3,0.7c-0.2,0.2-0.5,0.2-0.8,0c-0.2-0.2-0.3-0.5-0.1-0.7C294.7-104.9,295.3-105.2,295.7-104.7z"/>
			<path style="opacity:0.33;clip-path:url(#XMLID_00000005957356810210719060000014810838030429291951_);fill:#FFFFFF;" d="
				M298.9-102c0.2,0.3-0.1,0.5-0.3,0.7c-0.2,0.2-0.5,0.2-0.8,0c-0.2-0.2-0.3-0.5-0.1-0.7C297.9-102.2,298.6-102.6,298.9-102z"/>
			<path style="opacity:0.33;clip-path:url(#XMLID_00000005957356810210719060000014810838030429291951_);fill:#FFFFFF;" d="
				M303-105.3c0,0.2-0.1,0.3-0.3,0.3s-0.3-0.1-0.3-0.3c0-0.2,0.1-0.3,0.3-0.3S303-105.5,303-105.3z"/>
			<path style="opacity:0.33;clip-path:url(#XMLID_00000005957356810210719060000014810838030429291951_);fill:#FFFFFF;" d="
				M306.6-104.1c0,0.2-0.1,0.3-0.3,0.3c-0.2,0-0.3-0.1-0.3-0.3c0-0.2,0.1-0.3,0.3-0.3C306.4-104.4,306.6-104.2,306.6-104.1z"/>
			<path style="opacity:0.33;clip-path:url(#XMLID_00000005957356810210719060000014810838030429291951_);fill:#FFFFFF;" d="
				M314-102.8c0,0.2-0.1,0.3-0.3,0.3c-0.2,0-0.3-0.1-0.3-0.3c0-0.2,0.1-0.3,0.3-0.3C313.9-103.1,314-103,314-102.8z"/>
			<path style="opacity:0.33;clip-path:url(#XMLID_00000005957356810210719060000014810838030429291951_);fill:#FFFFFF;" d="
				M313.1-99.5c0,0.2-0.1,0.3-0.3,0.3c-0.2,0-0.3-0.1-0.3-0.3s0.1-0.3,0.3-0.3C313-99.8,313.1-99.6,313.1-99.5z"/>
			<path style="opacity:0.61;clip-path:url(#XMLID_00000005957356810210719060000014810838030429291951_);fill:#D7DF00;" d="
				M303.7-100.3c0,0.2-0.1,0.3-0.3,0.3s-0.3-0.1-0.3-0.3c0-0.2,0.1-0.3,0.3-0.3S303.7-100.4,303.7-100.3z"/>
			<path style="opacity:0.33;clip-path:url(#XMLID_00000005957356810210719060000014810838030429291951_);fill:#FFFFFF;" d="
				M308.7-105.5c0,0.2-0.1,0.3-0.3,0.3c-0.2,0-0.3-0.1-0.3-0.3c0-0.2,0.1-0.3,0.3-0.3C308.6-105.8,308.7-105.7,308.7-105.5z"/>
			<path style="opacity:0.33;clip-path:url(#XMLID_00000005957356810210719060000014810838030429291951_);fill:#FFFFFF;" d="
				M313.5-107.1c0,0.2-0.1,0.3-0.3,0.3c-0.2,0-0.3-0.1-0.3-0.3c0-0.2,0.1-0.3,0.3-0.3C313.4-107.4,313.5-107.3,313.5-107.1z"/>
			
				<circle style="opacity:0.3;clip-path:url(#XMLID_00000005957356810210719060000014810838030429291951_);fill:#FFFFFF;" cx="318.6" cy="-108.6" r="0.3"/>
			<path style="opacity:0.33;clip-path:url(#XMLID_00000005957356810210719060000014810838030429291951_);fill:#FFFFFF;" d="
				M308.2-108.2c0,0.2-0.1,0.3-0.3,0.3s-0.3-0.1-0.3-0.3c0-0.2,0.1-0.3,0.3-0.3S308.2-108.4,308.2-108.2z"/>
			<path style="opacity:0.3;clip-path:url(#XMLID_00000005957356810210719060000014810838030429291951_);fill:#FFFFFF;" d="
				M318.9-106.4c0.2,0.3-0.1,0.5-0.3,0.7c-0.2,0.2-0.5,0.2-0.8,0c-0.2-0.2-0.3-0.5-0.1-0.7C317.9-106.6,318.5-106.9,318.9-106.4z"/>
			
				<circle style="opacity:0.3;clip-path:url(#XMLID_00000005957356810210719060000014810838030429291951_);fill:#FFFFFF;" cx="325.3" cy="-104.3" r="0.3"/>
			<path style="opacity:0.3;clip-path:url(#XMLID_00000005957356810210719060000014810838030429291951_);fill:#FFFFFF;" d="
				M329-105.3c0.2,0.3,0,0.1-0.2,0.4c-0.2,0.2-0.4,0.5-0.6,0.3c-0.2-0.2-0.3-0.5-0.1-0.7C328.3-105.6,328.6-105.8,329-105.3z"/>
			<path style="opacity:0.33;clip-path:url(#XMLID_00000005957356810210719060000014810838030429291951_);fill:#FFFFFF;" d="
				M300-107.4c-0.1,0.3-0.1,0.1-0.4,0.1c-0.3,0-0.6,0.1-0.6-0.2c0-0.3,0.2-0.6,0.4-0.6C299.7-108.1,300.1-108,300-107.4z"/>
			<path style="opacity:0.3;clip-path:url(#XMLID_00000005957356810210719060000014810838030429291951_);fill:#FFFFFF;" d="
				M330.7-102.1c0,0.2-0.1,0.3-0.3,0.3s-0.3-0.1-0.3-0.3c0-0.2,0.1-0.3,0.3-0.3S330.7-102.3,330.7-102.1z"/>
			<path style="opacity:0.3;clip-path:url(#XMLID_00000005957356810210719060000014810838030429291951_);fill:#FFFFFF;" d="
				M327.7-108.1c0,0.1-0.1,0.2-0.1,0.2c-0.1,0-0.2-0.1-0.2-0.2c0-0.1,0.1-0.2,0.2-0.2C327.7-108.3,327.7-108.2,327.7-108.1z"/>
			<path style="opacity:0.23;clip-path:url(#XMLID_00000005957356810210719060000014810838030429291951_);fill:#FFFFFF;" d="
				M322.7-102.1c0,0.1-0.1,0.2-0.2,0.2c-0.1,0-0.2-0.1-0.2-0.2c0-0.1,0.1-0.2,0.2-0.2C322.7-102.2,322.7-102.2,322.7-102.1z"/>
			<path style="opacity:0.33;clip-path:url(#XMLID_00000005957356810210719060000014810838030429291951_);fill:#FFFFFF;" d="
				M324.1-107.9c0,0.2-0.1,0.3-0.3,0.3s-0.3-0.1-0.3-0.3c0-0.2,0.1-0.3,0.3-0.3S324.1-108.1,324.1-107.9z"/>
		</g>
		
			<path id="XMLID_00000070804455814555252660000016369666008444171908_" style="opacity:0.12;clip-path:url(#XMLID_00000051368547036673024070000000662534091465322168_);fill:#FFFFFF;" d="
			M332.5-104.7c0.1,3.8-13.3,7.2-29.9,7.6s-30.1-2.4-30.2-6.2c-0.1-3.8,13.3-7.2,29.9-7.6C318.9-111.3,332.4-108.5,332.5-104.7z"/>
		
			<path id="XMLID_00000058554910804629480310000012234960492629543080_" style="opacity:0.12;clip-path:url(#XMLID_00000051368547036673024070000000662534091465322168_);fill:#FFFFFF;" d="
			M336.8-102.3c0.1,3.8-13.3,7.2-29.9,7.6c-16.6,0.4-30.1-2.4-30.2-6.2c-0.1-3.8,13.3-7.2,29.9-7.6
			C323.2-108.9,336.8-106.1,336.8-102.3z"/>
	</g>
	<g class="st16">
		<path class="st17" d="M27.7,71.5c0,0,0.2,0.3,0.5,0.8c0.3,0.4,0.6,1.1,1.1,1.8c0.8,1.5,1.9,3.4,3,5.2c0.3,0.4,0.6,0.9,0.9,1.3
			c0.3,0.4,0.6,0.8,0.9,1.2c0.3,0.4,0.6,0.8,0.8,1.2c0.3,0.4,0.5,0.7,0.8,1c0.3,0.3,0.5,0.6,0.7,0.9c0.2,0.3,0.4,0.5,0.6,0.7
			c0.3,0.4,0.5,0.7,0.5,0.7l0.1,0.1c0.4,0.6,0.2,1.4-0.4,1.8c-0.2,0.2-0.5,0.2-0.8,0.2c0,0-0.3,0-0.9-0.2c-0.3-0.1-0.7-0.1-1.1-0.3
			c-0.4-0.1-0.8-0.3-1.3-0.5c-0.5-0.2-0.9-0.5-1.5-0.8c-0.5-0.4-1-0.7-1.5-1.2c-0.5-0.5-1-0.9-1.4-1.5c-0.4-0.5-0.8-1.1-1.2-1.7
			c-1.5-2.4-2.2-5.1-2.3-7.1c0-0.5,0-1,0-1.4c0-0.4,0.1-0.8,0.1-1.1c0.1-0.6,0.2-0.9,0.2-0.9l0,0c0.2-0.7,0.9-1.1,1.6-0.9
			C27.3,71,27.6,71.2,27.7,71.5z"/>
	</g>
	<g>
		<defs>
			<path id="XMLID_00000075863251038820660360000011767261317246159524_" d="M193.9-69.2c0,0,4-3.4,4-5.8c0-1.3-1.1-2.4-2.4-2.4
				c-1,0-1.8,0.6-2.2,1.4c-0.4-0.9-1.2-1.4-2.2-1.4c-1.3,0-2.4,1.1-2.4,2.4c0.2,2.9,3.9,5.8,3.9,5.8S193.3-68.5,193.9-69.2z"/>
		</defs>
		<use xlink:href="#XMLID_00000075863251038820660360000011767261317246159524_"  style="overflow:visible;fill:#BBD700;"/>
		<clipPath id="XMLID_00000046297504353507084860000018324499957883575191_">
			<use xlink:href="#XMLID_00000075863251038820660360000011767261317246159524_"  style="overflow:visible;"/>
		</clipPath>
		<g style="opacity:3.000000e-02;clip-path:url(#XMLID_00000046297504353507084860000018324499957883575191_);">
			<path class="st54" d="M196.5-77.1c0.3,0.4,0.5,0.9,0.5,1.5c0,2.4-4,5.8-4,5.8c-0.3,0.3-0.5,0.3-0.7,0.3c0.3,0.3,0.5,0.4,0.5,0.4
				s0.6,0.7,1.2,0c0,0,4-3.4,4-5.8C198.1-75.9,197.4-76.8,196.5-77.1z"/>
		</g>
		<g style="opacity:0.19;clip-path:url(#XMLID_00000046297504353507084860000018324499957883575191_);">
			<path class="st17" d="M191.7-76.1c0,0-0.2,0.2-0.3,0.5c-0.1,0.1-0.1,0.3-0.2,0.4c0,0.1,0,0.1,0,0.2c0,0.1,0,0.1,0,0.2
				c0,0.1,0,0.1,0,0.2c0,0.1,0,0.2,0,0.3c0,0.2,0,0.4,0,0.6c0,0.4,0,0.7,0,0.7l0,0c0,0.2-0.2,0.3-0.4,0.3c-0.1,0-0.1,0-0.1,0
				c0,0-0.1,0-0.2-0.1c-0.1,0-0.1-0.1-0.2-0.2c-0.1-0.1-0.2-0.1-0.2-0.2c-0.3-0.4-0.6-1-0.6-1.8c0-0.2,0.1-0.4,0.1-0.6
				c0.1-0.2,0.2-0.4,0.3-0.5c0.2-0.3,0.5-0.5,0.8-0.6c0.3-0.1,0.5-0.1,0.6-0.1c0.2,0,0.3,0,0.2,0c0.2,0,0.3,0.1,0.4,0.2
				S191.9-76.2,191.7-76.1z"/>
		</g>
	</g>
	<g>
		<defs>
			<path id="XMLID_00000053509879819161737660000009991701791773975188_" d="M186.4-78.4c0,0,4.6-3.8,4.6-6.5c0-1.5-1.2-2.7-2.7-2.7
				c-1.1,0-2.1,0.7-2.5,1.6c-0.4-1-1.4-1.6-2.5-1.6c-1.5,0-2.7,1.2-2.7,2.7c0.3,3.3,4.5,6.5,4.5,6.5S185.7-77.6,186.4-78.4z"/>
		</defs>
		<use xlink:href="#XMLID_00000053509879819161737660000009991701791773975188_"  style="overflow:visible;fill:#BBD700;"/>
		<clipPath id="XMLID_00000075862312716297497990000001397743130339454368_">
			<use xlink:href="#XMLID_00000053509879819161737660000009991701791773975188_"  style="overflow:visible;"/>
		</clipPath>
		<g style="opacity:3.000000e-02;clip-path:url(#XMLID_00000075862312716297497990000001397743130339454368_);">
			<path class="st54" d="M189.4-87.4c0.4,0.5,0.6,1.1,0.6,1.7c0,2.7-4.6,6.5-4.6,6.5c-0.3,0.3-0.6,0.3-0.8,0.3
				c0.4,0.3,0.6,0.5,0.6,0.5s0.7,0.8,1.4,0c0,0,4.6-3.8,4.6-6.5C191.2-86,190.4-87,189.4-87.4z"/>
		</g>
		<g style="opacity:0.19;clip-path:url(#XMLID_00000075862312716297497990000001397743130339454368_);">
			<path class="st17" d="M183.9-86.2c0,0-0.2,0.3-0.4,0.6c-0.1,0.2-0.1,0.3-0.2,0.4c0,0.1,0,0.1-0.1,0.2c0,0.1,0,0.1,0,0.2
				c0,0.1,0,0.2,0,0.3c0,0.1,0,0.2,0,0.3c0,0.2,0,0.4,0,0.7c0,0.4,0,0.8,0,0.8l0,0c0,0.2-0.2,0.4-0.4,0.4c-0.1,0-0.1,0-0.2-0.1
				c0,0-0.1,0-0.2-0.1c-0.1,0-0.1-0.1-0.2-0.2c-0.1-0.1-0.2-0.1-0.3-0.3c-0.3-0.4-0.7-1.1-0.7-2c0-0.2,0.1-0.4,0.1-0.7
				c0.1-0.2,0.2-0.4,0.3-0.6c0.3-0.3,0.6-0.5,0.9-0.6c0.3-0.1,0.5-0.1,0.7-0.1c0.2,0,0.3,0.1,0.3,0.1c0.2,0,0.4,0.1,0.4,0.2
				C184.2-86.5,184.1-86.3,183.9-86.2z"/>
		</g>
	</g>
	<g>
		<g>
			<defs>
				<circle id="XMLID_73_" cx="26.5" cy="25.7" r="13.7"/>
			</defs>
			<use xlink:href="#XMLID_73_"  style="overflow:visible;fill:#BBD500;"/>
			<clipPath id="XMLID_00000135686644291373686420000006349018538637748892_">
				<use xlink:href="#XMLID_73_"  style="overflow:visible;"/>
			</clipPath>
			<path style="opacity:2.000000e-02;clip-path:url(#XMLID_00000135686644291373686420000006349018538637748892_);" d="M32.1,13.3
				c1.3,2.1,2,4.5,2,7.1C34.2,27.9,28,34,20.5,34c-2,0-3.9-0.5-5.7-1.2c2.4,3.9,6.7,6.6,11.7,6.6c7.6,0,13.7-6.1,13.7-13.7
				C40.2,20.2,36.9,15.4,32.1,13.3z"/>
		</g>
		<g>
			<g>
				<path class="st17" d="M30.8,28.4c0,1.3-0.4,2.5-1.3,3.4c-0.9,0.9-2,1.4-3.3,1.4c-1.3,0-2.4-0.4-3.4-1.3c-0.9-0.9-1.4-2-1.4-3.3
					h1.5c0,0.9,0.3,1.6,0.9,2.2c0.6,0.6,1.4,0.9,2.2,0.9c0.9,0,1.7-0.3,2.3-1c0.6-0.7,0.9-1.4,0.9-2.3c0-0.9-0.3-1.7-0.9-2.4
					c-0.6-0.7-1.4-1-2.3-1c-0.5,0-1,0.1-1.5,0.4c-0.5,0.3-0.9,0.6-1.3,1.1l-1.2-0.4l1.3-6.8h6.3v1.3h-5.1L24,24.2
					c0.4-0.2,0.8-0.3,1.1-0.4c0.3-0.1,0.7-0.1,1.1-0.1c1.3,0,2.4,0.5,3.3,1.4C30.4,26,30.8,27.1,30.8,28.4z"/>
			</g>
		</g>
	</g>
	<text transform="matrix(1 0 0 1 49.9337 -75.8389)"><tspan x="0" y="0" style="font-family:'Montserrat-Regular'; font-size:10px;">Add 60ml of </tspan><tspan x="7.9" y="12" style="font-family:'Montserrat-Regular'; font-size:10px;">hot water</tspan></text>
	<ellipse class="st9" cx="5.2" cy="-151.5" rx="31.8" ry="7"/>
	<path class="st10" d="M-12.4-157.9c0,0,4.3,2.3,5.7,3.9c1.2,1.3,2.6,2.4,4.4,2.7c3,0.6,7.8,1.1,13.4,0.1c2-0.4,3.9-1.4,5-3.2
		c0.4-0.6,1.8-2.1,3.1-2.5"/>
	<g>
		<g>
			<defs>
				<path id="XMLID_76_" d="M34.1-162c-1.8,0-3.9-0.4-6.3-1.4c-0.8-0.3-1.1-1.2-0.8-2c0.3-0.8,1.2-1.1,2-0.8
					c5.2,2.1,9.4,1.2,11.9-2.6c2.5-3.8,2.6-9.4,0.1-11.8c-1.1-1.1-2.1-1.6-3.2-1.4c-2,0.3-3.7,2.8-4.2,3.6c-0.4,0.7-1.3,1-2,0.6
					c-0.7-0.4-1-1.3-0.6-2c0.3-0.5,2.6-4.6,6.4-5.2c2-0.3,3.9,0.5,5.7,2.3c3.5,3.5,3.6,10.6,0.2,15.6C42.2-165.3,39.3-162,34.1-162z
					"/>
			</defs>
			<use xlink:href="#XMLID_76_"  style="overflow:visible;fill:#996000;"/>
			<clipPath id="XMLID_00000127764311396632509300000002007378406596461711_">
				<use xlink:href="#XMLID_76_"  style="overflow:visible;"/>
			</clipPath>
			<g style="opacity:0.27;clip-path:url(#XMLID_00000127764311396632509300000002007378406596461711_);">
				<path class="st12" d="M37.5-182.9c-2,0.3-4.7,2.7-5.1,3.6c-0.4,0.6-1.1,0.9-1.8,0.7c0,0.5,0.3,1,0.8,1.3
					c0.7,0.4,1.7,0.1,2.1-0.6c0.5-0.9,2.3-3.4,4.3-3.7c1-0.1,2.3,2,3.4,3c-0.2-0.5,0.8-0.2,0.5-1.5
					C41.1-181.9,39.5-183.2,37.5-182.9z"/>
				<path class="st12" d="M43.8-182.5c2.4,3.8,2.1,10-0.9,14.4c-1.2,1.8-4.1,5.1-9.4,5.1c-1.8,0-3.9-0.4-6.2-1.3
					c0,0.6,0.4,1.1,0.9,1.3c2.4,1,4.5,1.4,6.4,1.4c5.3,0,8.3-3.3,9.4-5.1C47.3-171.8,47.2-179,43.8-182.5z"/>
			</g>
		</g>
	</g>
	<g>
		<defs>
			<path id="XMLID_75_" d="M-25.8-187.2c0,0-3.3,32.8,29.7,33c36.9,0.3,30.3-33,30.3-33"/>
		</defs>
		<use xlink:href="#XMLID_75_"  style="overflow:visible;fill:#996000;"/>
		<clipPath id="XMLID_00000179635259546288653790000012240433276922229125_">
			<use xlink:href="#XMLID_75_"  style="overflow:visible;"/>
		</clipPath>
		<path style="opacity:0.41;clip-path:url(#XMLID_00000179635259546288653790000012240433276922229125_);fill:#8E5400;" d="
			M34.2-187.2h-9.5c0.5,8.4-1,30-30.7,29.7c-2.3,0-4.4-0.2-6.4-0.5c4.1,2.3,9.4,3.8,16.3,3.8C40.9-153.8,34.2-187.2,34.2-187.2z"/>
		<path style="opacity:0.66;clip-path:url(#XMLID_00000179635259546288653790000012240433276922229125_);fill:#8E5400;" d="
			M37.3-188.2l-9.5,0.8c1.3,8.3,1.6,29.9-28.1,32.2c-2.3,0.2-4.4,0.2-6.4,0c4.3,1.9,9.7,3,16.5,2.4
			C46.7-155.5,37.3-188.2,37.3-188.2z"/>
	</g>
	<g>
		<defs>
			<path id="XMLID_74_" d="M34.2-187.2c0,3.8-13.4,6.9-30,6.9s-30-3.1-30-6.9s13.4-6.9,30-6.9S34.2-191,34.2-187.2z"/>
		</defs>
		<use xlink:href="#XMLID_74_"  style="overflow:visible;fill:#7A4800;"/>
		<clipPath id="XMLID_00000091699908539544800980000011049166449806731189_">
			<use xlink:href="#XMLID_74_"  style="overflow:visible;"/>
		</clipPath>
		<path style="opacity:5.000000e-02;clip-path:url(#XMLID_00000091699908539544800980000011049166449806731189_);" d="M4.2-194.1
			c-15.8,0-28.8,2.8-29.9,6.4c5.1-2.1,15-3.6,26.3-3.6c16.6,0,30,3.1,30,6.9c0,0.2,0,0.3-0.1,0.5c2.4-1,3.7-2.1,3.7-3.3
			C34.2-191,20.8-194.1,4.2-194.1z"/>
		<path id="XMLID_77_" style="clip-path:url(#XMLID_00000091699908539544800980000011049166449806731189_);fill:#BBD700;" d="
			M34.2-176.8c0,3.8-13.4,6.9-30,6.9s-30-3.1-30-6.9s13.4-6.9,30-6.9S34.2-180.6,34.2-176.8z"/>
		<g style="clip-path:url(#XMLID_00000091699908539544800980000011049166449806731189_);">
			<defs>
				<path id="XMLID_78_" d="M-19.6-169.7c0,0,9.8,11.1,27.3,10.6c17.6-0.6,19.1-8.5,19.1-8.5s-1-7.3-4.9-8.6
					c-3.9-1.3-1.8-6.2-6.8-7.4c-2.4-0.6-4.6-6-8.8-6.8c-4.2-0.8-5.3,3.7-9.1,4.7c-3.8,1-4.3,5-6.6,5.6c-2.3,0.6-3.6,6-6.7,6.3
					C-19.1-173.6-19.6-169.7-19.6-169.7z"/>
			</defs>
			<use xlink:href="#XMLID_78_"  style="overflow:visible;fill:#BBD700;"/>
			<clipPath id="XMLID_00000166662705263409211500000005383683274655501449_">
				<use xlink:href="#XMLID_78_"  style="overflow:visible;"/>
			</clipPath>
			<path style="opacity:5.000000e-02;clip-path:url(#XMLID_00000166662705263409211500000005383683274655501449_);" d="M1.3-194.6
				c0,0,9.3,10.4,8.4,16.8c-0.9,6.4,5.7,5.1,6.6,9.7c1,4.6,3.4,13.7,3.4,13.7l11.8-12.2C31.5-166.6,13.3-197.8,1.3-194.6z"/>
			<path style="opacity:5.000000e-02;clip-path:url(#XMLID_00000166662705263409211500000005383683274655501449_);" d="M2.7-193.7
				c0,0,10.6,9.1,10.5,15.6c-0.1,6.5,6.3,4.4,7.8,8.8c1.5,4.4,5.1,13.2,5.1,13.2l10.1-13.7C36.2-169.9,14.1-198.5,2.7-193.7z"/>
			<path style="opacity:0.3;clip-path:url(#XMLID_00000166662705263409211500000005383683274655501449_);fill:#FFFFFF;" d="
				M-10.4-170.2c0,0.7-0.6,1.2-1.3,1.2c-0.7,0-1.2-0.6-1.2-1.3c0-0.7,0.6-1.2,1.3-1.2C-10.9-171.5-10.4-170.9-10.4-170.2z"/>
			<path style="opacity:0.3;clip-path:url(#XMLID_00000166662705263409211500000005383683274655501449_);fill:#FFFFFF;" d="
				M-2.9-174.2c0.6,1.1,0,0.6-0.8,1.5c-0.8,0.9-1.7,1.9-2.6,1c-0.9-0.9-1-2.3-0.2-3.2C-5.7-175.8-4.2-176.6-2.9-174.2z"/>
			<path style="opacity:0.3;clip-path:url(#XMLID_00000166662705263409211500000005383683274655501449_);fill:#FFFFFF;" d="
				M-5.1-167.7c0,0.7-0.6,1.2-1.3,1.2c-0.7,0-1.2-0.6-1.2-1.3c0-0.7,0.6-1.2,1.3-1.2C-5.6-169-5.1-168.4-5.1-167.7z"/>
			<path style="opacity:0.3;clip-path:url(#XMLID_00000166662705263409211500000005383683274655501449_);fill:#FFFFFF;" d="
				M19.9-152.3c0,0.3-0.3,0.6-0.7,0.6c-0.3,0-0.6-0.3-0.6-0.7c0-0.3,0.3-0.6,0.7-0.6C19.7-152.9,19.9-152.6,19.9-152.3z"/>
			<path style="opacity:0.3;clip-path:url(#XMLID_00000166662705263409211500000005383683274655501449_);fill:#FFFFFF;" d="
				M-9.4-174.4c0,0.3-0.3,0.6-0.7,0.6c-0.3,0-0.6-0.3-0.6-0.7c0-0.3,0.3-0.6,0.7-0.6C-9.6-175.1-9.3-174.8-9.4-174.4z"/>
			<path style="opacity:0.3;clip-path:url(#XMLID_00000166662705263409211500000005383683274655501449_);fill:#FFFFFF;" d="
				M-0.8-165.5c0,0.7-0.6,1.2-1.3,1.2c-0.7,0-1.2-0.6-1.2-1.3c0-0.7,0.6-1.2,1.3-1.2C-1.3-166.8-0.8-166.2-0.8-165.5z"/>
			<path style="opacity:0.3;clip-path:url(#XMLID_00000166662705263409211500000005383683274655501449_);fill:#FFFFFF;" d="
				M-1.5-169.9c0,0.3-0.3,0.6-0.7,0.6c-0.3,0-0.6-0.3-0.6-0.7c0-0.3,0.3-0.6,0.7-0.6C-1.7-170.6-1.4-170.3-1.5-169.9z"/>
		</g>
	</g>
	<g class="st82">
		<path class="st17" d="M32.6-212c0-0.6,0.5-1.2,1.1-1.1c0.1,0,0.2,0.2,0.2,0.3c-0.1,0.3-0.4,0.3-0.5,0.5c-0.1,0.1-0.2,0.3-0.4,0.5
			C32.9-211.6,32.6-211.8,32.6-212L32.6-212z"/>
	</g>
	<path class="st83" d="M312.3-121.6c0,0,0.2-2.2-1.2-7.8s-1.8-14.2,0-16.8s1.2-8,3-12.8c1.4-3.8,2,9,3.2,12.8s-1.8,7.5-1.8,12.2
		S314-121.6,312.3-121.6z"/>
	<path class="st83" d="M321.6-121.5c0,0-3.9-8.6-1.7-13c2.2-4.2,3.7-11,3.7-11c-0.8-3.3,2.3,8.8,0.2,13.2
		C322.1-129,321.6-121.5,321.6-121.5z"/>
	<g>
		<g>
			<g>
				<g>
					<defs>
						<path id="XMLID_72_" d="M79.9-223.5c-13.9,4-28.6-4-32.6-18c-2.3-8-0.7-16.7,4.4-23.3c3.4-4.5,8.1-7.7,13.6-9.3
							c13.9-4,28.6,4,32.6,18C101.9-242.1,93.8-227.5,79.9-223.5z M65.5-273.1c-5.3,1.5-9.8,4.6-13.1,8.9
							c-4.9,6.4-6.5,14.8-4.2,22.5c3.9,13.4,18,21.2,31.4,17.3c13.4-3.9,21.2-18,17.3-31.4C93.1-269.3,79-277,65.5-273.1z"/>
					</defs>
					<use xlink:href="#XMLID_72_"  style="overflow:visible;fill:#723F03;"/>
					<clipPath id="XMLID_00000175314729720511601750000018344718112980562605_">
						<use xlink:href="#XMLID_72_"  style="overflow:visible;"/>
					</clipPath>
					<g style="clip-path:url(#XMLID_00000175314729720511601750000018344718112980562605_);">
						<path class="st85" d="M51.8-264.3c3.4-4.5,8.1-7.7,13.6-9.3c13.8-4,28.3,3.9,32.5,17.6c0-0.1-0.1-0.2-0.1-0.4
							c-4-13.9-18.7-22-32.6-18c-5.4,1.6-10.1,4.8-13.6,9.3c-5.1,6.6-6.7,15.3-4.4,23.3c0,0.1,0.1,0.3,0.1,0.4
							C45.2-249.2,46.8-257.8,51.8-264.3z"/>
						<path class="st85" d="M79.8-223.9c13.4-3.9,21.2-18,17.3-31.4c0-0.1-0.1-0.2-0.1-0.4c3.6,13.3-4.1,27.2-17.4,31.1
							c-13.3,3.9-27.3-3.7-31.3-16.9c0,0.1,0.1,0.2,0.1,0.3C52.2-227.8,66.3-220,79.8-223.9z"/>
					</g>
				</g>
			</g>
			<g>
				<defs>
					<path id="XMLID_70_" d="M28.1-216.5c0.2,0.7,0.9,1.2,1.7,1.2c2.3-0.1,7.2,0,8.7,3.5c2,4.5,6.9,27,25.2,16.1
						c0.8-0.5,1.1-1.5,0.7-2.3l-8.7-16.7c0,0-6.9-14.8-27.8-7.7c-0.9,0.3-1.4,1.3-1.1,2.2L28.1-216.5z"/>
				</defs>
				<use xlink:href="#XMLID_70_"  style="overflow:visible;fill:#824D02;"/>
				<clipPath id="XMLID_00000085939429164084368130000012160339336291339920_">
					<use xlink:href="#XMLID_70_"  style="overflow:visible;"/>
				</clipPath>
				<path style="opacity:0.39;clip-path:url(#XMLID_00000085939429164084368130000012160339336291339920_);fill:#754103;" d="
					M39.8-213.9c-1.8-3.7-8.5-3.7-11.1-3.4c-0.8,0.1-1.6-0.4-1.9-1.2l-0.2-0.6l1.1,3.1c0.2,0.7,0.9,1.2,1.7,1.2
					c2.3-0.1,7.2,0,8.7,3.5c2,4.5,6.9,27,25.2,16.1c0.3-0.2,0.6-0.5,0.7-0.9C46.6-187.1,42-209.3,39.8-213.9z"/>
			</g>
			<path class="st87" d="M78.1-190.3l0,0.9c0.1,1.8,1.7,3.2,3.5,3c4.7-0.5,13.5-2.1,21.5-6.8c1.7-1,2.1-3.3,0.8-4.8l-1-1.2"/>
			<g>
				<defs>
					<path id="XMLID_68_" d="M114.3-223.2c4.7,16.7-8.1,26.3-24.8,31.1c-16.7,4.8-30.4,3-35.7-13.6c-6.1-19.2,2.9-37.3,19.6-42.1
						C90-252.6,108.5-243.5,114.3-223.2z"/>
				</defs>
				<use xlink:href="#XMLID_68_"  style="overflow:visible;fill:#9A6001;"/>
				<clipPath id="XMLID_00000027577690881181750670000017560686310824056492_">
					<use xlink:href="#XMLID_68_"  style="overflow:visible;"/>
				</clipPath>
				<path style="opacity:0.47;clip-path:url(#XMLID_00000027577690881181750670000017560686310824056492_);fill:#915602;" d="
					M82.3-250.1c9.8,3.6,18.2,12.1,21.7,24.7c4.9,17.3-8.4,27.2-25.7,32.2c-6.7,1.9-13,2.8-18.5,2.2c6.7,2.9,16.7,5.8,26.3,3
					c17.3-5,37.3-14.2,30.9-38.1C112.9-241.5,94.8-248.2,82.3-250.1z"/>
				<path style="clip-path:url(#XMLID_00000027577690881181750670000017560686310824056492_);fill:#915602;" d="M87.4-248.7
					c9.8,3.6,18.2,12.1,21.7,24.7c4.9,17.3-8.4,27.2-25.7,32.2c-6.7,1.9-13,2.8-18.5,2.2c6.7,2.9,15.3,2.2,24.9-0.5
					c17.3-5,30.6-14.9,25.7-32.2C111.2-237.7,99.9-246.8,87.4-248.7z"/>
			</g>
			<g>
				<defs>
					<path id="XMLID_67_" d="M92.5-248.5c1.4,4.7-6.5,7.3-16.5,10.1c-10,2.9-18.3,5-19.7,0.3c-1.4-4.7,4.2-12.8,14.2-15.7
						C80.5-256.6,91.2-253.1,92.5-248.5z"/>
				</defs>
				<use xlink:href="#XMLID_67_"  style="overflow:visible;fill:#824D02;"/>
				<clipPath id="XMLID_00000031191295409672693320000013283773618932672190_">
					<use xlink:href="#XMLID_67_"  style="overflow:visible;"/>
				</clipPath>
				<path style="opacity:0.2;clip-path:url(#XMLID_00000031191295409672693320000013283773618932672190_);fill:#723F03;" d="
					M52.5-237.8c0,0,22.8,1.5,41.9-12.6l2.1,5.4l-18.6,9.5l-24.5,2.7L52.5-237.8z"/>
				<path style="opacity:0.2;clip-path:url(#XMLID_00000031191295409672693320000013283773618932672190_);fill:#723F03;" d="
					M74.6-254.9c0.5,1.9-0.5,3.8-2.4,4.3c-1.9,0.5-3.8-0.5-4.3-2.4c-0.5-1.9,0.5-3.8,2.4-4.3C72.2-257.8,74.1-256.8,74.6-254.9z"/>
			</g>
			<g>
				<g>
					<defs>
						<path id="XMLID_71_" d="M84-270.6c-0.5,0.1-1,0.1-1.5,0c-18-5.8-29.2,8.3-29.3,8.4c-0.8,1.1-2.4,1.3-3.5,0.4
							c-1.1-0.8-1.3-2.4-0.4-3.5c0.1-0.2,13.5-17,34.8-10.1c1.3,0.4,2,1.8,1.6,3.1C85.5-271.4,84.8-270.9,84-270.6z"/>
					</defs>
					<use xlink:href="#XMLID_71_"  style="overflow:visible;fill:#723F03;"/>
					<clipPath id="XMLID_00000138568408368976232490000015015850548547145868_">
						<use xlink:href="#XMLID_71_"  style="overflow:visible;"/>
					</clipPath>
					<path style="opacity:0.48;clip-path:url(#XMLID_00000138568408368976232490000015015850548547145868_);fill:#683503;" d="
						M49.6-263.3c0.1-0.2,13.5-17,34.8-10.1c0.5,0.2,1,0.5,1.3,0.9c0.3-1.2-0.4-2.5-1.7-2.9c-21.3-6.8-34.6,9.9-34.8,10.1
						c-0.7,0.9-0.7,2.1-0.1,3C49.2-262.6,49.4-263,49.6-263.3z"/>
				</g>
			</g>
			<g>
				<defs>
					<path id="XMLID_69_" d="M74.2-256.1c0.5,1.9-0.5,3.8-2.4,4.3c-1.9,0.5-3.8-0.5-4.3-2.4c-0.5-1.9,0.5-3.8,2.4-4.3
						C71.7-259,73.7-257.9,74.2-256.1z"/>
				</defs>
				<use xlink:href="#XMLID_69_"  style="overflow:visible;fill:#9A6001;"/>
				<clipPath id="XMLID_00000173848859186348939310000011480398950933308312_">
					<use xlink:href="#XMLID_69_"  style="overflow:visible;"/>
				</clipPath>
				<path style="opacity:0.53;clip-path:url(#XMLID_00000173848859186348939310000011480398950933308312_);fill:#8C5302;" d="
					M70.5-258.6c0.7,0.4,1.3,1.1,1.5,2c0.5,1.9-0.5,3.8-2.4,4.3c-0.2,0.1-0.4,0.1-0.6,0.1c0.8,0.5,1.8,0.7,2.8,0.4
					c1.9-0.5,2.9-2.5,2.4-4.3C73.7-257.7,72.1-258.8,70.5-258.6z"/>
			</g>
			<g class="st93">
				<path class="st17" d="M68.3-253.8c-1.1-1.2-0.4-3.5,1.2-3.8c0.3,0,0.6,0.1,0.6,0.4c0,0.2,0,0.3-0.1,0.4
					c-0.5,0.9-0.4,1.6-0.8,2.6C69.2-253.6,68.6-253.4,68.3-253.8L68.3-253.8z"/>
			</g>
		</g>
		<g>
			<defs>
				<path id="XMLID_79_" d="M25.8-214.6c-0.1-0.6-0.8-0.8-1.3-0.5c-0.8,0.7-1.9,1.8-2.1,3.5c-0.3,1.6,3,2.4,3.5,0.8
					C26.1-211.7,26.2-213,25.8-214.6z"/>
			</defs>
			<use xlink:href="#XMLID_79_"  style="overflow:visible;fill:#63CADB;"/>
			<clipPath id="XMLID_00000022542369550211222640000009312073276661059994_">
				<use xlink:href="#XMLID_79_"  style="overflow:visible;"/>
			</clipPath>
			<path style="opacity:0.14;clip-path:url(#XMLID_00000022542369550211222640000009312073276661059994_);fill:#56B1BA;" d="
				M25.8-214.6c-0.1-0.3-0.3-0.5-0.6-0.6c0.3,1.5,0.2,2.7,0,3.6c-0.3,1.1-1.9,1.1-2.8,0.4c0.2,1.4,3,1.9,3.4,0.4
				C26.1-211.7,26.2-213,25.8-214.6z"/>
		</g>
		<g>
			<g>
				<defs>
					<path id="XMLID_80_" d="M28.6-208.8c-0.2-0.5-0.8-0.6-1.2-0.2c-0.6,0.7-1.4,1.8-1.4,3.4c0,1.5,2.9,1.7,3.1,0.3
						C29.2-206.3,29.1-207.5,28.6-208.8z"/>
				</defs>
				<use xlink:href="#XMLID_80_"  style="overflow:visible;fill:#63CADB;"/>
				<clipPath id="XMLID_00000028312242869236290430000014096520118693543052_">
					<use xlink:href="#XMLID_80_"  style="overflow:visible;"/>
				</clipPath>
				<path style="opacity:0.14;clip-path:url(#XMLID_00000028312242869236290430000014096520118693543052_);fill:#56B1BA;" d="
					M28.6-208.8c-0.1-0.3-0.3-0.4-0.6-0.5c0.4,1.3,0.5,2.4,0.4,3.2c-0.1,1-1.5,1.2-2.4,0.7c0.4,1.2,2.9,1.3,3.1-0.1
					C29.2-206.3,29.1-207.5,28.6-208.8z"/>
			</g>
			<g class="st82">
				<path class="st17" d="M27-207.5c-0.1-0.5,0.3-1.1,0.8-1.1c0.1,0,0.2,0.1,0.2,0.2c0,0.2-0.3,0.3-0.4,0.5
					c-0.1,0.1-0.1,0.3-0.3,0.5C27.3-207.2,27-207.3,27-207.5L27-207.5z"/>
			</g>
		</g>
		<g>
			<g>
				<defs>
					<path id="XMLID_32_" d="M25.6-201.2c-0.2-0.5-0.8-0.6-1.2-0.2c-0.6,0.7-1.4,1.8-1.4,3.4c0,1.5,2.9,1.7,3.1,0.3
						C26.2-198.6,26.1-199.8,25.6-201.2z"/>
				</defs>
				<use xlink:href="#XMLID_32_"  style="overflow:visible;fill:#63CADB;"/>
				<clipPath id="XMLID_00000151539940000636179480000016976057075179229373_">
					<use xlink:href="#XMLID_32_"  style="overflow:visible;"/>
				</clipPath>
				<path style="opacity:0.14;clip-path:url(#XMLID_00000151539940000636179480000016976057075179229373_);fill:#56B1BA;" d="
					M25.6-201.2c-0.1-0.3-0.3-0.4-0.6-0.5c0.4,1.3,0.5,2.4,0.4,3.2c-0.1,1-1.5,1.2-2.4,0.7c0.4,1.2,2.9,1.3,3.1-0.1
					C26.2-198.6,26.1-199.8,25.6-201.2z"/>
			</g>
			<g class="st82">
				<path class="st17" d="M24-199.8c-0.1-0.5,0.3-1.1,0.8-1.1c0.1,0,0.2,0.1,0.2,0.2c0,0.2-0.3,0.3-0.4,0.5
					c-0.1,0.1-0.1,0.3-0.3,0.5C24.3-199.6,24-199.6,24-199.8L24-199.8z"/>
			</g>
		</g>
		<g class="st16">
			<path class="st17" d="M60.4-227c0.1,6.1,0.3,11.6,1.3,17.6c0.2,1.1-1.1,2-2,1.3c-4.6-3.3-5.7-9.9-4.1-15c0.5-1.4,2.4-6.4,4.4-4.8
				C60.3-227.7,60.4-227.3,60.4-227L60.4-227z"/>
		</g>
	</g>
	<circle class="st97" cx="299.9" cy="-92.1" r="6.9"/>
	<path class="st97" d="M299.9-94.8v2.8l1.7,1.7"/>
</g>
</svg>
