<?xml version="1.0" encoding="utf-8"?>
<!-- Generator: Adobe Illustrator 27.3.1, SVG Export Plug-In . SVG Version: 6.00 Build 0)  -->
<svg version="1.1" id="Layer_1" xmlns="http://www.w3.org/2000/svg" xmlns:xlink="http://www.w3.org/1999/xlink" x="0px" y="0px"
	 viewBox="0 0 170.9 42.2" style="enable-background:new 0 0 170.9 42.2;" xml:space="preserve">
<style type="text/css">
	.st0{fill:#23B9AA;}
	.st1{fill:#2894AC;}
</style>
<g>
	<path class="st0" d="M58.2-32.9V-20c12.3-1.3,22.2-10.5,24.6-22.5h-15C62.4-42.5,58.2-38.2,58.2-32.9"/>
	<path class="st0" d="M27.2-48.9h15.1c5.3,0,9.6-4.3,9.6-9.6V-74c0-0.6-0.1-1.2-0.2-1.7C38.1-74,27.6-62.7,27.2-48.9"/>
	<path class="st1" d="M67.7-48.9h15.5C82.7-63,71.9-74.4,58.1-75.8c0.1,0.6,0.1,1.2,0.1,1.8v15.6c0,8.8-7.2,16-16,16H27.7
		c2.3,11.8,12,20.9,24.1,22.4v-12.9C51.7-41.7,58.9-48.9,67.7-48.9"/>
</g>
<g>
	<g>
		<path class="st1" d="M51,17V1.5h3.4V17H51z M52.6,17v-2.8h4.5c0.9,0,1.6-0.2,2.2-0.6c0.6-0.4,1-0.9,1.3-1.7
			c0.3-0.7,0.4-1.6,0.4-2.7c0-0.9-0.1-1.6-0.3-2.3c-0.2-0.6-0.5-1.2-0.8-1.6c-0.4-0.4-0.8-0.7-1.4-0.9c-0.6-0.2-1.2-0.3-2-0.3h-4
			V1.5h3.9c1.9,0,3.4,0.3,4.6,0.9c1.2,0.6,2.1,1.5,2.6,2.6c0.6,1.1,0.8,2.5,0.8,4.1c0,1.2-0.1,2.2-0.4,3.1c-0.3,0.9-0.7,1.6-1.1,2.2
			c-0.5,0.6-1,1.1-1.7,1.5c-0.6,0.4-1.3,0.7-2,0.8C58.7,17,57.9,17,57.2,17H52.6z"/>
		<path class="st1" d="M66.7,17v-6V4.7h2.8l0,4.2H70c0.1-1.1,0.3-1.9,0.6-2.6c0.3-0.7,0.7-1.1,1.3-1.5c0.5-0.3,1.2-0.5,2-0.5
			c0.1,0,0.3,0,0.5,0c0.2,0,0.4,0,0.6,0.1l-0.1,3.6c-0.2-0.1-0.5-0.2-0.8-0.2c-0.3,0-0.5-0.1-0.8-0.1c-0.6,0-1.1,0.1-1.6,0.4
			c-0.4,0.3-0.8,0.7-1.1,1.2c-0.3,0.5-0.5,1.2-0.6,1.9V17H66.7z"/>
		<path class="st1" d="M75.9,17.3c-0.7,0-1.3-0.2-1.7-0.5c-0.4-0.3-0.6-0.8-0.6-1.5c0-0.7,0.2-1.2,0.6-1.5c0.4-0.3,0.9-0.5,1.7-0.5
			c0.8,0,1.3,0.2,1.7,0.5c0.4,0.3,0.6,0.8,0.6,1.5C78.1,16.7,77.3,17.3,75.9,17.3z"/>
		<path class="st1" d="M84.6,17V1.5h3.4V17H84.6z M86.2,4.4V1.5h9.9v2.9H86.2z M86.2,11.2V8.5h9.1v2.8H86.2z"/>
		<path class="st1" d="M99.9,17.4c-0.7,0-1.3-0.1-1.8-0.4c-0.5-0.3-0.9-0.7-1.2-1.2c-0.3-0.5-0.4-1.2-0.4-1.9c0-0.7,0.1-1.2,0.4-1.7
			c0.3-0.5,0.6-0.8,1.1-1.1c0.5-0.3,1.1-0.5,1.9-0.7c0.7-0.2,1.6-0.4,2.5-0.5c0.5-0.1,0.9-0.2,1.2-0.2c0.3-0.1,0.6-0.2,0.7-0.4
			c0.2-0.2,0.2-0.4,0.2-0.7c0-0.4-0.2-0.8-0.5-1.1c-0.3-0.3-0.8-0.5-1.5-0.5c-0.5,0-0.9,0.1-1.3,0.2c-0.4,0.2-0.7,0.4-1,0.7
			c-0.3,0.3-0.5,0.7-0.6,1.2l-3-0.9c0.2-0.6,0.5-1.2,0.8-1.7c0.4-0.5,0.8-0.9,1.3-1.2c0.5-0.3,1.1-0.6,1.7-0.7
			c0.6-0.2,1.3-0.2,2.1-0.2c1.2,0,2.2,0.2,3,0.6c0.8,0.4,1.3,1,1.7,1.8c0.4,0.8,0.6,1.8,0.6,3.1V12c0,0.5,0,1.1,0,1.7
			c0,0.6,0.1,1.1,0.1,1.7c0,0.6,0.1,1.1,0.1,1.7h-3c-0.1-0.4-0.1-0.8-0.2-1.4c-0.1-0.5-0.1-1-0.1-1.5h-0.4c-0.2,0.6-0.5,1.1-0.9,1.6
			c-0.4,0.5-0.9,0.9-1.5,1.2C101.3,17.2,100.7,17.4,99.9,17.4z M101.3,14.9c0.3,0,0.6-0.1,0.9-0.2c0.3-0.1,0.6-0.3,0.9-0.5
			c0.3-0.2,0.6-0.4,0.8-0.7c0.2-0.3,0.4-0.6,0.6-1l0-2l0.5,0.1c-0.3,0.2-0.6,0.4-1,0.5c-0.4,0.1-0.8,0.2-1.2,0.3
			c-0.4,0.1-0.8,0.1-1.2,0.2c-0.4,0.1-0.7,0.2-1,0.3c-0.3,0.1-0.5,0.3-0.7,0.5c-0.2,0.2-0.3,0.5-0.3,0.9c0,0.5,0.2,0.9,0.5,1.2
			C100.4,14.8,100.8,14.9,101.3,14.9z"/>
		<path class="st1" d="M110.2,17V9.3V0.2h3.4v3.9c0,0.3,0,0.6,0,1c0,0.3-0.1,0.7-0.1,1c-0.1,0.4-0.1,0.7-0.2,1.1
			c-0.1,0.4-0.1,0.7-0.2,1.1h0.5c0.2-0.8,0.5-1.5,0.8-2.1c0.3-0.6,0.8-1,1.3-1.4c0.5-0.3,1.2-0.5,2-0.5c1.4,0,2.5,0.5,3.2,1.5
			c0.7,1,1.1,2.6,1.1,4.6V17h-3.4v-6c0-1.3-0.2-2.3-0.6-2.9c-0.4-0.6-1-1-1.7-1c-0.6,0-1.1,0.2-1.6,0.6c-0.4,0.4-0.7,0.9-0.9,1.5
			c-0.2,0.6-0.3,1.3-0.4,2.1V17H110.2z"/>
		<path class="st1" d="M130.2,17.4c-1,0-1.9-0.1-2.7-0.4c-0.8-0.3-1.5-0.7-2-1.2c-0.5-0.5-1-1.2-1.3-2c-0.3-0.8-0.4-1.7-0.4-2.7
			c0-1,0.1-1.9,0.4-2.7c0.3-0.8,0.7-1.5,1.2-2.1c0.5-0.6,1.2-1.1,2-1.4c0.8-0.3,1.6-0.5,2.6-0.5c0.9,0,1.8,0.2,2.5,0.5
			c0.7,0.3,1.4,0.8,1.8,1.4c0.5,0.6,0.9,1.4,1.1,2.2c0.2,0.9,0.3,1.9,0.2,3l-9.7,0.1V9.7l7.7-0.1l-1.2,0.9c0.1-0.8,0.1-1.5-0.2-2
			c-0.2-0.5-0.5-0.9-1-1.2C131,7.1,130.5,7,130,7c-0.6,0-1.1,0.2-1.6,0.5c-0.5,0.3-0.8,0.8-1.1,1.4c-0.3,0.6-0.4,1.3-0.4,2.2
			c0,1.3,0.3,2.3,0.9,2.9c0.6,0.6,1.4,0.9,2.3,0.9c0.4,0,0.8-0.1,1.1-0.2c0.3-0.1,0.6-0.3,0.8-0.5c0.2-0.2,0.4-0.4,0.5-0.6
			c0.1-0.2,0.2-0.5,0.3-0.7l2.9,0.6c-0.1,0.6-0.3,1.1-0.6,1.6c-0.3,0.5-0.6,0.9-1.1,1.2c-0.5,0.3-1,0.6-1.6,0.8
			C131.8,17.3,131,17.4,130.2,17.4z"/>
		<path class="st1" d="M143.4,17.4c-1,0-1.9-0.1-2.7-0.4c-0.8-0.3-1.5-0.7-2-1.2c-0.5-0.5-1-1.2-1.3-2c-0.3-0.8-0.4-1.7-0.4-2.7
			c0-1,0.1-1.9,0.4-2.7c0.3-0.8,0.7-1.5,1.2-2.1c0.5-0.6,1.2-1.1,2-1.4c0.8-0.3,1.6-0.5,2.6-0.5c0.9,0,1.8,0.2,2.5,0.5
			c0.7,0.3,1.4,0.8,1.8,1.4c0.5,0.6,0.9,1.4,1.1,2.2c0.2,0.9,0.3,1.9,0.2,3l-9.7,0.1V9.7l7.7-0.1l-1.2,0.9c0.1-0.8,0.1-1.5-0.2-2
			c-0.2-0.5-0.5-0.9-1-1.2c-0.4-0.3-0.9-0.4-1.4-0.4c-0.6,0-1.1,0.2-1.6,0.5c-0.5,0.3-0.8,0.8-1.1,1.4c-0.3,0.6-0.4,1.3-0.4,2.2
			c0,1.3,0.3,2.3,0.9,2.9c0.6,0.6,1.4,0.9,2.3,0.9c0.4,0,0.8-0.1,1.1-0.2c0.3-0.1,0.6-0.3,0.8-0.5c0.2-0.2,0.4-0.4,0.5-0.6
			s0.2-0.5,0.3-0.7l2.9,0.6c-0.1,0.6-0.3,1.1-0.6,1.6c-0.3,0.5-0.6,0.9-1.1,1.2c-0.5,0.3-1,0.6-1.6,0.8
			C145,17.3,144.2,17.4,143.4,17.4z"/>
		<path class="st1" d="M150.7,17V9.1V4.7h2.7v3.7h0.4c0.2-0.9,0.5-1.7,0.9-2.2c0.4-0.6,0.8-1,1.3-1.3c0.5-0.3,1.1-0.4,1.8-0.4
			c0.7,0,1.3,0.2,1.8,0.5c0.5,0.3,0.9,0.8,1.1,1.4c0.3,0.6,0.4,1.3,0.5,2.2h0.4c0.2-0.9,0.6-1.7,1-2.3c0.4-0.6,0.9-1,1.4-1.3
			c0.6-0.3,1.2-0.4,1.8-0.4c0.7,0,1.3,0.1,1.8,0.4c0.5,0.3,0.9,0.7,1.3,1.2c0.3,0.5,0.6,1.2,0.8,2c0.2,0.8,0.3,1.7,0.3,2.7V17h-3.4
			v-6c0-0.8-0.1-1.6-0.2-2.1c-0.1-0.6-0.4-1-0.7-1.3c-0.3-0.3-0.7-0.4-1.2-0.4c-0.5,0-1,0.2-1.3,0.5c-0.4,0.4-0.7,0.8-0.9,1.4
			c-0.2,0.6-0.3,1.3-0.4,2.1V17h-3.3v-5.9c0-0.9-0.1-1.6-0.2-2.2c-0.2-0.6-0.4-1-0.7-1.3c-0.3-0.3-0.7-0.4-1.1-0.4
			c-0.5,0-1,0.2-1.4,0.5c-0.4,0.4-0.7,0.8-0.9,1.5c-0.2,0.6-0.3,1.3-0.3,2.1V17H150.7z"/>
	</g>
	<g>
		<path class="st1" d="M51,37.2V21.7h4.4l7,11h0.3l-0.2-11h3.3v15.5h-4l-7.4-11.5h-0.3l0.2,11.5H51z"/>
		<path class="st1" d="M71.3,37.5c-0.7,0-1.3-0.1-1.8-0.4c-0.5-0.3-0.9-0.7-1.2-1.2c-0.3-0.5-0.4-1.2-0.4-1.9c0-0.7,0.1-1.2,0.4-1.7
			c0.3-0.5,0.6-0.8,1.1-1.1c0.5-0.3,1.1-0.5,1.9-0.7c0.7-0.2,1.6-0.4,2.5-0.5c0.5-0.1,0.9-0.2,1.2-0.2c0.3-0.1,0.6-0.2,0.7-0.4
			c0.2-0.2,0.2-0.4,0.2-0.7c0-0.4-0.2-0.8-0.5-1.1c-0.3-0.3-0.8-0.5-1.5-0.5c-0.5,0-0.9,0.1-1.3,0.2c-0.4,0.2-0.7,0.4-1,0.7
			c-0.3,0.3-0.5,0.7-0.6,1.2l-3-0.9c0.2-0.6,0.5-1.2,0.8-1.7c0.4-0.5,0.8-0.9,1.3-1.2c0.5-0.3,1.1-0.6,1.7-0.7
			c0.6-0.2,1.3-0.2,2.1-0.2c1.2,0,2.2,0.2,3,0.6c0.8,0.4,1.3,1,1.7,1.8c0.4,0.8,0.6,1.8,0.6,3.1v2.1c0,0.5,0,1.1,0,1.7
			c0,0.6,0.1,1.1,0.1,1.7c0,0.6,0.1,1.1,0.1,1.7h-3c-0.1-0.4-0.1-0.8-0.2-1.4c-0.1-0.5-0.1-1-0.1-1.5h-0.4c-0.2,0.6-0.5,1.1-0.9,1.6
			c-0.4,0.5-0.9,0.9-1.5,1.2C72.7,37.4,72.1,37.5,71.3,37.5z M72.7,35.1c0.3,0,0.6-0.1,0.9-0.2c0.3-0.1,0.6-0.3,0.9-0.5
			c0.3-0.2,0.6-0.4,0.8-0.7c0.2-0.3,0.4-0.6,0.6-1l0-2l0.5,0.1c-0.3,0.2-0.6,0.4-1,0.5c-0.4,0.1-0.8,0.2-1.2,0.3
			c-0.4,0.1-0.8,0.1-1.2,0.2c-0.4,0.1-0.7,0.2-1,0.3c-0.3,0.1-0.5,0.3-0.7,0.5c-0.2,0.2-0.3,0.5-0.3,0.9c0,0.5,0.2,0.9,0.5,1.2
			C71.8,34.9,72.2,35.1,72.7,35.1z"/>
		<path class="st1" d="M80.6,41.9c-0.1,0-0.2,0-0.3,0c-0.1,0-0.2,0-0.3-0.1L79.7,39c0.7,0,1.2-0.1,1.5-0.4s0.5-0.7,0.5-1.4V24.8h3.4
			v12.5c0,0.8-0.1,1.5-0.3,2.1s-0.5,1.1-0.9,1.4c-0.4,0.4-0.8,0.6-1.4,0.8C82,41.8,81.3,41.9,80.6,41.9z M83.4,23
			c-0.7,0-1.2-0.1-1.5-0.4c-0.4-0.3-0.5-0.7-0.5-1.2c0-0.5,0.2-1,0.5-1.2c0.4-0.3,0.9-0.4,1.5-0.4c0.7,0,1.2,0.1,1.5,0.4
			c0.4,0.3,0.5,0.7,0.5,1.2c0,0.5-0.2,0.9-0.5,1.2C84.6,22.8,84.1,23,83.4,23z"/>
		<path class="st1" d="M93.4,37.5c-1,0-1.9-0.1-2.7-0.4c-0.8-0.3-1.5-0.7-2-1.2c-0.5-0.5-1-1.2-1.3-2c-0.3-0.8-0.4-1.7-0.4-2.7
			c0-1,0.1-1.9,0.4-2.7c0.3-0.8,0.7-1.5,1.2-2.1c0.5-0.6,1.2-1.1,2-1.4c0.8-0.3,1.6-0.5,2.6-0.5c0.9,0,1.8,0.2,2.5,0.5
			c0.7,0.3,1.4,0.8,1.8,1.4c0.5,0.6,0.9,1.4,1.1,2.2c0.2,0.9,0.3,1.9,0.2,3l-9.7,0.1v-1.9l7.7-0.1l-1.2,0.9c0.1-0.8,0.1-1.5-0.2-2
			c-0.2-0.5-0.5-0.9-1-1.2c-0.4-0.3-0.9-0.4-1.4-0.4c-0.6,0-1.1,0.2-1.6,0.5c-0.5,0.3-0.8,0.8-1.1,1.4c-0.3,0.6-0.4,1.3-0.4,2.2
			c0,1.3,0.3,2.3,0.9,2.9c0.6,0.6,1.4,0.9,2.3,0.9c0.4,0,0.8-0.1,1.1-0.2c0.3-0.1,0.6-0.3,0.8-0.5c0.2-0.2,0.4-0.4,0.5-0.6
			c0.1-0.2,0.2-0.5,0.3-0.7l2.9,0.6c-0.1,0.6-0.3,1.1-0.6,1.6c-0.3,0.5-0.6,0.9-1.1,1.2c-0.5,0.3-1,0.6-1.6,0.8
			C95,37.4,94.2,37.5,93.4,37.5z"/>
		<path class="st1" d="M106.6,37.5c-1,0-1.9-0.1-2.7-0.4c-0.8-0.3-1.5-0.7-2-1.2c-0.5-0.5-1-1.2-1.3-2c-0.3-0.8-0.4-1.7-0.4-2.7
			c0-1,0.1-1.9,0.4-2.7c0.3-0.8,0.7-1.5,1.2-2.1c0.5-0.6,1.2-1.1,2-1.4c0.8-0.3,1.6-0.5,2.6-0.5c0.9,0,1.8,0.2,2.5,0.5
			c0.7,0.3,1.4,0.8,1.8,1.4c0.5,0.6,0.9,1.4,1.1,2.2c0.2,0.9,0.3,1.9,0.2,3l-9.7,0.1v-1.9l7.7-0.1l-1.2,0.9c0.1-0.8,0.1-1.5-0.2-2
			c-0.2-0.5-0.5-0.9-1-1.2c-0.4-0.3-0.9-0.4-1.4-0.4c-0.6,0-1.1,0.2-1.6,0.5c-0.5,0.3-0.8,0.8-1.1,1.4c-0.3,0.6-0.4,1.3-0.4,2.2
			c0,1.3,0.3,2.3,0.9,2.9c0.6,0.6,1.4,0.9,2.3,0.9c0.4,0,0.8-0.1,1.1-0.2c0.3-0.1,0.6-0.3,0.8-0.5c0.2-0.2,0.4-0.4,0.5-0.6
			c0.1-0.2,0.2-0.5,0.3-0.7l2.9,0.6c-0.1,0.6-0.3,1.1-0.6,1.6c-0.3,0.5-0.6,0.9-1.1,1.2c-0.5,0.3-1,0.6-1.6,0.8
			C108.2,37.4,107.4,37.5,106.6,37.5z"/>
		<path class="st1" d="M121.4,37.5c-0.8,0-1.5-0.2-2-0.5c-0.6-0.3-1.1-0.7-1.4-1.3c-0.4-0.6-0.6-1.3-0.8-2.1h-0.4l0,3.6h-2.8v-6.1
			V20.4h3.4v4c0,0.4,0,0.8-0.1,1.2c0,0.4-0.1,0.9-0.2,1.3c-0.1,0.5-0.2,0.9-0.3,1.4h0.5c0.2-0.8,0.5-1.5,0.8-2
			c0.4-0.6,0.8-1,1.4-1.3c0.5-0.3,1.2-0.5,2-0.5c1,0,1.9,0.3,2.7,0.8c0.8,0.5,1.3,1.3,1.8,2.3c0.4,1,0.6,2.1,0.6,3.5
			c0,1.3-0.2,2.4-0.6,3.4c-0.4,1-1,1.7-1.8,2.2C123.3,37.2,122.4,37.5,121.4,37.5z M120.2,34.7c0.6,0,1.1-0.2,1.5-0.5
			c0.4-0.3,0.7-0.7,0.9-1.3c0.2-0.6,0.3-1.2,0.3-2s-0.1-1.4-0.3-2c-0.2-0.5-0.5-1-0.9-1.3c-0.4-0.3-0.9-0.5-1.4-0.5
			c-0.4,0-0.7,0.1-1,0.2c-0.3,0.1-0.6,0.3-0.8,0.6c-0.2,0.2-0.4,0.5-0.6,0.8c-0.2,0.3-0.3,0.6-0.4,1c-0.1,0.3-0.1,0.6-0.1,0.9v0.4
			c0,0.4,0.1,0.7,0.2,1.2c0.1,0.4,0.3,0.8,0.5,1.2c0.2,0.4,0.5,0.6,0.9,0.9C119.2,34.6,119.7,34.7,120.2,34.7z"/>
	</g>
	<path class="st0" d="M23.8,32.3v9.6c9.1-1,16.5-7.8,18.2-16.7H30.9C27,25.2,23.8,28.4,23.8,32.3"/>
	<path class="st0" d="M0.9,20.5h11.2c3.9,0,7.1-3.2,7.1-7.1V1.9c0-0.4,0-0.9-0.1-1.3C9,1.9,1.2,10.2,0.9,20.5"/>
	<path class="st1" d="M30.9,20.5h11.5C42.1,10.1,34,1.6,23.8,0.5c0,0.4,0.1,0.9,0.1,1.3v11.5c0,6.5-5.3,11.8-11.8,11.8H1.3
		C3,34,10.2,40.8,19.1,41.9v-9.5C19.1,25.8,24.4,20.5,30.9,20.5"/>
</g>
</svg>
